<?xml version="1.0" encoding="UTF-8" standalone="no"?>
<!-- Created with Inkscape (http://www.inkscape.org/) -->

<svg
   xmlns:dc="http://purl.org/dc/elements/1.1/"
   xmlns:cc="http://creativecommons.org/ns#"
   xmlns:rdf="http://www.w3.org/1999/02/22-rdf-syntax-ns#"
   xmlns:svg="http://www.w3.org/2000/svg"
   xmlns="http://www.w3.org/2000/svg"
   xmlns:xlink="http://www.w3.org/1999/xlink"
   version="1.1"
   width="512"
   height="512"
   id="svg2">
  <defs
     id="defs4">
    <linearGradient
       id="linearGradient3170">
      <stop
         id="stop3172"
         style="stop-color:#cc7110;stop-opacity:1"
         offset="0" />
      <stop
         id="stop3174"
         style="stop-color:#673f0b;stop-opacity:0.78448278"
         offset="1" />
    </linearGradient>
    <linearGradient
       id="linearGradient3938">
      <stop
         id="stop3940"
         style="stop-color:#b1f1ee;stop-opacity:0.93103451"
         offset="0" />
      <stop
         id="stop3942"
         style="stop-color:#132682;stop-opacity:1"
         offset="1" />
    </linearGradient>
    <linearGradient
       x1="64.477501"
       y1="56.3008"
       x2="78.466103"
       y2="48.0854"
       id="XMLID_74_-8-1"
       gradientUnits="userSpaceOnUse">
      <stop
         id="stop155-3-8"
         style="stop-color:#ffffff;stop-opacity:1"
         offset="0" />
      <stop
         id="stop157-94-6"
         style="stop-color:#e6e6e6;stop-opacity:1"
         offset="1" />
    </linearGradient>
    <radialGradient
       cx="558.35437"
       cy="385.4841"
       r="191.6187"
       fx="558.35437"
       fy="385.4841"
       id="radialGradient3867"
       xlink:href="#XMLID_74_-8-1"
       gradientUnits="userSpaceOnUse"
       gradientTransform="matrix(1,0,0,1.0499906,0,-19.270593)" />
    <linearGradient
       x1="200.0508"
       y1="185.0742"
       x2="200.0508"
       y2="217.4595"
       id="SVGID_2_"
       gradientUnits="userSpaceOnUse">
      <stop
         id="stop13"
         style="stop-color:#61b74a;stop-opacity:1"
         offset="0" />
      <stop
         id="stop15"
         style="stop-color:#449934;stop-opacity:1"
         offset="1" />
    </linearGradient>
    <linearGradient
       x1="200.0508"
       y1="185.0742"
       x2="200.0508"
       y2="217.4595"
       id="linearGradient3021"
       xlink:href="#SVGID_2_"
       gradientUnits="userSpaceOnUse"
       gradientTransform="matrix(13.577628,0,0,13.577628,-2026.1619,-2566.7096)" />
    <linearGradient
       x1="19.244999"
       y1="21.030804"
       x2="19.360001"
       y2="44.984001"
       id="linearGradient2460"
       gradientUnits="userSpaceOnUse">
      <stop
         id="stop3602"
         style="stop-color:#fafafa;stop-opacity:1"
         offset="0" />
      <stop
         id="stop3604"
         style="stop-color:#f0f0f0;stop-opacity:1"
         offset="1" />
    </linearGradient>
    <linearGradient
       x1="19.244999"
       y1="21.030804"
       x2="19.360001"
       y2="44.984001"
       id="linearGradient3096"
       xlink:href="#linearGradient2460"
       gradientUnits="userSpaceOnUse"
       gradientTransform="matrix(11.076923,0,0,11.076923,-9.8523013,-20.578025)" />
    <linearGradient
       x1="1012.5133"
       y1="484.41721"
       x2="1006.8082"
       y2="20.625916"
       id="linearGradient4114-2"
       xlink:href="#ButtonShadow-0-1-1-5"
       gradientUnits="userSpaceOnUse"
       gradientTransform="matrix(1.0317796,0,0,1.0317796,-830.86406,592.67791)" />
    <linearGradient
       x1="45.447727"
       y1="92.539597"
       x2="45.447727"
       y2="7.0165396"
       id="ButtonShadow-0-1-1-5"
       gradientUnits="userSpaceOnUse"
       gradientTransform="matrix(1.0058652,0,0,0.994169,100,0)">
      <stop
         id="stop3750-8-9-3-6"
         style="stop-color:#000000;stop-opacity:1"
         offset="0" />
      <stop
         id="stop3752-5-6-4-2"
         style="stop-color:#000000;stop-opacity:0.58823532"
         offset="1" />
    </linearGradient>
    <linearGradient
       x1="1012.5133"
       y1="484.41721"
       x2="1006.8082"
       y2="20.625916"
       id="linearGradient4112-2"
       xlink:href="#ButtonShadow-0-1-1-5"
       gradientUnits="userSpaceOnUse"
       gradientTransform="matrix(1.0402541,0,0,1.0402541,-837.95116,592.51825)" />
    <linearGradient
       x1="45.447727"
       y1="92.539597"
       x2="45.447727"
       y2="7.0165396"
       id="linearGradient5292"
       gradientUnits="userSpaceOnUse"
       gradientTransform="matrix(1.0058652,0,0,0.994169,100,0)">
      <stop
         id="stop5294"
         style="stop-color:#000000;stop-opacity:1"
         offset="0" />
      <stop
         id="stop5296"
         style="stop-color:#000000;stop-opacity:0.58823532"
         offset="1" />
    </linearGradient>
    <linearGradient
       x1="1012.5133"
       y1="484.41721"
       x2="1006.8082"
       y2="20.625916"
       id="linearGradient4110-6"
       xlink:href="#ButtonShadow-0-1-1-5"
       gradientUnits="userSpaceOnUse"
       gradientTransform="matrix(1.023305,0,0,1.023305,-823.77704,592.83757)" />
    <linearGradient
       x1="45.447727"
       y1="92.539597"
       x2="45.447727"
       y2="7.0165396"
       id="linearGradient5299"
       gradientUnits="userSpaceOnUse"
       gradientTransform="matrix(1.0058652,0,0,0.994169,100,0)">
      <stop
         id="stop5301"
         style="stop-color:#000000;stop-opacity:1"
         offset="0" />
      <stop
         id="stop5303"
         style="stop-color:#000000;stop-opacity:0.58823532"
         offset="1" />
    </linearGradient>
    <linearGradient
       x1="1012.5133"
       y1="484.41721"
       x2="1006.8082"
       y2="20.625916"
       id="linearGradient4116-6"
       xlink:href="#ButtonShadow-0-1-1-5"
       gradientUnits="userSpaceOnUse"
       gradientTransform="matrix(1.0148305,0,0,1.0148305,-816.68996,592.99723)" />
    <linearGradient
       x1="45.447727"
       y1="92.539597"
       x2="45.447727"
       y2="7.0165396"
       id="linearGradient5306"
       gradientUnits="userSpaceOnUse"
       gradientTransform="matrix(1.0058652,0,0,0.994169,100,0)">
      <stop
         id="stop5308"
         style="stop-color:#000000;stop-opacity:1"
         offset="0" />
      <stop
         id="stop5310"
         style="stop-color:#000000;stop-opacity:0.58823532"
         offset="1" />
    </linearGradient>
    <linearGradient
       x1="1012.5133"
       y1="484.41721"
       x2="1006.8082"
       y2="20.625916"
       id="linearGradient3372"
       xlink:href="#ButtonShadow-0-1-1-5"
       gradientUnits="userSpaceOnUse"
       gradientTransform="matrix(1.0074153,0,0,1.0074153,-810.48879,593.1369)" />
    <linearGradient
       x1="45.447727"
       y1="92.539597"
       x2="45.447727"
       y2="7.0165396"
       id="linearGradient5313"
       gradientUnits="userSpaceOnUse"
       gradientTransform="matrix(1.0058652,0,0,0.994169,100,0)">
      <stop
         id="stop5315"
         style="stop-color:#000000;stop-opacity:1"
         offset="0" />
      <stop
         id="stop5317"
         style="stop-color:#000000;stop-opacity:0.58823532"
         offset="1" />
    </linearGradient>
    <linearGradient
       x1="1016.1035"
       y1="476.25983"
       x2="1011.9534"
       y2="251.66064"
       id="linearGradient4082"
       xlink:href="#linearGradient4487"
       gradientUnits="userSpaceOnUse"
       gradientTransform="translate(-146.22032,369.08845)" />
    <linearGradient
       id="linearGradient4487">
      <stop
         id="stop4489"
         style="stop-color:#000000;stop-opacity:1"
         offset="0" />
      <stop
         id="stop4491"
         style="stop-color:#000000;stop-opacity:0"
         offset="1" />
    </linearGradient>
    <linearGradient
       id="linearGradient3737">
      <stop
         id="stop3739"
         style="stop-color:#ffffff;stop-opacity:1"
         offset="0" />
      <stop
         id="stop3741"
         style="stop-color:#ffffff;stop-opacity:0"
         offset="1" />
    </linearGradient>
    <linearGradient
       id="linearGradient4046">
      <stop
         id="stop4048"
         style="stop-color:#000000;stop-opacity:1"
         offset="0" />
      <stop
         id="stop4050"
         style="stop-color:#ffffff;stop-opacity:0.2"
         offset="1" />
    </linearGradient>
    <linearGradient
       x1="1012.5133"
       y1="484.41721"
       x2="1006.8082"
       y2="20.625916"
       id="linearGradient5342"
       xlink:href="#ButtonShadow-0-1-1-5"
       gradientUnits="userSpaceOnUse"
       gradientTransform="matrix(1.0074153,0,0,1.0074153,-810.48879,593.1369)" />
    <linearGradient
       x1="1012.5133"
       y1="484.41721"
       x2="1006.8082"
       y2="20.625916"
       id="linearGradient4114-2-6"
       xlink:href="#ButtonShadow-0-1-1-5-9"
       gradientUnits="userSpaceOnUse"
       gradientTransform="matrix(1.0317796,0,0,1.0317796,-830.86406,592.67791)" />
    <linearGradient
       x1="45.447727"
       y1="92.539597"
       x2="45.447727"
       y2="7.0165396"
       id="ButtonShadow-0-1-1-5-9"
       gradientUnits="userSpaceOnUse"
       gradientTransform="matrix(1.0058652,0,0,0.994169,100,0)">
      <stop
         id="stop3750-8-9-3-6-4"
         style="stop-color:#000000;stop-opacity:1"
         offset="0" />
      <stop
         id="stop3752-5-6-4-2-9"
         style="stop-color:#000000;stop-opacity:0.58823532"
         offset="1" />
    </linearGradient>
    <linearGradient
       x1="1012.5133"
       y1="484.41721"
       x2="1006.8082"
       y2="20.625916"
       id="linearGradient4112-2-6"
       xlink:href="#ButtonShadow-0-1-1-5-9"
       gradientUnits="userSpaceOnUse"
       gradientTransform="matrix(1.0402541,0,0,1.0402541,-837.95116,592.51825)" />
    <linearGradient
       x1="45.447727"
       y1="92.539597"
       x2="45.447727"
       y2="7.0165396"
       id="linearGradient5292-5"
       gradientUnits="userSpaceOnUse"
       gradientTransform="matrix(1.0058652,0,0,0.994169,100,0)">
      <stop
         id="stop5294-8"
         style="stop-color:#000000;stop-opacity:1"
         offset="0" />
      <stop
         id="stop5296-4"
         style="stop-color:#000000;stop-opacity:0.58823532"
         offset="1" />
    </linearGradient>
    <linearGradient
       x1="1012.5133"
       y1="484.41721"
       x2="1006.8082"
       y2="20.625916"
       id="linearGradient4110-6-7"
       xlink:href="#ButtonShadow-0-1-1-5-9"
       gradientUnits="userSpaceOnUse"
       gradientTransform="matrix(1.023305,0,0,1.023305,-823.77704,592.83757)" />
    <linearGradient
       x1="45.447727"
       y1="92.539597"
       x2="45.447727"
       y2="7.0165396"
       id="linearGradient5299-2"
       gradientUnits="userSpaceOnUse"
       gradientTransform="matrix(1.0058652,0,0,0.994169,100,0)">
      <stop
         id="stop5301-9"
         style="stop-color:#000000;stop-opacity:1"
         offset="0" />
      <stop
         id="stop5303-1"
         style="stop-color:#000000;stop-opacity:0.58823532"
         offset="1" />
    </linearGradient>
    <linearGradient
       x1="1012.5133"
       y1="484.41721"
       x2="1006.8082"
       y2="20.625916"
       id="linearGradient4116-6-3"
       xlink:href="#ButtonShadow-0-1-1-5-9"
       gradientUnits="userSpaceOnUse"
       gradientTransform="matrix(1.0148305,0,0,1.0148305,-816.68996,592.99723)" />
    <linearGradient
       x1="45.447727"
       y1="92.539597"
       x2="45.447727"
       y2="7.0165396"
       id="linearGradient5306-9"
       gradientUnits="userSpaceOnUse"
       gradientTransform="matrix(1.0058652,0,0,0.994169,100,0)">
      <stop
         id="stop5308-0"
         style="stop-color:#000000;stop-opacity:1"
         offset="0" />
      <stop
         id="stop5310-6"
         style="stop-color:#000000;stop-opacity:0.58823532"
         offset="1" />
    </linearGradient>
    <linearGradient
       x1="1012.5133"
       y1="484.41721"
       x2="1006.8082"
       y2="20.625916"
       id="linearGradient3372-9"
       xlink:href="#ButtonShadow-0-1-1-5-9"
       gradientUnits="userSpaceOnUse"
       gradientTransform="matrix(1.0074153,0,0,1.0074153,-810.48879,593.1369)" />
    <linearGradient
       x1="45.447727"
       y1="92.539597"
       x2="45.447727"
       y2="7.0165396"
       id="linearGradient5313-8"
       gradientUnits="userSpaceOnUse"
       gradientTransform="matrix(1.0058652,0,0,0.994169,100,0)">
      <stop
         id="stop5315-8"
         style="stop-color:#000000;stop-opacity:1"
         offset="0" />
      <stop
         id="stop5317-1"
         style="stop-color:#000000;stop-opacity:0.58823532"
         offset="1" />
    </linearGradient>
    <linearGradient
       x1="1016.1035"
       y1="476.25983"
       x2="1011.9534"
       y2="251.66064"
       id="linearGradient4082-7"
       xlink:href="#linearGradient4487-8"
       gradientUnits="userSpaceOnUse"
       gradientTransform="translate(-146.22032,369.08845)" />
    <linearGradient
       id="linearGradient4487-8">
      <stop
         id="stop4489-0"
         style="stop-color:#000000;stop-opacity:1"
         offset="0" />
      <stop
         id="stop4491-4"
         style="stop-color:#000000;stop-opacity:0"
         offset="1" />
    </linearGradient>
    <linearGradient
       x1="993.43896"
       y1="51.511765"
       x2="988.78552"
       y2="363.73825"
       id="linearGradient4084-7"
       xlink:href="#linearGradient3737-8"
       gradientUnits="userSpaceOnUse"
       gradientTransform="translate(778.59979,-360.55963)" />
    <linearGradient
       id="linearGradient3737-8">
      <stop
         id="stop3739-4"
         style="stop-color:#ffffff;stop-opacity:1"
         offset="0" />
      <stop
         id="stop3741-7"
         style="stop-color:#ffffff;stop-opacity:0"
         offset="1" />
    </linearGradient>
    <linearGradient
       x1="1764.6487"
       y1="155.59685"
       x2="1763.6903"
       y2="-55.941216"
       id="linearGradient4086-1"
       xlink:href="#linearGradient4046-2"
       gradientUnits="userSpaceOnUse" />
    <linearGradient
       id="linearGradient4046-2">
      <stop
         id="stop4048-2"
         style="stop-color:#000000;stop-opacity:1"
         offset="0" />
      <stop
         id="stop4050-7"
         style="stop-color:#ffffff;stop-opacity:0.2"
         offset="1" />
    </linearGradient>
    <linearGradient
       x1="1012.5133"
       y1="484.41721"
       x2="1006.8082"
       y2="20.625916"
       id="linearGradient5342-3"
       xlink:href="#ButtonShadow-0-1-1-5-9"
       gradientUnits="userSpaceOnUse"
       gradientTransform="matrix(1.0074153,0,0,1.0074153,-810.48879,593.1369)" />
    <linearGradient
       id="linearGradient4487-1">
      <stop
         id="stop4489-6"
         style="stop-color:#000000;stop-opacity:1"
         offset="0" />
      <stop
         id="stop4491-0"
         style="stop-color:#000000;stop-opacity:0"
         offset="1" />
    </linearGradient>
    <linearGradient
       x1="993.43896"
       y1="51.511765"
       x2="988.78552"
       y2="363.73825"
       id="linearGradient4084-8"
       xlink:href="#linearGradient3737-9"
       gradientUnits="userSpaceOnUse"
       gradientTransform="translate(778.59979,-360.55963)" />
    <linearGradient
       id="linearGradient3737-9">
      <stop
         id="stop3739-7"
         style="stop-color:#ffffff;stop-opacity:1"
         offset="0" />
      <stop
         id="stop3741-4"
         style="stop-color:#ffffff;stop-opacity:0"
         offset="1" />
    </linearGradient>
    <linearGradient
       x1="1764.6487"
       y1="155.59685"
       x2="1763.6903"
       y2="-55.941216"
       id="linearGradient4086-12"
       xlink:href="#linearGradient4046-3"
       gradientUnits="userSpaceOnUse" />
    <linearGradient
       id="linearGradient4046-3">
      <stop
         id="stop4048-7"
         style="stop-color:#000000;stop-opacity:1"
         offset="0" />
      <stop
         id="stop4050-73"
         style="stop-color:#ffffff;stop-opacity:0.2"
         offset="1" />
    </linearGradient>
    <linearGradient
       id="linearGradient2760">
      <stop
         id="stop2770"
         style="stop-color:#ffffff;stop-opacity:1"
         offset="0" />
      <stop
         id="stop2764"
         style="stop-color:#a9a9a9;stop-opacity:1"
         offset="1" />
    </linearGradient>
    <linearGradient
       id="linearGradient4846">
      <stop
         id="stop4848"
         style="stop-color:#1a1a1a;stop-opacity:1"
         offset="0" />
      <stop
         id="stop4856"
         style="stop-color:#1e1e1e;stop-opacity:1"
         offset="1" />
    </linearGradient>
    <linearGradient
       id="linearGradient4922">
      <stop
         id="stop4924"
         style="stop-color:#1a1a1a;stop-opacity:1"
         offset="0" />
      <stop
         id="stop4926"
         style="stop-color:#636363;stop-opacity:1"
         offset="0.15622118" />
      <stop
         id="stop4928"
         style="stop-color:#b4b4b4;stop-opacity:1"
         offset="0.33151907" />
      <stop
         id="stop4930"
         style="stop-color:#636363;stop-opacity:1"
         offset="0.53579742" />
      <stop
         id="stop4932"
         style="stop-color:#000000;stop-opacity:1"
         offset="1" />
    </linearGradient>
    <linearGradient
       x1="201.33115"
       y1="152.12039"
       x2="166.77547"
       y2="110.85986"
       id="linearGradient4884"
       xlink:href="#linearGradient4888"
       gradientUnits="userSpaceOnUse"
       gradientTransform="matrix(1.2757694,0,0,1.2757694,-135.89444,2.4500392)"
       spreadMethod="reflect" />
    <linearGradient
       id="linearGradient4888">
      <stop
         id="stop4892"
         style="stop-color:#c0821c;stop-opacity:1"
         offset="0" />
      <stop
         id="stop4894"
         style="stop-color:#e4ae48;stop-opacity:1"
         offset="1" />
    </linearGradient>
    <linearGradient
       x1="13.021049"
       y1="160.82593"
       x2="258.22205"
       y2="158.47191"
       id="linearGradient4882"
       xlink:href="#linearGradient4898"
       gradientUnits="userSpaceOnUse" />
    <linearGradient
       id="linearGradient4898">
      <stop
         id="stop4900"
         style="stop-color:#d78617;stop-opacity:1"
         offset="0" />
      <stop
         id="stop4902"
         style="stop-color:#5c1234;stop-opacity:1"
         offset="1" />
    </linearGradient>
    <linearGradient
       x1="45.447727"
       y1="92.539597"
       x2="45.447727"
       y2="7.0165396"
       id="ButtonShadow"
       gradientUnits="userSpaceOnUse"
       gradientTransform="scale(1.0058652,0.994169)">
      <stop
         id="stop3750"
         style="stop-color:#000000;stop-opacity:1"
         offset="0" />
      <stop
         id="stop3752"
         style="stop-color:#000000;stop-opacity:0.58823532"
         offset="1" />
    </linearGradient>
    <filter
       color-interpolation-filters="sRGB"
       id="filter3174">
      <feGaussianBlur
         stdDeviation="1.71"
         id="feGaussianBlur3176" />
    </filter>
    <linearGradient
       id="linearGradient10386">
      <stop
         id="stop10388"
         style="stop-color:#ffffff;stop-opacity:1"
         offset="0" />
      <stop
         id="stop10390"
         style="stop-color:#ffffff;stop-opacity:0"
         offset="1" />
    </linearGradient>
    <linearGradient
       x1="212.86353"
       y1="11.425488"
       x2="214.26566"
       y2="168.28262"
       id="linearGradient8264"
       xlink:href="#linearGradient2760"
       gradientUnits="userSpaceOnUse"
       gradientTransform="matrix(1.8464564,0,0,1.8464564,-123.73343,86.826257)"
       spreadMethod="reflect" />
    <linearGradient
       x1="18.930269"
       y1="6.2951212"
       x2="19.360001"
       y2="36.643665"
       id="linearGradient3157"
       xlink:href="#linearGradient2460"
       gradientUnits="userSpaceOnUse"
       gradientTransform="matrix(12.102564,0,0,12.102564,-34.468255,-46.187105)" />
    <linearGradient
       x1="0"
       y1="0"
       x2="1"
       y2="1"
       id="acyl_gradient"
       xlink:href="#linearGradient4321" />
    <linearGradient
       id="linearGradient4321">
      <stop
         id="stop1"
         style="stop-color:#ee0c0c;stop-opacity:1"
         offset="0" />
      <stop
         id="stop2"
         style="stop-color:#7a0404;stop-opacity:1"
         offset="1" />
    </linearGradient>
    <radialGradient
       cx="94.710419"
       cy="98.692879"
       r="150"
       fx="94.710419"
       fy="98.692879"
       id="radialGradient3928"
       xlink:href="#linearGradient4321"
       gradientUnits="userSpaceOnUse"
       gradientTransform="matrix(2.4249551,-0.00787504,0.00770263,2.3718665,-135.71828,-134.64744)" />
    <radialGradient
       cx="94.710419"
       cy="98.692879"
       r="150"
       fx="94.710419"
       fy="98.692879"
       id="radialGradient3932"
       xlink:href="#linearGradient4321"
       gradientUnits="userSpaceOnUse"
       gradientTransform="matrix(2.4249551,-0.00787504,0.00770263,2.3718665,-135.71828,-134.64744)" />
    <radialGradient
       cx="110.73653"
       cy="112.57468"
       r="150"
       fx="110.73653"
       fy="112.57468"
       id="radialGradient3140"
       xlink:href="#linearGradient3938"
       gradientUnits="userSpaceOnUse"
       gradientTransform="matrix(1.6533901,0.0060994,-0.00539655,1.4623231,-50.506611,-35.439162)" />
    <linearGradient
       x1="-112.34483"
       y1="572.44672"
       x2="-109.97469"
       y2="107.89955"
       id="linearGradient5925"
       xlink:href="#ButtonShadow-0-1-1-5-9-5"
       gradientUnits="userSpaceOnUse"
       gradientTransform="matrix(1.0074417,0,0,1.0074152,261.62679,527.41078)" />
    <linearGradient
       x1="45.447727"
       y1="92.539597"
       x2="45.447727"
       y2="7.0165396"
       id="ButtonShadow-0-1-1-5-9-5"
       gradientUnits="userSpaceOnUse"
       gradientTransform="matrix(1.0058652,0,0,0.994169,100,0)">
      <stop
         id="stop3750-8-9-3-6-4-0"
         style="stop-color:#000000;stop-opacity:1"
         offset="0" />
      <stop
         id="stop3752-5-6-4-2-9-8"
         style="stop-color:#000000;stop-opacity:0.58823532"
         offset="1" />
    </linearGradient>
    <linearGradient
       x1="-112.34483"
       y1="572.44672"
       x2="-109.97469"
       y2="107.89955"
       id="linearGradient5927"
       xlink:href="#ButtonShadow-0-1-1-5-9-5"
       gradientUnits="userSpaceOnUse"
       gradientTransform="matrix(1.0318068,0,0,1.0317796,268.77841,524.78354)" />
    <linearGradient
       x1="45.447727"
       y1="92.539597"
       x2="45.447727"
       y2="7.0165396"
       id="linearGradient3129"
       gradientUnits="userSpaceOnUse"
       gradientTransform="matrix(1.0058652,0,0,0.994169,100,0)">
      <stop
         id="stop3131"
         style="stop-color:#000000;stop-opacity:1"
         offset="0" />
      <stop
         id="stop3133"
         style="stop-color:#000000;stop-opacity:0.58823532"
         offset="1" />
    </linearGradient>
    <linearGradient
       x1="-112.34483"
       y1="572.44672"
       x2="-109.97469"
       y2="107.89955"
       id="linearGradient5929"
       xlink:href="#ButtonShadow-0-1-1-5-9-5"
       gradientUnits="userSpaceOnUse"
       gradientTransform="matrix(1.0148572,0,0,1.0148305,263.80369,526.61118)" />
    <linearGradient
       x1="45.447727"
       y1="92.539597"
       x2="45.447727"
       y2="7.0165396"
       id="linearGradient3136"
       gradientUnits="userSpaceOnUse"
       gradientTransform="matrix(1.0058652,0,0,0.994169,100,0)">
      <stop
         id="stop3138"
         style="stop-color:#000000;stop-opacity:1"
         offset="0" />
      <stop
         id="stop3140"
         style="stop-color:#000000;stop-opacity:0.58823532"
         offset="1" />
    </linearGradient>
    <linearGradient
       x1="-112.34483"
       y1="572.44672"
       x2="-109.97469"
       y2="107.89955"
       id="linearGradient5931"
       xlink:href="#ButtonShadow-0-1-1-5-9-5"
       gradientUnits="userSpaceOnUse"
       gradientTransform="matrix(1.023332,0,0,1.023305,266.29153,525.69736)" />
    <linearGradient
       x1="45.447727"
       y1="92.539597"
       x2="45.447727"
       y2="7.0165396"
       id="linearGradient3143"
       gradientUnits="userSpaceOnUse"
       gradientTransform="matrix(1.0058652,0,0,0.994169,100,0)">
      <stop
         id="stop3145"
         style="stop-color:#000000;stop-opacity:1"
         offset="0" />
      <stop
         id="stop3147"
         style="stop-color:#000000;stop-opacity:0.58823532"
         offset="1" />
    </linearGradient>
    <linearGradient
       x1="-112.34483"
       y1="572.44672"
       x2="-109.97469"
       y2="107.89955"
       id="linearGradient5933"
       xlink:href="#ButtonShadow-0-1-1-5-9-5"
       gradientUnits="userSpaceOnUse"
       gradientTransform="matrix(1.0402816,0,0,1.0402542,271.26626,523.86971)" />
    <linearGradient
       x1="45.447727"
       y1="92.539597"
       x2="45.447727"
       y2="7.0165396"
       id="linearGradient3150"
       gradientUnits="userSpaceOnUse"
       gradientTransform="matrix(1.0058652,0,0,0.994169,100,0)">
      <stop
         id="stop3152"
         style="stop-color:#000000;stop-opacity:1"
         offset="0" />
      <stop
         id="stop3154"
         style="stop-color:#000000;stop-opacity:0.58823532"
         offset="1" />
    </linearGradient>
    <linearGradient
       x1="993.43896"
       y1="51.511765"
       x2="988.78552"
       y2="363.73825"
       id="linearGradient4084-8-2"
       xlink:href="#linearGradient3737-9-0"
       gradientUnits="userSpaceOnUse"
       gradientTransform="translate(-753.58716,-30.14348)" />
    <linearGradient
       id="linearGradient3737-9-0">
      <stop
         id="stop3739-7-5"
         style="stop-color:#ffffff;stop-opacity:1"
         offset="0" />
      <stop
         id="stop3741-4-2"
         style="stop-color:#ffffff;stop-opacity:0"
         offset="1" />
    </linearGradient>
    <linearGradient
       x1="1764.6487"
       y1="155.59685"
       x2="1763.6903"
       y2="-55.941216"
       id="linearGradient4086-12-9"
       xlink:href="#linearGradient4046-3-3"
       gradientUnits="userSpaceOnUse"
       gradientTransform="translate(-1532.187,330.41615)" />
    <linearGradient
       id="linearGradient4046-3-3">
      <stop
         id="stop4048-7-5"
         style="stop-color:#000000;stop-opacity:1"
         offset="0" />
      <stop
         id="stop4050-73-5"
         style="stop-color:#ffffff;stop-opacity:0.2"
         offset="1" />
    </linearGradient>
    <linearGradient
       x1="102.875"
       y1="170.42188"
       x2="153.125"
       y2="170.42188"
       id="linearGradient5071"
       xlink:href="#linearGradient5059"
       gradientUnits="userSpaceOnUse" />
    <linearGradient
       id="linearGradient5059">
      <stop
         id="stop5061"
         style="stop-color:#0b0826;stop-opacity:0.49803922"
         offset="0" />
      <stop
         id="stop5063"
         style="stop-color:#0b0826;stop-opacity:1"
         offset="1" />
    </linearGradient>
    <linearGradient
       x1="102.875"
       y1="170.42188"
       x2="153.125"
       y2="170.42188"
       id="linearGradient3985"
       xlink:href="#linearGradient5059"
       gradientUnits="userSpaceOnUse" />
    <radialGradient
       cx="244.26477"
       cy="286.95432"
       r="62.545898"
       fx="244.26477"
       fy="286.95432"
       id="radialGradient14612"
       xlink:href="#linearGradient3938"
       gradientUnits="userSpaceOnUse"
       gradientTransform="matrix(1,0,0,1.2036395,0,-58.435237)"
       spreadMethod="pad" />
    <linearGradient
       x1="20.006178"
       y1="256.00003"
       x2="491.99377"
       y2="256.00003"
       id="linearGradient5374"
       xlink:href="#linearGradient2760"
       gradientUnits="userSpaceOnUse" />
  </defs>
  <metadata
     id="metadata7">
    <rdf:RDF>
      <cc:Work
         rdf:about="">
        <dc:format>image/svg+xml</dc:format>
        <dc:type
           rdf:resource="http://purl.org/dc/dcmitype/StillImage" />
        <dc:title></dc:title>
      </cc:Work>
    </rdf:RDF>
  </metadata>
  <g
     transform="translate(0,-540.36218)"
     id="layer1" />
  <g
     transform="matrix(1.1,0,0,0.44444,95.081063,256.39254)"
     id="g2036">
    <g
       transform="matrix(1.0526,0,0,1.2857,-1.2632,-13.429)"
       id="g3712"
       style="opacity:0.4" />
  </g>
  <g
     transform="translate(97.481063,231.28154)"
     id="g3541" />
  <g
     transform="translate(97.481063,231.28154)"
     id="g3536" />
  <g
     transform="translate(-605.51932,-353.96833)"
     id="g4076">
    <g
       transform="translate(-926.66758,684.38448)"
       id="g4038" />
  </g>
  <g
     transform="translate(54.089264,-616.0416)"
     id="g5918">
    <path
       d="m 60.989673,1111.5416 144.328367,-0.2064 147.52725,-0.2409 c 49.0412,-5.1221 87.2248,-45.726 88.537,-95.8499 9e-4,-0.035 -9e-4,-0.069 0,-0.1032 9e-4,-0.414 -8e-4,-0.6473 0,-1.0665 0.042,-21.50295 0.034,-49.94202 0.034,-87.7651 l 0,-152.51368 -68.8621,-68.87715 -68.8965,-68.87715 -152.82436,0.0688 c -40.25265,0.0173 -69.340747,0.0413 -91.323117,0.10316 -50.88989,2.75481 -91.3364,43.54773 -93.49012,94.61146 -0.0987,30.63047 -0.10318,74.7573 -0.10318,143.01819 0,68.26875 0.005,112.38763 0.10312,143.01817 2.17453,51.5569 43.38652,92.644 94.96919,94.6802 z"
       id="path5873"
       style="opacity:0.25;color:#000000;fill:url(#linearGradient5925);fill-opacity:1;fill-rule:nonzero;stroke:none;stroke-width:1.5;marker:none;visibility:visible;display:inline;overflow:visible;enable-background:accumulate" />
    <path
       d="m 63.288833,1123.0416 147.818967,-0.2114 151.09521,-0.2467 c 50.2273,-5.246 89.3343,-46.8319 90.6783,-98.1681 9e-4,-0.035 -9e-4,-0.07 0,-0.1056 9e-4,-0.424 -8e-4,-0.663 0,-1.0924 0.043,-22.0229 0.035,-51.14981 0.035,-89.88764 l 0,-156.20224 -70.5276,-70.54295 -70.5627,-70.54295 -156.52046,0.0705 c -41.22616,0.0177 -71.017757,0.0423 -93.531777,0.10565 -52.12067,2.82144 -93.54538,44.60094 -95.75119,96.89965 -0.10109,31.37127 -0.10567,76.56531 -0.10567,146.47709 0,69.91984 0.005,115.10574 0.10561,146.47699 2.22712,52.804 44.43583,94.8848 97.26603,96.9702 z"
       id="path5902"
       style="opacity:0.1;color:#000000;fill:url(#linearGradient5927);fill-opacity:1;fill-rule:nonzero;stroke:none;stroke-width:1.5;marker:none;visibility:visible;display:inline;overflow:visible;enable-background:accumulate" />
    <path
       d="m 61.689723,1115.0417 145.390727,-0.2079 148.61314,-0.2427 c 49.4022,-5.1598 87.8668,-46.0626 89.1887,-96.5555 9e-4,-0.035 -9e-4,-0.069 0,-0.1039 9e-4,-0.4171 -8e-4,-0.6521 0,-1.0744 0.042,-21.66124 0.034,-50.30964 0.034,-88.41113 l 0,-153.63628 -69.369,-69.38413 -69.4036,-69.38414 -153.94925,0.0693 c -40.54894,0.0174 -69.851137,0.0416 -91.995317,0.10392 -51.26448,2.77509 -92.0087,43.86827 -94.17827,95.30786 -0.0994,30.85594 -0.10394,75.30757 -0.10394,144.07091 0,68.77125 0.005,113.21488 0.10387,144.07079 2.19054,51.9366 43.70588,93.3261 95.66824,95.3773 z"
       id="path5906"
       style="opacity:0.25;color:#000000;fill:url(#linearGradient5929);fill-opacity:1;fill-rule:nonzero;stroke:none;stroke-width:1.5;marker:none;visibility:visible;display:inline;overflow:visible;enable-background:accumulate" />
    <path
       d="m 62.489783,1119.0417 146.604847,-0.2097 149.8542,-0.2447 c 49.8147,-5.2028 88.6006,-46.4472 89.9335,-97.3618 9e-4,-0.035 -9e-4,-0.07 0,-0.1048 9e-4,-0.4205 -8e-4,-0.6575 0,-1.0833 0.043,-21.84214 0.034,-50.72977 0.034,-89.14943 l 0,-154.91926 -69.9483,-69.96355 -69.9832,-69.96354 -155.23483,0.0699 c -40.88755,0.0176 -70.434457,0.0419 -92.763547,0.10478 -51.69258,2.79827 -92.77705,44.23461 -94.96474,96.10376 -0.10025,31.1136 -0.1048,75.93644 -0.1048,145.274 0,69.34555 0.005,114.16031 0.10474,145.27394 2.20883,52.3702 44.07085,94.1054 96.46713,96.1737 z"
       id="path5910"
       style="opacity:0.2;color:#000000;fill:url(#linearGradient5931);fill-opacity:1;fill-rule:nonzero;stroke:none;stroke-width:1.5;marker:none;visibility:visible;display:inline;overflow:visible;enable-background:accumulate" />
    <path
       d="m 64.088893,1127.0416 149.033087,-0.2131 152.33628,-0.2488 c 50.6398,-5.289 90.068,-47.2165 91.423,-98.9744 10e-4,-0.036 -9e-4,-0.071 0,-0.1065 10e-4,-0.4274 -8e-4,-0.6684 0,-1.1013 0.043,-22.2038 0.035,-51.56994 0.035,-90.62595 l 0,-157.48521 -71.1068,-71.12236 -71.1423,-71.12236 -157.80606,0.071 c -41.56477,0.0179 -71.601067,0.0427 -94.299997,0.10653 -52.54877,2.84461 -94.31372,44.96726 -96.53765,97.69553 -0.10192,31.62894 -0.10654,77.19419 -0.10654,147.6802 0,70.49412 0.005,116.05116 0.10648,147.68012 2.24541,53.2376 44.8008,95.664 98.06493,97.7666 z"
       id="path5914"
       style="opacity:0.07999998;color:#000000;fill:url(#linearGradient5933);fill-opacity:1;fill-rule:nonzero;stroke:none;stroke-width:1.5;marker:none;visibility:visible;display:inline;overflow:visible;enable-background:accumulate" />
  </g>
  <path
     d="m 114.3763,492.00004 143.26225,-0.20491 146.43752,-0.23905 c 48.67892,-5.08446 86.58047,-45.3894 87.883,-95.1445 8.9e-4,-0.0342 -8.7e-4,-0.0682 0,-0.10239 8.5e-4,-0.41093 -8.2e-4,-0.64253 0,-1.05868 0.0421,-21.34466 0.0341,-49.5744 0.0341,-87.11908 l 0,-151.39108 -68.35344,-68.37017 -68.38759,-68.37016 -151.69547,0.0683 c -39.95531,0.0172 -68.82855,0.041 -90.64854,0.1024 -50.513983,2.73453 -90.661723,43.22719 -92.799533,93.91506 -0.098,30.40501 -0.10242,74.20703 -0.10242,141.96548 0,67.76624 0.005,111.56038 0.10236,141.96542 2.15846,51.17745 43.06603,91.96213 94.267673,93.98336 z"
     id="rect4121"
     style="color:#000000;fill:url(#linearGradient5374);fill-opacity:1;fill-rule:nonzero;stroke:none;stroke-width:1.5;marker:none;visibility:visible;display:inline;overflow:visible;enable-background:accumulate" />
  <path
     d="M 331.75,201.9375 C 232.81415,272.67111 174.21717,438.85069 64.90625,476.40625 79.234684,485.65994 96.159662,491.28093 114.375,492 l 143.25,-0.21875 146.4375,-0.21875 c 48.67892,-5.08446 86.60372,-45.40115 87.90625,-95.15625 8.9e-4,-0.0342 -8.7e-4,-0.0596 0,-0.0937 8.5e-4,-0.41093 -8.2e-4,-0.64635 0,-1.0625 0.0344,-17.44916 0.0321,-41.02076 0.0312,-69 -17.67138,-17.71806 -35.3167,-35.43554 -52.875,-53.1875 -0.005,-0.005 -0.0265,0.005 -0.0312,0 -12.48785,-13.18322 -37.55838,-17.43995 -59.4375,-23.25 C 362.322,232.78262 351.72959,221.94795 331.75,201.9375 z"
     id="path4356"
     style="fill:#000000;fill-opacity:0.24705882;fill-rule:evenodd" />
  <g
     transform="translate(-605.51939,-353.9683)"
     id="g4076-9-1">
    <g
       transform="translate(-926.66758,684.38448)"
       id="g4038-9-8">
      <g
         id="g4929">
        <path
           d="m 355.25,20 -151.6875,0.0625 c -39.95531,0.0172 -68.83626,0.03235 -90.65625,0.09375 -4.73569,0.256362 -9.37556,0.852632 -13.90625,1.75 -1.51023,0.299123 -3.015922,0.633019 -4.5,1 -2.226117,0.550471 -4.431221,1.176579 -6.59375,1.875 -20.904452,6.751404 -38.687843,20.284416 -50.8125,38.03125 -0.108334,0.158619 -0.236324,0.30946 -0.34375,0.46875 -0.306456,0.454303 -0.607242,0.915291 -0.90625,1.375 -1.617953,2.487519 -3.108135,5.049674 -4.5,7.6875 -2.416204,4.579126 -4.508261,9.398403 -6.1875,14.375 -0.01359,0.04029 -0.01771,0.08469 -0.03125,0.125 -0.481865,1.434239 -0.926843,2.880345 -1.34375,4.34375 -0.208453,0.731702 -0.401853,1.448822 -0.59375,2.1875 -0.02741,0.105607 -0.06668,0.206753 -0.09375,0.3125 -0.162917,0.635705 -0.318229,1.296808 -0.46875,1.9375 -0.175131,0.745444 -0.341847,1.466751 -0.5,2.21875 -0.04199,0.199929 -0.08422,0.393368 -0.125,0.59375 -0.113545,0.556834 -0.208352,1.127218 -0.3125,1.6875 -0.140964,0.75834 -0.282685,1.51677 -0.40625,2.28125 -0.123565,0.76448 -0.237796,1.5421 -0.34375,2.3125 -0.211908,1.54081 -0.391049,3.09301 -0.53125,4.65625 -0.140201,1.56324 -0.245693,3.13475 -0.3125,4.71875 C 19.99575,144.49876 20,188.30405 20,256.0625 c 0,67.67336 -0.0032,111.41246 0.09375,141.8125 1.33e-4,0.0417 -1.33e-4,0.11458 0,0.15625 0.0027,0.0629 -0.0028,0.12467 0,0.1875 0.0075,0.16637 0.02289,0.33385 0.03125,0.5 0.103117,2.10033 0.268283,4.18721 0.5,6.25 0.01417,0.12613 0.04786,0.24901 0.0625,0.375 0.08359,0.71923 0.182346,1.4107 0.28125,2.125 0.09803,0.70307 0.199799,1.39561 0.3125,2.09375 0.0432,0.26966 0.07962,0.54359 0.125,0.8125 0.06179,0.36349 0.121762,0.73165 0.1875,1.09375 0.03935,0.21824 0.08422,0.43852 0.125,0.65625 0.08776,0.46552 0.187003,0.94311 0.28125,1.40625 0.135112,0.66395 0.257917,1.30981 0.40625,1.96875 0.03076,0.13664 0.06243,0.26983 0.09375,0.40625 0.05764,0.25224 0.127935,0.49851 0.1875,0.75 0.128911,0.54185 0.268464,1.08673 0.40625,1.625 0.05292,0.20754 0.102023,0.418 0.15625,0.625 0.151575,0.57628 0.307082,1.14672 0.46875,1.71875 0.220124,0.77886 0.448884,1.57299 0.6875,2.34375 0.715848,2.31229 1.497285,4.57766 2.375,6.8125 0.280689,0.71657 0.57813,1.4481 0.875,2.15625 0.009,0.0214 0.02224,0.0411 0.03125,0.0625 0.2845,0.67727 0.575897,1.33065 0.875,2 0.02851,0.0637 0.0651,0.12391 0.09375,0.1875 0.28142,0.62616 0.549706,1.25597 0.84375,1.875 0.04962,0.10427 0.106275,0.20843 0.15625,0.3125 0.27599,0.5757 0.556957,1.1494 0.84375,1.71875 0.06944,0.13761 0.14868,0.26901 0.21875,0.40625 1.443868,2.82788 3.01751,5.59026 4.71875,8.25 1.27593,1.9948 2.618525,3.92027 4.03125,5.8125 0.470908,0.63074 0.951899,1.25616 1.4375,1.875 0.971202,1.23768 1.971546,2.46771 3,3.65625 C 61.815337,478.79047 88.261556,491.87122 117.875,492 l 2.625,0 C 67.525103,491.60021 25,448.82259 25,395.75 l 0,-269.5 C 25,72.9275 67.9275,30 121.25,30 l 244,0 -10,-10 z M 487,151.75 l 0,244 c 0,50.25665 -38.12758,91.26134 -87.15625,95.8125 l 3.1875,0 c 30.1265,-2.82213 56.21626,-19.11931 72.21875,-42.84375 0.44099,-0.65379 0.88696,-1.30382 1.3125,-1.96875 0.42554,-0.66493 0.84018,-1.35543 1.25,-2.03125 1.22947,-2.02747 2.38524,-4.09784 3.46875,-6.21875 0.36117,-0.70697 0.71805,-1.40816 1.0625,-2.125 0.34445,-0.71684 0.67253,-1.46103 1,-2.1875 1.60228,-3.55458 3.00961,-7.20174 4.1875,-10.96875 0.0255,-0.0819 0.0372,-0.16801 0.0625,-0.25 0.71629,-2.31229 1.35875,-4.67961 1.90625,-7.0625 0.1825,-0.7943 0.33676,-1.57337 0.5,-2.375 0.16324,-0.80163 0.32503,-1.62878 0.46875,-2.4375 0.14372,-0.80872 0.2823,-1.62195 0.40625,-2.4375 0.0398,-0.26208 0.0872,-0.51848 0.125,-0.78125 0.079,-0.55396 0.14894,-1.09929 0.21875,-1.65625 0.025,-0.19753 0.0387,-0.39585 0.0625,-0.59375 0.0742,-0.62299 0.15612,-1.24841 0.21875,-1.875 0.0136,-0.1345 0.0182,-0.27159 0.0312,-0.40625 0.0671,-0.70043 0.13504,-1.38901 0.1875,-2.09375 0.005,-0.0616 -0.005,-0.12589 0,-0.1875 0.0474,-0.65349 0.0903,-1.31169 0.125,-1.96875 0.006,-0.11421 0.0255,-0.22944 0.0312,-0.34375 5.1e-4,-0.0103 -5e-4,-0.021 0,-0.0312 0.0387,-0.76781 0.0726,-1.54004 0.0937,-2.3125 8.9e-4,-0.0342 -8.7e-4,-0.0596 0,-0.0937 1e-4,-0.0483 -4e-5,-0.081 0,-0.125 0.008,-0.31325 -0.005,-0.62352 0,-0.9375 0.0211,-10.67233 0.028,-23.05015 0.0312,-37.46875 0.003,-14.4186 0,-30.88391 0,-49.65625 l 0,-151.375 -5,-5 z"
           transform="translate(1532.187,-330.41615)"
           id="rect6809-2-3-8"
           style="opacity:0.5;color:#000000;fill:url(#linearGradient4084-8-2);fill-opacity:1;fill-rule:nonzero;stroke:none;stroke-width:1.5;marker:none;visibility:visible;display:inline;overflow:visible;enable-background:accumulate" />
        <path
           d="m 112.90625,20.15625 c -4.73569,0.256362 -9.37556,0.852632 -13.90625,1.75 -1.51023,0.299123 -3.015922,0.633019 -4.5,1 -2.226117,0.550471 -4.431221,1.176579 -6.59375,1.875 -2.162529,0.698421 -4.281752,1.471807 -6.375,2.3125 -9.76849,3.923234 -18.747925,9.359992 -26.65625,16.03125 -5.083924,4.288666 -9.725026,9.084055 -13.84375,14.3125 -1.372908,1.742815 -2.683225,3.539121 -3.9375,5.375 -0.109552,0.160436 -0.235127,0.307628 -0.34375,0.46875 -0.306456,0.454303 -0.607242,0.915291 -0.90625,1.375 -0.808977,1.243759 -1.590452,2.530323 -2.34375,3.8125 -0.166868,0.284301 -0.335918,0.557614 -0.5,0.84375 -0.207159,0.360853 -0.391059,0.730006 -0.59375,1.09375 -0.184795,0.331891 -0.381451,0.665735 -0.5625,1 -0.170654,0.314981 -0.332698,0.620433 -0.5,0.9375 -0.347966,0.659456 -0.697942,1.331675 -1.03125,2 -0.666617,1.33665 -1.29953,2.691638 -1.90625,4.0625 -0.879859,1.988008 -1.719204,4.006876 -2.46875,6.0625 -0.02575,0.07061 -0.03691,0.148066 -0.0625,0.21875 -0.255282,0.70525 -0.51044,1.412248 -0.75,2.125 -0.0063,0.0187 0.0063,0.04379 0,0.0625 -0.478277,1.425001 -0.929585,2.858721 -1.34375,4.3125 -0.01792,0.06293 -0.0447,0.124518 -0.0625,0.1875 -0.188998,0.668565 -0.356058,1.325628 -0.53125,2 -0.02999,0.115391 -0.06417,0.228192 -0.09375,0.34375 -0.160255,0.626112 -0.320519,1.275303 -0.46875,1.90625 -0.14068,0.598804 -0.276512,1.178203 -0.40625,1.78125 -0.05606,0.260594 -0.102244,0.519878 -0.15625,0.78125 -0.01964,0.09505 -0.04314,0.186096 -0.0625,0.28125 -0.11135,0.546937 -0.210215,1.105987 -0.3125,1.65625 -0.04812,0.25885 -0.110151,0.52168 -0.15625,0.78125 -0.0886,0.49905 -0.168912,0.99832 -0.25,1.5 -0.05057,0.31267 -0.108609,0.62383 -0.15625,0.9375 -0.06911,0.45519 -0.124613,0.91774 -0.1875,1.375 -0.105954,0.7704 -0.193117,1.53638 -0.28125,2.3125 -0.08813,0.77612 -0.179899,1.56213 -0.25,2.34375 -0.139283,1.553 -0.245648,3.11401 -0.3125,4.6875 -4.41e-4,0.0104 4.38e-4,0.0209 0,0.0312 -2.7e-5,0.008 2.7e-5,0.0229 0,0.0312 C 19.995828,144.52902 20,188.32263 20,256.0625 c 0,67.69194 -0.0033,111.44271 0.09375,141.84375 1.07e-4,0.0334 -1.07e-4,0.0917 0,0.125 0.0022,0.0524 -0.0023,0.10389 0,0.15625 0.0084,0.18714 0.02184,0.37564 0.03125,0.5625 0.10587,2.14272 0.291576,4.27142 0.53125,6.375 0.0023,0.0206 -0.0024,0.0419 0,0.0625 0.08856,0.77298 0.206258,1.51395 0.3125,2.28125 0.107671,0.77762 0.218135,1.57218 0.34375,2.34375 0.110714,0.67613 0.219415,1.35992 0.34375,2.03125 0.01731,0.0939 0.04493,0.18743 0.0625,0.28125 0.08949,0.47548 0.184986,0.96451 0.28125,1.4375 0.115748,0.56872 0.218291,1.12246 0.34375,1.6875 0.05136,0.2313 0.103277,0.45683 0.15625,0.6875 0.05544,0.24229 0.130278,0.47716 0.1875,0.71875 0.168714,0.71001 0.347315,1.42115 0.53125,2.125 0.01079,0.0414 0.02041,0.0836 0.03125,0.125 0.153969,0.58602 0.304342,1.16838 0.46875,1.75 0.04405,0.15622 0.08021,0.31285 0.125,0.46875 0.179375,0.62283 0.371264,1.2574 0.5625,1.875 0.03482,0.11268 0.05854,0.23125 0.09375,0.34375 0.205574,0.65538 0.437456,1.2882 0.65625,1.9375 0.256854,0.76225 0.50641,1.52761 0.78125,2.28125 0.01464,0.0402 0.01656,0.0848 0.03125,0.125 0.261099,0.71305 0.535514,1.41991 0.8125,2.125 0.277337,0.70739 0.58189,1.42582 0.875,2.125 0.01273,0.0303 0.01849,0.0635 0.03125,0.0937 0.280961,0.66829 0.579817,1.30817 0.875,1.96875 0.126258,0.28202 0.246174,0.56316 0.375,0.84375 0.186593,0.40717 0.370539,0.81463 0.5625,1.21875 0.05022,0.10551 0.105669,0.2072 0.15625,0.3125 0.296257,0.61798 0.597551,1.2331 0.90625,1.84375 0.104796,0.20699 0.206286,0.41886 0.3125,0.625 0.310007,0.60166 0.646774,1.18698 0.96875,1.78125 0.377433,0.69663 0.762605,1.40751 1.15625,2.09375 0.251968,0.43977 0.491461,0.87707 0.75,1.3125 0.144428,0.24294 0.291042,0.47718 0.4375,0.71875 0.409604,0.6756 0.82469,1.33529 1.25,2 0.85062,1.32942 1.744326,2.65318 2.65625,3.9375 0.379219,0.53462 0.766661,1.06718 1.15625,1.59375 0.137991,0.18627 0.266973,0.37725 0.40625,0.5625 0.294429,0.39216 0.606107,0.7687 0.90625,1.15625 0.199718,0.25754 0.39153,0.52578 0.59375,0.78125 0.08327,0.10531 0.166308,0.20754 0.25,0.3125 0.325327,0.4076 0.668339,0.81652 1,1.21875 0.500041,0.60644 0.985773,1.18722 1.5,1.78125 0.514227,0.59403 1.03434,1.19989 1.5625,1.78125 1.056321,1.16272 2.139466,2.29572 3.25,3.40625 1.105203,1.1052 2.218105,2.19849 3.375,3.25 0.0056,0.005 0.02567,-0.005 0.03125,0 1.744081,1.58448 3.550447,3.1057 5.40625,4.5625 16.595324,13.02732 37.53268,20.80712 60.34375,20.90625 0.14694,6.4e-4 0.2904,0 0.4375,0 l 139.3125,-0.21875 145.40625,-0.21875 c 30.1265,-2.8202 56.21626,-19.12761 72.21875,-42.84375 0.44099,-0.65356 0.88696,-1.30404 1.3125,-1.96875 0.29883,-0.46679 0.5839,-0.93407 0.875,-1.40625 0.12249,-0.19908 0.25389,-0.39372 0.375,-0.59375 0.0486,-0.0801 0.0766,-0.16976 0.125,-0.25 0.35959,-0.59664 0.71533,-1.17635 1.0625,-1.78125 0.78772,-1.37249 1.55891,-2.77397 2.28125,-4.1875 0.36117,-0.70677 0.71805,-1.4396 1.0625,-2.15625 0.34445,-0.71665 0.67253,-1.42998 1,-2.15625 0.9824,-2.17882 1.89373,-4.39533 2.71875,-6.65625 0.0158,-0.0433 0.0468,-0.0817 0.0625,-0.125 0.25824,-0.71082 0.4765,-1.43778 0.71875,-2.15625 0.23268,-0.69009 0.46976,-1.36554 0.6875,-2.0625 0.0226,-0.0724 0.0401,-0.14628 0.0625,-0.21875 0.71629,-2.31184 1.35875,-4.67996 1.90625,-7.0625 0.1825,-0.79418 0.33676,-1.57347 0.5,-2.375 0.16324,-0.80153 0.32503,-1.62888 0.46875,-2.4375 0.14372,-0.80862 0.2823,-1.62203 0.40625,-2.4375 0.0414,-0.2723 0.0858,-0.53945 0.125,-0.8125 0.0775,-0.54368 0.15007,-1.07843 0.21875,-1.625 0.0263,-0.20779 0.0375,-0.4168 0.0625,-0.625 0.073,-0.61274 0.15696,-1.22753 0.21875,-1.84375 0.0146,-0.14477 0.0173,-0.29255 0.0312,-0.4375 0.0731,-0.7627 0.1318,-1.51345 0.1875,-2.28125 0.0557,-0.7678 0.11813,-1.53979 0.15625,-2.3125 0.0392,-0.77814 0.0726,-1.56082 0.0937,-2.34375 8.9e-4,-0.0342 -8.7e-4,-0.0596 0,-0.0937 7e-5,-0.0363 -4e-5,-0.06 0,-0.0937 0.008,-0.32368 -0.005,-0.64428 0,-0.96875 0.0211,-10.67233 0.028,-23.05015 0.0312,-37.46875 0.003,-14.4186 0,-30.88391 0,-49.65625 l 0,-151.375 -5,-5 0,234 C 487,439.0725 444.0725,482 390.75,482 l -269.5,0 C 67.9275,482 25,439.0725 25,385.75 l 0,-269.5 c 0,-51.518951 40.071412,-93.32402 90.875,-96.09375 -0.86176,0.0023 -2.12816,-0.0024 -2.96875,0 z"
           transform="translate(1532.187,-330.41615)"
           id="path3981-7-8"
           style="opacity:0.15;color:#000000;fill:url(#linearGradient4086-12-9);fill-opacity:1;fill-rule:nonzero;stroke:none;stroke-width:1.5;marker:none;visibility:visible;display:inline;overflow:visible;enable-background:accumulate" />
      </g>
    </g>
  </g>
  <path
     d="m 355.24998,20.00003 0,102.5625 c 0,9.77909 4.10646,18.58192 10.6875,24.8125 l 126.0625,126.09375 0,-116.71875 -68.375,-68.375 z"
     id="path6657"
     style="fill:#000000;fill-opacity:0.24705882;fill-rule:nonzero;stroke:none" />
  <path
     d="m 355.25321,20.00002 0,102.555 c 0,18.88151 15.30349,34.185 34.185,34.185 l 102.555,0 -136.74,-136.74"
     id="path24"
     style="color:#000000;fill:#faf9f9;fill-opacity:1;fill-rule:evenodd;stroke:none;stroke-width:1;marker:none;visibility:visible;display:inline;overflow:visible;enable-background:accumulate" />
  <path
     d="M 443.11483,154.66174"
     id="path35"
     style="fill:#ffffff" />
  <path
     d="m 219.6875,185.25 c -3.9149,0.0451 -7.91223,0.44607 -12.03125,1.28125 -27.31396,6.08739 -72.89287,31.61812 -138.0625,101.09375 13.80274,0 43.06624,-22.28506 53.90625,-16.9375 0,5.04413 -45.14403,43.20311 -49,47.0625 0.14659,1.03984 -6.2307,5.96186 -5.9375,7 14.24937,5.49246 30.285782,-19.0057 45.875,-18.5625 2.22972,4.30771 -1.92527,8.02487 -5.78125,9.65625 -4.75433,3.26616 -29.56534,24.18645 -29.71875,30.71875 4.3077,0.59152 21.84624,-9.65322 26.59375,-12.03125 9.35694,0.89325 -14.4052,37.85596 -20.9375,41.71875 3.86279,3.70937 31.01575,-16.04024 33.09375,-17.375 13.21803,1.33476 -10.68166,17.81013 -12.90625,34.4375 6.38569,0.74153 9.80559,-10.375 18.5625,-10.375 0.59834,9.79845 -8.18415,13.34322 -7.4375,20.46875 6.37888,0.59322 8.77106,-6.07851 15.75,-4.59375 -0.30003,6.97553 0.3125,8.91144 0.3125,15.59375 -10.39509,4.15599 -17.38557,11.28724 -28.21875,15 -2.37631,8.90692 13.36695,-0.008 7.28125,9.9375 -5.63905,2.81952 -21.23956,7.41208 -24.0625,12.90625 2.67804,4.60091 14.26904,3.12329 10.40625,10.84375 -7.838453,3.10615 -26.323152,7.25863 -32.46875,13.3125 1.356789,0.87625 2.754209,1.72116 4.15625,2.53125 6.600922,-0.2947 18.843899,-5.65465 21.03125,2.875 -1.833238,0.34952 -5.308649,1.41202 -9.28125,2.90625 10.400461,4.27408 21.70425,6.81313 33.5625,7.28125 l 143.25,-0.21875 20,-0.0312 c -4.81095,-18.71794 -5.05514,-36.18234 -0.9375,-59.6875 8.31539,-35.77425 20.62582,-46.29515 55.21875,-57.875 12.17307,-8.31368 57.90625,8.4375 57.90625,8.4375 11.13321,-2.0814 20.94308,-11.56487 30,-18.09375 0.2932,-0.74155 0.28551,-0.75676 11.71875,-1.5 12.7663,-4.60091 13.51903,-27.59176 17.375,-38.875 -3.40935,-16.33244 -4.44895,-25.56026 -3.5625,-40.40625 l 0,-0.5625 c -12.76459,-36.5209 -94.42424,-24.66115 -104.8125,-58.0625 0,-3.41617 -1.03125,-6.82419 -1.03125,-10.09375 -3.86279,-12.91119 -16.9354,-23.15611 -30,-24.9375 -5.34075,0 -39.625,12.3068 -39.625,5.03125 -17.72859,-3.86011 -33.22295,-10.07035 -50.1875,-9.875 z"
     id="path5"
     style="fill-rule:evenodd" />
  <path
     d="m 305.49225,264.90999 c -0.29321,-0.44321 -0.59324,-0.88814 -0.88645,-1.33475 3.85598,-0.29663 3.85598,-0.29663 4.89412,0.74322 -1.48306,0.14832 -2.81441,0.29832 -4.00767,0.59153 l 0,0 z"
     id="path19"
     style="fill-rule:evenodd" />
  <path
     d="m 316.18053,251.40217 c -3.85596,-2.96955 -2.22458,-5.64417 -0.59322,-9.94506 9.05692,0.88814 9.20864,0.59322 8.1705,9.05351 -2.37632,0.30002 -5.34584,0.59493 -7.57728,0.89155 l 0,0 z"
     id="path21"
     style="fill:#464444;fill-rule:evenodd" />
  <path
     d="m 316.62715,249.62078 c -1.33134,-2.228 -1.63135,-2.67292 -1.03813,-5.04753 2.08481,0.15 4.16111,0.29662 6.3857,0.59323 0,1.18815 0,2.37462 0,3.56276 -1.78649,0.30003 -3.56275,0.59323 -5.34757,0.89154 l 0,0 z"
     id="path23"
     style="fill:#ffffff;fill-rule:evenodd" />
  <path
     d="m 299.25996,234.32987 c 8.3171,0.44662 13.95785,2.96953 8.7569,10.68999 -3.40934,0 -5.93226,0.29663 -9.05693,-1.33816 0.15344,-3.11613 0.15344,-6.23227 0.30003,-9.35183 l 0,0 z"
     id="path25"
     style="fill:#464444;fill-rule:evenodd" />
  <path
     d="m 308.46349,242.49356 c -2.22459,1.63476 -3.26275,1.48817 -6.08569,1.48817 -1.33816,-1.33475 -1.33816,-1.33475 -1.63136,-5.49415 1.63136,-1.9314 3.56275,-1.33477 5.93907,-1.33477 0.59152,1.63138 1.18475,3.41276 1.77798,5.34075 l 0,0 z"
     id="path27"
     style="fill:#ffffff;fill-rule:evenodd" />
  <path
     d="m 423.36863,352.35117 c -0.89155,-1.7848 -1.78479,-3.56278 -2.82292,-5.34756 -2.22461,-0.29662 -3.56278,4.60432 -10.09508,4.30771 0,-3.41617 -0.1466,-9.50184 1.48476,-12.47139 1.9314,0.15001 3.86279,0.15001 5.93909,0.29661 0.44662,1.18815 1.63137,4.75093 2.2246,6.0891 3.26955,-3.56619 6.3857,-4.60091 10.39508,-4.60091 3.11615,2.96613 1.48479,7.86365 -0.74665,10.83318 -2.07799,0.29661 -4.30088,0.59665 -6.37888,0.89326 l 0,0 z"
     id="path29"
     style="fill:#ffffff;fill-rule:evenodd" />
  <path
     d="m 397.38601,351.75452 c -1.63136,-3.11613 -1.93138,-7.86705 -1.93138,-11.72644 2.67633,-2.67292 5.64075,-3.86279 9.65526,-2.96953 0.44662,9.05692 1.92458,10.98491 -7.72388,14.69597 l 0,0 z"
     id="path31"
     style="fill:#ffffff;fill-rule:evenodd" />
  <path
     d="m 385.80619,347.45023 c -2.22461,-2.81952 -2.52293,-8.6103 -0.73983,-11.87645 1.78478,0 4.15599,1.18816 5.93907,1.18816 3.41616,5.94078 0,9.80016 -5.19924,10.68829 l 0,0 z"
     id="path33"
     style="fill:#ffffff;fill-rule:evenodd" />
  <path
     d="m 374.82468,344.48409 c -2.96954,-1.48476 -2.67634,-3.56616 -4.30771,-6.38569 -3.70937,-0.14661 -7.12553,1.9314 -9.34843,1.33817 -3.41616,-1.18815 -3.86278,-5.79249 0,-12.768 2.3712,-0.15002 6.82552,0.14661 8.61031,2.81953 1.03814,1.63479 -0.74665,5.78907 0.29321,6.3857 2.22459,1.03814 5.04754,-4.45431 8.61029,-4.45431 2.37803,2.37802 1.03816,7.42214 1.03816,10.6883 -1.33306,0.2949 -3.70937,1.92969 -4.89583,2.3763 l 0,0 z"
     id="path35-9"
     style="fill:#ffffff;fill-rule:evenodd" />
  <path
     d="m 345.2793,333.64238 c -3.26274,-3.70936 -1.48478,-7.27213 -1.48478,-12.16966 5.19414,-0.30001 10.24849,-1.48817 10.98663,4.45091 -2.96955,2.82123 -5.63907,6.2374 -9.50185,7.71875 l 0,0 z"
     id="path37"
     style="fill:#ffffff;fill-rule:evenodd" />
  <path
     d="m 227.25,202.5625 c -8.68596,0.20557 -17.4238,1.56917 -23.59375,2.21875 -17.81893,4.90093 -48.99009,23.46494 -52.40625,44.25 l 0.59375,0 c 5.49417,-0.44832 10.39883,-0.4379 18.5625,-2.8125 0.14661,1.18813 -27.16394,14.37687 -15.4375,65.59375 -9.20182,1.92629 -5.19531,-12.59414 -14.84375,-7.25 -5.20096,6.23569 -1.03099,11.86159 -4.59375,16.3125 6.97212,17.96213 18.99816,32.21014 28.5,48.6875 4.75434,2.3763 -7.87774,18.86837 -9.0625,24.0625 0,12.17307 20.34038,6.53125 27.3125,6.53125 l 0,5.03125 c -5.93396,0 -19.73425,11.57759 -25.375,14.84375 l 0,3.5625 c 8.75691,0.88814 13.0449,-4.4444 20.46875,-3.40625 l 0,3.5625 c -10.09508,2.81613 -18.69936,10.10183 -27.15625,16.1875 0,1.33647 -0.90625,2.36522 -0.90625,4 2.52292,1.03815 5.04924,1.94426 7.71875,2.6875 l 0,2.65625 c -6.3857,2.37462 -14.68138,7.1401 -20.46875,10.40625 -0.30002,0.59323 -0.44714,1.31926 -0.59375,2.0625 0.73983,2.37292 1.61916,2.82774 3.84375,4.3125 0,1.18987 0.1659,2.38058 0.3125,3.71875 -1.7848,1.18644 -3.43395,2.38057 -5.21875,3.71875 -5.93226,4.89751 -16.6026,11.12106 -19.71875,18.25 -0.0104,0.0845 -0.0205,0.16588 -0.0312,0.25 l 98.25,-0.15625 c 0.0487,-0.50012 0.0959,-0.97086 0.1875,-1.4375 1.33012,0.0672 2.85966,0.61588 4.5,1.4375 l 23.34375,-0.0312 c -6.00159,-7.18465 -20.20797,-23.00416 -19.6875,-29.90625 6.08567,-0.44662 23.75585,13.80548 29.25,16.625 4.45602,0 5.49363,1.17928 7.125,-3.125 -2.37119,-4.3009 -10.97328,-13.95205 -18.84375,-24.34375 -1.7848,-2.3729 -1.3341,-2.81511 -1.1875,-5.78125 6.53401,0.2966 10.24947,4.75 17.375,4.75 0.29832,-0.59323 0.73804,-1.02212 1.03125,-1.46875 l 0,-8.1875 c -0.44662,-0.4432 -21.08179,-22.84375 -21.375,-22.84375 l 0,-3.125 c 4.45431,-1.78479 8.14909,4.16576 12.75,6.09375 5.34586,2.52634 19.3125,9.34179 19.3125,-2.53125 -0.15343,-3.56106 -0.28408,-7.12474 -0.4375,-10.6875 -6.8255,0 -9.8216,2.51588 -17.09375,2.8125 -0.59321,-8.16369 9.80587,-16.31158 15,-21.0625 -0.2915,-2.22802 -0.73124,-4.4595 -1.03125,-6.6875 -6.8238,-3.41274 -32.79675,-27.30778 -30.71875,-37.40625 5.34073,-1.33476 36.49843,20.49075 42.4375,22.71875 33.24794,9.50185 50.33756,-13.22563 64.59375,-12.1875 13.35781,6.67892 36.50169,16.02305 51.9375,11.71875 0.44491,-2.67292 10.39712,-1.45818 10.84375,-6.0625 -6.08568,-2.52291 -68.57731,-16.06026 -98.5625,-30.90625 0,1.63478 1.34164,8.3337 14.40625,13.53125 -25.82921,15.88412 -68.29407,-35.47222 -41.125,-57.59375 11.72645,2.0814 1.62289,25.80692 14.6875,24.46875 0,-1.48137 0.29374,-3.10897 0.59375,-4.59375 4.30943,-15.14261 -4.45496,-21.22589 -14.25,-32.0625 -4.1543,-2.37462 -7.57498,-2.81834 -7.875,-8.3125 6.97893,-0.88985 5.94335,-0.16275 11.4375,3.25 33.10815,12.02476 72.4424,41.88864 105.84375,57.03125 13.21122,1.18815 25.68263,2.07082 37.5625,4.59375 2.52461,0 6.22708,0.14949 8.75,-0.59375 0.74665,-1.03814 1.48345,-1.93061 2.375,-2.96875 -0.89326,-5.34244 -0.88412,-10.55246 -0.4375,-15.75 -0.89153,-3.41616 -0.57692,-5.17174 -5.03125,-3.09375 -0.89324,2.67293 -1.03959,5.92773 -3.5625,7.5625 -4.0094,-2.52461 -10.6875,-13.79962 -10.6875,-18.84375 11.13323,-4.89753 16.31966,-8.62342 11.71875,-14.5625 -11.57984,-14.39936 -87.30888,-24.95139 -90.125,-36.53125 -2.67633,-0.73983 -4.89299,-1.1806 -7.5625,-2.21875 0.59322,4.006 2.09623,9.0625 6.84375,9.0625 0.89154,8.46029 -6.09072,6.534 -8.46875,7.71875 -35.47935,-4.60091 -41.8804,-14.69437 -30.59375,-29.09375 -2.82294,1.03815 -2.51496,-2.68815 -7.5625,-1.5 -9.50354,4.74753 -3.26903,9.66433 -7.125,15.75 2.37803,4.45602 4.7569,4.46093 3.71875,10.25 -4.15598,0 -7.14988,-1.35936 -8.78125,-5.21875 -2.52292,-3.41275 -5.03958,-6.68099 -7.5625,-10.09375 -12.918,1.04156 -16.47938,-1.61574 -26.28125,-3.84375 -1.17793,-2.22631 -1.17786,-2.21914 -1.03125,-4.59375 2.52461,-0.74153 4.91458,-1.0375 7.4375,-1.1875 17.37402,-9.50185 47.93079,-26.58516 69.3125,-19.90625 3.26274,0 -1.77082,-3.57085 -4.59375,-6.09375 -7.12384,-2.37291 -13.22044,-2.66899 -20.9375,0.59375 -13.36294,4.45602 -29.83147,15.3125 -42.15625,15.3125 0,-3.71107 1.9375,-6.39924 1.9375,-9.21875 -5.50971,-7.51761 -16.61359,-9.17056 -27.78125,-8.90625 z m -2.9375,17.21875 c 2.48126,0.007 4.97043,0.2631 7.40625,0.75 0,1.04155 -0.15625,2.05219 -0.15625,3.09375 -23.01308,6.97551 -18.2647,35.33974 -19.15625,35.78125 C 204.8341,255.8503 203.34842,243.52435 194,244.5625 c -1.19158,0 -5.93173,5.0625 -7.125,5.0625 0,-1.33475 3.5625,-7.56013 3.5625,-8.75 7.01756,-14.15302 20.47622,-21.13337 33.875,-21.09375 z m 20.15625,25.53125 c 5.04072,0 14.42536,4.44971 17.25,8.3125 -1.48477,5.49415 -4.59985,6.37526 -6.53125,10.53125 2.66951,5.19754 4.43243,6.38708 3.6875,12.03125 -1.48477,0.29661 -2.97434,0.60793 -4.3125,0.90625 -4.156,-0.89154 -23.4375,-3.41966 -23.4375,1.03125 -5.19415,0.74663 -8.76436,-0.009 -14.25,0.4375 -2.078,-2.07799 3.1164,-3.41509 4.15625,-6.53125 4.74581,-1.48817 8.7553,-3.85221 13.65625,-4.59375 1.03814,-5.19414 -5.94183,-9.2095 -1.1875,-11.4375 6.8255,-0.59664 10.96875,-4.60012 10.96875,-10.6875 z m 55.375,11.59375 c 8.16367,1.48818 33.57906,11.1254 24.96875,13.5 -8.1705,0 -21.55586,-0.75794 -26.75,-8.625 l 1.78125,-4.875 z M 203.5,279.75 c 0.60005,0 -7.71384,43.95127 17.96875,57.3125 l 0,3.5625 c -3.41616,0.58982 -8.30251,0.4375 -12.75,0.4375 -2.67635,-4.7475 -2.52239,-1.9375 -7.125,-1.9375 0,5.04754 3.55277,14.10873 4.4375,19.15625 -4.59921,-2.22629 -10.39075,-6.82852 -12.46875,-13.0625 0,-18.85539 -22.42399,-49.4346 9.9375,-65.46875 z"
     id="path45"
     style="fill:#ed1c24;fill-rule:evenodd" />
</svg>
