<?xml version="1.0" encoding="UTF-8" standalone="no"?>
<!-- Created with Inkscape (http://www.inkscape.org/) -->

<svg
   xmlns:dc="http://purl.org/dc/elements/1.1/"
   xmlns:cc="http://creativecommons.org/ns#"
   xmlns:rdf="http://www.w3.org/1999/02/22-rdf-syntax-ns#"
   xmlns:svg="http://www.w3.org/2000/svg"
   xmlns="http://www.w3.org/2000/svg"
   xmlns:xlink="http://www.w3.org/1999/xlink"
   version="1.1"
   width="512"
   height="512"
   id="svg2">
  <defs
     id="defs4">
    <linearGradient
       id="linearGradient3170">
      <stop
         id="stop3172"
         style="stop-color:#cc7110;stop-opacity:1"
         offset="0" />
      <stop
         id="stop3174"
         style="stop-color:#673f0b;stop-opacity:0.78448278"
         offset="1" />
    </linearGradient>
    <linearGradient
       id="linearGradient3938">
      <stop
         id="stop3940"
         style="stop-color:#b1f1ee;stop-opacity:0.93103451"
         offset="0" />
      <stop
         id="stop3942"
         style="stop-color:#132682;stop-opacity:1"
         offset="1" />
    </linearGradient>
    <linearGradient
       x1="64.477501"
       y1="56.3008"
       x2="78.466103"
       y2="48.0854"
       id="XMLID_74_-8-1"
       gradientUnits="userSpaceOnUse">
      <stop
         id="stop155-3-8"
         style="stop-color:#ffffff;stop-opacity:1"
         offset="0" />
      <stop
         id="stop157-94-6"
         style="stop-color:#e6e6e6;stop-opacity:1"
         offset="1" />
    </linearGradient>
    <radialGradient
       cx="558.35437"
       cy="385.4841"
       r="191.6187"
       fx="558.35437"
       fy="385.4841"
       id="radialGradient3867"
       xlink:href="#XMLID_74_-8-1"
       gradientUnits="userSpaceOnUse"
       gradientTransform="matrix(1,0,0,1.0499906,0,-19.270593)" />
    <linearGradient
       x1="200.0508"
       y1="185.0742"
       x2="200.0508"
       y2="217.4595"
       id="SVGID_2_"
       gradientUnits="userSpaceOnUse">
      <stop
         id="stop13"
         style="stop-color:#61b74a;stop-opacity:1"
         offset="0" />
      <stop
         id="stop15"
         style="stop-color:#449934;stop-opacity:1"
         offset="1" />
    </linearGradient>
    <linearGradient
       x1="200.0508"
       y1="185.0742"
       x2="200.0508"
       y2="217.4595"
       id="linearGradient3021"
       xlink:href="#SVGID_2_"
       gradientUnits="userSpaceOnUse"
       gradientTransform="matrix(13.577628,0,0,13.577628,-2026.1619,-2566.7096)" />
    <linearGradient
       x1="19.244999"
       y1="21.030804"
       x2="19.360001"
       y2="44.984001"
       id="linearGradient2460"
       gradientUnits="userSpaceOnUse">
      <stop
         id="stop3602"
         style="stop-color:#fafafa;stop-opacity:1"
         offset="0" />
      <stop
         id="stop3604"
         style="stop-color:#f0f0f0;stop-opacity:1"
         offset="1" />
    </linearGradient>
    <linearGradient
       x1="19.244999"
       y1="21.030804"
       x2="19.360001"
       y2="44.984001"
       id="linearGradient3096"
       xlink:href="#linearGradient2460"
       gradientUnits="userSpaceOnUse"
       gradientTransform="matrix(11.076923,0,0,11.076923,-9.8523013,-20.578025)" />
    <linearGradient
       x1="1012.5133"
       y1="484.41721"
       x2="1006.8082"
       y2="20.625916"
       id="linearGradient4114-2"
       xlink:href="#ButtonShadow-0-1-1-5"
       gradientUnits="userSpaceOnUse"
       gradientTransform="matrix(1.0317796,0,0,1.0317796,-830.86406,592.67791)" />
    <linearGradient
       x1="45.447727"
       y1="92.539597"
       x2="45.447727"
       y2="7.0165396"
       id="ButtonShadow-0-1-1-5"
       gradientUnits="userSpaceOnUse"
       gradientTransform="matrix(1.0058652,0,0,0.994169,100,0)">
      <stop
         id="stop3750-8-9-3-6"
         style="stop-color:#000000;stop-opacity:1"
         offset="0" />
      <stop
         id="stop3752-5-6-4-2"
         style="stop-color:#000000;stop-opacity:0.58823532"
         offset="1" />
    </linearGradient>
    <linearGradient
       x1="1012.5133"
       y1="484.41721"
       x2="1006.8082"
       y2="20.625916"
       id="linearGradient4112-2"
       xlink:href="#ButtonShadow-0-1-1-5"
       gradientUnits="userSpaceOnUse"
       gradientTransform="matrix(1.0402541,0,0,1.0402541,-837.95116,592.51825)" />
    <linearGradient
       x1="45.447727"
       y1="92.539597"
       x2="45.447727"
       y2="7.0165396"
       id="linearGradient5292"
       gradientUnits="userSpaceOnUse"
       gradientTransform="matrix(1.0058652,0,0,0.994169,100,0)">
      <stop
         id="stop5294"
         style="stop-color:#000000;stop-opacity:1"
         offset="0" />
      <stop
         id="stop5296"
         style="stop-color:#000000;stop-opacity:0.58823532"
         offset="1" />
    </linearGradient>
    <linearGradient
       x1="1012.5133"
       y1="484.41721"
       x2="1006.8082"
       y2="20.625916"
       id="linearGradient4110-6"
       xlink:href="#ButtonShadow-0-1-1-5"
       gradientUnits="userSpaceOnUse"
       gradientTransform="matrix(1.023305,0,0,1.023305,-823.77704,592.83757)" />
    <linearGradient
       x1="45.447727"
       y1="92.539597"
       x2="45.447727"
       y2="7.0165396"
       id="linearGradient5299"
       gradientUnits="userSpaceOnUse"
       gradientTransform="matrix(1.0058652,0,0,0.994169,100,0)">
      <stop
         id="stop5301"
         style="stop-color:#000000;stop-opacity:1"
         offset="0" />
      <stop
         id="stop5303"
         style="stop-color:#000000;stop-opacity:0.58823532"
         offset="1" />
    </linearGradient>
    <linearGradient
       x1="1012.5133"
       y1="484.41721"
       x2="1006.8082"
       y2="20.625916"
       id="linearGradient4116-6"
       xlink:href="#ButtonShadow-0-1-1-5"
       gradientUnits="userSpaceOnUse"
       gradientTransform="matrix(1.0148305,0,0,1.0148305,-816.68996,592.99723)" />
    <linearGradient
       x1="45.447727"
       y1="92.539597"
       x2="45.447727"
       y2="7.0165396"
       id="linearGradient5306"
       gradientUnits="userSpaceOnUse"
       gradientTransform="matrix(1.0058652,0,0,0.994169,100,0)">
      <stop
         id="stop5308"
         style="stop-color:#000000;stop-opacity:1"
         offset="0" />
      <stop
         id="stop5310"
         style="stop-color:#000000;stop-opacity:0.58823532"
         offset="1" />
    </linearGradient>
    <linearGradient
       x1="1012.5133"
       y1="484.41721"
       x2="1006.8082"
       y2="20.625916"
       id="linearGradient3372"
       xlink:href="#ButtonShadow-0-1-1-5"
       gradientUnits="userSpaceOnUse"
       gradientTransform="matrix(1.0074153,0,0,1.0074153,-810.48879,593.1369)" />
    <linearGradient
       x1="45.447727"
       y1="92.539597"
       x2="45.447727"
       y2="7.0165396"
       id="linearGradient5313"
       gradientUnits="userSpaceOnUse"
       gradientTransform="matrix(1.0058652,0,0,0.994169,100,0)">
      <stop
         id="stop5315"
         style="stop-color:#000000;stop-opacity:1"
         offset="0" />
      <stop
         id="stop5317"
         style="stop-color:#000000;stop-opacity:0.58823532"
         offset="1" />
    </linearGradient>
    <linearGradient
       x1="1016.1035"
       y1="476.25983"
       x2="1011.9534"
       y2="251.66064"
       id="linearGradient4082"
       xlink:href="#linearGradient4487"
       gradientUnits="userSpaceOnUse"
       gradientTransform="translate(-146.22032,369.08845)" />
    <linearGradient
       id="linearGradient4487">
      <stop
         id="stop4489"
         style="stop-color:#000000;stop-opacity:1"
         offset="0" />
      <stop
         id="stop4491"
         style="stop-color:#000000;stop-opacity:0"
         offset="1" />
    </linearGradient>
    <linearGradient
       id="linearGradient3737">
      <stop
         id="stop3739"
         style="stop-color:#ffffff;stop-opacity:1"
         offset="0" />
      <stop
         id="stop3741"
         style="stop-color:#ffffff;stop-opacity:0"
         offset="1" />
    </linearGradient>
    <linearGradient
       id="linearGradient4046">
      <stop
         id="stop4048"
         style="stop-color:#000000;stop-opacity:1"
         offset="0" />
      <stop
         id="stop4050"
         style="stop-color:#ffffff;stop-opacity:0.2"
         offset="1" />
    </linearGradient>
    <linearGradient
       x1="1012.5133"
       y1="484.41721"
       x2="1006.8082"
       y2="20.625916"
       id="linearGradient5342"
       xlink:href="#ButtonShadow-0-1-1-5"
       gradientUnits="userSpaceOnUse"
       gradientTransform="matrix(1.0074153,0,0,1.0074153,-810.48879,593.1369)" />
    <linearGradient
       x1="1012.5133"
       y1="484.41721"
       x2="1006.8082"
       y2="20.625916"
       id="linearGradient4114-2-6"
       xlink:href="#ButtonShadow-0-1-1-5-9"
       gradientUnits="userSpaceOnUse"
       gradientTransform="matrix(1.0317796,0,0,1.0317796,-830.86406,592.67791)" />
    <linearGradient
       x1="45.447727"
       y1="92.539597"
       x2="45.447727"
       y2="7.0165396"
       id="ButtonShadow-0-1-1-5-9"
       gradientUnits="userSpaceOnUse"
       gradientTransform="matrix(1.0058652,0,0,0.994169,100,0)">
      <stop
         id="stop3750-8-9-3-6-4"
         style="stop-color:#000000;stop-opacity:1"
         offset="0" />
      <stop
         id="stop3752-5-6-4-2-9"
         style="stop-color:#000000;stop-opacity:0.58823532"
         offset="1" />
    </linearGradient>
    <linearGradient
       x1="1012.5133"
       y1="484.41721"
       x2="1006.8082"
       y2="20.625916"
       id="linearGradient4112-2-6"
       xlink:href="#ButtonShadow-0-1-1-5-9"
       gradientUnits="userSpaceOnUse"
       gradientTransform="matrix(1.0402541,0,0,1.0402541,-837.95116,592.51825)" />
    <linearGradient
       x1="45.447727"
       y1="92.539597"
       x2="45.447727"
       y2="7.0165396"
       id="linearGradient5292-5"
       gradientUnits="userSpaceOnUse"
       gradientTransform="matrix(1.0058652,0,0,0.994169,100,0)">
      <stop
         id="stop5294-8"
         style="stop-color:#000000;stop-opacity:1"
         offset="0" />
      <stop
         id="stop5296-4"
         style="stop-color:#000000;stop-opacity:0.58823532"
         offset="1" />
    </linearGradient>
    <linearGradient
       x1="1012.5133"
       y1="484.41721"
       x2="1006.8082"
       y2="20.625916"
       id="linearGradient4110-6-7"
       xlink:href="#ButtonShadow-0-1-1-5-9"
       gradientUnits="userSpaceOnUse"
       gradientTransform="matrix(1.023305,0,0,1.023305,-823.77704,592.83757)" />
    <linearGradient
       x1="45.447727"
       y1="92.539597"
       x2="45.447727"
       y2="7.0165396"
       id="linearGradient5299-2"
       gradientUnits="userSpaceOnUse"
       gradientTransform="matrix(1.0058652,0,0,0.994169,100,0)">
      <stop
         id="stop5301-9"
         style="stop-color:#000000;stop-opacity:1"
         offset="0" />
      <stop
         id="stop5303-1"
         style="stop-color:#000000;stop-opacity:0.58823532"
         offset="1" />
    </linearGradient>
    <linearGradient
       x1="1012.5133"
       y1="484.41721"
       x2="1006.8082"
       y2="20.625916"
       id="linearGradient4116-6-3"
       xlink:href="#ButtonShadow-0-1-1-5-9"
       gradientUnits="userSpaceOnUse"
       gradientTransform="matrix(1.0148305,0,0,1.0148305,-816.68996,592.99723)" />
    <linearGradient
       x1="45.447727"
       y1="92.539597"
       x2="45.447727"
       y2="7.0165396"
       id="linearGradient5306-9"
       gradientUnits="userSpaceOnUse"
       gradientTransform="matrix(1.0058652,0,0,0.994169,100,0)">
      <stop
         id="stop5308-0"
         style="stop-color:#000000;stop-opacity:1"
         offset="0" />
      <stop
         id="stop5310-6"
         style="stop-color:#000000;stop-opacity:0.58823532"
         offset="1" />
    </linearGradient>
    <linearGradient
       x1="1012.5133"
       y1="484.41721"
       x2="1006.8082"
       y2="20.625916"
       id="linearGradient3372-9"
       xlink:href="#ButtonShadow-0-1-1-5-9"
       gradientUnits="userSpaceOnUse"
       gradientTransform="matrix(1.0074153,0,0,1.0074153,-810.48879,593.1369)" />
    <linearGradient
       x1="45.447727"
       y1="92.539597"
       x2="45.447727"
       y2="7.0165396"
       id="linearGradient5313-8"
       gradientUnits="userSpaceOnUse"
       gradientTransform="matrix(1.0058652,0,0,0.994169,100,0)">
      <stop
         id="stop5315-8"
         style="stop-color:#000000;stop-opacity:1"
         offset="0" />
      <stop
         id="stop5317-1"
         style="stop-color:#000000;stop-opacity:0.58823532"
         offset="1" />
    </linearGradient>
    <linearGradient
       x1="1016.1035"
       y1="476.25983"
       x2="1011.9534"
       y2="251.66064"
       id="linearGradient4082-7"
       xlink:href="#linearGradient4487-8"
       gradientUnits="userSpaceOnUse"
       gradientTransform="translate(-146.22032,369.08845)" />
    <linearGradient
       id="linearGradient4487-8">
      <stop
         id="stop4489-0"
         style="stop-color:#000000;stop-opacity:1"
         offset="0" />
      <stop
         id="stop4491-4"
         style="stop-color:#000000;stop-opacity:0"
         offset="1" />
    </linearGradient>
    <linearGradient
       x1="993.43896"
       y1="51.511765"
       x2="988.78552"
       y2="363.73825"
       id="linearGradient4084-7"
       xlink:href="#linearGradient3737-8"
       gradientUnits="userSpaceOnUse"
       gradientTransform="translate(778.59979,-360.55963)" />
    <linearGradient
       id="linearGradient3737-8">
      <stop
         id="stop3739-4"
         style="stop-color:#ffffff;stop-opacity:1"
         offset="0" />
      <stop
         id="stop3741-7"
         style="stop-color:#ffffff;stop-opacity:0"
         offset="1" />
    </linearGradient>
    <linearGradient
       x1="1764.6487"
       y1="155.59685"
       x2="1763.6903"
       y2="-55.941216"
       id="linearGradient4086-1"
       xlink:href="#linearGradient4046-2"
       gradientUnits="userSpaceOnUse" />
    <linearGradient
       id="linearGradient4046-2">
      <stop
         id="stop4048-2"
         style="stop-color:#000000;stop-opacity:1"
         offset="0" />
      <stop
         id="stop4050-7"
         style="stop-color:#ffffff;stop-opacity:0.2"
         offset="1" />
    </linearGradient>
    <linearGradient
       x1="1012.5133"
       y1="484.41721"
       x2="1006.8082"
       y2="20.625916"
       id="linearGradient5342-3"
       xlink:href="#ButtonShadow-0-1-1-5-9"
       gradientUnits="userSpaceOnUse"
       gradientTransform="matrix(1.0074153,0,0,1.0074153,-810.48879,593.1369)" />
    <linearGradient
       id="linearGradient4487-1">
      <stop
         id="stop4489-6"
         style="stop-color:#000000;stop-opacity:1"
         offset="0" />
      <stop
         id="stop4491-0"
         style="stop-color:#000000;stop-opacity:0"
         offset="1" />
    </linearGradient>
    <linearGradient
       x1="993.43896"
       y1="51.511765"
       x2="988.78552"
       y2="363.73825"
       id="linearGradient4084-8"
       xlink:href="#linearGradient3737-9"
       gradientUnits="userSpaceOnUse"
       gradientTransform="translate(778.59979,-360.55963)" />
    <linearGradient
       id="linearGradient3737-9">
      <stop
         id="stop3739-7"
         style="stop-color:#ffffff;stop-opacity:1"
         offset="0" />
      <stop
         id="stop3741-4"
         style="stop-color:#ffffff;stop-opacity:0"
         offset="1" />
    </linearGradient>
    <linearGradient
       x1="1764.6487"
       y1="155.59685"
       x2="1763.6903"
       y2="-55.941216"
       id="linearGradient4086-12"
       xlink:href="#linearGradient4046-3"
       gradientUnits="userSpaceOnUse" />
    <linearGradient
       id="linearGradient4046-3">
      <stop
         id="stop4048-7"
         style="stop-color:#000000;stop-opacity:1"
         offset="0" />
      <stop
         id="stop4050-73"
         style="stop-color:#ffffff;stop-opacity:0.2"
         offset="1" />
    </linearGradient>
    <linearGradient
       id="linearGradient2760">
      <stop
         id="stop2770"
         style="stop-color:#ffffff;stop-opacity:1"
         offset="0" />
      <stop
         id="stop2764"
         style="stop-color:#a9a9a9;stop-opacity:1"
         offset="1" />
    </linearGradient>
    <linearGradient
       id="linearGradient4846">
      <stop
         id="stop4848"
         style="stop-color:#1a1a1a;stop-opacity:1"
         offset="0" />
      <stop
         id="stop4856"
         style="stop-color:#1e1e1e;stop-opacity:1"
         offset="1" />
    </linearGradient>
    <linearGradient
       id="linearGradient4922">
      <stop
         id="stop4924"
         style="stop-color:#1a1a1a;stop-opacity:1"
         offset="0" />
      <stop
         id="stop4926"
         style="stop-color:#636363;stop-opacity:1"
         offset="0.15622118" />
      <stop
         id="stop4928"
         style="stop-color:#b4b4b4;stop-opacity:1"
         offset="0.33151907" />
      <stop
         id="stop4930"
         style="stop-color:#636363;stop-opacity:1"
         offset="0.53579742" />
      <stop
         id="stop4932"
         style="stop-color:#000000;stop-opacity:1"
         offset="1" />
    </linearGradient>
    <linearGradient
       x1="201.33115"
       y1="152.12039"
       x2="166.77547"
       y2="110.85986"
       id="linearGradient4884"
       xlink:href="#linearGradient4888"
       gradientUnits="userSpaceOnUse"
       gradientTransform="matrix(1.2757694,0,0,1.2757694,-135.89444,2.4500392)"
       spreadMethod="reflect" />
    <linearGradient
       id="linearGradient4888">
      <stop
         id="stop4892"
         style="stop-color:#c0821c;stop-opacity:1"
         offset="0" />
      <stop
         id="stop4894"
         style="stop-color:#e4ae48;stop-opacity:1"
         offset="1" />
    </linearGradient>
    <linearGradient
       x1="13.021049"
       y1="160.82593"
       x2="258.22205"
       y2="158.47191"
       id="linearGradient4882"
       xlink:href="#linearGradient4898"
       gradientUnits="userSpaceOnUse" />
    <linearGradient
       id="linearGradient4898">
      <stop
         id="stop4900"
         style="stop-color:#d78617;stop-opacity:1"
         offset="0" />
      <stop
         id="stop4902"
         style="stop-color:#5c1234;stop-opacity:1"
         offset="1" />
    </linearGradient>
    <linearGradient
       x1="45.447727"
       y1="92.539597"
       x2="45.447727"
       y2="7.0165396"
       id="ButtonShadow"
       gradientUnits="userSpaceOnUse"
       gradientTransform="scale(1.0058652,0.994169)">
      <stop
         id="stop3750"
         style="stop-color:#000000;stop-opacity:1"
         offset="0" />
      <stop
         id="stop3752"
         style="stop-color:#000000;stop-opacity:0.58823532"
         offset="1" />
    </linearGradient>
    <filter
       color-interpolation-filters="sRGB"
       id="filter3174">
      <feGaussianBlur
         id="feGaussianBlur3176"
         stdDeviation="1.71" />
    </filter>
    <linearGradient
       id="linearGradient10386">
      <stop
         id="stop10388"
         style="stop-color:#ffffff;stop-opacity:1"
         offset="0" />
      <stop
         id="stop10390"
         style="stop-color:#ffffff;stop-opacity:0"
         offset="1" />
    </linearGradient>
    <linearGradient
       x1="212.86353"
       y1="11.425488"
       x2="214.26566"
       y2="168.28262"
       id="linearGradient8264"
       xlink:href="#linearGradient2760"
       gradientUnits="userSpaceOnUse"
       gradientTransform="matrix(1.8464564,0,0,1.8464564,-123.73343,86.826257)"
       spreadMethod="reflect" />
    <linearGradient
       x1="18.930269"
       y1="6.2951212"
       x2="19.360001"
       y2="36.643665"
       id="linearGradient3157"
       xlink:href="#linearGradient2460"
       gradientUnits="userSpaceOnUse"
       gradientTransform="matrix(12.102564,0,0,12.102564,-34.468255,-46.187105)" />
    <linearGradient
       x1="0"
       y1="0"
       x2="1"
       y2="1"
       id="acyl_gradient"
       xlink:href="#linearGradient4321" />
    <linearGradient
       id="linearGradient4321">
      <stop
         id="stop1"
         style="stop-color:#ee0c0c;stop-opacity:1"
         offset="0" />
      <stop
         id="stop2"
         style="stop-color:#7a0404;stop-opacity:1"
         offset="1" />
    </linearGradient>
    <radialGradient
       cx="94.710419"
       cy="98.692879"
       r="150"
       fx="94.710419"
       fy="98.692879"
       id="radialGradient3928"
       xlink:href="#linearGradient4321"
       gradientUnits="userSpaceOnUse"
       gradientTransform="matrix(2.4249551,-0.00787504,0.00770263,2.3718665,-135.71828,-134.64744)" />
    <radialGradient
       cx="94.710419"
       cy="98.692879"
       r="150"
       fx="94.710419"
       fy="98.692879"
       id="radialGradient3932"
       xlink:href="#linearGradient4321"
       gradientUnits="userSpaceOnUse"
       gradientTransform="matrix(2.4249551,-0.00787504,0.00770263,2.3718665,-135.71828,-134.64744)" />
    <radialGradient
       cx="110.73653"
       cy="112.57468"
       r="150"
       fx="110.73653"
       fy="112.57468"
       id="radialGradient3140"
       xlink:href="#linearGradient3938"
       gradientUnits="userSpaceOnUse"
       gradientTransform="matrix(1.6533901,0.0060994,-0.00539655,1.4623231,-50.506611,-35.439162)" />
    <linearGradient
       x1="-112.34483"
       y1="572.44672"
       x2="-109.97469"
       y2="107.89955"
       id="linearGradient5925"
       xlink:href="#ButtonShadow-0-1-1-5-9-5"
       gradientUnits="userSpaceOnUse"
       gradientTransform="matrix(1.0074417,0,0,1.0074152,261.62679,527.41078)" />
    <linearGradient
       x1="45.447727"
       y1="92.539597"
       x2="45.447727"
       y2="7.0165396"
       id="ButtonShadow-0-1-1-5-9-5"
       gradientUnits="userSpaceOnUse"
       gradientTransform="matrix(1.0058652,0,0,0.994169,100,0)">
      <stop
         id="stop3750-8-9-3-6-4-0"
         style="stop-color:#000000;stop-opacity:1"
         offset="0" />
      <stop
         id="stop3752-5-6-4-2-9-8"
         style="stop-color:#000000;stop-opacity:0.58823532"
         offset="1" />
    </linearGradient>
    <linearGradient
       x1="-112.34483"
       y1="572.44672"
       x2="-109.97469"
       y2="107.89955"
       id="linearGradient5927"
       xlink:href="#ButtonShadow-0-1-1-5-9-5"
       gradientUnits="userSpaceOnUse"
       gradientTransform="matrix(1.0318068,0,0,1.0317796,268.77841,524.78354)" />
    <linearGradient
       x1="45.447727"
       y1="92.539597"
       x2="45.447727"
       y2="7.0165396"
       id="linearGradient3129"
       gradientUnits="userSpaceOnUse"
       gradientTransform="matrix(1.0058652,0,0,0.994169,100,0)">
      <stop
         id="stop3131"
         style="stop-color:#000000;stop-opacity:1"
         offset="0" />
      <stop
         id="stop3133"
         style="stop-color:#000000;stop-opacity:0.58823532"
         offset="1" />
    </linearGradient>
    <linearGradient
       x1="-112.34483"
       y1="572.44672"
       x2="-109.97469"
       y2="107.89955"
       id="linearGradient5929"
       xlink:href="#ButtonShadow-0-1-1-5-9-5"
       gradientUnits="userSpaceOnUse"
       gradientTransform="matrix(1.0148572,0,0,1.0148305,263.80369,526.61118)" />
    <linearGradient
       x1="45.447727"
       y1="92.539597"
       x2="45.447727"
       y2="7.0165396"
       id="linearGradient3136"
       gradientUnits="userSpaceOnUse"
       gradientTransform="matrix(1.0058652,0,0,0.994169,100,0)">
      <stop
         id="stop3138"
         style="stop-color:#000000;stop-opacity:1"
         offset="0" />
      <stop
         id="stop3140"
         style="stop-color:#000000;stop-opacity:0.58823532"
         offset="1" />
    </linearGradient>
    <linearGradient
       x1="-112.34483"
       y1="572.44672"
       x2="-109.97469"
       y2="107.89955"
       id="linearGradient5931"
       xlink:href="#ButtonShadow-0-1-1-5-9-5"
       gradientUnits="userSpaceOnUse"
       gradientTransform="matrix(1.023332,0,0,1.023305,266.29153,525.69736)" />
    <linearGradient
       x1="45.447727"
       y1="92.539597"
       x2="45.447727"
       y2="7.0165396"
       id="linearGradient3143"
       gradientUnits="userSpaceOnUse"
       gradientTransform="matrix(1.0058652,0,0,0.994169,100,0)">
      <stop
         id="stop3145"
         style="stop-color:#000000;stop-opacity:1"
         offset="0" />
      <stop
         id="stop3147"
         style="stop-color:#000000;stop-opacity:0.58823532"
         offset="1" />
    </linearGradient>
    <linearGradient
       x1="-112.34483"
       y1="572.44672"
       x2="-109.97469"
       y2="107.89955"
       id="linearGradient5933"
       xlink:href="#ButtonShadow-0-1-1-5-9-5"
       gradientUnits="userSpaceOnUse"
       gradientTransform="matrix(1.0402816,0,0,1.0402542,271.26626,523.86971)" />
    <linearGradient
       x1="45.447727"
       y1="92.539597"
       x2="45.447727"
       y2="7.0165396"
       id="linearGradient3150"
       gradientUnits="userSpaceOnUse"
       gradientTransform="matrix(1.0058652,0,0,0.994169,100,0)">
      <stop
         id="stop3152"
         style="stop-color:#000000;stop-opacity:1"
         offset="0" />
      <stop
         id="stop3154"
         style="stop-color:#000000;stop-opacity:0.58823532"
         offset="1" />
    </linearGradient>
    <linearGradient
       x1="993.43896"
       y1="51.511765"
       x2="988.78552"
       y2="363.73825"
       id="linearGradient4084-8-2"
       xlink:href="#linearGradient3737-9-0"
       gradientUnits="userSpaceOnUse"
       gradientTransform="translate(-753.58716,-30.14348)" />
    <linearGradient
       id="linearGradient3737-9-0">
      <stop
         id="stop3739-7-5"
         style="stop-color:#ffffff;stop-opacity:1"
         offset="0" />
      <stop
         id="stop3741-4-2"
         style="stop-color:#ffffff;stop-opacity:0"
         offset="1" />
    </linearGradient>
    <linearGradient
       x1="1764.6487"
       y1="155.59685"
       x2="1763.6903"
       y2="-55.941216"
       id="linearGradient4086-12-9"
       xlink:href="#linearGradient4046-3-3"
       gradientUnits="userSpaceOnUse"
       gradientTransform="translate(-1532.187,330.41615)" />
    <linearGradient
       id="linearGradient4046-3-3">
      <stop
         id="stop4048-7-5"
         style="stop-color:#000000;stop-opacity:1"
         offset="0" />
      <stop
         id="stop4050-73-5"
         style="stop-color:#ffffff;stop-opacity:0.2"
         offset="1" />
    </linearGradient>
    <linearGradient
       x1="102.875"
       y1="170.42188"
       x2="153.125"
       y2="170.42188"
       id="linearGradient5071"
       xlink:href="#linearGradient5059"
       gradientUnits="userSpaceOnUse" />
    <linearGradient
       id="linearGradient5059">
      <stop
         id="stop5061"
         style="stop-color:#0b0826;stop-opacity:0.49803922"
         offset="0" />
      <stop
         id="stop5063"
         style="stop-color:#0b0826;stop-opacity:1"
         offset="1" />
    </linearGradient>
    <linearGradient
       x1="102.875"
       y1="170.42188"
       x2="153.125"
       y2="170.42188"
       id="linearGradient3985"
       xlink:href="#linearGradient5059"
       gradientUnits="userSpaceOnUse" />
    <radialGradient
       cx="244.26477"
       cy="286.95432"
       r="62.545898"
       fx="244.26477"
       fy="286.95432"
       id="radialGradient14612"
       xlink:href="#linearGradient3938"
       gradientUnits="userSpaceOnUse"
       gradientTransform="matrix(1,0,0,1.2036395,0,-58.435237)"
       spreadMethod="pad" />
  </defs>
  <metadata
     id="metadata7">
    <rdf:RDF>
      <cc:Work
         rdf:about="">
        <dc:format>image/svg+xml</dc:format>
        <dc:type
           rdf:resource="http://purl.org/dc/dcmitype/StillImage" />
        <dc:title></dc:title>
        <dc:contributor>
          <cc:Agent>
            <dc:title>Brahim Djoudi</dc:title>
          </cc:Agent>
        </dc:contributor>
      </cc:Work>
    </rdf:RDF>
  </metadata>
  <g
     transform="translate(0,-540.36218)"
     id="layer1" />
  <g
     transform="matrix(1.1,0,0,0.44444,95.081063,256.39254)"
     id="g2036">
    <g
       transform="matrix(1.0526,0,0,1.2857,-1.2632,-13.429)"
       id="g3712"
       style="opacity:0.4" />
  </g>
  <g
     transform="translate(97.481063,231.28154)"
     id="g3541" />
  <g
     transform="translate(97.481063,231.28154)"
     id="g3536" />
  <g
     transform="translate(-605.51932,-353.96833)"
     id="g4076">
    <g
       transform="translate(-926.66758,684.38448)"
       id="g4038" />
  </g>
  <g
     transform="translate(54.089264,-616.0416)"
     id="g5918">
    <path
       d="m 60.989673,1111.5416 144.328367,-0.2064 147.52725,-0.2409 c 49.0412,-5.1221 87.2248,-45.726 88.537,-95.8499 9e-4,-0.035 -9e-4,-0.069 0,-0.1032 9e-4,-0.414 -8e-4,-0.6473 0,-1.0665 0.042,-21.50295 0.034,-49.94202 0.034,-87.7651 l 0,-152.51368 -68.8621,-68.87715 -68.8965,-68.87715 -152.82436,0.0688 c -40.25265,0.0173 -69.340747,0.0413 -91.323117,0.10316 -50.88989,2.75481 -91.3364,43.54773 -93.49012,94.61146 -0.0987,30.63047 -0.10318,74.7573 -0.10318,143.01819 0,68.26875 0.005,112.38763 0.10312,143.01817 2.17453,51.5569 43.38652,92.644 94.96919,94.6802 z"
       id="path5873"
       style="opacity:0.25;color:#000000;fill:url(#linearGradient5925);fill-opacity:1;fill-rule:nonzero;stroke:none;stroke-width:1.5;marker:none;visibility:visible;display:inline;overflow:visible;enable-background:accumulate" />
    <path
       d="m 63.288833,1123.0416 147.818967,-0.2114 151.09521,-0.2467 c 50.2273,-5.246 89.3343,-46.8319 90.6783,-98.1681 9e-4,-0.035 -9e-4,-0.07 0,-0.1056 9e-4,-0.424 -8e-4,-0.663 0,-1.0924 0.043,-22.0229 0.035,-51.14981 0.035,-89.88764 l 0,-156.20224 -70.5276,-70.54295 -70.5627,-70.54295 -156.52046,0.0705 c -41.22616,0.0177 -71.017757,0.0423 -93.531777,0.10565 -52.12067,2.82144 -93.54538,44.60094 -95.75119,96.89965 -0.10109,31.37127 -0.10567,76.56531 -0.10567,146.47709 0,69.91984 0.005,115.10574 0.10561,146.47699 2.22712,52.804 44.43583,94.8848 97.26603,96.9702 z"
       id="path5902"
       style="opacity:0.1;color:#000000;fill:url(#linearGradient5927);fill-opacity:1;fill-rule:nonzero;stroke:none;stroke-width:1.5;marker:none;visibility:visible;display:inline;overflow:visible;enable-background:accumulate" />
    <path
       d="m 61.689723,1115.0417 145.390727,-0.2079 148.61314,-0.2427 c 49.4022,-5.1598 87.8668,-46.0626 89.1887,-96.5555 9e-4,-0.035 -9e-4,-0.069 0,-0.1039 9e-4,-0.4171 -8e-4,-0.6521 0,-1.0744 0.042,-21.66124 0.034,-50.30964 0.034,-88.41113 l 0,-153.63628 -69.369,-69.38413 -69.4036,-69.38414 -153.94925,0.0693 c -40.54894,0.0174 -69.851137,0.0416 -91.995317,0.10392 -51.26448,2.77509 -92.0087,43.86827 -94.17827,95.30786 -0.0994,30.85594 -0.10394,75.30757 -0.10394,144.07091 0,68.77125 0.005,113.21488 0.10387,144.07079 2.19054,51.9366 43.70588,93.3261 95.66824,95.3773 z"
       id="path5906"
       style="opacity:0.25;color:#000000;fill:url(#linearGradient5929);fill-opacity:1;fill-rule:nonzero;stroke:none;stroke-width:1.5;marker:none;visibility:visible;display:inline;overflow:visible;enable-background:accumulate" />
    <path
       d="m 62.489783,1119.0417 146.604847,-0.2097 149.8542,-0.2447 c 49.8147,-5.2028 88.6006,-46.4472 89.9335,-97.3618 9e-4,-0.035 -9e-4,-0.07 0,-0.1048 9e-4,-0.4205 -8e-4,-0.6575 0,-1.0833 0.043,-21.84214 0.034,-50.72977 0.034,-89.14943 l 0,-154.91926 -69.9483,-69.96355 -69.9832,-69.96354 -155.23483,0.0699 c -40.88755,0.0176 -70.434457,0.0419 -92.763547,0.10478 -51.69258,2.79827 -92.77705,44.23461 -94.96474,96.10376 -0.10025,31.1136 -0.1048,75.93644 -0.1048,145.274 0,69.34555 0.005,114.16031 0.10474,145.27394 2.20883,52.3702 44.07085,94.1054 96.46713,96.1737 z"
       id="path5910"
       style="opacity:0.2;color:#000000;fill:url(#linearGradient5931);fill-opacity:1;fill-rule:nonzero;stroke:none;stroke-width:1.5;marker:none;visibility:visible;display:inline;overflow:visible;enable-background:accumulate" />
    <path
       d="m 64.088893,1127.0416 149.033087,-0.2131 152.33628,-0.2488 c 50.6398,-5.289 90.068,-47.2165 91.423,-98.9744 10e-4,-0.036 -9e-4,-0.071 0,-0.1065 10e-4,-0.4274 -8e-4,-0.6684 0,-1.1013 0.043,-22.2038 0.035,-51.56994 0.035,-90.62595 l 0,-157.48521 -71.1068,-71.12236 -71.1423,-71.12236 -157.80606,0.071 c -41.56477,0.0179 -71.601067,0.0427 -94.299997,0.10653 -52.54877,2.84461 -94.31372,44.96726 -96.53765,97.69553 -0.10192,31.62894 -0.10654,77.19419 -0.10654,147.6802 0,70.49412 0.005,116.05116 0.10648,147.68012 2.24541,53.2376 44.8008,95.664 98.06493,97.7666 z"
       id="path5914"
       style="opacity:0.07999998;color:#000000;fill:url(#linearGradient5933);fill-opacity:1;fill-rule:nonzero;stroke:none;stroke-width:1.5;marker:none;visibility:visible;display:inline;overflow:visible;enable-background:accumulate" />
  </g>
  <path
     d="m 114.3763,492.00004 143.26225,-0.20491 146.43752,-0.23905 c 48.67892,-5.08446 86.58047,-45.3894 87.883,-95.1445 8.9e-4,-0.0342 -8.7e-4,-0.0682 0,-0.10239 8.5e-4,-0.41093 -8.2e-4,-0.64253 0,-1.05868 0.0421,-21.34466 0.0341,-49.5744 0.0341,-87.11908 l 0,-151.39108 -68.35344,-68.37017 -68.38759,-68.37016 -151.69547,0.0683 c -39.95531,0.0172 -68.82855,0.041 -90.64854,0.1024 -50.513983,2.73453 -90.661723,43.22719 -92.799533,93.91506 -0.098,30.40501 -0.10242,74.20703 -0.10242,141.96548 0,67.76624 0.005,111.56038 0.10236,141.96542 2.15846,51.17745 43.06603,91.96213 94.267673,93.98336 z"
     id="rect4121"
     style="color:#000000;fill:#e4e6d2;fill-opacity:1;fill-rule:nonzero;stroke:none;stroke-width:1.5;marker:none;visibility:visible;display:inline;overflow:visible;enable-background:accumulate" />
  <path
     d="m 238.84375,171.5625 c 0.3269,6.64964 -0.50675,12.80063 -2.46875,18.46875 -2.28925,6.54061 -5.38837,9.85996 -9.3125,9.96875 -0.77629,1.1e-4 -1.8123,-0.51399 -3.125,-1.5 -0.74325,-0.76062 -1.35982,-1.40872 -1.9375,-1.96875 -0.58195,-0.59086 -1.02839,-1.0428 -1.5,-1.5 -0.58008,-0.58897 -1.02955,-1.01259 -1.5,-1.46875 -0.24857,-0.25237 -0.42782,-0.39703 -0.65625,-0.625 -0.89135,-0.91792 -1.64334,-1.72628 -2.3125,-2.375 -0.58195,-0.59086 -1.02839,-1.0428 -1.5,-1.5 -0.2504,-0.25423 -0.42629,-0.39553 -0.65625,-0.625 -0.30277,-0.30212 -0.57638,-0.5845 -0.84375,-0.84375 -1.66101,-1.68645 -2.862,-2.83785 -3.625,-3.4375 -5.66843,-4.68706 -14.3836,-7.64444 -26.15625,-8.84375 0.43597,2.8344 1.63157,7.96277 3.59375,15.375 1.63504,5.88657 2.43744,10.70023 2.4375,14.40625 -6e-5,4.46948 -0.9282,8.85868 -2.78125,13.21875 -1.30814,3.05238 -4.0613,7.11087 -8.3125,12.125 -3.59727,4.36044 -5.94123,8.52942 -7.03125,12.5625 -0.54508,2.07129 -0.89104,4.36801 -1,6.875 -0.10901,4.25142 -0.1563,7.47627 -0.15625,9.65625 -0.76309,7.52161 -6.47364,18.40775 -17.15625,32.6875 -10.13764,13.62594 -14.99855,24.32312 -14.5625,32.0625 0.71657,13.82001 4.23776,23.62974 10.53125,29.46875 0.51309,0.56946 1.03774,1.11694 1.59375,1.625 0.50552,0.55363 1.04706,1.06778 1.59375,1.5625 55.21992,55.05471 97.83202,97.52853 135.28125,134.8125 l 116.78125,-0.1875 c 48.67892,-5.08446 86.60372,-45.40115 87.90625,-95.15625 8.9e-4,-0.0342 -8.7e-4,-0.0596 0,-0.0937 8.5e-4,-0.41093 -8.2e-4,-0.64635 0,-1.0625 0.002,-1.01472 -0.002,-2.5164 0,-3.5625 -62.07043,-64.74754 -119.26093,-126.23702 -168.375,-168.96875 -6.49809,-5.63739 -13.06549,-10.03015 -19.6875,-13.21875 -4.68746,-2.17993 -11.54637,-4.47665 -20.59375,-6.875 -2.87329,-0.73875 -5.44823,-1.49931 -7.75,-2.3125 -0.42797,-0.15099 -0.81051,-0.31513 -1.21875,-0.46875 -0.13544,-0.13304 -0.26794,-0.27641 -0.40625,-0.40625 -0.53118,-0.58909 -1.10676,-1.12259 -1.6875,-1.65625 -0.47945,-0.52083 -0.98099,-1.02342 -1.5,-1.5 -0.4813,-0.52284 -0.97883,-1.02175 -1.5,-1.5 -0.4167,-0.45266 -0.83467,-0.89326 -1.28125,-1.3125 -0.52824,-0.58583 -1.11025,-1.12524 -1.6875,-1.65625 -0.0397,-0.0431 -0.0851,-0.0822 -0.125,-0.125 -0.0879,-0.0797 -0.16101,-0.17157 -0.25,-0.25 -0.36786,-0.38334 -0.73477,-0.76667 -1.125,-1.125 -0.4813,-0.52284 -0.97883,-1.02175 -1.5,-1.5 -0.42182,-0.45823 -0.86006,-0.88853 -1.3125,-1.3125 -0.52487,-0.58134 -1.08305,-1.12897 -1.65625,-1.65625 -0.0397,-0.0431 -0.0851,-0.0822 -0.125,-0.125 -0.0879,-0.0797 -0.16101,-0.17157 -0.25,-0.25 -0.36786,-0.38334 -0.73477,-0.76667 -1.125,-1.125 -0.4813,-0.52284 -0.97883,-1.02175 -1.5,-1.5 -0.42182,-0.45823 -0.86006,-0.88853 -1.3125,-1.3125 -0.46299,-0.51279 -0.96817,-0.99802 -1.46875,-1.46875 -0.0106,-0.01 -0.0206,-0.0214 -0.0312,-0.0312 -3.88839,-4.30556 -9.09956,-7.12127 -15.65625,-8.46875 z"
     id="path4191"
     style="font-size:327.02005005px;font-style:normal;font-variant:normal;font-weight:normal;font-stretch:normal;line-height:125%;letter-spacing:0px;word-spacing:0px;fill:#000000;fill-opacity:0.15686275;stroke:none;font-family:ZurichFigurine;-inkscape-font-specification:ZurichFigurine" />
  <g
     transform="translate(-605.51939,-353.9683)"
     id="g4076-9-1">
    <g
       transform="translate(-926.66758,684.38448)"
       id="g4038-9-8">
      <g
         id="g4929">
        <path
           d="m 355.25,20 -151.6875,0.0625 c -39.95531,0.0172 -68.83626,0.03235 -90.65625,0.09375 -4.73569,0.256362 -9.37556,0.852632 -13.90625,1.75 -1.51023,0.299123 -3.015922,0.633019 -4.5,1 -2.226117,0.550471 -4.431221,1.176579 -6.59375,1.875 -20.904452,6.751404 -38.687843,20.284416 -50.8125,38.03125 -0.108334,0.158619 -0.236324,0.30946 -0.34375,0.46875 -0.306456,0.454303 -0.607242,0.915291 -0.90625,1.375 -1.617953,2.487519 -3.108135,5.049674 -4.5,7.6875 -2.416204,4.579126 -4.508261,9.398403 -6.1875,14.375 -0.01359,0.04029 -0.01771,0.08469 -0.03125,0.125 -0.481865,1.434239 -0.926843,2.880345 -1.34375,4.34375 -0.208453,0.731702 -0.401853,1.448822 -0.59375,2.1875 -0.02741,0.105607 -0.06668,0.206753 -0.09375,0.3125 -0.162917,0.635705 -0.318229,1.296808 -0.46875,1.9375 -0.175131,0.745444 -0.341847,1.466751 -0.5,2.21875 -0.04199,0.199929 -0.08422,0.393368 -0.125,0.59375 -0.113545,0.556834 -0.208352,1.127218 -0.3125,1.6875 -0.140964,0.75834 -0.282685,1.51677 -0.40625,2.28125 -0.123565,0.76448 -0.237796,1.5421 -0.34375,2.3125 -0.211908,1.54081 -0.391049,3.09301 -0.53125,4.65625 -0.140201,1.56324 -0.245693,3.13475 -0.3125,4.71875 C 19.99575,144.49876 20,188.30405 20,256.0625 c 0,67.67336 -0.0032,111.41246 0.09375,141.8125 1.33e-4,0.0417 -1.33e-4,0.11458 0,0.15625 0.0027,0.0629 -0.0028,0.12467 0,0.1875 0.0075,0.16637 0.02289,0.33385 0.03125,0.5 0.103117,2.10033 0.268283,4.18721 0.5,6.25 0.01417,0.12613 0.04786,0.24901 0.0625,0.375 0.08359,0.71923 0.182346,1.4107 0.28125,2.125 0.09803,0.70307 0.199799,1.39561 0.3125,2.09375 0.0432,0.26966 0.07962,0.54359 0.125,0.8125 0.06179,0.36349 0.121762,0.73165 0.1875,1.09375 0.03935,0.21824 0.08422,0.43852 0.125,0.65625 0.08776,0.46552 0.187003,0.94311 0.28125,1.40625 0.135112,0.66395 0.257917,1.30981 0.40625,1.96875 0.03076,0.13664 0.06243,0.26983 0.09375,0.40625 0.05764,0.25224 0.127935,0.49851 0.1875,0.75 0.128911,0.54185 0.268464,1.08673 0.40625,1.625 0.05292,0.20754 0.102023,0.418 0.15625,0.625 0.151575,0.57628 0.307082,1.14672 0.46875,1.71875 0.220124,0.77886 0.448884,1.57299 0.6875,2.34375 0.715848,2.31229 1.497285,4.57766 2.375,6.8125 0.280689,0.71657 0.57813,1.4481 0.875,2.15625 0.009,0.0214 0.02224,0.0411 0.03125,0.0625 0.2845,0.67727 0.575897,1.33065 0.875,2 0.02851,0.0637 0.0651,0.12391 0.09375,0.1875 0.28142,0.62616 0.549706,1.25597 0.84375,1.875 0.04962,0.10427 0.106275,0.20843 0.15625,0.3125 0.27599,0.5757 0.556957,1.1494 0.84375,1.71875 0.06944,0.13761 0.14868,0.26901 0.21875,0.40625 1.443868,2.82788 3.01751,5.59026 4.71875,8.25 1.27593,1.9948 2.618525,3.92027 4.03125,5.8125 0.470908,0.63074 0.951899,1.25616 1.4375,1.875 0.971202,1.23768 1.971546,2.46771 3,3.65625 C 61.815337,478.79047 88.261556,491.87122 117.875,492 l 2.625,0 C 67.525103,491.60021 25,448.82259 25,395.75 l 0,-269.5 C 25,72.9275 67.9275,30 121.25,30 l 244,0 -10,-10 z M 487,151.75 l 0,244 c 0,50.25665 -38.12758,91.26134 -87.15625,95.8125 l 3.1875,0 c 30.1265,-2.82213 56.21626,-19.11931 72.21875,-42.84375 0.44099,-0.65379 0.88696,-1.30382 1.3125,-1.96875 0.42554,-0.66493 0.84018,-1.35543 1.25,-2.03125 1.22947,-2.02747 2.38524,-4.09784 3.46875,-6.21875 0.36117,-0.70697 0.71805,-1.40816 1.0625,-2.125 0.34445,-0.71684 0.67253,-1.46103 1,-2.1875 1.60228,-3.55458 3.00961,-7.20174 4.1875,-10.96875 0.0255,-0.0819 0.0372,-0.16801 0.0625,-0.25 0.71629,-2.31229 1.35875,-4.67961 1.90625,-7.0625 0.1825,-0.7943 0.33676,-1.57337 0.5,-2.375 0.16324,-0.80163 0.32503,-1.62878 0.46875,-2.4375 0.14372,-0.80872 0.2823,-1.62195 0.40625,-2.4375 0.0398,-0.26208 0.0872,-0.51848 0.125,-0.78125 0.079,-0.55396 0.14894,-1.09929 0.21875,-1.65625 0.025,-0.19753 0.0387,-0.39585 0.0625,-0.59375 0.0742,-0.62299 0.15612,-1.24841 0.21875,-1.875 0.0136,-0.1345 0.0182,-0.27159 0.0312,-0.40625 0.0671,-0.70043 0.13504,-1.38901 0.1875,-2.09375 0.005,-0.0616 -0.005,-0.12589 0,-0.1875 0.0474,-0.65349 0.0903,-1.31169 0.125,-1.96875 0.006,-0.11421 0.0255,-0.22944 0.0312,-0.34375 5.1e-4,-0.0103 -5e-4,-0.021 0,-0.0312 0.0387,-0.76781 0.0726,-1.54004 0.0937,-2.3125 8.9e-4,-0.0342 -8.7e-4,-0.0596 0,-0.0937 1e-4,-0.0483 -4e-5,-0.081 0,-0.125 0.008,-0.31325 -0.005,-0.62352 0,-0.9375 0.0211,-10.67233 0.028,-23.05015 0.0312,-37.46875 0.003,-14.4186 0,-30.88391 0,-49.65625 l 0,-151.375 -5,-5 z"
           transform="translate(1532.187,-330.41615)"
           id="rect6809-2-3-8"
           style="opacity:0.5;color:#000000;fill:url(#linearGradient4084-8-2);fill-opacity:1;fill-rule:nonzero;stroke:none;stroke-width:1.5;marker:none;visibility:visible;display:inline;overflow:visible;enable-background:accumulate" />
        <path
           d="m 112.90625,20.15625 c -4.73569,0.256362 -9.37556,0.852632 -13.90625,1.75 -1.51023,0.299123 -3.015922,0.633019 -4.5,1 -2.226117,0.550471 -4.431221,1.176579 -6.59375,1.875 -2.162529,0.698421 -4.281752,1.471807 -6.375,2.3125 -9.76849,3.923234 -18.747925,9.359992 -26.65625,16.03125 -5.083924,4.288666 -9.725026,9.084055 -13.84375,14.3125 -1.372908,1.742815 -2.683225,3.539121 -3.9375,5.375 -0.109552,0.160436 -0.235127,0.307628 -0.34375,0.46875 -0.306456,0.454303 -0.607242,0.915291 -0.90625,1.375 -0.808977,1.243759 -1.590452,2.530323 -2.34375,3.8125 -0.166868,0.284301 -0.335918,0.557614 -0.5,0.84375 -0.207159,0.360853 -0.391059,0.730006 -0.59375,1.09375 -0.184795,0.331891 -0.381451,0.665735 -0.5625,1 -0.170654,0.314981 -0.332698,0.620433 -0.5,0.9375 -0.347966,0.659456 -0.697942,1.331675 -1.03125,2 -0.666617,1.33665 -1.29953,2.691638 -1.90625,4.0625 -0.879859,1.988008 -1.719204,4.006876 -2.46875,6.0625 -0.02575,0.07061 -0.03691,0.148066 -0.0625,0.21875 -0.255282,0.70525 -0.51044,1.412248 -0.75,2.125 -0.0063,0.0187 0.0063,0.04379 0,0.0625 -0.478277,1.425001 -0.929585,2.858721 -1.34375,4.3125 -0.01792,0.06293 -0.0447,0.124518 -0.0625,0.1875 -0.188998,0.668565 -0.356058,1.325628 -0.53125,2 -0.02999,0.115391 -0.06417,0.228192 -0.09375,0.34375 -0.160255,0.626112 -0.320519,1.275303 -0.46875,1.90625 -0.14068,0.598804 -0.276512,1.178203 -0.40625,1.78125 -0.05606,0.260594 -0.102244,0.519878 -0.15625,0.78125 -0.01964,0.09505 -0.04314,0.186096 -0.0625,0.28125 -0.11135,0.546937 -0.210215,1.105987 -0.3125,1.65625 -0.04812,0.25885 -0.110151,0.52168 -0.15625,0.78125 -0.0886,0.49905 -0.168912,0.99832 -0.25,1.5 -0.05057,0.31267 -0.108609,0.62383 -0.15625,0.9375 -0.06911,0.45519 -0.124613,0.91774 -0.1875,1.375 -0.105954,0.7704 -0.193117,1.53638 -0.28125,2.3125 -0.08813,0.77612 -0.179899,1.56213 -0.25,2.34375 -0.139283,1.553 -0.245648,3.11401 -0.3125,4.6875 -4.41e-4,0.0104 4.38e-4,0.0209 0,0.0312 -2.7e-5,0.008 2.7e-5,0.0229 0,0.0312 C 19.995828,144.52902 20,188.32263 20,256.0625 c 0,67.69194 -0.0033,111.44271 0.09375,141.84375 1.07e-4,0.0334 -1.07e-4,0.0917 0,0.125 0.0022,0.0524 -0.0023,0.10389 0,0.15625 0.0084,0.18714 0.02184,0.37564 0.03125,0.5625 0.10587,2.14272 0.291576,4.27142 0.53125,6.375 0.0023,0.0206 -0.0024,0.0419 0,0.0625 0.08856,0.77298 0.206258,1.51395 0.3125,2.28125 0.107671,0.77762 0.218135,1.57218 0.34375,2.34375 0.110714,0.67613 0.219415,1.35992 0.34375,2.03125 0.01731,0.0939 0.04493,0.18743 0.0625,0.28125 0.08949,0.47548 0.184986,0.96451 0.28125,1.4375 0.115748,0.56872 0.218291,1.12246 0.34375,1.6875 0.05136,0.2313 0.103277,0.45683 0.15625,0.6875 0.05544,0.24229 0.130278,0.47716 0.1875,0.71875 0.168714,0.71001 0.347315,1.42115 0.53125,2.125 0.01079,0.0414 0.02041,0.0836 0.03125,0.125 0.153969,0.58602 0.304342,1.16838 0.46875,1.75 0.04405,0.15622 0.08021,0.31285 0.125,0.46875 0.179375,0.62283 0.371264,1.2574 0.5625,1.875 0.03482,0.11268 0.05854,0.23125 0.09375,0.34375 0.205574,0.65538 0.437456,1.2882 0.65625,1.9375 0.256854,0.76225 0.50641,1.52761 0.78125,2.28125 0.01464,0.0402 0.01656,0.0848 0.03125,0.125 0.261099,0.71305 0.535514,1.41991 0.8125,2.125 0.277337,0.70739 0.58189,1.42582 0.875,2.125 0.01273,0.0303 0.01849,0.0635 0.03125,0.0937 0.280961,0.66829 0.579817,1.30817 0.875,1.96875 0.126258,0.28202 0.246174,0.56316 0.375,0.84375 0.186593,0.40717 0.370539,0.81463 0.5625,1.21875 0.05022,0.10551 0.105669,0.2072 0.15625,0.3125 0.296257,0.61798 0.597551,1.2331 0.90625,1.84375 0.104796,0.20699 0.206286,0.41886 0.3125,0.625 0.310007,0.60166 0.646774,1.18698 0.96875,1.78125 0.377433,0.69663 0.762605,1.40751 1.15625,2.09375 0.251968,0.43977 0.491461,0.87707 0.75,1.3125 0.144428,0.24294 0.291042,0.47718 0.4375,0.71875 0.409604,0.6756 0.82469,1.33529 1.25,2 0.85062,1.32942 1.744326,2.65318 2.65625,3.9375 0.379219,0.53462 0.766661,1.06718 1.15625,1.59375 0.137991,0.18627 0.266973,0.37725 0.40625,0.5625 0.294429,0.39216 0.606107,0.7687 0.90625,1.15625 0.199718,0.25754 0.39153,0.52578 0.59375,0.78125 0.08327,0.10531 0.166308,0.20754 0.25,0.3125 0.325327,0.4076 0.668339,0.81652 1,1.21875 0.500041,0.60644 0.985773,1.18722 1.5,1.78125 0.514227,0.59403 1.03434,1.19989 1.5625,1.78125 1.056321,1.16272 2.139466,2.29572 3.25,3.40625 1.105203,1.1052 2.218105,2.19849 3.375,3.25 0.0056,0.005 0.02567,-0.005 0.03125,0 1.744081,1.58448 3.550447,3.1057 5.40625,4.5625 16.595324,13.02732 37.53268,20.80712 60.34375,20.90625 0.14694,6.4e-4 0.2904,0 0.4375,0 l 139.3125,-0.21875 145.40625,-0.21875 c 30.1265,-2.8202 56.21626,-19.12761 72.21875,-42.84375 0.44099,-0.65356 0.88696,-1.30404 1.3125,-1.96875 0.29883,-0.46679 0.5839,-0.93407 0.875,-1.40625 0.12249,-0.19908 0.25389,-0.39372 0.375,-0.59375 0.0486,-0.0801 0.0766,-0.16976 0.125,-0.25 0.35959,-0.59664 0.71533,-1.17635 1.0625,-1.78125 0.78772,-1.37249 1.55891,-2.77397 2.28125,-4.1875 0.36117,-0.70677 0.71805,-1.4396 1.0625,-2.15625 0.34445,-0.71665 0.67253,-1.42998 1,-2.15625 0.9824,-2.17882 1.89373,-4.39533 2.71875,-6.65625 0.0158,-0.0433 0.0468,-0.0817 0.0625,-0.125 0.25824,-0.71082 0.4765,-1.43778 0.71875,-2.15625 0.23268,-0.69009 0.46976,-1.36554 0.6875,-2.0625 0.0226,-0.0724 0.0401,-0.14628 0.0625,-0.21875 0.71629,-2.31184 1.35875,-4.67996 1.90625,-7.0625 0.1825,-0.79418 0.33676,-1.57347 0.5,-2.375 0.16324,-0.80153 0.32503,-1.62888 0.46875,-2.4375 0.14372,-0.80862 0.2823,-1.62203 0.40625,-2.4375 0.0414,-0.2723 0.0858,-0.53945 0.125,-0.8125 0.0775,-0.54368 0.15007,-1.07843 0.21875,-1.625 0.0263,-0.20779 0.0375,-0.4168 0.0625,-0.625 0.073,-0.61274 0.15696,-1.22753 0.21875,-1.84375 0.0146,-0.14477 0.0173,-0.29255 0.0312,-0.4375 0.0731,-0.7627 0.1318,-1.51345 0.1875,-2.28125 0.0557,-0.7678 0.11813,-1.53979 0.15625,-2.3125 0.0392,-0.77814 0.0726,-1.56082 0.0937,-2.34375 8.9e-4,-0.0342 -8.7e-4,-0.0596 0,-0.0937 7e-5,-0.0363 -4e-5,-0.06 0,-0.0937 0.008,-0.32368 -0.005,-0.64428 0,-0.96875 0.0211,-10.67233 0.028,-23.05015 0.0312,-37.46875 0.003,-14.4186 0,-30.88391 0,-49.65625 l 0,-151.375 -5,-5 0,234 C 487,439.0725 444.0725,482 390.75,482 l -269.5,0 C 67.9275,482 25,439.0725 25,385.75 l 0,-269.5 c 0,-51.518951 40.071412,-93.32402 90.875,-96.09375 -0.86176,0.0023 -2.12816,-0.0024 -2.96875,0 z"
           transform="translate(1532.187,-330.41615)"
           id="path3981-7-8"
           style="opacity:0.15;color:#000000;fill:url(#linearGradient4086-12-9);fill-opacity:1;fill-rule:nonzero;stroke:none;stroke-width:1.5;marker:none;visibility:visible;display:inline;overflow:visible;enable-background:accumulate" />
      </g>
    </g>
  </g>
  <path
     d="m 355.24998,20.00003 0,102.5625 c 0,9.77909 4.10646,18.58192 10.6875,24.8125 l 126.0625,126.09375 0,-116.71875 -68.375,-68.375 z"
     id="path6657"
     style="fill:#000000;fill-opacity:0.15686275;fill-rule:nonzero;stroke:none" />
  <path
     d="m 355.25321,20.00002 0,102.555 c 0,18.88151 15.30349,34.185 34.185,34.185 l 102.555,0 -136.74,-136.74"
     id="path24"
     style="color:#000000;fill:#fcfcd3;fill-opacity:1;fill-rule:nonzero;stroke:none;marker:none;visibility:visible;display:inline;overflow:visible;enable-background:accumulate" />
  <path
     d="m 238.84375,171.5625 c 0.3269,6.64964 -0.50675,12.80063 -2.46875,18.46875 -2.28925,6.54061 -5.38837,9.85996 -9.3125,9.96875 -1.5262,2.1e-4 -4.09038,-1.9033 -7.6875,-5.71875 -5.12341,-5.55912 -8.44275,-8.9257 -9.96875,-10.125 -5.66843,-4.68706 -14.3836,-7.64444 -26.15625,-8.84375 0.43597,2.8344 1.63157,7.96277 3.59375,15.375 1.63504,5.88657 2.43744,10.70023 2.4375,14.40625 -6e-5,4.46948 -0.9282,8.85868 -2.78125,13.21875 -1.30814,3.05238 -4.0613,7.11087 -8.3125,12.125 -3.59727,4.36045 -5.94123,8.52942 -7.03125,12.5625 -0.54508,2.07129 -0.89104,4.36801 -1,6.875 -0.10901,4.25141 -0.1563,7.47627 -0.15625,9.65625 -0.76309,7.52161 -6.50489,18.40775 -17.1875,32.6875 -10.13764,13.62594 -14.9673,24.32312 -14.53125,32.0625 0.76303,14.71597 4.69579,24.89421 11.78125,30.5625 8.50248,6.86746 19.43588,10.31254 32.84375,10.3125 3.81517,4e-5 6.59958,-0.48765 8.34375,-1.46875 2.7251,-1.63506 4.84884,-3.88453 6.375,-6.71875 3.48814,-6.54035 5.65911,-10.39461 6.53125,-11.59375 11.11858,-16.67794 29.46108,-28.44499 54.96875,-35.3125 0.65391,7.30354 -4.6002,17.26156 -15.71875,29.90625 -14.93402,17.11411 -24.08964,28.73942 -27.46875,34.84375 -6.54049,11.99077 -9.81259,20.35997 -9.8125,25.15625 -9e-5,3.48822 0.92805,6.88605 2.78125,10.15625 2.94309,5.34133 34.12249,7.99999 93.53125,8 47.63569,-2e-5 72.88433,-1.46308 75.71875,-4.40625 2.94292,-2.83417 4.40599,-11.81681 4.40625,-26.96875 -2.6e-4,-25.72553 -3.80729,-52.26425 -11.4375,-79.625 -9.59283,-34.44598 -23.29463,-60.5755 -41.0625,-78.34375 -8.61172,-8.61134 -17.3269,-15.02979 -26.15625,-19.28125 -4.68746,-2.17993 -11.54637,-4.47665 -20.59375,-6.875 -7.63062,-1.96191 -13.24667,-4.18013 -16.84375,-6.6875 -0.87219,-0.65382 -4.09705,-4.97979 -9.65625,-12.9375 -4.03337,-5.99514 -10.01139,-9.80217 -17.96875,-11.4375 z"
     id="path8199"
     style="font-size:327.02005005px;font-style:normal;font-variant:normal;font-weight:normal;font-stretch:normal;line-height:125%;letter-spacing:0px;word-spacing:0px;fill:#fcfcd3;fill-opacity:1;stroke:none;font-family:ZurichFigurine;-inkscape-font-specification:ZurichFigurine" />
  <g
     transform="translate(10.14187,-10.692315)"
     id="g3942"
     style="font-size:65.40400696px;font-style:normal;font-weight:normal;line-height:125%;letter-spacing:0px;word-spacing:0px;fill:#252267;fill-opacity:1;stroke:none;font-family:Sans">
    <path
       d="m 368.00295,424.41054 c -2.83442,2.94318 -28.06945,4.41477 -75.70514,4.41478 -59.40876,-10e-6 -90.58464,-2.67067 -93.52773,-8.012 -1.8532,-3.27019 -2.77976,-6.6494 -2.77967,-10.13762 -9e-5,-4.79628 3.27011,-13.18978 9.8106,-25.18054 3.37911,-6.10433 12.53566,-17.71353 27.46968,-34.82764 11.11855,-12.64469 16.35087,-22.61879 15.69696,-29.92233 -25.50767,6.86751 -43.82078,18.64022 -54.93936,35.31816 -0.87214,1.19914 -3.05227,5.06887 -6.54041,11.60922 -1.52616,2.83422 -3.65179,5.06885 -6.37689,6.70391 -1.74417,0.9811 -4.52384,1.47163 -8.33901,1.47159 -13.40787,4e-5 -24.36303,-3.43367 -32.86551,-10.30113 -7.08546,-5.66829 -11.00969,-15.86041 -11.77272,-30.57638 -0.43605,-7.73938 4.41475,-18.42202 14.55239,-32.04796 10.68261,-14.27975 16.40546,-25.1804 17.16855,-32.70201 -5e-5,-2.17998 0.0545,-5.39567 0.16351,-9.64709 0.10896,-2.50699 0.43598,-4.79613 0.98106,-6.86742 1.09002,-4.03308 3.43366,-8.22983 7.03093,-12.59027 4.2512,-5.01413 7.03087,-9.04737 8.33901,-12.09975 1.85305,-4.36007 2.77961,-8.77483 2.77967,-13.24431 -6e-5,-3.70602 -0.81761,-8.50231 -2.45265,-14.38888 -1.96218,-7.41223 -3.16125,-12.53554 -3.59722,-15.36994 11.77265,1.19931 20.49318,4.14248 26.16161,8.82954 1.526,1.1993 4.8507,4.5785 9.97411,10.13762 3.59712,3.81545 6.15877,5.72306 7.68497,5.72285 3.92413,-0.10879 7.03082,-3.4335 9.32007,-9.97411 1.962,-5.66812 2.77955,-11.82699 2.45265,-18.47663 7.95736,1.63533 13.95273,5.45056 17.9861,11.4457 5.5592,7.95771 8.7749,12.26347 9.64709,12.91729 3.59708,2.50737 9.21092,4.742 16.84154,6.70391 9.04738,2.39835 15.9148,4.68749 20.60226,6.86742 8.82935,4.25146 17.54988,10.68285 26.1616,19.29419 17.76787,17.76825 31.44819,43.87532 41.04102,78.3213 7.63021,27.36075 11.44544,53.90385 11.4457,79.62938 -2.6e-4,15.15194 -1.47185,24.14498 -4.41477,26.97915 m -11.60921,-14.7159 c 1.74386,-0.43601 2.61591,-6.15886 2.61616,-17.16855 -2.5e-4,-23.00036 -3.32495,-47.14532 -9.97411,-72.43494 -8.72076,-33.1379 -21.14751,-57.06484 -37.28029,-71.7809 -7.08562,-6.43122 -17.33224,-12.42658 -30.73988,-17.98611 -15.04308,-6.32219 -25.18069,-11.33649 -30.41287,-15.04292 -1.85325,-1.41688 -6.37702,-6.86721 -13.57133,-16.351 -0.65416,6.2136 -3.05231,11.71843 -7.19444,16.51451 -4.14237,4.7965 -8.23011,7.35815 -12.26325,7.68497 -3.70633,0.21821 -8.2301,-2.45245 -13.57133,-8.01199 -7.52155,-7.73926 -13.2989,-12.86257 -17.33207,-15.36994 2.61609,11.3369 2.23456,22.12856 -1.14457,32.37499 -1.19914,3.48839 -3.48828,7.30362 -6.86742,11.4457 -3.70629,4.46944 -6.15893,8.01216 -7.35795,10.62815 -0.7631,1.96228 -1.14463,4.52394 -1.14457,7.68497 0.21796,4.0334 0.21796,6.59506 0,7.68497 -1.30813,8.39366 -6.86747,19.73034 -16.67802,34.01009 -9.59262,13.84395 -14.66143,24.47209 -15.20643,31.88445 -0.65407,7.19452 1.41706,13.5714 6.21338,19.13067 4.03321,4.68735 7.95745,7.24901 11.77272,7.68498 3.05214,0.32707 5.94081,-2.45259 8.66603,-8.33902 2.72511,-5.88628 4.79624,-8.82946 6.21338,-8.82954 2.72511,8e-5 4.08769,1.63518 4.08775,4.9053 -6e-5,1.74418 -0.92662,4.46934 -2.77967,8.1755 -1.74416,3.70629 -2.61622,6.04993 -2.61616,7.03094 -6e-5,1.41714 1.19902,2.12568 3.59722,2.12563 3.16113,5e-5 7.6304,-5.01425 13.40782,-15.04293 6.64933,-11.66363 12.97171,-19.34859 18.96717,-23.05491 1.30798,-0.76295 7.35785,-3.48812 18.14961,-8.1755 6.97631,-3.05209 14.06174,-8.06639 21.2563,-15.04292 3.70609,-3.59711 7.35781,-10.79154 10.95517,-21.58333 2.94304,-8.9384 5.39569,-13.13515 7.35796,-12.59027 1.85296,0.65419 2.77951,2.88882 2.77967,6.70391 -1.6e-4,2.18028 -0.43618,5.832 -1.30808,10.95517 -0.87221,5.77748 -1.36274,9.70172 -1.47159,11.77273 -0.21817,5.45044 -1.30823,14.11647 -3.2702,25.99809 -1.96227,7.19453 -11.39134,21.25638 -28.28724,42.18559 -15.15203,18.85818 -22.29196,31.88447 -21.41981,39.07889 0.43593,4.36028 22.45525,6.54041 66.05805,6.5404 38.37015,1e-5 64.96775,-1.7986 79.79289,-5.39583 M 206.61856,257.95734 c -0.32712,4.36042 -1.6897,7.03109 -4.08775,8.01199 -2.28923,0.98121 -4.63287,1.96227 -7.03093,2.94318 -0.76313,0.43618 -2.56174,2.23479 -5.39584,5.39583 -1.96219,2.07127 -3.7608,3.10684 -5.39583,3.10669 -0.43609,1.5e-4 -0.87212,-0.0544 -1.30808,-0.16351 -2.72523,-0.7629 -3.43377,-3.54257 -2.12563,-8.33901 1.09,-4.03309 3.48814,-8.06633 7.19444,-12.09974 3.81516,-4.14209 6.92185,-6.26772 9.32008,-6.37689 3.37911,-0.21784 5.66825,0.0547 6.86742,0.81755 1.635,0.98123 2.28904,3.21586 1.96212,6.70391 m -46.76387,77.50375 c -1.41713,7.52154 -4.1968,10.90074 -8.33901,10.13762 -4.14229,-0.65396 -5.55938,-4.79621 -4.25126,-12.42676 1.30804,-7.52137 4.08771,-10.95507 8.33901,-10.30113 4.14221,0.76314 5.55929,4.9599 4.25126,12.59027"
       id="path3944"
       style="font-size:327.02005005px;font-variant:normal;font-stretch:normal;fill:#252267;fill-opacity:1;font-family:ZurichFigurine;-inkscape-font-specification:ZurichFigurine" />
  </g>
</svg>
