<?xml version="1.0" encoding="UTF-8" standalone="no"?>
<svg
   xmlns:dc="http://purl.org/dc/elements/1.1/"
   xmlns:cc="http://creativecommons.org/ns#"
   xmlns:rdf="http://www.w3.org/1999/02/22-rdf-syntax-ns#"
   xmlns:svg="http://www.w3.org/2000/svg"
   xmlns="http://www.w3.org/2000/svg"
   xmlns:xlink="http://www.w3.org/1999/xlink"
   id="svg2"
   height="512"
   width="512"
   version="1.1">
  <defs
     id="defs4">
    <linearGradient
       id="linearGradient3170">
      <stop
         id="stop3172"
         style="stop-color:#cc7110;stop-opacity:1"
         offset="0" />
      <stop
         id="stop3174"
         style="stop-color:#673f0b;stop-opacity:0.78448278"
         offset="1" />
    </linearGradient>
    <linearGradient
       id="linearGradient3938">
      <stop
         id="stop3940"
         style="stop-color:#b1f1ee;stop-opacity:0.93103451"
         offset="0" />
      <stop
         id="stop3942"
         style="stop-color:#132682;stop-opacity:1"
         offset="1" />
    </linearGradient>
    <linearGradient
       x1="64.477501"
       y1="56.3008"
       x2="78.466103"
       y2="48.0854"
       id="XMLID_74_-8-1"
       gradientUnits="userSpaceOnUse">
      <stop
         id="stop155-3-8"
         style="stop-color:#ffffff;stop-opacity:1"
         offset="0" />
      <stop
         id="stop157-94-6"
         style="stop-color:#e6e6e6;stop-opacity:1"
         offset="1" />
    </linearGradient>
    <radialGradient
       cx="558.35437"
       cy="385.4841"
       r="191.6187"
       fx="558.35437"
       fy="385.4841"
       id="radialGradient3867"
       xlink:href="#XMLID_74_-8-1"
       gradientUnits="userSpaceOnUse"
       gradientTransform="matrix(1,0,0,1.0499906,0,-19.270593)" />
    <linearGradient
       x1="200.0508"
       y1="185.0742"
       x2="200.0508"
       y2="217.4595"
       id="SVGID_2_"
       gradientUnits="userSpaceOnUse">
      <stop
         id="stop13"
         style="stop-color:#61b74a;stop-opacity:1"
         offset="0" />
      <stop
         id="stop15"
         style="stop-color:#449934;stop-opacity:1"
         offset="1" />
    </linearGradient>
    <linearGradient
       x1="200.0508"
       y1="185.0742"
       x2="200.0508"
       y2="217.4595"
       id="linearGradient3021"
       xlink:href="#SVGID_2_"
       gradientUnits="userSpaceOnUse"
       gradientTransform="matrix(13.577628,0,0,13.577628,-2026.1619,-2566.7096)" />
    <linearGradient
       x1="19.244999"
       y1="21.030804"
       x2="19.360001"
       y2="44.984001"
       id="linearGradient2460"
       gradientUnits="userSpaceOnUse">
      <stop
         id="stop3602"
         style="stop-color:#fafafa;stop-opacity:1"
         offset="0" />
      <stop
         id="stop3604"
         style="stop-color:#f0f0f0;stop-opacity:1"
         offset="1" />
    </linearGradient>
    <linearGradient
       x1="19.244999"
       y1="21.030804"
       x2="19.360001"
       y2="44.984001"
       id="linearGradient3096"
       xlink:href="#linearGradient2460"
       gradientUnits="userSpaceOnUse"
       gradientTransform="matrix(11.076923,0,0,11.076923,-9.8523013,-20.578025)" />
    <linearGradient
       x1="1012.5133"
       y1="484.41721"
       x2="1006.8082"
       y2="20.625916"
       id="linearGradient4114-2"
       xlink:href="#ButtonShadow-0-1-1-5"
       gradientUnits="userSpaceOnUse"
       gradientTransform="matrix(1.0317796,0,0,1.0317796,-830.86406,592.67791)" />
    <linearGradient
       x1="45.447727"
       y1="92.539597"
       x2="45.447727"
       y2="7.0165396"
       id="ButtonShadow-0-1-1-5"
       gradientUnits="userSpaceOnUse"
       gradientTransform="matrix(1.0058652,0,0,0.994169,100,0)">
      <stop
         id="stop3750-8-9-3-6"
         style="stop-color:#000000;stop-opacity:1"
         offset="0" />
      <stop
         id="stop3752-5-6-4-2"
         style="stop-color:#000000;stop-opacity:0.58823532"
         offset="1" />
    </linearGradient>
    <linearGradient
       x1="1012.5133"
       y1="484.41721"
       x2="1006.8082"
       y2="20.625916"
       id="linearGradient4112-2"
       xlink:href="#ButtonShadow-0-1-1-5"
       gradientUnits="userSpaceOnUse"
       gradientTransform="matrix(1.0402541,0,0,1.0402541,-837.95116,592.51825)" />
    <linearGradient
       x1="45.447727"
       y1="92.539597"
       x2="45.447727"
       y2="7.0165396"
       id="linearGradient5292"
       gradientUnits="userSpaceOnUse"
       gradientTransform="matrix(1.0058652,0,0,0.994169,100,0)">
      <stop
         id="stop5294"
         style="stop-color:#000000;stop-opacity:1"
         offset="0" />
      <stop
         id="stop5296"
         style="stop-color:#000000;stop-opacity:0.58823532"
         offset="1" />
    </linearGradient>
    <linearGradient
       x1="1012.5133"
       y1="484.41721"
       x2="1006.8082"
       y2="20.625916"
       id="linearGradient4110-6"
       xlink:href="#ButtonShadow-0-1-1-5"
       gradientUnits="userSpaceOnUse"
       gradientTransform="matrix(1.023305,0,0,1.023305,-823.77704,592.83757)" />
    <linearGradient
       x1="45.447727"
       y1="92.539597"
       x2="45.447727"
       y2="7.0165396"
       id="linearGradient5299"
       gradientUnits="userSpaceOnUse"
       gradientTransform="matrix(1.0058652,0,0,0.994169,100,0)">
      <stop
         id="stop5301"
         style="stop-color:#000000;stop-opacity:1"
         offset="0" />
      <stop
         id="stop5303"
         style="stop-color:#000000;stop-opacity:0.58823532"
         offset="1" />
    </linearGradient>
    <linearGradient
       x1="1012.5133"
       y1="484.41721"
       x2="1006.8082"
       y2="20.625916"
       id="linearGradient4116-6"
       xlink:href="#ButtonShadow-0-1-1-5"
       gradientUnits="userSpaceOnUse"
       gradientTransform="matrix(1.0148305,0,0,1.0148305,-816.68996,592.99723)" />
    <linearGradient
       x1="45.447727"
       y1="92.539597"
       x2="45.447727"
       y2="7.0165396"
       id="linearGradient5306"
       gradientUnits="userSpaceOnUse"
       gradientTransform="matrix(1.0058652,0,0,0.994169,100,0)">
      <stop
         id="stop5308"
         style="stop-color:#000000;stop-opacity:1"
         offset="0" />
      <stop
         id="stop5310"
         style="stop-color:#000000;stop-opacity:0.58823532"
         offset="1" />
    </linearGradient>
    <linearGradient
       x1="1012.5133"
       y1="484.41721"
       x2="1006.8082"
       y2="20.625916"
       id="linearGradient3372"
       xlink:href="#ButtonShadow-0-1-1-5"
       gradientUnits="userSpaceOnUse"
       gradientTransform="matrix(1.0074153,0,0,1.0074153,-810.48879,593.1369)" />
    <linearGradient
       x1="45.447727"
       y1="92.539597"
       x2="45.447727"
       y2="7.0165396"
       id="linearGradient5313"
       gradientUnits="userSpaceOnUse"
       gradientTransform="matrix(1.0058652,0,0,0.994169,100,0)">
      <stop
         id="stop5315"
         style="stop-color:#000000;stop-opacity:1"
         offset="0" />
      <stop
         id="stop5317"
         style="stop-color:#000000;stop-opacity:0.58823532"
         offset="1" />
    </linearGradient>
    <linearGradient
       x1="1016.1035"
       y1="476.25983"
       x2="1011.9534"
       y2="251.66064"
       id="linearGradient4082"
       xlink:href="#linearGradient4487"
       gradientUnits="userSpaceOnUse"
       gradientTransform="translate(-146.22032,369.08845)" />
    <linearGradient
       id="linearGradient4487">
      <stop
         id="stop4489"
         style="stop-color:#000000;stop-opacity:1"
         offset="0" />
      <stop
         id="stop4491"
         style="stop-color:#000000;stop-opacity:0"
         offset="1" />
    </linearGradient>
    <linearGradient
       id="linearGradient3737">
      <stop
         id="stop3739"
         style="stop-color:#ffffff;stop-opacity:1"
         offset="0" />
      <stop
         id="stop3741"
         style="stop-color:#ffffff;stop-opacity:0"
         offset="1" />
    </linearGradient>
    <linearGradient
       id="linearGradient4046">
      <stop
         id="stop4048"
         style="stop-color:#000000;stop-opacity:1"
         offset="0" />
      <stop
         id="stop4050"
         style="stop-color:#ffffff;stop-opacity:0.2"
         offset="1" />
    </linearGradient>
    <linearGradient
       x1="1012.5133"
       y1="484.41721"
       x2="1006.8082"
       y2="20.625916"
       id="linearGradient5342"
       xlink:href="#ButtonShadow-0-1-1-5"
       gradientUnits="userSpaceOnUse"
       gradientTransform="matrix(1.0074153,0,0,1.0074153,-810.48879,593.1369)" />
    <linearGradient
       x1="1012.5133"
       y1="484.41721"
       x2="1006.8082"
       y2="20.625916"
       id="linearGradient4114-2-6"
       xlink:href="#ButtonShadow-0-1-1-5-9"
       gradientUnits="userSpaceOnUse"
       gradientTransform="matrix(1.0317796,0,0,1.0317796,-830.86406,592.67791)" />
    <linearGradient
       x1="45.447727"
       y1="92.539597"
       x2="45.447727"
       y2="7.0165396"
       id="ButtonShadow-0-1-1-5-9"
       gradientUnits="userSpaceOnUse"
       gradientTransform="matrix(1.0058652,0,0,0.994169,100,0)">
      <stop
         id="stop3750-8-9-3-6-4"
         style="stop-color:#000000;stop-opacity:1"
         offset="0" />
      <stop
         id="stop3752-5-6-4-2-9"
         style="stop-color:#000000;stop-opacity:0.58823532"
         offset="1" />
    </linearGradient>
    <linearGradient
       x1="1012.5133"
       y1="484.41721"
       x2="1006.8082"
       y2="20.625916"
       id="linearGradient4112-2-6"
       xlink:href="#ButtonShadow-0-1-1-5-9"
       gradientUnits="userSpaceOnUse"
       gradientTransform="matrix(1.0402541,0,0,1.0402541,-837.95116,592.51825)" />
    <linearGradient
       x1="45.447727"
       y1="92.539597"
       x2="45.447727"
       y2="7.0165396"
       id="linearGradient5292-5"
       gradientUnits="userSpaceOnUse"
       gradientTransform="matrix(1.0058652,0,0,0.994169,100,0)">
      <stop
         id="stop5294-8"
         style="stop-color:#000000;stop-opacity:1"
         offset="0" />
      <stop
         id="stop5296-4"
         style="stop-color:#000000;stop-opacity:0.58823532"
         offset="1" />
    </linearGradient>
    <linearGradient
       x1="1012.5133"
       y1="484.41721"
       x2="1006.8082"
       y2="20.625916"
       id="linearGradient4110-6-7"
       xlink:href="#ButtonShadow-0-1-1-5-9"
       gradientUnits="userSpaceOnUse"
       gradientTransform="matrix(1.023305,0,0,1.023305,-823.77704,592.83757)" />
    <linearGradient
       x1="45.447727"
       y1="92.539597"
       x2="45.447727"
       y2="7.0165396"
       id="linearGradient5299-2"
       gradientUnits="userSpaceOnUse"
       gradientTransform="matrix(1.0058652,0,0,0.994169,100,0)">
      <stop
         id="stop5301-9"
         style="stop-color:#000000;stop-opacity:1"
         offset="0" />
      <stop
         id="stop5303-1"
         style="stop-color:#000000;stop-opacity:0.58823532"
         offset="1" />
    </linearGradient>
    <linearGradient
       x1="1012.5133"
       y1="484.41721"
       x2="1006.8082"
       y2="20.625916"
       id="linearGradient4116-6-3"
       xlink:href="#ButtonShadow-0-1-1-5-9"
       gradientUnits="userSpaceOnUse"
       gradientTransform="matrix(1.0148305,0,0,1.0148305,-816.68996,592.99723)" />
    <linearGradient
       x1="45.447727"
       y1="92.539597"
       x2="45.447727"
       y2="7.0165396"
       id="linearGradient5306-9"
       gradientUnits="userSpaceOnUse"
       gradientTransform="matrix(1.0058652,0,0,0.994169,100,0)">
      <stop
         id="stop5308-0"
         style="stop-color:#000000;stop-opacity:1"
         offset="0" />
      <stop
         id="stop5310-6"
         style="stop-color:#000000;stop-opacity:0.58823532"
         offset="1" />
    </linearGradient>
    <linearGradient
       x1="1012.5133"
       y1="484.41721"
       x2="1006.8082"
       y2="20.625916"
       id="linearGradient3372-9"
       xlink:href="#ButtonShadow-0-1-1-5-9"
       gradientUnits="userSpaceOnUse"
       gradientTransform="matrix(1.0074153,0,0,1.0074153,-810.48879,593.1369)" />
    <linearGradient
       x1="45.447727"
       y1="92.539597"
       x2="45.447727"
       y2="7.0165396"
       id="linearGradient5313-8"
       gradientUnits="userSpaceOnUse"
       gradientTransform="matrix(1.0058652,0,0,0.994169,100,0)">
      <stop
         id="stop5315-8"
         style="stop-color:#000000;stop-opacity:1"
         offset="0" />
      <stop
         id="stop5317-1"
         style="stop-color:#000000;stop-opacity:0.58823532"
         offset="1" />
    </linearGradient>
    <linearGradient
       x1="1016.1035"
       y1="476.25983"
       x2="1011.9534"
       y2="251.66064"
       id="linearGradient4082-7"
       xlink:href="#linearGradient4487-8"
       gradientUnits="userSpaceOnUse"
       gradientTransform="translate(-146.22032,369.08845)" />
    <linearGradient
       id="linearGradient4487-8">
      <stop
         id="stop4489-0"
         style="stop-color:#000000;stop-opacity:1"
         offset="0" />
      <stop
         id="stop4491-4"
         style="stop-color:#000000;stop-opacity:0"
         offset="1" />
    </linearGradient>
    <linearGradient
       x1="993.43896"
       y1="51.511765"
       x2="988.78552"
       y2="363.73825"
       id="linearGradient4084-7"
       xlink:href="#linearGradient3737-8"
       gradientUnits="userSpaceOnUse"
       gradientTransform="translate(778.59979,-360.55963)" />
    <linearGradient
       id="linearGradient3737-8">
      <stop
         id="stop3739-4"
         style="stop-color:#ffffff;stop-opacity:1"
         offset="0" />
      <stop
         id="stop3741-7"
         style="stop-color:#ffffff;stop-opacity:0"
         offset="1" />
    </linearGradient>
    <linearGradient
       x1="1764.6487"
       y1="155.59685"
       x2="1763.6903"
       y2="-55.941216"
       id="linearGradient4086-1"
       xlink:href="#linearGradient4046-2"
       gradientUnits="userSpaceOnUse" />
    <linearGradient
       id="linearGradient4046-2">
      <stop
         id="stop4048-2"
         style="stop-color:#000000;stop-opacity:1"
         offset="0" />
      <stop
         id="stop4050-7"
         style="stop-color:#ffffff;stop-opacity:0.2"
         offset="1" />
    </linearGradient>
    <linearGradient
       x1="1012.5133"
       y1="484.41721"
       x2="1006.8082"
       y2="20.625916"
       id="linearGradient5342-3"
       xlink:href="#ButtonShadow-0-1-1-5-9"
       gradientUnits="userSpaceOnUse"
       gradientTransform="matrix(1.0074153,0,0,1.0074153,-810.48879,593.1369)" />
    <linearGradient
       id="linearGradient4487-1">
      <stop
         id="stop4489-6"
         style="stop-color:#000000;stop-opacity:1"
         offset="0" />
      <stop
         id="stop4491-0"
         style="stop-color:#000000;stop-opacity:0"
         offset="1" />
    </linearGradient>
    <linearGradient
       x1="993.43896"
       y1="51.511765"
       x2="988.78552"
       y2="363.73825"
       id="linearGradient4084-8"
       xlink:href="#linearGradient3737-9"
       gradientUnits="userSpaceOnUse"
       gradientTransform="translate(778.59979,-360.55963)" />
    <linearGradient
       id="linearGradient3737-9">
      <stop
         id="stop3739-7"
         style="stop-color:#ffffff;stop-opacity:1"
         offset="0" />
      <stop
         id="stop3741-4"
         style="stop-color:#ffffff;stop-opacity:0"
         offset="1" />
    </linearGradient>
    <linearGradient
       x1="1764.6487"
       y1="155.59685"
       x2="1763.6903"
       y2="-55.941216"
       id="linearGradient4086-12"
       xlink:href="#linearGradient4046-3"
       gradientUnits="userSpaceOnUse" />
    <linearGradient
       id="linearGradient4046-3">
      <stop
         id="stop4048-7"
         style="stop-color:#000000;stop-opacity:1"
         offset="0" />
      <stop
         id="stop4050-73"
         style="stop-color:#ffffff;stop-opacity:0.2"
         offset="1" />
    </linearGradient>
    <linearGradient
       id="linearGradient2760">
      <stop
         id="stop2770"
         style="stop-color:#ffffff;stop-opacity:1"
         offset="0" />
      <stop
         id="stop2764"
         style="stop-color:#a9a9a9;stop-opacity:1"
         offset="1" />
    </linearGradient>
    <linearGradient
       id="linearGradient4846">
      <stop
         id="stop4848"
         style="stop-color:#1a1a1a;stop-opacity:1"
         offset="0" />
      <stop
         id="stop4856"
         style="stop-color:#1e1e1e;stop-opacity:1"
         offset="1" />
    </linearGradient>
    <linearGradient
       id="linearGradient4922">
      <stop
         id="stop4924"
         style="stop-color:#1a1a1a;stop-opacity:1"
         offset="0" />
      <stop
         id="stop4926"
         style="stop-color:#636363;stop-opacity:1"
         offset="0.15622118" />
      <stop
         id="stop4928"
         style="stop-color:#b4b4b4;stop-opacity:1"
         offset="0.33151907" />
      <stop
         id="stop4930"
         style="stop-color:#636363;stop-opacity:1"
         offset="0.53579742" />
      <stop
         id="stop4932"
         style="stop-color:#000000;stop-opacity:1"
         offset="1" />
    </linearGradient>
    <linearGradient
       x1="201.33115"
       y1="152.12039"
       x2="166.77547"
       y2="110.85986"
       id="linearGradient4884"
       xlink:href="#linearGradient4888"
       gradientUnits="userSpaceOnUse"
       gradientTransform="matrix(1.2757694,0,0,1.2757694,-135.89444,2.4500392)"
       spreadMethod="reflect" />
    <linearGradient
       id="linearGradient4888">
      <stop
         id="stop4892"
         style="stop-color:#c0821c;stop-opacity:1"
         offset="0" />
      <stop
         id="stop4894"
         style="stop-color:#e4ae48;stop-opacity:1"
         offset="1" />
    </linearGradient>
    <linearGradient
       x1="13.021049"
       y1="160.82593"
       x2="258.22205"
       y2="158.47191"
       id="linearGradient4882"
       xlink:href="#linearGradient4898"
       gradientUnits="userSpaceOnUse" />
    <linearGradient
       id="linearGradient4898">
      <stop
         id="stop4900"
         style="stop-color:#d78617;stop-opacity:1"
         offset="0" />
      <stop
         id="stop4902"
         style="stop-color:#5c1234;stop-opacity:1"
         offset="1" />
    </linearGradient>
    <linearGradient
       x1="45.447727"
       y1="92.539597"
       x2="45.447727"
       y2="7.0165396"
       id="ButtonShadow"
       gradientUnits="userSpaceOnUse"
       gradientTransform="scale(1.0058652,0.994169)">
      <stop
         id="stop3750"
         style="stop-color:#000000;stop-opacity:1"
         offset="0" />
      <stop
         id="stop3752"
         style="stop-color:#000000;stop-opacity:0.58823532"
         offset="1" />
    </linearGradient>
    <filter
       color-interpolation-filters="sRGB"
       id="filter3174">
      <feGaussianBlur
         stdDeviation="1.71"
         id="feGaussianBlur3176" />
    </filter>
    <linearGradient
       id="linearGradient10386">
      <stop
         id="stop10388"
         style="stop-color:#ffffff;stop-opacity:1"
         offset="0" />
      <stop
         id="stop10390"
         style="stop-color:#ffffff;stop-opacity:0"
         offset="1" />
    </linearGradient>
    <linearGradient
       x1="212.86353"
       y1="11.425488"
       x2="214.26566"
       y2="168.28262"
       id="linearGradient8264"
       xlink:href="#linearGradient2760"
       gradientUnits="userSpaceOnUse"
       gradientTransform="matrix(1.8464564,0,0,1.8464564,-123.73343,86.826257)"
       spreadMethod="reflect" />
    <linearGradient
       x1="18.930269"
       y1="6.2951212"
       x2="19.360001"
       y2="36.643665"
       id="linearGradient3157"
       xlink:href="#linearGradient2460"
       gradientUnits="userSpaceOnUse"
       gradientTransform="matrix(12.102564,0,0,12.102564,-34.468255,-46.187105)" />
    <linearGradient
       x1="0"
       y1="0"
       x2="1"
       y2="1"
       id="acyl_gradient"
       xlink:href="#linearGradient4321" />
    <linearGradient
       id="linearGradient4321">
      <stop
         id="stop1"
         style="stop-color:#ee0c0c;stop-opacity:1"
         offset="0" />
      <stop
         id="stop2"
         style="stop-color:#7a0404;stop-opacity:1"
         offset="1" />
    </linearGradient>
    <radialGradient
       cx="94.710419"
       cy="98.692879"
       r="150"
       fx="94.710419"
       fy="98.692879"
       id="radialGradient3928"
       xlink:href="#linearGradient4321"
       gradientUnits="userSpaceOnUse"
       gradientTransform="matrix(2.4249551,-0.00787504,0.00770263,2.3718665,-135.71828,-134.64744)" />
    <radialGradient
       cx="94.710419"
       cy="98.692879"
       r="150"
       fx="94.710419"
       fy="98.692879"
       id="radialGradient3932"
       xlink:href="#linearGradient4321"
       gradientUnits="userSpaceOnUse"
       gradientTransform="matrix(2.4249551,-0.00787504,0.00770263,2.3718665,-135.71828,-134.64744)" />
    <radialGradient
       cx="110.73653"
       cy="112.57468"
       r="150"
       fx="110.73653"
       fy="112.57468"
       id="radialGradient3140"
       xlink:href="#linearGradient3938"
       gradientUnits="userSpaceOnUse"
       gradientTransform="matrix(1.6533901,0.0060994,-0.00539655,1.4623231,-50.506611,-35.439162)" />
    <linearGradient
       x1="-112.34483"
       y1="572.44672"
       x2="-109.97469"
       y2="107.89955"
       id="linearGradient5925"
       xlink:href="#ButtonShadow-0-1-1-5-9-5"
       gradientUnits="userSpaceOnUse"
       gradientTransform="matrix(1.0074417,0,0,1.0074152,261.62679,527.41078)" />
    <linearGradient
       x1="45.447727"
       y1="92.539597"
       x2="45.447727"
       y2="7.0165396"
       id="ButtonShadow-0-1-1-5-9-5"
       gradientUnits="userSpaceOnUse"
       gradientTransform="matrix(1.0058652,0,0,0.994169,100,0)">
      <stop
         id="stop3750-8-9-3-6-4-0"
         style="stop-color:#000000;stop-opacity:1"
         offset="0" />
      <stop
         id="stop3752-5-6-4-2-9-8"
         style="stop-color:#000000;stop-opacity:0.58823532"
         offset="1" />
    </linearGradient>
    <linearGradient
       x1="-112.34483"
       y1="572.44672"
       x2="-109.97469"
       y2="107.89955"
       id="linearGradient5927"
       xlink:href="#ButtonShadow-0-1-1-5-9-5"
       gradientUnits="userSpaceOnUse"
       gradientTransform="matrix(1.0318068,0,0,1.0317796,268.77841,524.78354)" />
    <linearGradient
       x1="45.447727"
       y1="92.539597"
       x2="45.447727"
       y2="7.0165396"
       id="linearGradient3129"
       gradientUnits="userSpaceOnUse"
       gradientTransform="matrix(1.0058652,0,0,0.994169,100,0)">
      <stop
         id="stop3131"
         style="stop-color:#000000;stop-opacity:1"
         offset="0" />
      <stop
         id="stop3133"
         style="stop-color:#000000;stop-opacity:0.58823532"
         offset="1" />
    </linearGradient>
    <linearGradient
       x1="-112.34483"
       y1="572.44672"
       x2="-109.97469"
       y2="107.89955"
       id="linearGradient5929"
       xlink:href="#ButtonShadow-0-1-1-5-9-5"
       gradientUnits="userSpaceOnUse"
       gradientTransform="matrix(1.0148572,0,0,1.0148305,263.80369,526.61118)" />
    <linearGradient
       x1="45.447727"
       y1="92.539597"
       x2="45.447727"
       y2="7.0165396"
       id="linearGradient3136"
       gradientUnits="userSpaceOnUse"
       gradientTransform="matrix(1.0058652,0,0,0.994169,100,0)">
      <stop
         id="stop3138"
         style="stop-color:#000000;stop-opacity:1"
         offset="0" />
      <stop
         id="stop3140"
         style="stop-color:#000000;stop-opacity:0.58823532"
         offset="1" />
    </linearGradient>
    <linearGradient
       x1="-112.34483"
       y1="572.44672"
       x2="-109.97469"
       y2="107.89955"
       id="linearGradient5931"
       xlink:href="#ButtonShadow-0-1-1-5-9-5"
       gradientUnits="userSpaceOnUse"
       gradientTransform="matrix(1.023332,0,0,1.023305,266.29153,525.69736)" />
    <linearGradient
       x1="45.447727"
       y1="92.539597"
       x2="45.447727"
       y2="7.0165396"
       id="linearGradient3143"
       gradientUnits="userSpaceOnUse"
       gradientTransform="matrix(1.0058652,0,0,0.994169,100,0)">
      <stop
         id="stop3145"
         style="stop-color:#000000;stop-opacity:1"
         offset="0" />
      <stop
         id="stop3147"
         style="stop-color:#000000;stop-opacity:0.58823532"
         offset="1" />
    </linearGradient>
    <linearGradient
       x1="-112.34483"
       y1="572.44672"
       x2="-109.97469"
       y2="107.89955"
       id="linearGradient5933"
       xlink:href="#ButtonShadow-0-1-1-5-9-5"
       gradientUnits="userSpaceOnUse"
       gradientTransform="matrix(1.0402816,0,0,1.0402542,271.26626,523.86971)" />
    <linearGradient
       x1="45.447727"
       y1="92.539597"
       x2="45.447727"
       y2="7.0165396"
       id="linearGradient3150"
       gradientUnits="userSpaceOnUse"
       gradientTransform="matrix(1.0058652,0,0,0.994169,100,0)">
      <stop
         id="stop3152"
         style="stop-color:#000000;stop-opacity:1"
         offset="0" />
      <stop
         id="stop3154"
         style="stop-color:#000000;stop-opacity:0.58823532"
         offset="1" />
    </linearGradient>
    <linearGradient
       x1="993.43896"
       y1="51.511765"
       x2="988.78552"
       y2="363.73825"
       id="linearGradient4084-8-2"
       xlink:href="#linearGradient3737-9-0"
       gradientUnits="userSpaceOnUse"
       gradientTransform="translate(-753.58716,-30.14348)" />
    <linearGradient
       id="linearGradient3737-9-0">
      <stop
         id="stop3739-7-5"
         style="stop-color:#ffffff;stop-opacity:1"
         offset="0" />
      <stop
         id="stop3741-4-2"
         style="stop-color:#ffffff;stop-opacity:0"
         offset="1" />
    </linearGradient>
    <linearGradient
       x1="1764.6487"
       y1="155.59685"
       x2="1763.6903"
       y2="-55.941216"
       id="linearGradient4086-12-9"
       xlink:href="#linearGradient4046-3-3"
       gradientUnits="userSpaceOnUse"
       gradientTransform="translate(-1532.187,330.41615)" />
    <linearGradient
       id="linearGradient4046-3-3">
      <stop
         id="stop4048-7-5"
         style="stop-color:#000000;stop-opacity:1"
         offset="0" />
      <stop
         id="stop4050-73-5"
         style="stop-color:#ffffff;stop-opacity:0.2"
         offset="1" />
    </linearGradient>
    <linearGradient
       x1="102.875"
       y1="170.42188"
       x2="153.125"
       y2="170.42188"
       id="linearGradient5071"
       xlink:href="#linearGradient5059"
       gradientUnits="userSpaceOnUse" />
    <linearGradient
       id="linearGradient5059">
      <stop
         id="stop5061"
         style="stop-color:#0b0826;stop-opacity:0.49803922"
         offset="0" />
      <stop
         id="stop5063"
         style="stop-color:#0b0826;stop-opacity:1"
         offset="1" />
    </linearGradient>
    <linearGradient
       x1="102.875"
       y1="170.42188"
       x2="153.125"
       y2="170.42188"
       id="linearGradient3985"
       xlink:href="#linearGradient5059"
       gradientUnits="userSpaceOnUse" />
    <radialGradient
       cx="244.26477"
       cy="286.95432"
       r="62.545898"
       fx="244.26477"
       fy="286.95432"
       id="radialGradient14612"
       xlink:href="#linearGradient3938"
       gradientUnits="userSpaceOnUse"
       gradientTransform="matrix(1,0,0,1.2036395,0,-58.435237)"
       spreadMethod="pad" />
  </defs>
  <metadata
     id="metadata7">
    <rdf:RDF>
      <cc:Work
         rdf:about="">
        <dc:format>image/svg+xml</dc:format>
        <dc:type
           rdf:resource="http://purl.org/dc/dcmitype/StillImage" />
        <dc:title></dc:title>
        <dc:contributor>
          <cc:Agent>
            <dc:title></dc:title>
          </cc:Agent>
        </dc:contributor>
        <dc:creator>
          <cc:Agent>
            <dc:title>Brahim Djoudi</dc:title>
          </cc:Agent>
        </dc:creator>
        <dc:date>20170603</dc:date>
      </cc:Work>
    </rdf:RDF>
  </metadata>
  <g
     transform="translate(0,-540.36218)"
     id="layer1" />
  <g
     transform="matrix(1.1,0,0,0.44444,95.081063,256.39254)"
     id="g2036">
    <g
       transform="matrix(1.0526,0,0,1.2857,-1.2632,-13.429)"
       id="g3712"
       style="opacity:0.4" />
  </g>
  <g
     transform="translate(97.481063,231.28154)"
     id="g3541" />
  <g
     transform="translate(97.481063,231.28154)"
     id="g3536" />
  <g
     transform="translate(-605.51932,-353.96833)"
     id="g4076">
    <g
       transform="translate(-926.66758,684.38448)"
       id="g4038" />
  </g>
  <g
     transform="translate(54.089264,-616.0416)"
     id="g5918">
    <path
       d="m 60.989673,1111.5416 144.328367,-0.2064 147.52725,-0.2409 c 49.0412,-5.1221 87.2248,-45.726 88.537,-95.8499 9e-4,-0.035 -9e-4,-0.069 0,-0.1032 9e-4,-0.414 -8e-4,-0.6473 0,-1.0665 0.042,-21.50295 0.034,-49.94202 0.034,-87.7651 l 0,-152.51368 -68.8621,-68.87715 -68.8965,-68.87715 -152.82436,0.0688 c -40.25265,0.0173 -69.340747,0.0413 -91.323117,0.10316 -50.88989,2.75481 -91.3364,43.54773 -93.49012,94.61146 -0.0987,30.63047 -0.10318,74.7573 -0.10318,143.01819 0,68.26875 0.005,112.38763 0.10312,143.01817 2.17453,51.5569 43.38652,92.644 94.96919,94.6802 z"
       id="path5873"
       style="opacity:0.25;color:#000000;fill:url(#linearGradient5925);fill-opacity:1;fill-rule:nonzero;stroke:none;stroke-width:1.5;marker:none;visibility:visible;display:inline;overflow:visible;enable-background:accumulate" />
    <path
       d="m 63.288833,1123.0416 147.818967,-0.2114 151.09521,-0.2467 c 50.2273,-5.246 89.3343,-46.8319 90.6783,-98.1681 9e-4,-0.035 -9e-4,-0.07 0,-0.1056 9e-4,-0.424 -8e-4,-0.663 0,-1.0924 0.043,-22.0229 0.035,-51.14981 0.035,-89.88764 l 0,-156.20224 -70.5276,-70.54295 -70.5627,-70.54295 -156.52046,0.0705 c -41.22616,0.0177 -71.017757,0.0423 -93.531777,0.10565 -52.12067,2.82144 -93.54538,44.60094 -95.75119,96.89965 -0.10109,31.37127 -0.10567,76.56531 -0.10567,146.47709 0,69.91984 0.005,115.10574 0.10561,146.47699 2.22712,52.804 44.43583,94.8848 97.26603,96.9702 z"
       id="path5902"
       style="opacity:0.1;color:#000000;fill:url(#linearGradient5927);fill-opacity:1;fill-rule:nonzero;stroke:none;stroke-width:1.5;marker:none;visibility:visible;display:inline;overflow:visible;enable-background:accumulate" />
    <path
       d="m 61.689723,1115.0417 145.390727,-0.2079 148.61314,-0.2427 c 49.4022,-5.1598 87.8668,-46.0626 89.1887,-96.5555 9e-4,-0.035 -9e-4,-0.069 0,-0.1039 9e-4,-0.4171 -8e-4,-0.6521 0,-1.0744 0.042,-21.66124 0.034,-50.30964 0.034,-88.41113 l 0,-153.63628 -69.369,-69.38413 -69.4036,-69.38414 -153.94925,0.0693 c -40.54894,0.0174 -69.851137,0.0416 -91.995317,0.10392 -51.26448,2.77509 -92.0087,43.86827 -94.17827,95.30786 -0.0994,30.85594 -0.10394,75.30757 -0.10394,144.07091 0,68.77125 0.005,113.21488 0.10387,144.07079 2.19054,51.9366 43.70588,93.3261 95.66824,95.3773 z"
       id="path5906"
       style="opacity:0.25;color:#000000;fill:url(#linearGradient5929);fill-opacity:1;fill-rule:nonzero;stroke:none;stroke-width:1.5;marker:none;visibility:visible;display:inline;overflow:visible;enable-background:accumulate" />
    <path
       d="m 62.489783,1119.0417 146.604847,-0.2097 149.8542,-0.2447 c 49.8147,-5.2028 88.6006,-46.4472 89.9335,-97.3618 9e-4,-0.035 -9e-4,-0.07 0,-0.1048 9e-4,-0.4205 -8e-4,-0.6575 0,-1.0833 0.043,-21.84214 0.034,-50.72977 0.034,-89.14943 l 0,-154.91926 -69.9483,-69.96355 -69.9832,-69.96354 -155.23483,0.0699 c -40.88755,0.0176 -70.434457,0.0419 -92.763547,0.10478 -51.69258,2.79827 -92.77705,44.23461 -94.96474,96.10376 -0.10025,31.1136 -0.1048,75.93644 -0.1048,145.274 0,69.34555 0.005,114.16031 0.10474,145.27394 2.20883,52.3702 44.07085,94.1054 96.46713,96.1737 z"
       id="path5910"
       style="opacity:0.2;color:#000000;fill:url(#linearGradient5931);fill-opacity:1;fill-rule:nonzero;stroke:none;stroke-width:1.5;marker:none;visibility:visible;display:inline;overflow:visible;enable-background:accumulate" />
    <path
       d="m 64.088893,1127.0416 149.033087,-0.2131 152.33628,-0.2488 c 50.6398,-5.289 90.068,-47.2165 91.423,-98.9744 10e-4,-0.036 -9e-4,-0.071 0,-0.1065 10e-4,-0.4274 -8e-4,-0.6684 0,-1.1013 0.043,-22.2038 0.035,-51.56994 0.035,-90.62595 l 0,-157.48521 -71.1068,-71.12236 -71.1423,-71.12236 -157.80606,0.071 c -41.56477,0.0179 -71.601067,0.0427 -94.299997,0.10653 -52.54877,2.84461 -94.31372,44.96726 -96.53765,97.69553 -0.10192,31.62894 -0.10654,77.19419 -0.10654,147.6802 0,70.49412 0.005,116.05116 0.10648,147.68012 2.24541,53.2376 44.8008,95.664 98.06493,97.7666 z"
       id="path5914"
       style="opacity:0.07999998;color:#000000;fill:url(#linearGradient5933);fill-opacity:1;fill-rule:nonzero;stroke:none;stroke-width:1.5;marker:none;visibility:visible;display:inline;overflow:visible;enable-background:accumulate" />
  </g>
  <path
     d="m 114.3763,492.00004 143.26225,-0.20491 146.43752,-0.23905 c 48.67892,-5.08446 86.58047,-45.3894 87.883,-95.1445 8.9e-4,-0.0342 -8.7e-4,-0.0682 0,-0.10239 8.5e-4,-0.41093 -8.2e-4,-0.64253 0,-1.05868 0.0421,-21.34466 0.0341,-49.5744 0.0341,-87.11908 l 0,-151.39108 -68.35344,-68.37017 -68.38759,-68.37016 -151.69547,0.0683 c -39.95531,0.0172 -68.82855,0.041 -90.64854,0.1024 -50.513983,2.73453 -90.661723,43.22719 -92.799533,93.91506 -0.098,30.40501 -0.10242,74.20703 -0.10242,141.96548 0,67.76624 0.005,111.56038 0.10236,141.96542 2.15846,51.17745 43.06603,91.96213 94.267673,93.98336 z"
     id="rect4121"
     style="color:#000000;fill:#e4e6d2;fill-opacity:1;fill-rule:nonzero;stroke:none;stroke-width:1.5;marker:none;visibility:visible;display:inline;overflow:visible;enable-background:accumulate" />
  <g
     transform="translate(-605.51939,-353.9683)"
     id="g4076-9-1">
    <g
       transform="translate(-926.66758,684.38448)"
       id="g4038-9-8">
      <g
         id="g4929">
        <path
           d="m 355.25,20 -151.6875,0.0625 c -39.95531,0.0172 -68.83626,0.03235 -90.65625,0.09375 -4.73569,0.256362 -9.37556,0.852632 -13.90625,1.75 -1.51023,0.299123 -3.015922,0.633019 -4.5,1 -2.226117,0.550471 -4.431221,1.176579 -6.59375,1.875 -20.904452,6.751404 -38.687843,20.284416 -50.8125,38.03125 -0.108334,0.158619 -0.236324,0.30946 -0.34375,0.46875 -0.306456,0.454303 -0.607242,0.915291 -0.90625,1.375 -1.617953,2.487519 -3.108135,5.049674 -4.5,7.6875 -2.416204,4.579126 -4.508261,9.398403 -6.1875,14.375 -0.01359,0.04029 -0.01771,0.08469 -0.03125,0.125 -0.481865,1.434239 -0.926843,2.880345 -1.34375,4.34375 -0.208453,0.731702 -0.401853,1.448822 -0.59375,2.1875 -0.02741,0.105607 -0.06668,0.206753 -0.09375,0.3125 -0.162917,0.635705 -0.318229,1.296808 -0.46875,1.9375 -0.175131,0.745444 -0.341847,1.466751 -0.5,2.21875 -0.04199,0.199929 -0.08422,0.393368 -0.125,0.59375 -0.113545,0.556834 -0.208352,1.127218 -0.3125,1.6875 -0.140964,0.75834 -0.282685,1.51677 -0.40625,2.28125 -0.123565,0.76448 -0.237796,1.5421 -0.34375,2.3125 -0.211908,1.54081 -0.391049,3.09301 -0.53125,4.65625 -0.140201,1.56324 -0.245693,3.13475 -0.3125,4.71875 C 19.99575,144.49876 20,188.30405 20,256.0625 c 0,67.67336 -0.0032,111.41246 0.09375,141.8125 1.33e-4,0.0417 -1.33e-4,0.11458 0,0.15625 0.0027,0.0629 -0.0028,0.12467 0,0.1875 0.0075,0.16637 0.02289,0.33385 0.03125,0.5 0.103117,2.10033 0.268283,4.18721 0.5,6.25 0.01417,0.12613 0.04786,0.24901 0.0625,0.375 0.08359,0.71923 0.182346,1.4107 0.28125,2.125 0.09803,0.70307 0.199799,1.39561 0.3125,2.09375 0.0432,0.26966 0.07962,0.54359 0.125,0.8125 0.06179,0.36349 0.121762,0.73165 0.1875,1.09375 0.03935,0.21824 0.08422,0.43852 0.125,0.65625 0.08776,0.46552 0.187003,0.94311 0.28125,1.40625 0.135112,0.66395 0.257917,1.30981 0.40625,1.96875 0.03076,0.13664 0.06243,0.26983 0.09375,0.40625 0.05764,0.25224 0.127935,0.49851 0.1875,0.75 0.128911,0.54185 0.268464,1.08673 0.40625,1.625 0.05292,0.20754 0.102023,0.418 0.15625,0.625 0.151575,0.57628 0.307082,1.14672 0.46875,1.71875 0.220124,0.77886 0.448884,1.57299 0.6875,2.34375 0.715848,2.31229 1.497285,4.57766 2.375,6.8125 0.280689,0.71657 0.57813,1.4481 0.875,2.15625 0.009,0.0214 0.02224,0.0411 0.03125,0.0625 0.2845,0.67727 0.575897,1.33065 0.875,2 0.02851,0.0637 0.0651,0.12391 0.09375,0.1875 0.28142,0.62616 0.549706,1.25597 0.84375,1.875 0.04962,0.10427 0.106275,0.20843 0.15625,0.3125 0.27599,0.5757 0.556957,1.1494 0.84375,1.71875 0.06944,0.13761 0.14868,0.26901 0.21875,0.40625 1.443868,2.82788 3.01751,5.59026 4.71875,8.25 1.27593,1.9948 2.618525,3.92027 4.03125,5.8125 0.470908,0.63074 0.951899,1.25616 1.4375,1.875 0.971202,1.23768 1.971546,2.46771 3,3.65625 C 61.815337,478.79047 88.261556,491.87122 117.875,492 l 2.625,0 C 67.525103,491.60021 25,448.82259 25,395.75 l 0,-269.5 C 25,72.9275 67.9275,30 121.25,30 l 244,0 -10,-10 z M 487,151.75 l 0,244 c 0,50.25665 -38.12758,91.26134 -87.15625,95.8125 l 3.1875,0 c 30.1265,-2.82213 56.21626,-19.11931 72.21875,-42.84375 0.44099,-0.65379 0.88696,-1.30382 1.3125,-1.96875 0.42554,-0.66493 0.84018,-1.35543 1.25,-2.03125 1.22947,-2.02747 2.38524,-4.09784 3.46875,-6.21875 0.36117,-0.70697 0.71805,-1.40816 1.0625,-2.125 0.34445,-0.71684 0.67253,-1.46103 1,-2.1875 1.60228,-3.55458 3.00961,-7.20174 4.1875,-10.96875 0.0255,-0.0819 0.0372,-0.16801 0.0625,-0.25 0.71629,-2.31229 1.35875,-4.67961 1.90625,-7.0625 0.1825,-0.7943 0.33676,-1.57337 0.5,-2.375 0.16324,-0.80163 0.32503,-1.62878 0.46875,-2.4375 0.14372,-0.80872 0.2823,-1.62195 0.40625,-2.4375 0.0398,-0.26208 0.0872,-0.51848 0.125,-0.78125 0.079,-0.55396 0.14894,-1.09929 0.21875,-1.65625 0.025,-0.19753 0.0387,-0.39585 0.0625,-0.59375 0.0742,-0.62299 0.15612,-1.24841 0.21875,-1.875 0.0136,-0.1345 0.0182,-0.27159 0.0312,-0.40625 0.0671,-0.70043 0.13504,-1.38901 0.1875,-2.09375 0.005,-0.0616 -0.005,-0.12589 0,-0.1875 0.0474,-0.65349 0.0903,-1.31169 0.125,-1.96875 0.006,-0.11421 0.0255,-0.22944 0.0312,-0.34375 5.1e-4,-0.0103 -5e-4,-0.021 0,-0.0312 0.0387,-0.76781 0.0726,-1.54004 0.0937,-2.3125 8.9e-4,-0.0342 -8.7e-4,-0.0596 0,-0.0937 1e-4,-0.0483 -4e-5,-0.081 0,-0.125 0.008,-0.31325 -0.005,-0.62352 0,-0.9375 0.0211,-10.67233 0.028,-23.05015 0.0312,-37.46875 0.003,-14.4186 0,-30.88391 0,-49.65625 l 0,-151.375 -5,-5 z"
           transform="translate(1532.187,-330.41615)"
           id="rect6809-2-3-8"
           style="opacity:0.5;color:#000000;fill:url(#linearGradient4084-8-2);fill-opacity:1;fill-rule:nonzero;stroke:none;stroke-width:1.5;marker:none;visibility:visible;display:inline;overflow:visible;enable-background:accumulate" />
        <path
           d="m 112.90625,20.15625 c -4.73569,0.256362 -9.37556,0.852632 -13.90625,1.75 -1.51023,0.299123 -3.015922,0.633019 -4.5,1 -2.226117,0.550471 -4.431221,1.176579 -6.59375,1.875 -2.162529,0.698421 -4.281752,1.471807 -6.375,2.3125 -9.76849,3.923234 -18.747925,9.359992 -26.65625,16.03125 -5.083924,4.288666 -9.725026,9.084055 -13.84375,14.3125 -1.372908,1.742815 -2.683225,3.539121 -3.9375,5.375 -0.109552,0.160436 -0.235127,0.307628 -0.34375,0.46875 -0.306456,0.454303 -0.607242,0.915291 -0.90625,1.375 -0.808977,1.243759 -1.590452,2.530323 -2.34375,3.8125 -0.166868,0.284301 -0.335918,0.557614 -0.5,0.84375 -0.207159,0.360853 -0.391059,0.730006 -0.59375,1.09375 -0.184795,0.331891 -0.381451,0.665735 -0.5625,1 -0.170654,0.314981 -0.332698,0.620433 -0.5,0.9375 -0.347966,0.659456 -0.697942,1.331675 -1.03125,2 -0.666617,1.33665 -1.29953,2.691638 -1.90625,4.0625 -0.879859,1.988008 -1.719204,4.006876 -2.46875,6.0625 -0.02575,0.07061 -0.03691,0.148066 -0.0625,0.21875 -0.255282,0.70525 -0.51044,1.412248 -0.75,2.125 -0.0063,0.0187 0.0063,0.04379 0,0.0625 -0.478277,1.425001 -0.929585,2.858721 -1.34375,4.3125 -0.01792,0.06293 -0.0447,0.124518 -0.0625,0.1875 -0.188998,0.668565 -0.356058,1.325628 -0.53125,2 -0.02999,0.115391 -0.06417,0.228192 -0.09375,0.34375 -0.160255,0.626112 -0.320519,1.275303 -0.46875,1.90625 -0.14068,0.598804 -0.276512,1.178203 -0.40625,1.78125 -0.05606,0.260594 -0.102244,0.519878 -0.15625,0.78125 -0.01964,0.09505 -0.04314,0.186096 -0.0625,0.28125 -0.11135,0.546937 -0.210215,1.105987 -0.3125,1.65625 -0.04812,0.25885 -0.110151,0.52168 -0.15625,0.78125 -0.0886,0.49905 -0.168912,0.99832 -0.25,1.5 -0.05057,0.31267 -0.108609,0.62383 -0.15625,0.9375 -0.06911,0.45519 -0.124613,0.91774 -0.1875,1.375 -0.105954,0.7704 -0.193117,1.53638 -0.28125,2.3125 -0.08813,0.77612 -0.179899,1.56213 -0.25,2.34375 -0.139283,1.553 -0.245648,3.11401 -0.3125,4.6875 -4.41e-4,0.0104 4.38e-4,0.0209 0,0.0312 -2.7e-5,0.008 2.7e-5,0.0229 0,0.0312 C 19.995828,144.52902 20,188.32263 20,256.0625 c 0,67.69194 -0.0033,111.44271 0.09375,141.84375 1.07e-4,0.0334 -1.07e-4,0.0917 0,0.125 0.0022,0.0524 -0.0023,0.10389 0,0.15625 0.0084,0.18714 0.02184,0.37564 0.03125,0.5625 0.10587,2.14272 0.291576,4.27142 0.53125,6.375 0.0023,0.0206 -0.0024,0.0419 0,0.0625 0.08856,0.77298 0.206258,1.51395 0.3125,2.28125 0.107671,0.77762 0.218135,1.57218 0.34375,2.34375 0.110714,0.67613 0.219415,1.35992 0.34375,2.03125 0.01731,0.0939 0.04493,0.18743 0.0625,0.28125 0.08949,0.47548 0.184986,0.96451 0.28125,1.4375 0.115748,0.56872 0.218291,1.12246 0.34375,1.6875 0.05136,0.2313 0.103277,0.45683 0.15625,0.6875 0.05544,0.24229 0.130278,0.47716 0.1875,0.71875 0.168714,0.71001 0.347315,1.42115 0.53125,2.125 0.01079,0.0414 0.02041,0.0836 0.03125,0.125 0.153969,0.58602 0.304342,1.16838 0.46875,1.75 0.04405,0.15622 0.08021,0.31285 0.125,0.46875 0.179375,0.62283 0.371264,1.2574 0.5625,1.875 0.03482,0.11268 0.05854,0.23125 0.09375,0.34375 0.205574,0.65538 0.437456,1.2882 0.65625,1.9375 0.256854,0.76225 0.50641,1.52761 0.78125,2.28125 0.01464,0.0402 0.01656,0.0848 0.03125,0.125 0.261099,0.71305 0.535514,1.41991 0.8125,2.125 0.277337,0.70739 0.58189,1.42582 0.875,2.125 0.01273,0.0303 0.01849,0.0635 0.03125,0.0937 0.280961,0.66829 0.579817,1.30817 0.875,1.96875 0.126258,0.28202 0.246174,0.56316 0.375,0.84375 0.186593,0.40717 0.370539,0.81463 0.5625,1.21875 0.05022,0.10551 0.105669,0.2072 0.15625,0.3125 0.296257,0.61798 0.597551,1.2331 0.90625,1.84375 0.104796,0.20699 0.206286,0.41886 0.3125,0.625 0.310007,0.60166 0.646774,1.18698 0.96875,1.78125 0.377433,0.69663 0.762605,1.40751 1.15625,2.09375 0.251968,0.43977 0.491461,0.87707 0.75,1.3125 0.144428,0.24294 0.291042,0.47718 0.4375,0.71875 0.409604,0.6756 0.82469,1.33529 1.25,2 0.85062,1.32942 1.744326,2.65318 2.65625,3.9375 0.379219,0.53462 0.766661,1.06718 1.15625,1.59375 0.137991,0.18627 0.266973,0.37725 0.40625,0.5625 0.294429,0.39216 0.606107,0.7687 0.90625,1.15625 0.199718,0.25754 0.39153,0.52578 0.59375,0.78125 0.08327,0.10531 0.166308,0.20754 0.25,0.3125 0.325327,0.4076 0.668339,0.81652 1,1.21875 0.500041,0.60644 0.985773,1.18722 1.5,1.78125 0.514227,0.59403 1.03434,1.19989 1.5625,1.78125 1.056321,1.16272 2.139466,2.29572 3.25,3.40625 1.105203,1.1052 2.218105,2.19849 3.375,3.25 0.0056,0.005 0.02567,-0.005 0.03125,0 1.744081,1.58448 3.550447,3.1057 5.40625,4.5625 16.595324,13.02732 37.53268,20.80712 60.34375,20.90625 0.14694,6.4e-4 0.2904,0 0.4375,0 l 139.3125,-0.21875 145.40625,-0.21875 c 30.1265,-2.8202 56.21626,-19.12761 72.21875,-42.84375 0.44099,-0.65356 0.88696,-1.30404 1.3125,-1.96875 0.29883,-0.46679 0.5839,-0.93407 0.875,-1.40625 0.12249,-0.19908 0.25389,-0.39372 0.375,-0.59375 0.0486,-0.0801 0.0766,-0.16976 0.125,-0.25 0.35959,-0.59664 0.71533,-1.17635 1.0625,-1.78125 0.78772,-1.37249 1.55891,-2.77397 2.28125,-4.1875 0.36117,-0.70677 0.71805,-1.4396 1.0625,-2.15625 0.34445,-0.71665 0.67253,-1.42998 1,-2.15625 0.9824,-2.17882 1.89373,-4.39533 2.71875,-6.65625 0.0158,-0.0433 0.0468,-0.0817 0.0625,-0.125 0.25824,-0.71082 0.4765,-1.43778 0.71875,-2.15625 0.23268,-0.69009 0.46976,-1.36554 0.6875,-2.0625 0.0226,-0.0724 0.0401,-0.14628 0.0625,-0.21875 0.71629,-2.31184 1.35875,-4.67996 1.90625,-7.0625 0.1825,-0.79418 0.33676,-1.57347 0.5,-2.375 0.16324,-0.80153 0.32503,-1.62888 0.46875,-2.4375 0.14372,-0.80862 0.2823,-1.62203 0.40625,-2.4375 0.0414,-0.2723 0.0858,-0.53945 0.125,-0.8125 0.0775,-0.54368 0.15007,-1.07843 0.21875,-1.625 0.0263,-0.20779 0.0375,-0.4168 0.0625,-0.625 0.073,-0.61274 0.15696,-1.22753 0.21875,-1.84375 0.0146,-0.14477 0.0173,-0.29255 0.0312,-0.4375 0.0731,-0.7627 0.1318,-1.51345 0.1875,-2.28125 0.0557,-0.7678 0.11813,-1.53979 0.15625,-2.3125 0.0392,-0.77814 0.0726,-1.56082 0.0937,-2.34375 8.9e-4,-0.0342 -8.7e-4,-0.0596 0,-0.0937 7e-5,-0.0363 -4e-5,-0.06 0,-0.0937 0.008,-0.32368 -0.005,-0.64428 0,-0.96875 0.0211,-10.67233 0.028,-23.05015 0.0312,-37.46875 0.003,-14.4186 0,-30.88391 0,-49.65625 l 0,-151.375 -5,-5 0,234 C 487,439.0725 444.0725,482 390.75,482 l -269.5,0 C 67.9275,482 25,439.0725 25,385.75 l 0,-269.5 c 0,-51.518951 40.071412,-93.32402 90.875,-96.09375 -0.86176,0.0023 -2.12816,-0.0024 -2.96875,0 z"
           transform="translate(1532.187,-330.41615)"
           id="path3981-7-8"
           style="opacity:0.15;color:#000000;fill:url(#linearGradient4086-12-9);fill-opacity:1;fill-rule:nonzero;stroke:none;stroke-width:1.5;marker:none;visibility:visible;display:inline;overflow:visible;enable-background:accumulate" />
      </g>
    </g>
  </g>
  <path
     d="m 355.24998,20.00003 0,102.5625 c 0,9.77909 4.10646,18.58192 10.6875,24.8125 l 126.0625,126.09375 0,-116.71875 -68.375,-68.375 z"
     id="path6657"
     style="fill:#000000;fill-opacity:0.15686275;fill-rule:nonzero;stroke:none" />
  <path
     d="m 355.25321,20.00002 0,102.555 c 0,18.88151 15.30349,34.185 34.185,34.185 l 102.555,0 -136.74,-136.74"
     id="path24"
     style="fill:#ffffff;fill-opacity:1;fill-rule:nonzero;stroke:none" />
  <path
     id="path4599"
     d="M 256.75586 210.50781 C 255.74793 210.46341 255.01968 211.51065 254.06445 213.03906 C 252.15471 216.09477 246.75869 224.70248 242.07422 232.16797 C 237.38971 239.63346 233.55859 246.18921 233.55859 246.73633 C 233.55859 248.24562 216.54445 275.61627 211.23047 282.81445 C 211.09238 283.00151 211.00265 283.10662 210.88086 283.26562 C 196.90491 269.52051 192.14678 265.10914 172.94922 245.58594 C 169.7039 243.03316 165.25409 240.94531 163.0625 240.94531 C 152.53804 240.94531 128.8857 263.25899 113.22266 287.96289 L 109.51562 293.80859 L 71.548828 293.04102 C 50.666318 292.61876 33.580078 292.7573 33.580078 293.34961 C 45.449315 305.97584 57.69229 317.82619 138.15039 401.625 C 128.51357 416.88956 120.62891 429.85867 120.62891 430.44531 C 144.35757 453.4248 165.27377 473.70555 184.00586 491.90039 L 257.63867 491.79492 L 404.07617 491.55664 C 452.75509 486.47218 490.65645 446.16721 491.95898 396.41211 C 491.95987 396.37791 491.95811 396.34278 491.95898 396.30859 C 491.95983 395.89766 491.95816 395.66615 491.95898 395.25 C 492.00108 373.90534 491.99414 345.67554 491.99414 308.13086 L 491.99414 305.03516 C 488.3472 301.23089 484.72779 297.45158 480.58984 293.12891 C 480.58984 292.50699 462.21574 292.64827 439.75781 293.44336 L 403.14258 294.74023 C 399.25941 290.34313 397.66449 289.05785 394.7793 286.48828 C 392.94167 284.06935 390.43841 283.29297 385.64453 283.29297 C 381.24633 283.29297 376.27441 284.94795 374.5957 286.9707 C 373.45046 288.35063 372.69968 289.15065 372.07812 289.38867 C 371.12124 288.43309 370.21242 287.43782 369.25781 286.64453 C 366.60807 282.71576 357.95021 282.18066 354.26758 285.86328 C 352.44355 287.68733 350.34546 287.71073 347.04297 285.94336 C 344.09527 284.36579 337.29574 283.63832 330.79102 283.71875 C 297.24003 249.73219 278.39807 231.44743 256.75586 210.50781 z "
     style="fill:#000000;fill-opacity:0.15686275;stroke:none" />
  <g
     style="fill:#ffffff;fill-opacity:1"
     id="g7038"
     transform="matrix(0.72795718,0,0,0.72795718,7.8125357,188.26071)">
    <path
       transform="matrix(1.3737072,0,0,1.3737072,-10.732136,-258.61509)"
       d="m 256.75586,210.50781 c -1.00793,-0.0444 -1.73619,1.00284 -2.69141,2.53125 -1.90974,3.05571 -7.30576,11.66342 -11.99023,19.12891 -4.68451,7.46549 -8.51563,14.02123 -8.51563,14.56836 0,1.60991 -19.35849,32.64339 -23.22656,37.23437 -2.57863,3.06061 -5.38796,3.8008 -10.31445,2.71875 -4.75558,-1.04449 -8.12996,-0.25704 -11.33399,2.64258 -2.50899,2.2706 -5.27457,3.41489 -6.14648,2.54297 -0.87192,-0.87193 -2.0585,-10.60041 -2.63672,-21.61719 -0.94157,-17.93929 -1.6666,-20.51503 -6.95117,-24.67187 -3.24532,-2.55278 -7.69513,-4.64063 -9.88672,-4.64063 -10.52446,0 -34.1768,22.31368 -49.83984,47.01758 l -3.70704,5.8457 -37.966792,-0.76757 c -20.882509,-0.42227 -37.96875,-0.28372 -37.96875,0.30859 0,0.59229 6.615768,3.42289 14.703125,6.29101 35.66848,12.64959 58.230467,21.94755 58.230467,23.99805 0,1.21909 2.70922,4.92796 6.02149,8.24024 5.50589,5.50589 5.70849,6.369 2.35351,10.07617 -5.13622,5.67545 -4.78478,7.2189 5.06641,22.17773 9.10458,13.82515 11.60901,14.95253 23.79883,10.70313 4.04751,-1.41097 8.38519,-2.20611 9.63867,-1.76563 1.25347,0.4405 -5.60535,13.29012 -15.24219,28.55469 -9.63682,15.26456 -17.52148,28.23367 -17.52148,28.82031 0,1.87738 1.57821,1.32956 41.70703,-14.48242 69.19766,-27.26596 92.79291,-36.20898 95.52539,-36.20898 1.46522,0 13.27018,4.2064 26.23437,9.34765 65.74845,26.07421 108.03137,42.41016 109.76758,42.41016 1.06375,0 -2.80868,-7.33009 -8.60547,-16.29102 -5.79679,-8.9609 -10.53906,-16.81933 -10.53906,-17.46289 0,-0.64355 3.63652,-2.37139 8.08008,-3.83789 4.44356,-1.4665 11.77699,-6.75874 16.29687,-11.76172 10.07556,-11.15241 12.68874,-24.72611 8.68164,-45.09375 -1.54005,-7.82783 -2.46219,-14.46015 -2.04882,-14.73828 0.41336,-0.27813 17.42651,-6.70782 37.80664,-14.28711 20.38013,-7.57931 37.05468,-14.28828 37.05468,-14.91015 0,-0.62192 -18.3741,-0.48064 -40.83203,0.31445 l -40.83398,1.44531 -2.64063,-5.79687 c -2.05332,-4.50657 -4.42276,-5.79883 -10.63867,-5.79883 -4.3982,0 -9.37011,1.65498 -11.04883,3.67773 -2.76791,3.33511 -3.24489,3.33511 -5.11132,0 -2.369,-4.23318 -11.43137,-4.89284 -15.2168,-1.10742 -1.82403,1.82406 -3.92212,1.84751 -7.22461,0.0801 -5.81049,-3.10969 -26.59901,-2.92735 -30.56055,0.26758 -5.67663,4.57806 -17.01602,-8.45254 -38.08398,-43.76367 -14.666,-24.58109 -19.06675,-31.82598 -21.64258,-31.93946 z m 0.44922,11.69141 c 21.1905,48.17944 54.01446,86.49186 15.13086,23.28711 -8.05424,-13.06859 -13.94828,-22.16081 -14.95117,-23.06055 -0.18744,-0.16815 -0.19428,-0.16815 -0.38086,0 -1.68473,1.5183 -16.93699,26.37164 -28.28125,46.08399 -23.63908,54.68687 16.01981,-36.32334 28.48242,-46.31055 z m 161.92383,75.30263 c 2.34281,-0.0106 4.9766,-0.007 7.9375,0.004 l 26.46679,0.0937 -24.70312,9.27344 c -13.58675,5.09951 -24.84294,9.2905 -25.01563,9.31445 -0.75851,0.10503 -3.1544,-10.9275 -3.18359,-14.66016 -0.0251,-3.2241 2.09833,-3.95137 18.49805,-4.02539 z m 6.49414,0.0625 c -6.14302,0.006 -11.25697,0.0342 -13.07813,0.084 -7.21463,0.19738 -9.83962,0.62619 -11.13086,1.8164 -0.56339,0.51932 -0.71989,1.02999 -0.69922,2.28516 0.0532,3.23061 1.87372,12.15405 2.88282,14.12891 0.0855,0.1673 0.1848,0.243 0.2832,0.21679 0.39323,-0.10456 11.01468,-4.06147 29.28125,-10.9082 l 20.03125,-7.50781 -8.31836,-0.0605 c -5.93626,-0.0428 -13.10893,-0.0603 -19.25195,-0.0547 z m -68.82617,99.73047 c 8.51784,-1.59794 8.89298,-1.25026 21.18359,19.54102 1.10026,1.86125 -2.90819,1.10657 -10.75195,-2.02149 -6.87889,-2.7433 -16.21327,-6.34156 -20.74219,-7.99804 -4.52891,-1.65645 -26.23288,-10.12651 -48.23047,-18.82032 -37.8354,-14.95316 -40.43888,-15.6467 -48.22852,-12.87304 -4.52892,1.61262 -25.70407,9.71855 -47.05468,18.01367 -21.35062,8.29511 -44.90729,17.64529 -52.34766,20.7793 -7.44036,3.13402 -13.52734,5.04488 -13.52734,4.24609 94.90686,-47.95769 69.93513,-109.75434 8.76562,-15.04688 -6.03116,10.07048 -8.41016,14.26508 -8.41016,14.82618 0,0.40669 -0.0863,0.41534 2.28907,-0.23633 2.98729,-0.81955 4.9862,-1.58286 20.95117,-8.00781 32.32987,-13.01083 87.75639,-34.43019 91.81836,-35.48243 3.26585,-0.846 7.28854,-0.41873 13.19531,1.40039 38.03994,13.51868 61.41578,24.31347 105.0332,40.33008 2.40881,0.86346 5.73681,1.76953 6.50196,1.76953 0.36363,0 0.62109,-0.16643 0.62109,-0.40234 0,-0.45372 -5.48351,-9.63455 -7.99023,-13.37891 -4.5619,-6.54321 -6.92296,-7.50403 -13.70508,-6.41211 -60.31062,-91.46809 -38.8239,6.70103 0.62891,-0.22656 z"
       style="fill:#ffffff;fill-opacity:1;stroke:none"
       id="path7048" />
  </g>
  <g
     transform="matrix(0.72795718,0,0,0.72795718,7.8125357,188.26071)"
     id="g4138">
    <path
       style="fill:#333333;fill-opacity:1"
       d="m 154.97687,332.69162 c 0,-0.80587 10.83123,-18.62172 24.0694,-39.59076 13.23819,-20.96905 22.66057,-38.62066 20.93867,-39.22577 -1.72191,-0.6051 -7.67992,0.48567 -13.24002,2.42393 -16.74524,5.83743 -20.18605,4.29016 -32.69308,-14.70155 -13.53265,-20.54906 -14.01724,-22.66983 -6.96158,-30.46624 4.60876,-5.09256 4.33159,-6.27967 -3.2319,-13.84316 -4.55009,-4.5501 -8.27289,-9.64309 -8.27289,-11.31776 0,-2.81679 -30.99145,-15.58933 -79.989496,-32.96615 -11.10966,-3.93997 -20.199375,-7.82928 -20.199375,-8.64291 0,-0.81366 23.470738,-1.00476 52.157191,-0.42469 l 52.15721,1.05466 5.09127,-8.03001 c 21.51644,-33.93592 54.00952,-64.588212 68.46705,-64.588212 3.0106,0 9.12141,2.86918 13.57953,6.375945 7.25946,5.710283 8.2565,9.248632 9.54994,33.891967 0.7943,15.13382 2.42422,28.49601 3.62198,29.69379 1.19775,1.19776 4.99769,-0.37425 8.44431,-3.49339 4.4014,-3.98323 9.03484,-5.06313 15.56761,-3.6283 6.76756,1.48641 10.6271,0.46895 14.16938,-3.73543 5.3136,-6.30666 31.90596,-48.937201 31.90596,-51.148744 0,-0.751588 5.26509,-9.757306 11.70023,-20.012703 6.43509,-10.255397 13.84664,-22.080631 16.47007,-26.278283 4.66558,-7.465201 5.3966,-6.581735 33.42692,40.398736 28.94121,48.507164 44.51767,66.406554 52.3157,60.117634 5.442,-4.38889 34.00055,-4.63794 41.98246,-0.36614 4.53665,2.42793 7.41916,2.3961 9.92484,-0.10962 5.20007,-5.20006 17.64982,-4.29437 20.90412,1.52078 2.56393,4.58146 3.21784,4.58146 7.02014,0 2.30606,-2.77867 9.13619,-5.05208 15.17803,-5.05208 8.53884,0 11.79336,1.77367 14.61403,7.96437 l 3.62881,7.96436 56.09203,-1.9858 c 30.85062,-1.09222 56.09204,-1.28688 56.09204,-0.43255 0,0.85427 -22.90608,10.07195 -50.90241,20.48371 -27.99632,10.41172 -51.367,19.24305 -51.93484,19.62512 -0.56785,0.38207 0.69847,9.49273 2.81405,20.24588 5.50457,27.97917 1.91458,46.62589 -11.92629,61.94604 -6.209,6.87263 -16.28338,14.14395 -22.38753,16.15849 -6.10415,2.01454 -11.09844,4.38614 -11.09844,5.27019 0,0.88406 6.51525,11.67893 14.47835,23.98859 7.96309,12.30969 13.2828,22.38125 11.82152,22.38125 -2.38504,0 -60.46987,-22.44238 -150.78898,-58.2607 -17.809,-7.06258 -34.02683,-12.84109 -36.03961,-12.84109 -3.75363,0 -36.1669,12.28662 -131.22423,49.74206 -55.12525,21.72103 -57.29217,22.47348 -57.29217,19.89451 z m 113.11648,-51.25265 c 29.32949,-11.39506 58.41657,-22.5308 64.63798,-24.74607 10.70068,-3.81019 14.27918,-2.85493 66.25394,17.68634 30.21825,11.94274 60.03252,23.57587 66.25392,25.85134 6.22141,2.27552 19.04317,7.22059 28.49275,10.98908 10.77503,4.29704 16.28251,5.33166 14.77108,2.77484 -16.8837,-28.56113 -17.3998,-29.03716 -29.10083,-26.84205 -14.11361,2.64772 -22.87897,-0.0685 -27.38369,-8.48554 -2.92112,-5.45816 -2.02944,-8.12759 5.25442,-15.73031 10.84887,-11.32377 9.14457,-21.74144 -4.84429,-29.61099 -5.36764,-3.01959 -12.14059,-10.48372 -15.05102,-16.58697 l -5.29169,-11.09682 -11.34551,7.69928 c -13.94458,9.46304 -30.95062,9.95063 -45.14764,1.29448 l -10.46488,-6.38065 -12.15841,8.26284 c -12.17462,8.27386 -26.19108,9.3428 -40.43752,3.08392 -3.92498,-1.72439 -5.65583,-1.05415 -5.65583,2.19008 0,2.57118 -3.70429,6.36265 -8.23181,8.42553 -13.5742,6.18479 -26.82107,4.54247 -35.80229,-4.43875 l -8.18944,-8.18944 -6.60982,8.40303 c -3.63539,4.62166 -12.04952,11.83698 -18.69805,16.03398 -8.22965,5.19518 -18.41741,17.87182 -31.9164,39.71361 -10.90549,17.64546 -19.82816,32.98042 -19.82816,34.07776 0,1.0973 8.36255,-1.52736 18.58342,-5.83259 10.22089,-4.30521 42.58028,-17.15087 71.90977,-28.54593 z m 248.76729,-12.25846 c 22.25557,-12.50833 27.41424,-35.64808 17.57685,-78.84318 -8.2214,-36.09961 -12.3255,-47.91327 -17.19494,-49.49597 -3.36902,-1.09503 -3.88674,0.10699 -1.98858,4.61635 12.31516,29.25771 12.99963,43.94662 2.24022,48.07541 -7.39151,2.83642 -15.23239,-7.79075 -21.39902,-29.00326 -4.77512,-16.42587 -9.76861,-23.82837 -13.53387,-20.06311 -0.90157,0.9016 0.67848,6.12117 3.51124,11.59913 2.83273,5.4779 6.71721,21.97455 8.63217,36.6592 1.91497,14.68462 5.61385,30.06073 8.21973,34.16912 6.77198,10.67661 17.55128,8.1036 24.52382,-5.85384 6.89373,-13.79975 7.67284,-4.60781 0.9693,11.43602 -6.96074,16.65937 -27.63442,21.65481 -51.58418,12.46442 -3.8333,-1.47096 -5.13039,0.0515 -5.13039,6.02097 0,4.39431 -2.93618,11.72245 -6.52488,16.2847 l -6.52488,8.29506 8.94881,1.51123 c 15.44945,2.60909 36.63328,-0.77642 49.2586,-7.87225 z m -320.3665,-27.53733 c 46.45965,-13.3545 54.76188,-28.93093 39.32885,-73.78782 -3.58185,-10.41079 -6.51243,-21.60971 -6.51243,-24.88654 0,-11.15712 -5.61152,-6.00161 -9.81713,9.01943 -5.56203,19.86561 -22.29115,36.75053 -36.34516,36.68364 -12.20547,-0.0582 -16.18251,-2.28008 -21.22378,-11.85768 -9.04748,-17.18882 0.81469,-43.56797 25.96954,-69.46272 18.42431,-18.966304 28.48893,-20.683965 28.48893,-4.86205 0,24.6732 -17.01134,60.9947 -25.97309,55.45604 -4.38205,-2.70826 -3.67138,-14.66752 1.41722,-23.85009 4.32735,-7.80882 3.44814,-19.70771 -1.4562,-19.70771 -5.68689,0 -16.94547,20.71196 -18.43318,33.91074 -1.31515,11.66826 -0.49286,14.50545 5.06652,17.48072 19.48244,10.4267 45.00531,-21.39545 46.29083,-57.71584 0.67504,-19.073181 -3.01676,-24.441105 -14.77906,-21.488951 -17.11879,4.296543 -63.23483,63.786641 -63.23483,81.573461 0,13.9128 6.98737,23.69728 19.28827,27.0096 20.91419,5.63162 41.13539,-4.37389 55.4633,-27.44338 l 6.02175,-9.69571 0.0132,13.17223 c 0.0162,19.0738 -12.42619,29.1274 -51.69817,41.76793 -9.77649,3.1468 -18.18332,6.05441 -18.6818,6.46137 -1.82056,1.48632 16.68739,27.47571 19.56644,27.47571 1.63262,0 11.19115,-2.36359 21.24123,-5.25238 z M 476.411,217.96301 c 4.66347,-5.1531 5.48551,-10.75103 4.48579,-30.54823 -1.08739,-21.53331 -2.27746,-25.33851 -10.66143,-34.08949 -15.14882,-15.81194 -33.86123,-11.77828 -22.90819,4.93814 5.82256,8.88637 12.9254,7.36864 10.41641,-2.22581 -1.99864,-7.64276 1.72998,-7.84358 8.22839,-0.44322 12.19301,13.88537 9.11534,33.12698 -5.2986,33.12698 -9.86716,0 -12.94195,-4.23176 -19.37353,-26.66318 -2.93059,-10.22087 -6.49964,-18.58343 -7.93127,-18.58343 -4.76899,0 -6.89287,4.20878 -3.92721,7.7824 1.61088,1.9411 6.07218,15.89127 9.91404,31.00041 9.66903,38.02596 23.17666,51.04145 37.0556,35.70543 z m -183.77125,0.60395 c 1.98978,-1.335 2.89975,-7.64893 2.07865,-14.423 -1.32449,-10.92702 -2.06662,-11.7241 -7.9727,-8.56327 -8.48733,4.54227 -17.60839,-4.06351 -20.70222,-19.5326 -2.34707,-11.73538 -3.06526,-11.50489 14.02576,-4.50149 2.14288,0.87808 7.59671,-2.10402 12.11963,-6.62694 8.27408,-8.27408 10.99802,-18.21299 4.99156,-18.21299 -1.77754,0 -3.2319,1.45436 -3.2319,3.2319 0,4.64923 -8.84231,3.98982 -10.83465,-0.80797 -1.16224,-2.79879 -3.63807,-1.80591 -8.05915,3.2319 -3.50985,3.99948 -7.79673,7.27178 -9.52641,7.27178 -1.72969,0 -4.0656,-3.2723 -5.19088,-7.27178 -1.97195,-7.00856 -2.21366,-7.05277 -6.67737,-1.22169 -3.9106,5.10854 -3.94557,6.73583 -0.22461,10.45661 3.94062,3.94064 11.42615,30.87102 11.42615,41.10744 0,12.72867 17.52933,22.73832 27.7783,15.8621 z m 58.94309,-16.87531 c 12.14567,-12.14567 15.74452,-30.35143 9.12943,-46.18357 -5.17016,-12.37397 -14.14466,-17.00516 -26.79878,-13.82918 -9.40263,2.35991 -23.72311,29.77659 -23.77387,45.51536 -0.0792,24.52902 23.25053,32.69005 41.44322,14.49739 z m -22.08341,-19.43407 c -3.5551,-3.5551 -6.41755,-10.46328 -6.36102,-15.35153 0.0934,-8.07965 0.49315,-8.3735 4.39619,-3.2319 4.82464,6.35569 13.39797,7.45666 16.68241,2.14232 1.19432,-1.93241 0.55295,-5.13202 -1.4252,-7.11017 -5.08132,-5.08132 -4.46561,-11.99963 1.06792,-11.99963 6.15137,0 14.72679,12.51477 14.72679,21.49191 0,6.60674 -13.4444,20.5228 -19.82724,20.5228 -1.53785,0 -5.70476,-2.90872 -9.25985,-6.4638 z m 86.34897,18.58341 c 13.41074,-14.60263 12.10376,-37.098 -3.09825,-53.32634 -7.85057,-8.3806 -25.29298,-9.82552 -32.43185,-2.68664 -6.58761,6.58761 -13.16465,32.49303 -10.72122,42.22841 5.21122,20.76318 32.40041,28.86652 46.25132,13.78457 z m -27.45565,-23.61452 c -5.30623,-3.71664 -7.12941,-8.14974 -6.97806,-16.96747 0.16935,-9.86033 0.6843,-10.74981 2.96145,-5.11415 3.34573,8.28032 10.36292,11.40734 16.51814,7.3609 3.81753,-2.50963 3.63929,-3.69597 -1.10104,-7.32907 -6.32189,-4.84523 -7.55508,-11.70191 -2.10465,-11.70191 4.87364,0 22.30402,19.06666 22.30402,24.39778 0,5.20316 -12.37739,14.38503 -19.39139,14.38503 -2.76405,0 -8.2579,-2.26402 -12.20847,-5.03111 z m 189.96292,-14.28887 33.93495,-12.73682 -36.35888,-0.13125 c -32.5392,-0.11736 -36.35424,0.46307 -36.31475,5.52475 0.0401,5.12757 3.33073,20.28395 4.3727,20.13967 0.23722,-0.0329 15.70177,-5.79124 34.36598,-12.79648 z m -443.49343,-2.2793 3.46825,-10.28761 -30.46686,-1.02404 c -16.756744,-0.56322 -30.463584,-0.13213 -30.45958,0.95804 0.0058,1.59513 52.50657,22.10707 53.66174,20.96552 0.18035,-0.1784 1.88892,-4.95372 3.79645,-10.61191 z m 208.9092,-31.88695 c 7.16667,1.146 15.24981,4.07924 17.96256,6.51835 4.21279,3.78783 6.04528,3.52966 12.56207,-1.76985 4.19643,-3.4125 9.65026,-6.20457 12.11963,-6.20457 2.46939,0 4.48982,-0.71308 4.48982,-1.58467 0,-3.00918 -46.53954,-79.21252 -48.31447,-79.10961 -2.085,0.120872 -49.78603,80.08798 -51.25464,85.92437 -0.61634,2.44952 1.31804,3.35371 5.07364,2.3716 3.33836,-0.873 7.95416,0.68326 10.25727,3.45836 3.7354,4.50087 5.26108,4.14229 14.13068,-3.32097 8.42647,-7.09041 11.9308,-8.0488 22.97344,-6.28301 z"
       id="path4019" />
    <path
       id="path4567"
       d="m 309.54579,140.87922 c -0.50075,-0.23311 -1.11804,-0.76799 -2.5278,-2.19035 -1.91188,-1.92897 -2.67188,-2.49013 -4.26108,-3.14628 -2.08791,-0.86204 -4.3549,-1.09423 -6.48231,-0.66391 -1.89808,0.38393 -2.42435,0.42527 -3.28242,0.2578 -1.43224,-0.27953 -1.94157,-1.14929 -1.53583,-2.62272 0.50573,-1.83657 4.33693,-8.94255 12.00899,-22.27387 15.5837,-27.078988 36.53624,-61.220968 38.85056,-63.306662 0.25631,-0.230994 0.265,-0.230994 0.52248,0 1.37768,1.235976 9.4762,13.725889 20.54036,31.678298 14.96696,24.285004 27.41102,45.643714 27.41102,47.047704 0,0.85729 -1.31608,1.37215 -4.08591,1.59845 -3.44226,0.28124 -7.42478,2.30188 -12.86887,6.52936 -2.58712,2.00898 -3.69126,2.75933 -4.95062,3.36438 -1.04928,0.50411 -1.13692,0.52437 -2.26854,0.52437 -1.11368,0 -1.22661,-0.0249 -2.09623,-0.46128 -0.51213,-0.25702 -1.50469,-0.9493 -2.24155,-1.56342 -2.17848,-1.81561 -4.79918,-3.13614 -9.07197,-4.57124 -5.42997,-1.82376 -11.24454,-2.9184 -16.19551,-3.04896 -3.90934,-0.10308 -5.71201,0.24798 -8.67602,1.68963 -2.41988,1.17698 -3.58621,2.01311 -9.12475,6.54145 -5.63376,4.60617 -7.63442,5.56205 -9.664,4.61725 z"
       style="fill:#6398aa;fill-opacity:1;stroke:none" />
    <path
       id="path4571"
       d="m 128.63786,170.739 c -10.159,-2.9607 -45.503171,-16.91962 -50.450924,-19.92523 -0.682916,-0.41484 -0.738098,-0.47787 -0.543207,-0.62038 1.131563,-0.82741 12.337983,-1.23901 25.004031,-0.91836 5.05131,0.12788 35.50132,1.13323 35.5509,1.17377 0.0997,0.0815 -6.52164,19.2888 -7.03051,20.39433 -0.21251,0.4617 -0.65063,0.44367 -2.53029,-0.10413 z"
       style="fill:#6398aa;fill-opacity:1;stroke:none" />
    <path
       id="path4573"
       d="m 543.69413,175.31055 c -1.3862,-2.71287 -3.88769,-14.97067 -3.96078,-19.40858 -0.0284,-1.72424 0.18667,-2.42741 0.9606,-3.1408 1.77378,-1.63501 5.37938,-2.2232 15.29017,-2.49434 5.00347,-0.13689 28.1019,-0.15796 44.41127,-0.0405 l 11.42859,0.0823 -27.5177,10.31427 c -25.09292,9.4054 -39.68473,14.84126 -40.22491,14.9849 -0.13517,0.036 -0.26981,-0.0674 -0.38724,-0.29723 l 0,0 z"
       style="fill:#6398aa;fill-opacity:1;stroke:none" />
    <path
       id="path4575"
       d="m 178.08835,315.51433 c 0,-0.77078 3.2689,-6.5331 11.55395,-20.36698 19.85118,-33.14631 28.92715,-45.16012 40.07292,-53.04429 9.97127,-7.05337 15.30279,-11.9294 21.24539,-19.43033 l 3.66409,-4.62492 4.9399,4.85652 c 8.64784,8.50189 13.8613,10.96668 23.29717,11.01432 11.54058,0.0583 24.17849,-6.3881 24.17849,-12.33299 0,-1.3398 0.95404,-2.72236 1.87857,-2.72236 0.39132,0 2.61686,0.68365 4.94565,1.51923 6.06992,2.1779 9.63028,2.96548 14.60912,3.23165 4.93998,0.26409 8.54848,-0.1704 13.35817,-1.60841 4.72561,-1.41288 7.44709,-2.85905 15.59833,-8.28882 4.1076,-2.73618 7.59954,-4.97487 7.75988,-4.97487 0.16033,0 3.12534,1.71896 6.5889,3.81991 3.46356,2.10095 7.62542,4.38133 9.24859,5.06751 11.06862,4.67918 23.02445,4.3739 33.97126,-0.86741 1.95795,-0.93747 6.56793,-3.73074 10.2444,-6.20727 3.67648,-2.47653 6.73613,-4.44576 6.79923,-4.37606 0.0631,0.0697 1.45605,2.9208 3.09544,6.33578 1.6394,3.41498 3.69895,7.2667 4.57679,8.55937 3.80001,5.59578 8.17588,9.75141 14.08343,13.37464 6.08122,3.72975 9.83206,8.6868 10.21882,13.50507 0.38367,4.77968 -1.70329,9.01939 -7.72189,15.68721 -4.69747,5.20419 -5.8733,7.2354 -5.86113,10.12491 0.0122,2.89262 1.70103,6.22854 4.66964,9.22379 4.80533,4.84844 12.34605,6.28777 23.43534,4.47319 2.47408,-0.40484 5.59479,-0.73757 6.93491,-0.73938 4.28551,-0.006 6.90319,2.09595 11.89251,9.54859 3.44351,5.14365 10.97396,17.75508 10.97396,18.37836 0,0.32407 -0.35145,0.55208 -0.85097,0.55208 -1.05109,0 -5.62314,-1.2438 -8.93214,-2.42994 -4.3485,-1.55875 -57.27238,-22.00526 -74.74786,-28.87795 -46.6635,-18.35162 -62.02805,-24.21246 -69.53657,-26.52489 -8.11417,-2.49895 -13.64029,-3.08522 -18.12661,-1.92306 -5.57996,1.44546 -81.72067,30.86888 -126.13245,48.74195 -21.93119,8.826 -24.67749,9.87577 -28.78116,11.00159 -3.26303,0.89521 -3.14407,0.88294 -3.14407,0.32426 z"
       style="fill:#6398aa;fill-opacity:1;stroke:none" />
  </g>
</svg>
