<?xml version="1.0" encoding="UTF-8" standalone="no"?>
<!-- Created with Inkscape (http://www.inkscape.org/) -->

<svg
   xmlns:dc="http://purl.org/dc/elements/1.1/"
   xmlns:cc="http://creativecommons.org/ns#"
   xmlns:rdf="http://www.w3.org/1999/02/22-rdf-syntax-ns#"
   xmlns:svg="http://www.w3.org/2000/svg"
   xmlns="http://www.w3.org/2000/svg"
   xmlns:xlink="http://www.w3.org/1999/xlink"
   version="1.1"
   width="512"
   height="512"
   id="svg2">
  <defs
     id="defs4">
    <linearGradient
       id="linearGradient3170">
      <stop
         id="stop3172"
         style="stop-color:#cc7110;stop-opacity:1"
         offset="0" />
      <stop
         id="stop3174"
         style="stop-color:#673f0b;stop-opacity:0.78448278"
         offset="1" />
    </linearGradient>
    <linearGradient
       id="linearGradient3938">
      <stop
         id="stop3940"
         style="stop-color:#b1f1ee;stop-opacity:0.93103451"
         offset="0" />
      <stop
         id="stop3942"
         style="stop-color:#132682;stop-opacity:1"
         offset="1" />
    </linearGradient>
    <linearGradient
       x1="64.477501"
       y1="56.3008"
       x2="78.466103"
       y2="48.0854"
       id="XMLID_74_-8-1"
       gradientUnits="userSpaceOnUse">
      <stop
         id="stop155-3-8"
         style="stop-color:#ffffff;stop-opacity:1"
         offset="0" />
      <stop
         id="stop157-94-6"
         style="stop-color:#e6e6e6;stop-opacity:1"
         offset="1" />
    </linearGradient>
    <radialGradient
       cx="558.35437"
       cy="385.4841"
       r="191.6187"
       fx="558.35437"
       fy="385.4841"
       id="radialGradient3867"
       xlink:href="#XMLID_74_-8-1"
       gradientUnits="userSpaceOnUse"
       gradientTransform="matrix(1,0,0,1.0499906,0,-19.270593)" />
    <linearGradient
       x1="200.0508"
       y1="185.0742"
       x2="200.0508"
       y2="217.4595"
       id="SVGID_2_"
       gradientUnits="userSpaceOnUse">
      <stop
         id="stop13"
         style="stop-color:#61b74a;stop-opacity:1"
         offset="0" />
      <stop
         id="stop15"
         style="stop-color:#449934;stop-opacity:1"
         offset="1" />
    </linearGradient>
    <linearGradient
       x1="200.0508"
       y1="185.0742"
       x2="200.0508"
       y2="217.4595"
       id="linearGradient3021"
       xlink:href="#SVGID_2_"
       gradientUnits="userSpaceOnUse"
       gradientTransform="matrix(13.577628,0,0,13.577628,-2026.1619,-2566.7096)" />
    <linearGradient
       x1="19.244999"
       y1="21.030804"
       x2="19.360001"
       y2="44.984001"
       id="linearGradient2460"
       gradientUnits="userSpaceOnUse">
      <stop
         id="stop3602"
         style="stop-color:#fafafa;stop-opacity:1"
         offset="0" />
      <stop
         id="stop3604"
         style="stop-color:#f0f0f0;stop-opacity:1"
         offset="1" />
    </linearGradient>
    <linearGradient
       x1="19.244999"
       y1="21.030804"
       x2="19.360001"
       y2="44.984001"
       id="linearGradient3096"
       xlink:href="#linearGradient2460"
       gradientUnits="userSpaceOnUse"
       gradientTransform="matrix(11.076923,0,0,11.076923,-9.8523013,-20.578025)" />
    <linearGradient
       x1="1012.5133"
       y1="484.41721"
       x2="1006.8082"
       y2="20.625916"
       id="linearGradient4114-2"
       xlink:href="#ButtonShadow-0-1-1-5"
       gradientUnits="userSpaceOnUse"
       gradientTransform="matrix(1.0317796,0,0,1.0317796,-830.86406,592.67791)" />
    <linearGradient
       x1="45.447727"
       y1="92.539597"
       x2="45.447727"
       y2="7.0165396"
       id="ButtonShadow-0-1-1-5"
       gradientUnits="userSpaceOnUse"
       gradientTransform="matrix(1.0058652,0,0,0.994169,100,0)">
      <stop
         id="stop3750-8-9-3-6"
         style="stop-color:#000000;stop-opacity:1"
         offset="0" />
      <stop
         id="stop3752-5-6-4-2"
         style="stop-color:#000000;stop-opacity:0.58823532"
         offset="1" />
    </linearGradient>
    <linearGradient
       x1="1012.5133"
       y1="484.41721"
       x2="1006.8082"
       y2="20.625916"
       id="linearGradient4112-2"
       xlink:href="#ButtonShadow-0-1-1-5"
       gradientUnits="userSpaceOnUse"
       gradientTransform="matrix(1.0402541,0,0,1.0402541,-837.95116,592.51825)" />
    <linearGradient
       x1="45.447727"
       y1="92.539597"
       x2="45.447727"
       y2="7.0165396"
       id="linearGradient5292"
       gradientUnits="userSpaceOnUse"
       gradientTransform="matrix(1.0058652,0,0,0.994169,100,0)">
      <stop
         id="stop5294"
         style="stop-color:#000000;stop-opacity:1"
         offset="0" />
      <stop
         id="stop5296"
         style="stop-color:#000000;stop-opacity:0.58823532"
         offset="1" />
    </linearGradient>
    <linearGradient
       x1="1012.5133"
       y1="484.41721"
       x2="1006.8082"
       y2="20.625916"
       id="linearGradient4110-6"
       xlink:href="#ButtonShadow-0-1-1-5"
       gradientUnits="userSpaceOnUse"
       gradientTransform="matrix(1.023305,0,0,1.023305,-823.77704,592.83757)" />
    <linearGradient
       x1="45.447727"
       y1="92.539597"
       x2="45.447727"
       y2="7.0165396"
       id="linearGradient5299"
       gradientUnits="userSpaceOnUse"
       gradientTransform="matrix(1.0058652,0,0,0.994169,100,0)">
      <stop
         id="stop5301"
         style="stop-color:#000000;stop-opacity:1"
         offset="0" />
      <stop
         id="stop5303"
         style="stop-color:#000000;stop-opacity:0.58823532"
         offset="1" />
    </linearGradient>
    <linearGradient
       x1="1012.5133"
       y1="484.41721"
       x2="1006.8082"
       y2="20.625916"
       id="linearGradient4116-6"
       xlink:href="#ButtonShadow-0-1-1-5"
       gradientUnits="userSpaceOnUse"
       gradientTransform="matrix(1.0148305,0,0,1.0148305,-816.68996,592.99723)" />
    <linearGradient
       x1="45.447727"
       y1="92.539597"
       x2="45.447727"
       y2="7.0165396"
       id="linearGradient5306"
       gradientUnits="userSpaceOnUse"
       gradientTransform="matrix(1.0058652,0,0,0.994169,100,0)">
      <stop
         id="stop5308"
         style="stop-color:#000000;stop-opacity:1"
         offset="0" />
      <stop
         id="stop5310"
         style="stop-color:#000000;stop-opacity:0.58823532"
         offset="1" />
    </linearGradient>
    <linearGradient
       x1="1012.5133"
       y1="484.41721"
       x2="1006.8082"
       y2="20.625916"
       id="linearGradient3372"
       xlink:href="#ButtonShadow-0-1-1-5"
       gradientUnits="userSpaceOnUse"
       gradientTransform="matrix(1.0074153,0,0,1.0074153,-810.48879,593.1369)" />
    <linearGradient
       x1="45.447727"
       y1="92.539597"
       x2="45.447727"
       y2="7.0165396"
       id="linearGradient5313"
       gradientUnits="userSpaceOnUse"
       gradientTransform="matrix(1.0058652,0,0,0.994169,100,0)">
      <stop
         id="stop5315"
         style="stop-color:#000000;stop-opacity:1"
         offset="0" />
      <stop
         id="stop5317"
         style="stop-color:#000000;stop-opacity:0.58823532"
         offset="1" />
    </linearGradient>
    <linearGradient
       x1="1016.1035"
       y1="476.25983"
       x2="1011.9534"
       y2="251.66064"
       id="linearGradient4082"
       xlink:href="#linearGradient4487"
       gradientUnits="userSpaceOnUse"
       gradientTransform="translate(-146.22032,369.08845)" />
    <linearGradient
       id="linearGradient4487">
      <stop
         id="stop4489"
         style="stop-color:#000000;stop-opacity:1"
         offset="0" />
      <stop
         id="stop4491"
         style="stop-color:#000000;stop-opacity:0"
         offset="1" />
    </linearGradient>
    <linearGradient
       id="linearGradient3737">
      <stop
         id="stop3739"
         style="stop-color:#ffffff;stop-opacity:1"
         offset="0" />
      <stop
         id="stop3741"
         style="stop-color:#ffffff;stop-opacity:0"
         offset="1" />
    </linearGradient>
    <linearGradient
       id="linearGradient4046">
      <stop
         id="stop4048"
         style="stop-color:#000000;stop-opacity:1"
         offset="0" />
      <stop
         id="stop4050"
         style="stop-color:#ffffff;stop-opacity:0.2"
         offset="1" />
    </linearGradient>
    <linearGradient
       x1="1012.5133"
       y1="484.41721"
       x2="1006.8082"
       y2="20.625916"
       id="linearGradient5342"
       xlink:href="#ButtonShadow-0-1-1-5"
       gradientUnits="userSpaceOnUse"
       gradientTransform="matrix(1.0074153,0,0,1.0074153,-810.48879,593.1369)" />
    <linearGradient
       x1="1012.5133"
       y1="484.41721"
       x2="1006.8082"
       y2="20.625916"
       id="linearGradient4114-2-6"
       xlink:href="#ButtonShadow-0-1-1-5-9"
       gradientUnits="userSpaceOnUse"
       gradientTransform="matrix(1.0317796,0,0,1.0317796,-830.86406,592.67791)" />
    <linearGradient
       x1="45.447727"
       y1="92.539597"
       x2="45.447727"
       y2="7.0165396"
       id="ButtonShadow-0-1-1-5-9"
       gradientUnits="userSpaceOnUse"
       gradientTransform="matrix(1.0058652,0,0,0.994169,100,0)">
      <stop
         id="stop3750-8-9-3-6-4"
         style="stop-color:#000000;stop-opacity:1"
         offset="0" />
      <stop
         id="stop3752-5-6-4-2-9"
         style="stop-color:#000000;stop-opacity:0.58823532"
         offset="1" />
    </linearGradient>
    <linearGradient
       x1="1012.5133"
       y1="484.41721"
       x2="1006.8082"
       y2="20.625916"
       id="linearGradient4112-2-6"
       xlink:href="#ButtonShadow-0-1-1-5-9"
       gradientUnits="userSpaceOnUse"
       gradientTransform="matrix(1.0402541,0,0,1.0402541,-837.95116,592.51825)" />
    <linearGradient
       x1="45.447727"
       y1="92.539597"
       x2="45.447727"
       y2="7.0165396"
       id="linearGradient5292-5"
       gradientUnits="userSpaceOnUse"
       gradientTransform="matrix(1.0058652,0,0,0.994169,100,0)">
      <stop
         id="stop5294-8"
         style="stop-color:#000000;stop-opacity:1"
         offset="0" />
      <stop
         id="stop5296-4"
         style="stop-color:#000000;stop-opacity:0.58823532"
         offset="1" />
    </linearGradient>
    <linearGradient
       x1="1012.5133"
       y1="484.41721"
       x2="1006.8082"
       y2="20.625916"
       id="linearGradient4110-6-7"
       xlink:href="#ButtonShadow-0-1-1-5-9"
       gradientUnits="userSpaceOnUse"
       gradientTransform="matrix(1.023305,0,0,1.023305,-823.77704,592.83757)" />
    <linearGradient
       x1="45.447727"
       y1="92.539597"
       x2="45.447727"
       y2="7.0165396"
       id="linearGradient5299-2"
       gradientUnits="userSpaceOnUse"
       gradientTransform="matrix(1.0058652,0,0,0.994169,100,0)">
      <stop
         id="stop5301-9"
         style="stop-color:#000000;stop-opacity:1"
         offset="0" />
      <stop
         id="stop5303-1"
         style="stop-color:#000000;stop-opacity:0.58823532"
         offset="1" />
    </linearGradient>
    <linearGradient
       x1="1012.5133"
       y1="484.41721"
       x2="1006.8082"
       y2="20.625916"
       id="linearGradient4116-6-3"
       xlink:href="#ButtonShadow-0-1-1-5-9"
       gradientUnits="userSpaceOnUse"
       gradientTransform="matrix(1.0148305,0,0,1.0148305,-816.68996,592.99723)" />
    <linearGradient
       x1="45.447727"
       y1="92.539597"
       x2="45.447727"
       y2="7.0165396"
       id="linearGradient5306-9"
       gradientUnits="userSpaceOnUse"
       gradientTransform="matrix(1.0058652,0,0,0.994169,100,0)">
      <stop
         id="stop5308-0"
         style="stop-color:#000000;stop-opacity:1"
         offset="0" />
      <stop
         id="stop5310-6"
         style="stop-color:#000000;stop-opacity:0.58823532"
         offset="1" />
    </linearGradient>
    <linearGradient
       x1="1012.5133"
       y1="484.41721"
       x2="1006.8082"
       y2="20.625916"
       id="linearGradient3372-9"
       xlink:href="#ButtonShadow-0-1-1-5-9"
       gradientUnits="userSpaceOnUse"
       gradientTransform="matrix(1.0074153,0,0,1.0074153,-810.48879,593.1369)" />
    <linearGradient
       x1="45.447727"
       y1="92.539597"
       x2="45.447727"
       y2="7.0165396"
       id="linearGradient5313-8"
       gradientUnits="userSpaceOnUse"
       gradientTransform="matrix(1.0058652,0,0,0.994169,100,0)">
      <stop
         id="stop5315-8"
         style="stop-color:#000000;stop-opacity:1"
         offset="0" />
      <stop
         id="stop5317-1"
         style="stop-color:#000000;stop-opacity:0.58823532"
         offset="1" />
    </linearGradient>
    <linearGradient
       x1="1016.1035"
       y1="476.25983"
       x2="1011.9534"
       y2="251.66064"
       id="linearGradient4082-7"
       xlink:href="#linearGradient4487-8"
       gradientUnits="userSpaceOnUse"
       gradientTransform="translate(-146.22032,369.08845)" />
    <linearGradient
       id="linearGradient4487-8">
      <stop
         id="stop4489-0"
         style="stop-color:#000000;stop-opacity:1"
         offset="0" />
      <stop
         id="stop4491-4"
         style="stop-color:#000000;stop-opacity:0"
         offset="1" />
    </linearGradient>
    <linearGradient
       x1="993.43896"
       y1="51.511765"
       x2="988.78552"
       y2="363.73825"
       id="linearGradient4084-7"
       xlink:href="#linearGradient3737-8"
       gradientUnits="userSpaceOnUse"
       gradientTransform="translate(778.59979,-360.55963)" />
    <linearGradient
       id="linearGradient3737-8">
      <stop
         id="stop3739-4"
         style="stop-color:#ffffff;stop-opacity:1"
         offset="0" />
      <stop
         id="stop3741-7"
         style="stop-color:#ffffff;stop-opacity:0"
         offset="1" />
    </linearGradient>
    <linearGradient
       x1="1764.6487"
       y1="155.59685"
       x2="1763.6903"
       y2="-55.941216"
       id="linearGradient4086-1"
       xlink:href="#linearGradient4046-2"
       gradientUnits="userSpaceOnUse" />
    <linearGradient
       id="linearGradient4046-2">
      <stop
         id="stop4048-2"
         style="stop-color:#000000;stop-opacity:1"
         offset="0" />
      <stop
         id="stop4050-7"
         style="stop-color:#ffffff;stop-opacity:0.2"
         offset="1" />
    </linearGradient>
    <linearGradient
       x1="1012.5133"
       y1="484.41721"
       x2="1006.8082"
       y2="20.625916"
       id="linearGradient5342-3"
       xlink:href="#ButtonShadow-0-1-1-5-9"
       gradientUnits="userSpaceOnUse"
       gradientTransform="matrix(1.0074153,0,0,1.0074153,-810.48879,593.1369)" />
    <linearGradient
       id="linearGradient4487-1">
      <stop
         id="stop4489-6"
         style="stop-color:#000000;stop-opacity:1"
         offset="0" />
      <stop
         id="stop4491-0"
         style="stop-color:#000000;stop-opacity:0"
         offset="1" />
    </linearGradient>
    <linearGradient
       x1="993.43896"
       y1="51.511765"
       x2="988.78552"
       y2="363.73825"
       id="linearGradient4084-8"
       xlink:href="#linearGradient3737-9"
       gradientUnits="userSpaceOnUse"
       gradientTransform="translate(778.59979,-360.55963)" />
    <linearGradient
       id="linearGradient3737-9">
      <stop
         id="stop3739-7"
         style="stop-color:#ffffff;stop-opacity:1"
         offset="0" />
      <stop
         id="stop3741-4"
         style="stop-color:#ffffff;stop-opacity:0"
         offset="1" />
    </linearGradient>
    <linearGradient
       x1="1764.6487"
       y1="155.59685"
       x2="1763.6903"
       y2="-55.941216"
       id="linearGradient4086-12"
       xlink:href="#linearGradient4046-3"
       gradientUnits="userSpaceOnUse" />
    <linearGradient
       id="linearGradient4046-3">
      <stop
         id="stop4048-7"
         style="stop-color:#000000;stop-opacity:1"
         offset="0" />
      <stop
         id="stop4050-73"
         style="stop-color:#ffffff;stop-opacity:0.2"
         offset="1" />
    </linearGradient>
    <linearGradient
       id="linearGradient2760">
      <stop
         id="stop2770"
         style="stop-color:#ffffff;stop-opacity:1"
         offset="0" />
      <stop
         id="stop2764"
         style="stop-color:#a9a9a9;stop-opacity:1"
         offset="1" />
    </linearGradient>
    <linearGradient
       id="linearGradient4846">
      <stop
         id="stop4848"
         style="stop-color:#1a1a1a;stop-opacity:1"
         offset="0" />
      <stop
         id="stop4856"
         style="stop-color:#1e1e1e;stop-opacity:1"
         offset="1" />
    </linearGradient>
    <linearGradient
       id="linearGradient4922">
      <stop
         id="stop4924"
         style="stop-color:#1a1a1a;stop-opacity:1"
         offset="0" />
      <stop
         id="stop4926"
         style="stop-color:#636363;stop-opacity:1"
         offset="0.15622118" />
      <stop
         id="stop4928"
         style="stop-color:#b4b4b4;stop-opacity:1"
         offset="0.33151907" />
      <stop
         id="stop4930"
         style="stop-color:#636363;stop-opacity:1"
         offset="0.53579742" />
      <stop
         id="stop4932"
         style="stop-color:#000000;stop-opacity:1"
         offset="1" />
    </linearGradient>
    <linearGradient
       x1="201.33115"
       y1="152.12039"
       x2="166.77547"
       y2="110.85986"
       id="linearGradient4884"
       xlink:href="#linearGradient4888"
       gradientUnits="userSpaceOnUse"
       gradientTransform="matrix(1.2757694,0,0,1.2757694,-135.89444,2.4500392)"
       spreadMethod="reflect" />
    <linearGradient
       id="linearGradient4888">
      <stop
         id="stop4892"
         style="stop-color:#c0821c;stop-opacity:1"
         offset="0" />
      <stop
         id="stop4894"
         style="stop-color:#e4ae48;stop-opacity:1"
         offset="1" />
    </linearGradient>
    <linearGradient
       x1="13.021049"
       y1="160.82593"
       x2="258.22205"
       y2="158.47191"
       id="linearGradient4882"
       xlink:href="#linearGradient4898"
       gradientUnits="userSpaceOnUse" />
    <linearGradient
       id="linearGradient4898">
      <stop
         id="stop4900"
         style="stop-color:#d78617;stop-opacity:1"
         offset="0" />
      <stop
         id="stop4902"
         style="stop-color:#5c1234;stop-opacity:1"
         offset="1" />
    </linearGradient>
    <linearGradient
       x1="45.447727"
       y1="92.539597"
       x2="45.447727"
       y2="7.0165396"
       id="ButtonShadow"
       gradientUnits="userSpaceOnUse"
       gradientTransform="scale(1.0058652,0.994169)">
      <stop
         id="stop3750"
         style="stop-color:#000000;stop-opacity:1"
         offset="0" />
      <stop
         id="stop3752"
         style="stop-color:#000000;stop-opacity:0.58823532"
         offset="1" />
    </linearGradient>
    <filter
       color-interpolation-filters="sRGB"
       id="filter3174">
      <feGaussianBlur
         id="feGaussianBlur3176"
         stdDeviation="1.71" />
    </filter>
    <linearGradient
       id="linearGradient10386">
      <stop
         id="stop10388"
         style="stop-color:#ffffff;stop-opacity:1"
         offset="0" />
      <stop
         id="stop10390"
         style="stop-color:#ffffff;stop-opacity:0"
         offset="1" />
    </linearGradient>
    <linearGradient
       x1="212.86353"
       y1="11.425488"
       x2="214.26566"
       y2="168.28262"
       id="linearGradient8264"
       xlink:href="#linearGradient2760"
       gradientUnits="userSpaceOnUse"
       gradientTransform="matrix(1.8464564,0,0,1.8464564,-123.73343,86.826257)"
       spreadMethod="reflect" />
    <linearGradient
       x1="18.930269"
       y1="6.2951212"
       x2="19.360001"
       y2="36.643665"
       id="linearGradient3157"
       xlink:href="#linearGradient2460"
       gradientUnits="userSpaceOnUse"
       gradientTransform="matrix(12.102564,0,0,12.102564,-34.468255,-46.187105)" />
    <linearGradient
       x1="0"
       y1="0"
       x2="1"
       y2="1"
       id="acyl_gradient"
       xlink:href="#linearGradient4321" />
    <linearGradient
       id="linearGradient4321">
      <stop
         id="stop1"
         style="stop-color:#ee0c0c;stop-opacity:1"
         offset="0" />
      <stop
         id="stop2"
         style="stop-color:#7a0404;stop-opacity:1"
         offset="1" />
    </linearGradient>
    <radialGradient
       cx="94.710419"
       cy="98.692879"
       r="150"
       fx="94.710419"
       fy="98.692879"
       id="radialGradient3928"
       xlink:href="#linearGradient4321"
       gradientUnits="userSpaceOnUse"
       gradientTransform="matrix(2.4249551,-0.00787504,0.00770263,2.3718665,-135.71828,-134.64744)" />
    <radialGradient
       cx="94.710419"
       cy="98.692879"
       r="150"
       fx="94.710419"
       fy="98.692879"
       id="radialGradient3932"
       xlink:href="#linearGradient4321"
       gradientUnits="userSpaceOnUse"
       gradientTransform="matrix(2.4249551,-0.00787504,0.00770263,2.3718665,-135.71828,-134.64744)" />
    <radialGradient
       cx="110.73653"
       cy="112.57468"
       r="150"
       fx="110.73653"
       fy="112.57468"
       id="radialGradient3140"
       xlink:href="#linearGradient3938"
       gradientUnits="userSpaceOnUse"
       gradientTransform="matrix(1.6533901,0.0060994,-0.00539655,1.4623231,-50.506611,-35.439162)" />
    <linearGradient
       x1="-112.34483"
       y1="572.44672"
       x2="-109.97469"
       y2="107.89955"
       id="linearGradient5925"
       xlink:href="#ButtonShadow-0-1-1-5-9-5"
       gradientUnits="userSpaceOnUse"
       gradientTransform="matrix(1.0074417,0,0,1.0074152,261.62679,527.41078)" />
    <linearGradient
       x1="45.447727"
       y1="92.539597"
       x2="45.447727"
       y2="7.0165396"
       id="ButtonShadow-0-1-1-5-9-5"
       gradientUnits="userSpaceOnUse"
       gradientTransform="matrix(1.0058652,0,0,0.994169,100,0)">
      <stop
         id="stop3750-8-9-3-6-4-0"
         style="stop-color:#000000;stop-opacity:1"
         offset="0" />
      <stop
         id="stop3752-5-6-4-2-9-8"
         style="stop-color:#000000;stop-opacity:0.58823532"
         offset="1" />
    </linearGradient>
    <linearGradient
       x1="-112.34483"
       y1="572.44672"
       x2="-109.97469"
       y2="107.89955"
       id="linearGradient5927"
       xlink:href="#ButtonShadow-0-1-1-5-9-5"
       gradientUnits="userSpaceOnUse"
       gradientTransform="matrix(1.0318068,0,0,1.0317796,268.77841,524.78354)" />
    <linearGradient
       x1="45.447727"
       y1="92.539597"
       x2="45.447727"
       y2="7.0165396"
       id="linearGradient3129"
       gradientUnits="userSpaceOnUse"
       gradientTransform="matrix(1.0058652,0,0,0.994169,100,0)">
      <stop
         id="stop3131"
         style="stop-color:#000000;stop-opacity:1"
         offset="0" />
      <stop
         id="stop3133"
         style="stop-color:#000000;stop-opacity:0.58823532"
         offset="1" />
    </linearGradient>
    <linearGradient
       x1="-112.34483"
       y1="572.44672"
       x2="-109.97469"
       y2="107.89955"
       id="linearGradient5929"
       xlink:href="#ButtonShadow-0-1-1-5-9-5"
       gradientUnits="userSpaceOnUse"
       gradientTransform="matrix(1.0148572,0,0,1.0148305,263.80369,526.61118)" />
    <linearGradient
       x1="45.447727"
       y1="92.539597"
       x2="45.447727"
       y2="7.0165396"
       id="linearGradient3136"
       gradientUnits="userSpaceOnUse"
       gradientTransform="matrix(1.0058652,0,0,0.994169,100,0)">
      <stop
         id="stop3138"
         style="stop-color:#000000;stop-opacity:1"
         offset="0" />
      <stop
         id="stop3140"
         style="stop-color:#000000;stop-opacity:0.58823532"
         offset="1" />
    </linearGradient>
    <linearGradient
       x1="-112.34483"
       y1="572.44672"
       x2="-109.97469"
       y2="107.89955"
       id="linearGradient5931"
       xlink:href="#ButtonShadow-0-1-1-5-9-5"
       gradientUnits="userSpaceOnUse"
       gradientTransform="matrix(1.023332,0,0,1.023305,266.29153,525.69736)" />
    <linearGradient
       x1="45.447727"
       y1="92.539597"
       x2="45.447727"
       y2="7.0165396"
       id="linearGradient3143"
       gradientUnits="userSpaceOnUse"
       gradientTransform="matrix(1.0058652,0,0,0.994169,100,0)">
      <stop
         id="stop3145"
         style="stop-color:#000000;stop-opacity:1"
         offset="0" />
      <stop
         id="stop3147"
         style="stop-color:#000000;stop-opacity:0.58823532"
         offset="1" />
    </linearGradient>
    <linearGradient
       x1="-112.34483"
       y1="572.44672"
       x2="-109.97469"
       y2="107.89955"
       id="linearGradient5933"
       xlink:href="#ButtonShadow-0-1-1-5-9-5"
       gradientUnits="userSpaceOnUse"
       gradientTransform="matrix(1.0402816,0,0,1.0402542,271.26626,523.86971)" />
    <linearGradient
       x1="45.447727"
       y1="92.539597"
       x2="45.447727"
       y2="7.0165396"
       id="linearGradient3150"
       gradientUnits="userSpaceOnUse"
       gradientTransform="matrix(1.0058652,0,0,0.994169,100,0)">
      <stop
         id="stop3152"
         style="stop-color:#000000;stop-opacity:1"
         offset="0" />
      <stop
         id="stop3154"
         style="stop-color:#000000;stop-opacity:0.58823532"
         offset="1" />
    </linearGradient>
    <linearGradient
       x1="993.43896"
       y1="51.511765"
       x2="988.78552"
       y2="363.73825"
       id="linearGradient4084-8-2"
       xlink:href="#linearGradient3737-9-0"
       gradientUnits="userSpaceOnUse"
       gradientTransform="translate(-753.58716,-30.14348)" />
    <linearGradient
       id="linearGradient3737-9-0">
      <stop
         id="stop3739-7-5"
         style="stop-color:#ffffff;stop-opacity:1"
         offset="0" />
      <stop
         id="stop3741-4-2"
         style="stop-color:#ffffff;stop-opacity:0"
         offset="1" />
    </linearGradient>
    <linearGradient
       x1="1764.6487"
       y1="155.59685"
       x2="1763.6903"
       y2="-55.941216"
       id="linearGradient4086-12-9"
       xlink:href="#linearGradient4046-3-3"
       gradientUnits="userSpaceOnUse"
       gradientTransform="translate(-1532.187,330.41615)" />
    <linearGradient
       id="linearGradient4046-3-3">
      <stop
         id="stop4048-7-5"
         style="stop-color:#000000;stop-opacity:1"
         offset="0" />
      <stop
         id="stop4050-73-5"
         style="stop-color:#ffffff;stop-opacity:0.2"
         offset="1" />
    </linearGradient>
    <linearGradient
       x1="102.875"
       y1="170.42188"
       x2="153.125"
       y2="170.42188"
       id="linearGradient5071"
       xlink:href="#linearGradient5059"
       gradientUnits="userSpaceOnUse" />
    <linearGradient
       id="linearGradient5059">
      <stop
         id="stop5061"
         style="stop-color:#0b0826;stop-opacity:0.49803922"
         offset="0" />
      <stop
         id="stop5063"
         style="stop-color:#0b0826;stop-opacity:1"
         offset="1" />
    </linearGradient>
    <linearGradient
       x1="102.875"
       y1="170.42188"
       x2="153.125"
       y2="170.42188"
       id="linearGradient3985"
       xlink:href="#linearGradient5059"
       gradientUnits="userSpaceOnUse" />
    <radialGradient
       cx="244.26477"
       cy="286.95432"
       r="62.545898"
       fx="244.26477"
       fy="286.95432"
       id="radialGradient14612"
       xlink:href="#linearGradient3938"
       gradientUnits="userSpaceOnUse"
       gradientTransform="matrix(1,0,0,1.2036395,0,-58.435237)"
       spreadMethod="pad" />
    <clipPath
       id="clipPath1162">
      <path
         d="m 416.65332,309.89941 c 0.62695,-0.62695 1.36328,-1.14453 2.17871,-1.5205 1.7207,-0.79493 3.66406,-0.88184 5.42188,-0.33692 0.63574,0.19727 1.24707,0.47754 1.81445,0.83692 0.45801,0.28906 0.88769,0.62988 1.27832,1.0205 0.37109,0.3711 0.69727,0.77637 0.97754,1.20801 0.56543,0.87207 0.94141,1.85059 1.11621,2.86328 0.26953,1.55957 0.0596,3.20118 -0.67383,4.66309 -0.36621,0.73144 -0.84765,1.39453 -1.41992,1.9668 -0.39063,0.39062 -0.82031,0.73144 -1.27832,1.0205 -0.56738,0.35938 -1.17871,0.63965 -1.81445,0.83692 -1.75782,0.54492 -3.70118,0.45801 -5.42188,-0.33692 -0.81543,-0.37597 -1.55176,-0.89355 -2.17871,-1.5205 -0.57227,-0.57227 -1.05371,-1.23536 -1.41992,-1.9668 -0.7334,-1.46094 -0.94336,-3.10254 -0.67383,-4.66309 0.17481,-1.01269 0.55078,-1.99121 1.11621,-2.86328 0.28027,-0.43164 0.60645,-0.83691 0.97754,-1.20801 z"
         id="path1164" />
    </clipPath>
    <linearGradient
       x1="445.30273"
       y1="343.86523"
       x2="450.64746"
       y2="338.52048"
       id="linearGradient1146"
       xlink:href="#linearGradient4888"
       gradientUnits="userSpaceOnUse"
       gradientTransform="matrix(2.9671512,0,0,-2.9671512,-991.97393,1234.2162)"
       spreadMethod="pad">
      <stop
         id="stop1148"
         style="stop-color:#bbc5d4;stop-opacity:1"
         offset="0" />
      <stop
         id="stop1150"
         style="stop-color:#ffffff;stop-opacity:1"
         offset="0.27526999" />
      <stop
         id="stop1152"
         style="stop-color:#eaedf2;stop-opacity:1"
         offset="0.58425999" />
      <stop
         id="stop1154"
         style="stop-color:#8596a8;stop-opacity:1"
         offset="1" />
    </linearGradient>
    <linearGradient
       x1="431.85352"
       y1="330.41455"
       x2="437.19754"
       y2="325.0705"
       id="linearGradient1132"
       gradientUnits="userSpaceOnUse"
       gradientTransform="matrix(2.9671512,0,0,-2.9671512,-991.97393,1234.2162)"
       spreadMethod="pad">
      <stop
         id="stop1134"
         style="stop-color:#00adef;stop-opacity:1"
         offset="0" />
      <stop
         id="stop1136"
         style="stop-color:#50beef;stop-opacity:1"
         offset="0.07864" />
      <stop
         id="stop1138"
         style="stop-color:#0e88d3;stop-opacity:1"
         offset="0.27526999" />
      <stop
         id="stop1140"
         style="stop-color:#4bb1e8;stop-opacity:1"
         offset="0.74155998" />
      <stop
         id="stop1142"
         style="stop-color:#00adef;stop-opacity:1"
         offset="1" />
    </linearGradient>
    <clipPath
       id="clipPath18">
      <path
         d="m 386.61621,279.87988 c 5.55274,-5.55468 12.40527,-9.81054 20.06152,-12.27148 5.09961,-1.63867 10.4375,-2.4209 15.79102,-2.3877 10.02637,0.0928 19.34375,3.14063 27.13574,8.30664 0.30762,-0.30273 0.61524,-0.60546 0.92285,-0.9082 2.15723,-2.12305 4.31543,-4.24609 6.47266,-6.36914 2.82715,0 5.6543,0 8.48145,0 1.00976,0 2.01953,0 3.02929,0 1.33008,0 2.65918,0 3.98926,0 0,1.53809 0,3.07617 0,4.61426 0,0.97558 0,1.95117 0,2.92676 0,2.65332 0,5.30566 0,7.95898 -2.25098,2.30371 -4.50098,4.6084 -6.75195,6.91211 -0.2793,0.28613 -0.5586,0.57227 -0.83789,0.8584 4.51855,7.51855 7.12109,16.31933 7.12109,25.72949 0,0.54199 -0.009,1.08203 -0.0264,1.62012 -0.36718,11.5664 -4.66015,22.14062 -11.59179,30.4375 -0.91602,1.09668 -1.87793,2.15332 -2.88379,3.16699 -0.75196,0.75781 -1.52735,1.49219 -2.32617,2.20117 -0.60645,0.53906 -1.22657,1.06348 -1.85938,1.57227 -3.66895,2.95215 -7.7627,5.39746 -12.17578,7.22949 -5.90332,2.45117 -12.37793,3.80371 -19.16797,3.80371 -2.02246,0 -4.0166,-0.12012 -5.97656,-0.35352 -4.50196,-0.53613 -8.82129,-1.66992 -12.875,-3.32031 -6.23828,-2.53906 -11.84766,-6.30078 -16.53223,-10.9873 -0.86719,-0.86817 -1.70312,-1.76758 -2.50488,-2.69727 -6.06543,-7.02637 -10.20996,-15.75976 -11.61524,-25.38183 -0.34765,-2.37989 -0.52734,-4.81446 -0.52734,-7.29102 0,-6.40332 1.20313,-12.52637 3.39551,-18.1543 1.77637,-4.55957 4.20117,-8.79492 7.16308,-12.59179 0.49219,-0.63086 0.99903,-1.24903 1.52051,-1.8545 0.82129,-0.95507 1.67774,-1.8789 2.56836,-2.76953 z"
         id="path20" />
    </clipPath>
  </defs>
  <metadata
     id="metadata7">
    <rdf:RDF>
      <cc:Work
         rdf:about="">
        <dc:format>image/svg+xml</dc:format>
        <dc:type
           rdf:resource="http://purl.org/dc/dcmitype/StillImage" />
        <dc:title></dc:title>
        <dc:contributor>
          <cc:Agent>
            <dc:title>Brahim Djoudi</dc:title>
          </cc:Agent>
        </dc:contributor>
      </cc:Work>
    </rdf:RDF>
  </metadata>
  <g
     transform="translate(0,-540.36218)"
     id="layer1" />
  <g
     transform="matrix(1.1,0,0,0.44444,95.081063,256.39254)"
     id="g2036">
    <g
       transform="matrix(1.0526,0,0,1.2857,-1.2632,-13.429)"
       id="g3712"
       style="opacity:0.4" />
  </g>
  <g
     transform="translate(97.481063,231.28154)"
     id="g3541" />
  <g
     transform="translate(97.481063,231.28154)"
     id="g3536" />
  <g
     transform="translate(-605.51932,-353.96833)"
     id="g4076">
    <g
       transform="translate(-926.66758,684.38448)"
       id="g4038" />
  </g>
  <g
     transform="translate(54.089264,-616.0416)"
     id="g5918">
    <path
       d="m 60.989673,1111.5416 144.328367,-0.2064 147.52725,-0.2409 c 49.0412,-5.1221 87.2248,-45.726 88.537,-95.8499 9e-4,-0.035 -9e-4,-0.069 0,-0.1032 9e-4,-0.414 -8e-4,-0.6473 0,-1.0665 0.042,-21.50295 0.034,-49.94202 0.034,-87.7651 l 0,-152.51368 -68.8621,-68.87715 -68.8965,-68.87715 -152.82436,0.0688 c -40.25265,0.0173 -69.340747,0.0413 -91.323117,0.10316 -50.88989,2.75481 -91.3364,43.54773 -93.49012,94.61146 -0.0987,30.63047 -0.10318,74.7573 -0.10318,143.01819 0,68.26875 0.005,112.38763 0.10312,143.01817 2.17453,51.5569 43.38652,92.644 94.96919,94.6802 z"
       id="path5873"
       style="opacity:0.25;color:#000000;fill:url(#linearGradient5925);fill-opacity:1;fill-rule:nonzero;stroke:none;stroke-width:1.5;marker:none;visibility:visible;display:inline;overflow:visible;enable-background:accumulate" />
    <path
       d="m 63.288833,1123.0416 147.818967,-0.2114 151.09521,-0.2467 c 50.2273,-5.246 89.3343,-46.8319 90.6783,-98.1681 9e-4,-0.035 -9e-4,-0.07 0,-0.1056 9e-4,-0.424 -8e-4,-0.663 0,-1.0924 0.043,-22.0229 0.035,-51.14981 0.035,-89.88764 l 0,-156.20224 -70.5276,-70.54295 -70.5627,-70.54295 -156.52046,0.0705 c -41.22616,0.0177 -71.017757,0.0423 -93.531777,0.10565 -52.12067,2.82144 -93.54538,44.60094 -95.75119,96.89965 -0.10109,31.37127 -0.10567,76.56531 -0.10567,146.47709 0,69.91984 0.005,115.10574 0.10561,146.47699 2.22712,52.804 44.43583,94.8848 97.26603,96.9702 z"
       id="path5902"
       style="opacity:0.1;color:#000000;fill:url(#linearGradient5927);fill-opacity:1;fill-rule:nonzero;stroke:none;stroke-width:1.5;marker:none;visibility:visible;display:inline;overflow:visible;enable-background:accumulate" />
    <path
       d="m 61.689723,1115.0417 145.390727,-0.2079 148.61314,-0.2427 c 49.4022,-5.1598 87.8668,-46.0626 89.1887,-96.5555 9e-4,-0.035 -9e-4,-0.069 0,-0.1039 9e-4,-0.4171 -8e-4,-0.6521 0,-1.0744 0.042,-21.66124 0.034,-50.30964 0.034,-88.41113 l 0,-153.63628 -69.369,-69.38413 -69.4036,-69.38414 -153.94925,0.0693 c -40.54894,0.0174 -69.851137,0.0416 -91.995317,0.10392 -51.26448,2.77509 -92.0087,43.86827 -94.17827,95.30786 -0.0994,30.85594 -0.10394,75.30757 -0.10394,144.07091 0,68.77125 0.005,113.21488 0.10387,144.07079 2.19054,51.9366 43.70588,93.3261 95.66824,95.3773 z"
       id="path5906"
       style="opacity:0.25;color:#000000;fill:url(#linearGradient5929);fill-opacity:1;fill-rule:nonzero;stroke:none;stroke-width:1.5;marker:none;visibility:visible;display:inline;overflow:visible;enable-background:accumulate" />
    <path
       d="m 62.489783,1119.0417 146.604847,-0.2097 149.8542,-0.2447 c 49.8147,-5.2028 88.6006,-46.4472 89.9335,-97.3618 9e-4,-0.035 -9e-4,-0.07 0,-0.1048 9e-4,-0.4205 -8e-4,-0.6575 0,-1.0833 0.043,-21.84214 0.034,-50.72977 0.034,-89.14943 l 0,-154.91926 -69.9483,-69.96355 -69.9832,-69.96354 -155.23483,0.0699 c -40.88755,0.0176 -70.434457,0.0419 -92.763547,0.10478 -51.69258,2.79827 -92.77705,44.23461 -94.96474,96.10376 -0.10025,31.1136 -0.1048,75.93644 -0.1048,145.274 0,69.34555 0.005,114.16031 0.10474,145.27394 2.20883,52.3702 44.07085,94.1054 96.46713,96.1737 z"
       id="path5910"
       style="opacity:0.2;color:#000000;fill:url(#linearGradient5931);fill-opacity:1;fill-rule:nonzero;stroke:none;stroke-width:1.5;marker:none;visibility:visible;display:inline;overflow:visible;enable-background:accumulate" />
    <path
       d="m 64.088893,1127.0416 149.033087,-0.2131 152.33628,-0.2488 c 50.6398,-5.289 90.068,-47.2165 91.423,-98.9744 10e-4,-0.036 -9e-4,-0.071 0,-0.1065 10e-4,-0.4274 -8e-4,-0.6684 0,-1.1013 0.043,-22.2038 0.035,-51.56994 0.035,-90.62595 l 0,-157.48521 -71.1068,-71.12236 -71.1423,-71.12236 -157.80606,0.071 c -41.56477,0.0179 -71.601067,0.0427 -94.299997,0.10653 -52.54877,2.84461 -94.31372,44.96726 -96.53765,97.69553 -0.10192,31.62894 -0.10654,77.19419 -0.10654,147.6802 0,70.49412 0.005,116.05116 0.10648,147.68012 2.24541,53.2376 44.8008,95.664 98.06493,97.7666 z"
       id="path5914"
       style="opacity:0.07999998;color:#000000;fill:url(#linearGradient5933);fill-opacity:1;fill-rule:nonzero;stroke:none;stroke-width:1.5;marker:none;visibility:visible;display:inline;overflow:visible;enable-background:accumulate" />
  </g>
  <path
     d="m 114.3763,492.00004 143.26225,-0.20491 146.43752,-0.23905 c 48.67892,-5.08446 86.58047,-45.3894 87.883,-95.1445 8.9e-4,-0.0342 -8.7e-4,-0.0682 0,-0.10239 8.5e-4,-0.41093 -8.2e-4,-0.64253 0,-1.05868 0.0421,-21.34466 0.0341,-49.5744 0.0341,-87.11908 l 0,-151.39108 -68.35344,-68.37017 -68.38759,-68.37016 -151.69547,0.0683 c -39.95531,0.0172 -68.82855,0.041 -90.64854,0.1024 -50.513983,2.73453 -90.661723,43.22719 -92.799533,93.91506 -0.098,30.40501 -0.10242,74.20703 -0.10242,141.96548 0,67.76624 0.005,111.56038 0.10236,141.96542 2.15846,51.17745 43.06603,91.96213 94.267673,93.98336 z"
     id="rect4121"
     style="color:#000000;fill:#e4e6d2;fill-opacity:1;fill-rule:nonzero;stroke:none;stroke-width:1.5;marker:none;visibility:visible;display:inline;overflow:visible;enable-background:accumulate" />
  <g
     transform="translate(-605.51939,-353.9683)"
     id="g4076-9-1">
    <g
       transform="translate(-926.66758,684.38448)"
       id="g4038-9-8">
      <g
         id="g4929">
        <path
           d="m 355.25,20 -151.6875,0.0625 c -39.95531,0.0172 -68.83626,0.03235 -90.65625,0.09375 -4.73569,0.256362 -9.37556,0.852632 -13.90625,1.75 -1.51023,0.299123 -3.015922,0.633019 -4.5,1 -2.226117,0.550471 -4.431221,1.176579 -6.59375,1.875 -20.904452,6.751404 -38.687843,20.284416 -50.8125,38.03125 -0.108334,0.158619 -0.236324,0.30946 -0.34375,0.46875 -0.306456,0.454303 -0.607242,0.915291 -0.90625,1.375 -1.617953,2.487519 -3.108135,5.049674 -4.5,7.6875 -2.416204,4.579126 -4.508261,9.398403 -6.1875,14.375 -0.01359,0.04029 -0.01771,0.08469 -0.03125,0.125 -0.481865,1.434239 -0.926843,2.880345 -1.34375,4.34375 -0.208453,0.731702 -0.401853,1.448822 -0.59375,2.1875 -0.02741,0.105607 -0.06668,0.206753 -0.09375,0.3125 -0.162917,0.635705 -0.318229,1.296808 -0.46875,1.9375 -0.175131,0.745444 -0.341847,1.466751 -0.5,2.21875 -0.04199,0.199929 -0.08422,0.393368 -0.125,0.59375 -0.113545,0.556834 -0.208352,1.127218 -0.3125,1.6875 -0.140964,0.75834 -0.282685,1.51677 -0.40625,2.28125 -0.123565,0.76448 -0.237796,1.5421 -0.34375,2.3125 -0.211908,1.54081 -0.391049,3.09301 -0.53125,4.65625 -0.140201,1.56324 -0.245693,3.13475 -0.3125,4.71875 C 19.99575,144.49876 20,188.30405 20,256.0625 c 0,67.67336 -0.0032,111.41246 0.09375,141.8125 1.33e-4,0.0417 -1.33e-4,0.11458 0,0.15625 0.0027,0.0629 -0.0028,0.12467 0,0.1875 0.0075,0.16637 0.02289,0.33385 0.03125,0.5 0.103117,2.10033 0.268283,4.18721 0.5,6.25 0.01417,0.12613 0.04786,0.24901 0.0625,0.375 0.08359,0.71923 0.182346,1.4107 0.28125,2.125 0.09803,0.70307 0.199799,1.39561 0.3125,2.09375 0.0432,0.26966 0.07962,0.54359 0.125,0.8125 0.06179,0.36349 0.121762,0.73165 0.1875,1.09375 0.03935,0.21824 0.08422,0.43852 0.125,0.65625 0.08776,0.46552 0.187003,0.94311 0.28125,1.40625 0.135112,0.66395 0.257917,1.30981 0.40625,1.96875 0.03076,0.13664 0.06243,0.26983 0.09375,0.40625 0.05764,0.25224 0.127935,0.49851 0.1875,0.75 0.128911,0.54185 0.268464,1.08673 0.40625,1.625 0.05292,0.20754 0.102023,0.418 0.15625,0.625 0.151575,0.57628 0.307082,1.14672 0.46875,1.71875 0.220124,0.77886 0.448884,1.57299 0.6875,2.34375 0.715848,2.31229 1.497285,4.57766 2.375,6.8125 0.280689,0.71657 0.57813,1.4481 0.875,2.15625 0.009,0.0214 0.02224,0.0411 0.03125,0.0625 0.2845,0.67727 0.575897,1.33065 0.875,2 0.02851,0.0637 0.0651,0.12391 0.09375,0.1875 0.28142,0.62616 0.549706,1.25597 0.84375,1.875 0.04962,0.10427 0.106275,0.20843 0.15625,0.3125 0.27599,0.5757 0.556957,1.1494 0.84375,1.71875 0.06944,0.13761 0.14868,0.26901 0.21875,0.40625 1.443868,2.82788 3.01751,5.59026 4.71875,8.25 1.27593,1.9948 2.618525,3.92027 4.03125,5.8125 0.470908,0.63074 0.951899,1.25616 1.4375,1.875 0.971202,1.23768 1.971546,2.46771 3,3.65625 C 61.815337,478.79047 88.261556,491.87122 117.875,492 l 2.625,0 C 67.525103,491.60021 25,448.82259 25,395.75 l 0,-269.5 C 25,72.9275 67.9275,30 121.25,30 l 244,0 -10,-10 z M 487,151.75 l 0,244 c 0,50.25665 -38.12758,91.26134 -87.15625,95.8125 l 3.1875,0 c 30.1265,-2.82213 56.21626,-19.11931 72.21875,-42.84375 0.44099,-0.65379 0.88696,-1.30382 1.3125,-1.96875 0.42554,-0.66493 0.84018,-1.35543 1.25,-2.03125 1.22947,-2.02747 2.38524,-4.09784 3.46875,-6.21875 0.36117,-0.70697 0.71805,-1.40816 1.0625,-2.125 0.34445,-0.71684 0.67253,-1.46103 1,-2.1875 1.60228,-3.55458 3.00961,-7.20174 4.1875,-10.96875 0.0255,-0.0819 0.0372,-0.16801 0.0625,-0.25 0.71629,-2.31229 1.35875,-4.67961 1.90625,-7.0625 0.1825,-0.7943 0.33676,-1.57337 0.5,-2.375 0.16324,-0.80163 0.32503,-1.62878 0.46875,-2.4375 0.14372,-0.80872 0.2823,-1.62195 0.40625,-2.4375 0.0398,-0.26208 0.0872,-0.51848 0.125,-0.78125 0.079,-0.55396 0.14894,-1.09929 0.21875,-1.65625 0.025,-0.19753 0.0387,-0.39585 0.0625,-0.59375 0.0742,-0.62299 0.15612,-1.24841 0.21875,-1.875 0.0136,-0.1345 0.0182,-0.27159 0.0312,-0.40625 0.0671,-0.70043 0.13504,-1.38901 0.1875,-2.09375 0.005,-0.0616 -0.005,-0.12589 0,-0.1875 0.0474,-0.65349 0.0903,-1.31169 0.125,-1.96875 0.006,-0.11421 0.0255,-0.22944 0.0312,-0.34375 5.1e-4,-0.0103 -5e-4,-0.021 0,-0.0312 0.0387,-0.76781 0.0726,-1.54004 0.0937,-2.3125 8.9e-4,-0.0342 -8.7e-4,-0.0596 0,-0.0937 1e-4,-0.0483 -4e-5,-0.081 0,-0.125 0.008,-0.31325 -0.005,-0.62352 0,-0.9375 0.0211,-10.67233 0.028,-23.05015 0.0312,-37.46875 0.003,-14.4186 0,-30.88391 0,-49.65625 l 0,-151.375 -5,-5 z"
           transform="translate(1532.187,-330.41615)"
           id="rect6809-2-3-8"
           style="opacity:0.5;color:#000000;fill:url(#linearGradient4084-8-2);fill-opacity:1;fill-rule:nonzero;stroke:none;stroke-width:1.5;marker:none;visibility:visible;display:inline;overflow:visible;enable-background:accumulate" />
        <path
           d="m 112.90625,20.15625 c -4.73569,0.256362 -9.37556,0.852632 -13.90625,1.75 -1.51023,0.299123 -3.015922,0.633019 -4.5,1 -2.226117,0.550471 -4.431221,1.176579 -6.59375,1.875 -2.162529,0.698421 -4.281752,1.471807 -6.375,2.3125 -9.76849,3.923234 -18.747925,9.359992 -26.65625,16.03125 -5.083924,4.288666 -9.725026,9.084055 -13.84375,14.3125 -1.372908,1.742815 -2.683225,3.539121 -3.9375,5.375 -0.109552,0.160436 -0.235127,0.307628 -0.34375,0.46875 -0.306456,0.454303 -0.607242,0.915291 -0.90625,1.375 -0.808977,1.243759 -1.590452,2.530323 -2.34375,3.8125 -0.166868,0.284301 -0.335918,0.557614 -0.5,0.84375 -0.207159,0.360853 -0.391059,0.730006 -0.59375,1.09375 -0.184795,0.331891 -0.381451,0.665735 -0.5625,1 -0.170654,0.314981 -0.332698,0.620433 -0.5,0.9375 -0.347966,0.659456 -0.697942,1.331675 -1.03125,2 -0.666617,1.33665 -1.29953,2.691638 -1.90625,4.0625 -0.879859,1.988008 -1.719204,4.006876 -2.46875,6.0625 -0.02575,0.07061 -0.03691,0.148066 -0.0625,0.21875 -0.255282,0.70525 -0.51044,1.412248 -0.75,2.125 -0.0063,0.0187 0.0063,0.04379 0,0.0625 -0.478277,1.425001 -0.929585,2.858721 -1.34375,4.3125 -0.01792,0.06293 -0.0447,0.124518 -0.0625,0.1875 -0.188998,0.668565 -0.356058,1.325628 -0.53125,2 -0.02999,0.115391 -0.06417,0.228192 -0.09375,0.34375 -0.160255,0.626112 -0.320519,1.275303 -0.46875,1.90625 -0.14068,0.598804 -0.276512,1.178203 -0.40625,1.78125 -0.05606,0.260594 -0.102244,0.519878 -0.15625,0.78125 -0.01964,0.09505 -0.04314,0.186096 -0.0625,0.28125 -0.11135,0.546937 -0.210215,1.105987 -0.3125,1.65625 -0.04812,0.25885 -0.110151,0.52168 -0.15625,0.78125 -0.0886,0.49905 -0.168912,0.99832 -0.25,1.5 -0.05057,0.31267 -0.108609,0.62383 -0.15625,0.9375 -0.06911,0.45519 -0.124613,0.91774 -0.1875,1.375 -0.105954,0.7704 -0.193117,1.53638 -0.28125,2.3125 -0.08813,0.77612 -0.179899,1.56213 -0.25,2.34375 -0.139283,1.553 -0.245648,3.11401 -0.3125,4.6875 -4.41e-4,0.0104 4.38e-4,0.0209 0,0.0312 -2.7e-5,0.008 2.7e-5,0.0229 0,0.0312 C 19.995828,144.52902 20,188.32263 20,256.0625 c 0,67.69194 -0.0033,111.44271 0.09375,141.84375 1.07e-4,0.0334 -1.07e-4,0.0917 0,0.125 0.0022,0.0524 -0.0023,0.10389 0,0.15625 0.0084,0.18714 0.02184,0.37564 0.03125,0.5625 0.10587,2.14272 0.291576,4.27142 0.53125,6.375 0.0023,0.0206 -0.0024,0.0419 0,0.0625 0.08856,0.77298 0.206258,1.51395 0.3125,2.28125 0.107671,0.77762 0.218135,1.57218 0.34375,2.34375 0.110714,0.67613 0.219415,1.35992 0.34375,2.03125 0.01731,0.0939 0.04493,0.18743 0.0625,0.28125 0.08949,0.47548 0.184986,0.96451 0.28125,1.4375 0.115748,0.56872 0.218291,1.12246 0.34375,1.6875 0.05136,0.2313 0.103277,0.45683 0.15625,0.6875 0.05544,0.24229 0.130278,0.47716 0.1875,0.71875 0.168714,0.71001 0.347315,1.42115 0.53125,2.125 0.01079,0.0414 0.02041,0.0836 0.03125,0.125 0.153969,0.58602 0.304342,1.16838 0.46875,1.75 0.04405,0.15622 0.08021,0.31285 0.125,0.46875 0.179375,0.62283 0.371264,1.2574 0.5625,1.875 0.03482,0.11268 0.05854,0.23125 0.09375,0.34375 0.205574,0.65538 0.437456,1.2882 0.65625,1.9375 0.256854,0.76225 0.50641,1.52761 0.78125,2.28125 0.01464,0.0402 0.01656,0.0848 0.03125,0.125 0.261099,0.71305 0.535514,1.41991 0.8125,2.125 0.277337,0.70739 0.58189,1.42582 0.875,2.125 0.01273,0.0303 0.01849,0.0635 0.03125,0.0937 0.280961,0.66829 0.579817,1.30817 0.875,1.96875 0.126258,0.28202 0.246174,0.56316 0.375,0.84375 0.186593,0.40717 0.370539,0.81463 0.5625,1.21875 0.05022,0.10551 0.105669,0.2072 0.15625,0.3125 0.296257,0.61798 0.597551,1.2331 0.90625,1.84375 0.104796,0.20699 0.206286,0.41886 0.3125,0.625 0.310007,0.60166 0.646774,1.18698 0.96875,1.78125 0.377433,0.69663 0.762605,1.40751 1.15625,2.09375 0.251968,0.43977 0.491461,0.87707 0.75,1.3125 0.144428,0.24294 0.291042,0.47718 0.4375,0.71875 0.409604,0.6756 0.82469,1.33529 1.25,2 0.85062,1.32942 1.744326,2.65318 2.65625,3.9375 0.379219,0.53462 0.766661,1.06718 1.15625,1.59375 0.137991,0.18627 0.266973,0.37725 0.40625,0.5625 0.294429,0.39216 0.606107,0.7687 0.90625,1.15625 0.199718,0.25754 0.39153,0.52578 0.59375,0.78125 0.08327,0.10531 0.166308,0.20754 0.25,0.3125 0.325327,0.4076 0.668339,0.81652 1,1.21875 0.500041,0.60644 0.985773,1.18722 1.5,1.78125 0.514227,0.59403 1.03434,1.19989 1.5625,1.78125 1.056321,1.16272 2.139466,2.29572 3.25,3.40625 1.105203,1.1052 2.218105,2.19849 3.375,3.25 0.0056,0.005 0.02567,-0.005 0.03125,0 1.744081,1.58448 3.550447,3.1057 5.40625,4.5625 16.595324,13.02732 37.53268,20.80712 60.34375,20.90625 0.14694,6.4e-4 0.2904,0 0.4375,0 l 139.3125,-0.21875 145.40625,-0.21875 c 30.1265,-2.8202 56.21626,-19.12761 72.21875,-42.84375 0.44099,-0.65356 0.88696,-1.30404 1.3125,-1.96875 0.29883,-0.46679 0.5839,-0.93407 0.875,-1.40625 0.12249,-0.19908 0.25389,-0.39372 0.375,-0.59375 0.0486,-0.0801 0.0766,-0.16976 0.125,-0.25 0.35959,-0.59664 0.71533,-1.17635 1.0625,-1.78125 0.78772,-1.37249 1.55891,-2.77397 2.28125,-4.1875 0.36117,-0.70677 0.71805,-1.4396 1.0625,-2.15625 0.34445,-0.71665 0.67253,-1.42998 1,-2.15625 0.9824,-2.17882 1.89373,-4.39533 2.71875,-6.65625 0.0158,-0.0433 0.0468,-0.0817 0.0625,-0.125 0.25824,-0.71082 0.4765,-1.43778 0.71875,-2.15625 0.23268,-0.69009 0.46976,-1.36554 0.6875,-2.0625 0.0226,-0.0724 0.0401,-0.14628 0.0625,-0.21875 0.71629,-2.31184 1.35875,-4.67996 1.90625,-7.0625 0.1825,-0.79418 0.33676,-1.57347 0.5,-2.375 0.16324,-0.80153 0.32503,-1.62888 0.46875,-2.4375 0.14372,-0.80862 0.2823,-1.62203 0.40625,-2.4375 0.0414,-0.2723 0.0858,-0.53945 0.125,-0.8125 0.0775,-0.54368 0.15007,-1.07843 0.21875,-1.625 0.0263,-0.20779 0.0375,-0.4168 0.0625,-0.625 0.073,-0.61274 0.15696,-1.22753 0.21875,-1.84375 0.0146,-0.14477 0.0173,-0.29255 0.0312,-0.4375 0.0731,-0.7627 0.1318,-1.51345 0.1875,-2.28125 0.0557,-0.7678 0.11813,-1.53979 0.15625,-2.3125 0.0392,-0.77814 0.0726,-1.56082 0.0937,-2.34375 8.9e-4,-0.0342 -8.7e-4,-0.0596 0,-0.0937 7e-5,-0.0363 -4e-5,-0.06 0,-0.0937 0.008,-0.32368 -0.005,-0.64428 0,-0.96875 0.0211,-10.67233 0.028,-23.05015 0.0312,-37.46875 0.003,-14.4186 0,-30.88391 0,-49.65625 l 0,-151.375 -5,-5 0,234 C 487,439.0725 444.0725,482 390.75,482 l -269.5,0 C 67.9275,482 25,439.0725 25,385.75 l 0,-269.5 c 0,-51.518951 40.071412,-93.32402 90.875,-96.09375 -0.86176,0.0023 -2.12816,-0.0024 -2.96875,0 z"
           transform="translate(1532.187,-330.41615)"
           id="path3981-7-8"
           style="opacity:0.15;color:#000000;fill:url(#linearGradient4086-12-9);fill-opacity:1;fill-rule:nonzero;stroke:none;stroke-width:1.5;marker:none;visibility:visible;display:inline;overflow:visible;enable-background:accumulate" />
      </g>
    </g>
  </g>
  <path
     d="m 355.24998,20.00003 0,102.5625 c 0,9.77909 4.10646,18.58192 10.6875,24.8125 l 126.0625,126.09375 0,-116.71875 -68.375,-68.375 z"
     id="path6657"
     style="fill:#000000;fill-opacity:0.15686275;fill-rule:nonzero;stroke:none" />
  <path
     d="M 256.53125,150.34375 C 180.67457,150.53277 112.64504,217.15 111.8125,293.3125 c -2.14792,45.27382 18.27205,90.26527 53.28125,118.96875 26.43326,26.40662 52.73593,52.9495 79,79.53125 l 13.53125,-0.0312 146.4375,-0.21875 c 48.67892,-5.08446 86.60372,-45.40115 87.90625,-95.15625 8.9e-4,-0.0342 -8.7e-4,-0.0596 0,-0.0937 8.5e-4,-0.41093 -8.2e-4,-0.64635 0,-1.0625 0.0345,-17.50289 0.0321,-41.14796 0.0312,-69.25 -46.25981,-47.68028 -91.88442,-95.99531 -138.84375,-142.90625 -26.08424,-21.11246 -59.44208,-32.86634 -93,-32.71875 -1.20778,-0.0307 -2.42093,-0.0342 -3.625,-0.0312 z"
     id="path19853"
     style="fill:#000000;fill-opacity:0.15686275;fill-rule:nonzero;stroke:none" />
  <path
     d="m 355.25321,20.00002 0,102.555 c 0,18.88151 15.30349,34.185 34.185,34.185 l 102.555,0 -136.74,-136.74"
     id="path24"
     style="color:#000000;fill:#0393b5;fill-opacity:1;fill-rule:nonzero;stroke:none;marker:none;visibility:visible;display:inline;overflow:visible;enable-background:accumulate" />
  <path
     d="m 371.1875,370.15625 c -6.61593,0.33358 -14.38551,5.53388 -26.34375,17.8125 -0.005,0.005 0.005,0.0258 0,0.0312 -9.48684,10.44007 -5.30279,31.63036 18.1875,55.21875 0.0469,0.0471 0.0779,0.10913 0.125,0.15625 0.0313,0.0323 0.0625,0.0616 0.0937,0.0937 15.28888,15.27096 31.35714,31.3491 47.21875,47.21875 22.71494,-3.88415 42.70903,-15.52374 57.21875,-32.09375 -21.0103,-20.71425 -43.81995,-43.39261 -71.0625,-70.9375 -0.46366,-0.4861 -0.93348,-0.94317 -1.375,-1.375 -0.57468,-0.60819 -1.11491,-1.19246 -1.65625,-1.71875 -8.89493,-8.91099 -14.90819,-14.7843 -22.40625,-14.40625 z"
     id="path29023"
     style="fill:#000000;fill-opacity:0.11764706;fill-rule:nonzero;stroke:none" />
  <path
     d="m 260.15625,150.375 c -6.00094,0 -11.90326,0.33889 -17.71875,1.03125 -3.33949,0.39695 -6.63772,0.91548 -9.90625,1.53125 -3.2685,0.61577 -6.4987,1.33058 -9.6875,2.15625 -3.18883,0.82567 -6.33559,1.7525 -9.4375,2.78125 -3.1019,1.02875 -6.1798,2.18199 -9.1875,3.40625 -4.62749,1.88352 -9.12024,3.98863 -13.5,6.3125 -4.37973,2.32382 -8.64408,4.8584 -12.75,7.59375 -4.10592,2.73531 -8.07044,5.66199 -11.875,8.78125 -3.80455,3.11927 -7.43202,6.42913 -10.90625,9.90625 -0.64341,0.64338 -1.30602,1.28135 -1.9375,1.9375 -0.63178,0.65496 -1.25634,1.33228 -1.875,2 -0.61866,0.66802 -1.23523,1.32189 -1.84375,2 -0.60702,0.67811 -1.18735,1.37281 -1.78125,2.0625 -4.49998,5.21281 -8.65819,10.75568 -12.40625,16.5625 -3.74951,5.8068 -7.10901,11.89183 -10.03125,18.21875 -2.92223,6.32548 -5.41642,12.88598 -7.4375,19.65625 -2.01963,6.77012 -3.55061,13.73819 -4.59375,20.875 -1.03155,7.06144 -1.5625,14.27667 -1.5625,21.625 0,9.49982 0.88851,18.80819 2.59375,27.8125 0.85335,4.50145 1.90593,8.93194 3.15625,13.28125 1.24885,4.34786 2.68694,8.6058 4.3125,12.78125 5.27075,13.52892 12.46156,26.1091 21.25,37.375 1.46043,1.87194 2.98381,3.7035 4.53125,5.5 0.60852,0.70988 1.22211,1.39841 1.84375,2.09375 0.62313,0.69831 1.23874,1.37875 1.875,2.0625 1.27054,1.36757 2.58482,2.7413 3.90625,4.0625 4.11896,4.12037 8.45301,7.97754 13.03125,11.59375 4.5782,3.61332 9.38387,6.96558 14.375,10.03125 4.99113,3.06567 10.17355,5.84664 15.53125,8.3125 5.35913,2.46876 10.88318,4.64326 16.5625,6.46875 3.78282,1.21411 7.6077,2.25511 11.46875,3.15625 3.86109,0.89827 7.76849,1.66179 11.6875,2.25 3.91901,0.58822 7.85728,1.00308 11.8125,1.28125 3.95524,0.28107 7.93507,0.37959 11.90625,0.375 8.20023,-0.0753 16.23317,-0.80017 24.0625,-2.15625 7.82646,-1.35608 15.4555,-3.31413 22.8125,-5.84375 5.98936,-2.0602 11.79067,-4.49955 17.40625,-7.28125 5.61847,-2.77882 11.02914,-5.90429 16.21875,-9.34375 0.91277,0.89826 1.83723,1.78927 2.75,2.6875 6.40082,6.29941 12.78668,12.60685 19.1875,18.90625 l 25.1875,0 8.96875,0 2.96875,0 2.96875,0 2.9375,0 2.96875,0 0,-3.4375 0,-3.40625 0,-3.4375 0,-3.40625 0,-8.6875 0,-23.625 c -6.67902,-6.83545 -13.35227,-13.66452 -20.03125,-20.5 -0.82895,-0.84913 -1.67134,-1.71337 -2.5,-2.5625 1.83127,-3.04539 3.57345,-6.15928 5.1875,-9.34375 1.61405,-3.18447 3.11495,-6.43802 4.5,-9.75 2.77301,-6.62103 5.07571,-13.49524 6.875,-20.5625 1.49515,-5.86765 2.63547,-11.87735 3.40625,-18 0.3854,-3.06131 0.68081,-6.13219 0.875,-9.25 0.19703,-3.11639 0.3125,-6.27043 0.3125,-9.4375 0,-1.60817 -0.0415,-3.21578 -0.0937,-4.8125 -0.0666,-2.06599 -0.16473,-4.11211 -0.3125,-6.15625 -1.16483,-15.95424 -4.84365,-31.21874 -10.65625,-45.375 -2.90357,-7.07742 -6.3637,-13.86325 -10.28125,-20.34375 -3.92047,-6.4805 -8.32596,-12.65387 -13.15625,-18.4375 -2.71803,-3.25403 -5.5467,-6.36728 -8.53125,-9.375 -2.23122,-2.24841 -4.536,-4.42758 -6.90625,-6.53125 -1.7993,-1.59939 -3.6536,-3.17784 -5.53125,-4.6875 -10.88632,-8.75949 -23.0307,-16.00157 -36.125,-21.4375 -4.3783,-1.81823 -8.85929,-3.44418 -13.4375,-4.84375 -4.57821,-1.39809 -9.2421,-2.57509 -14,-3.53125 -9.50995,-1.91223 -19.36542,-2.90625 -29.4375,-2.90625 z M 233.9375,161.75 c -1.74943,0.26532 -3.47428,0.55984 -5.1875,0.875 0.006,-0.0118 0.025,-0.0195 0.0312,-0.0312 1.70335,-0.31302 3.41708,-0.57999 5.15625,-0.84375 z m 15.75,0.625 c -1.73979,0.10584 -3.45722,0.22353 -5.1875,0.375 1.72075,-0.15035 3.45745,-0.26958 5.1875,-0.375 z m 33.15625,0.75 c 2.11672,0.22946 4.21423,0.48123 6.3125,0.78125 -2.09715,-0.29957 -4.19697,-0.55199 -6.3125,-0.78125 z m 26,4.75 c 1.27828,0.33676 2.55031,0.69629 3.8125,1.0625 -1.26191,-0.36578 -2.53356,-0.72567 -3.8125,-1.0625 z m -132.9375,13.5 c -1.06395,0.55416 -2.11021,1.14218 -3.15625,1.71875 0.005,-0.006 -0.005,-0.0248 0,-0.0312 1.04603,-0.57665 2.09226,-1.13337 3.15625,-1.6875 z m -10.28125,6.46875 c -0.3063,0.34559 -0.62845,0.68589 -0.9375,1 -0.0196,0.0122 -0.0429,0.019 -0.0625,0.0312 -0.0319,0.0307 -0.0619,0.063 -0.0937,0.0937 -0.96049,0.60095 -1.90022,1.1832 -2.84375,1.8125 0.97505,-0.65032 1.94433,-1.28617 2.9375,-1.90625 0.32901,-0.33164 0.67397,-0.6631 1,-1.03125 z m 209.0625,28.4375 c 0.43523,0.93282 0.86591,1.87167 1.28125,2.8125 0.41531,0.94075 0.82304,1.89531 1.21875,2.84375 0.39474,0.9461 0.78073,1.89032 1.15625,2.84375 -0.37715,-0.95716 -0.75974,-1.89396 -1.15625,-2.84375 -0.39651,-0.94979 -0.80264,-1.90165 -1.21875,-2.84375 -0.41611,-0.9421 -0.84531,-1.8784 -1.28125,-2.8125 z m 11.09375,32.75 c 0.17854,0.78877 0.33191,1.58341 0.5,2.375 -0.16773,-0.79013 -0.32186,-1.58768 -0.5,-2.375 z m 11.09375,12 c 0.43972,0.17383 0.86177,0.31443 1.25,0.4375 0.002,0.01 -0.002,0.0215 0,0.0312 -0.38837,-0.12321 -0.80942,-0.29489 -1.25,-0.46875 z m -8.78125,0.0625 c 0.13337,0.84141 0.22119,1.68755 0.34375,2.53125 -0.12217,-0.84165 -0.21083,-1.69188 -0.34375,-2.53125 z m 2.03125,18 c 0.005,0.0734 0.0262,0.14538 0.0312,0.21875 0.13913,1.99934 0.2284,3.99624 0.3125,6 -0.0887,-2.08103 -0.19791,-4.14347 -0.34375,-6.21875 z m -146.9375,5.21875 c 6.80469,0.35766 13.59452,0.67858 20.375,0.9375 -6.77201,-0.25925 -13.57854,-0.58027 -20.375,-0.9375 z m 68.125,1.28125 c -0.51008,0.0174 -1.01819,0.0465 -1.53125,0.0625 -1.31243,0.0402 -2.6476,0.0643 -3.96875,0.0937 1.84184,-0.0409 3.67531,-0.0942 5.5,-0.15625 z m -30.78125,0.125 c 2.53293,0.0494 5.07938,0.10264 7.59375,0.125 -2.51507,-0.0224 -5.06014,-0.0756 -7.59375,-0.125 z m 19.28125,0.125 c -1.9337,0.0205 -3.86376,0.0305 -5.8125,0.0312 1.9475,-7.4e-4 3.88002,-0.0108 5.8125,-0.0312 z M 371,288.90625 c -0.0314,0.89904 -0.0491,1.79349 -0.0937,2.6875 0.0444,-0.8889 0.0625,-1.79362 0.0937,-2.6875 z m 31.5,4.90625 c 0.007,0.75542 0.008,1.4951 0,2.25 -0.008,0.74085 -0.041,1.47831 -0.0625,2.21875 0.0434,-1.48793 0.0756,-2.97909 0.0625,-4.46875 z m -31.96875,3.21875 c -0.17699,2.16579 -0.39705,4.31077 -0.65625,6.4375 0.25893,-2.12625 0.4794,-4.27216 0.65625,-6.4375 z m 31.5625,7.40625 c -0.0269,0.33282 -0.0328,0.66737 -0.0625,1 -0.0204,0.22944 -0.072,0.45815 -0.0937,0.6875 0.0532,-0.56719 0.11087,-1.11981 0.15625,-1.6875 z m -185.15625,8.96875 c 0.0844,3.86846 0.16398,7.72877 0.28125,11.5 -0.11798,-3.79152 -0.1961,-7.61017 -0.28125,-11.5 z m 150.34375,5 c -0.22939,0.99703 -0.46802,1.98578 -0.71875,2.96875 -0.27486,1.07759 -0.54305,2.15893 -0.84375,3.21875 0.30249,-1.06605 0.56742,-2.13474 0.84375,-3.21875 0.25045,-0.9825 0.4896,-1.97222 0.71875,-2.96875 z M 361.8125,336 c -0.20226,0.461 -0.44372,0.92428 -0.6875,1.40625 0.24624,-0.48528 0.48354,-0.94227 0.6875,-1.40625 z m 22.03125,2.4375 c -0.66034,1.8167 -1.40601,3.79688 -2.15625,5.8125 0.75483,-2.0286 1.49179,-3.98413 2.15625,-5.8125 z m 3.21875,16.03125 c -0.38485,0.85656 -0.75536,1.71307 -1.125,2.5625 0.16319,-0.37477 0.3021,-0.74831 0.46875,-1.125 0.21184,-0.47899 0.44016,-0.95693 0.65625,-1.4375 z M 183,358.40625 c 0.25752,1.73928 0.53485,3.45095 0.84375,5.125 -0.3089,-1.67405 -0.58625,-3.38572 -0.84375,-5.125 z m 161.46875,1.1875 c -0.005,0.006 0.005,0.0252 0,0.0312 -0.74466,0.25631 -1.50585,0.50916 -2.28125,0.8125 0.77883,-0.30468 1.53343,-0.58653 2.28125,-0.84375 z m -1.78125,2.03125 c -1.93633,2.20007 -3.74409,4.25396 -5.34375,6.09375 1.60322,-1.8441 3.40112,-3.8865 5.34375,-6.09375 z m 39.40625,5.40625 c -0.28601,0.919 -0.55634,1.83371 -0.75,2.65625 0.099,-0.42096 0.18826,-0.86482 0.3125,-1.3125 0.11883,-0.42855 0.29749,-0.89329 0.4375,-1.34375 z m -48.84375,5.625 c -0.23404,0.30614 -0.40325,0.54344 -0.59375,0.8125 0.18563,-0.26195 0.36688,-0.51543 0.59375,-0.8125 z m 47.59375,0.1875 c -0.0163,0.30798 -0.0124,0.59875 0,0.875 -0.0135,-0.27877 -0.0159,-0.5637 0,-0.875 z m -6.5,1.09375 c 0.10285,0.21213 0.23573,0.39915 0.375,0.5625 -0.14153,-0.16603 -0.27109,-0.34608 -0.375,-0.5625 z m -15.65625,9.625 c 1.12718,0.0869 2.26752,0.17114 3.40625,0.28125 2.27462,0.2203 4.56562,0.50018 6.875,0.78125 -3.4641,-0.42152 -6.89947,-0.8006 -10.28125,-1.0625 z M 318.5,383.71875 c -1.49155,1.00434 -3.03894,2.0254 -4.625,3.03125 1.59013,-1.00874 3.12993,-2.02418 4.625,-3.03125 z m -115.09375,0.5 c 0.45614,0.97703 0.98427,1.95672 1.5625,2.90625 -0.57807,-0.94958 -1.10663,-1.92897 -1.5625,-2.90625 z m 187.1875,3.03125 c 0.52771,0.75828 1.02451,1.50777 1.5,2.25 -0.4776,-0.74499 -0.96974,-1.48873 -1.5,-2.25 z M 206.875,389.9375 c 0.68355,0.9255 1.4141,1.84547 2.1875,2.75 -0.77343,-0.90449 -1.50358,-1.82469 -2.1875,-2.75 z m 139.3125,3.84375 c 1.2497,2.49701 2.62356,4.98305 3.9375,7.59375 -0.4383,-0.87038 -0.89899,-1.7462 -1.34375,-2.59375 -0.88652,-1.69499 -1.75913,-3.33387 -2.59375,-5 z m -46.375,0.375 c -0.7445,0.29667 -1.49475,0.58029 -2.25,0.84375 0.75195,-0.2624 1.50876,-0.54842 2.25,-0.84375 z m -53.84375,0.75 c 1.22435,0.23806 2.46634,0.44138 3.6875,0.65625 -1.22652,-0.21576 -2.45777,-0.41704 -3.6875,-0.65625 z m 34.90625,3 c -1.22407,0.0648 -2.44606,0.10411 -3.6875,0.125 -1.31451,0.0221 -2.63672,0.0247 -3.96875,0 1.32954,0.0246 2.65668,0.022 3.96875,0 1.23677,-0.0208 2.46798,-0.0606 3.6875,-0.125 z m 116.53125,2.375 c 0.20757,0.59882 0.40956,1.20238 0.59375,1.8125 -0.18369,-0.60788 -0.38685,-1.21589 -0.59375,-1.8125 z m 0.65625,2 c 0.19917,0.66964 0.38943,1.34392 0.5625,2.03125 -0.17276,-0.68495 -0.36381,-1.36391 -0.5625,-2.03125 z m -151.03125,0.78125 c 3.57565,0.58385 7.15153,1.05539 10.75,1.4375 -3.59846,-0.38211 -7.17435,-0.85365 -10.75,-1.4375 z m 96.4375,4.90625 c 0.20158,0.10565 0.393,0.21185 0.5625,0.34375 -0.17241,-0.1342 -0.35686,-0.23674 -0.5625,-0.34375 z M 280.5,412.875 c 1.44047,0.81678 2.8546,1.67169 4.1875,2.625 -1.33292,-0.95334 -2.74703,-1.80824 -4.1875,-2.625 z m 112.59375,2.65625 c 0.1981,2.16053 0.3733,4.39569 0.53125,6.75 -0.009,0.003 -0.0222,-0.003 -0.0312,0 -0.15795,-2.35431 -0.3019,-4.58947 -0.5,-6.75 z m -55.71875,1 c 0.15181,-0.0126 0.28913,0.008 0.4375,0 -0.24915,0.0133 -0.52258,0.0356 -0.78125,0.0625 0.11526,-0.0121 0.23034,-0.0531 0.34375,-0.0625 z m 1.625,0 c 0.2197,0.0104 0.44663,0.007 0.65625,0.0312 -0.21066,-0.0246 -0.43539,-0.0207 -0.65625,-0.0312 z m -11.625,2.84375 c -0.69076,0.28038 -1.36444,0.57126 -2.0625,0.875 0.69,-0.29961 1.37966,-0.59804 2.0625,-0.875 z M 296,421.34375 c -0.65791,0.22598 -1.26429,0.4135 -1.84375,0.59375 0.5697,-0.17808 1.19931,-0.37208 1.84375,-0.59375 z m 26.25,0.28125 c -1.20836,0.56373 -2.38607,1.11172 -3.5625,1.6875 1.16697,-0.57116 2.36416,-1.12822 3.5625,-1.6875 z m 68.96875,2.25 c -0.11355,0.79947 -0.3798,1.63523 -0.6875,2.46875 0.15358,-0.4169 0.28902,-0.84288 0.40625,-1.25 0.11743,-0.40712 0.22402,-0.81888 0.28125,-1.21875 z m -80.15625,3.1875 c -1.49574,0.71519 -2.86127,1.34069 -4,1.78125 1.14127,-0.44245 2.50128,-1.0641 4,-1.78125 z M 366.4375,431 c 0.55245,0.13116 1.12022,0.26158 1.6875,0.375 -0.56877,-0.11362 -1.13364,-0.24358 -1.6875,-0.375 z m -74.03125,1.34375 c -1.40339,0.25169 -2.80894,0.47439 -4.21875,0.6875 -1.20132,0.18159 -2.38853,0.34581 -3.59375,0.5 1.20491,-0.15408 2.39284,-0.31863 3.59375,-0.5 1.41032,-0.21299 2.81496,-0.43604 4.21875,-0.6875 z m 87.1875,0.3125 c 1.3967,0.071 2.84027,0.11224 4.375,0.15625 -1.49601,-0.0438 -3.01058,-0.0866 -4.375,-0.15625 z m -96.5625,1.0625 c -0.56124,0.0663 -1.1256,0.15823 -1.6875,0.21875 -0.69643,0.075 -1.39633,0.12127 -2.09375,0.1875 1.25571,-0.11937 2.52879,-0.25835 3.78125,-0.40625 z m -12.75,1.03125 c -1.42774,0.061 -2.8527,0.0978 -4.28125,0.125 1.42752,-0.0273 2.85457,-0.0639 4.28125,-0.125 z"
     id="path26"
     style="fill:#0393b5;fill-opacity:1;fill-rule:nonzero;stroke:none" />
  <path
     d="m 351.33715,298.8219 c 0,50.35178 -40.8215,91.17328 -91.17324,91.17328 -50.35178,0 -91.17327,-40.8215 -91.17327,-91.17328 0,-50.35175 40.82149,-91.17324 91.17327,-91.17324 50.35174,0 91.17324,40.82149 91.17324,91.17324 z"
     id="path1130"
     style="fill:#ffffff;fill-opacity:1;fill-rule:nonzero;stroke:none" />
  <path
     d="m 258.78125,276.4375 c -13.32792,0.29835 -23.917,14.56186 -20.48452,27.41622 1.75455,8.40121 9.06109,13.58917 14.56078,19.51997 17.85463,18.05823 36.25888,35.56657 53.95494,53.78256 12.97963,-7.73055 23.99481,-18.7336 31.71875,-31.71875 -21.89957,-19.88089 -41.7736,-41.82926 -62.72235,-62.67277 -4.47853,-4.43151 -10.74225,-6.73376 -17.0276,-6.32723 z"
     id="path30269"
     style="fill:#000000;fill-opacity:0.23529412;fill-rule:nonzero;stroke:none" />
  <path
     d="m 316.25292,226.97281 -53.70431,53.7043 15.85572,15.8586 53.69559,-53.69559 c -4.61299,-5.91693 -9.9359,-11.2485 -15.847,-15.86731 z"
     id="path1144"
     style="fill:#0393b5;fill-opacity:1;fill-rule:nonzero;stroke:none" />
  <path
     d="m 332.09992,242.84012 26.13064,-26.13063 -15.85863,-15.85859 -26.11901,26.12191 c 5.9111,4.61881 11.23401,9.95038 15.847,15.86731 z"
     id="path1156"
     style="fill:#ffffff;fill-opacity:1;fill-rule:nonzero;stroke:none" />
  <path
     d="m 258.78125,276.4375 c -1.36622,0.0782 -2.75361,0.29466 -4.09375,0.625 -0.67079,0.16516 -1.31244,0.36483 -1.96875,0.59375 -0.65631,0.23034 -1.33128,0.48569 -1.96875,0.78125 -0.30279,0.13907 -0.57945,0.28534 -0.875,0.4375 -0.29557,0.15211 -0.58814,0.30359 -0.875,0.46875 -0.57373,0.33032 -1.14709,0.68436 -1.6875,1.0625 -0.54041,0.37815 -1.05831,0.7957 -1.5625,1.21875 -0.50419,0.42303 -0.97244,0.84743 -1.4375,1.3125 -0.42449,0.42451 -0.82902,0.88738 -1.21875,1.34375 -0.38975,0.45637 -0.77294,0.918 -1.125,1.40625 -0.35351,0.48679 -0.68706,0.98278 -1,1.5 -0.31294,0.51578 -0.60263,1.0519 -0.875,1.59375 -0.27238,0.54185 -0.52543,1.09991 -0.75,1.65625 -0.22311,0.55779 -0.41845,1.11957 -0.59375,1.6875 -0.35206,1.13876 -0.61753,2.29956 -0.78125,3.46875 -0.16371,1.16916 -0.22382,2.35482 -0.21875,3.53125 0.0101,0.58821 0.0387,1.16613 0.0937,1.75 0.055,0.58531 0.15003,1.17048 0.25,1.75 0.51867,3.00482 1.63479,5.91243 3.3125,8.5 0.83162,1.28074 1.80516,2.46141 2.90625,3.5625 1.86026,1.86027 4.018,3.41567 6.4375,4.53125 1.2764,0.58966 2.59736,1.04468 3.9375,1.375 1.34014,0.33033 2.72752,0.51555 4.09375,0.59375 1.36622,0.0385 2.70932,0.0402 4.0625,-0.125 1.35318,-0.16662 2.69608,-0.43953 4,-0.84375 1.88635,-0.58531 3.72274,-1.43368 5.40625,-2.5 0.339,-0.21442 0.66967,-0.423 1,-0.65625 0.33031,-0.23326 0.65291,-0.49646 0.96875,-0.75 0.31874,-0.25354 0.60198,-0.51033 0.90625,-0.78125 0.30135,-0.27093 0.6165,-0.554 0.90625,-0.84375 0.55055,-0.55054 1.08149,-1.1204 1.5625,-1.71875 0.24339,-0.29992 0.46148,-0.59621 0.6875,-0.90625 0.22314,-0.31006 0.44764,-0.61732 0.65625,-0.9375 1.67772,-2.58757 2.79383,-5.49518 3.3125,-8.5 0.19992,-1.15615 0.29224,-2.32503 0.3125,-3.5 0.005,-1.17643 -0.0536,-2.36207 -0.21875,-3.53125 -0.16518,-1.16918 -0.39648,-2.32999 -0.75,-3.46875 -0.35348,-1.13876 -0.8019,-2.26004 -1.34375,-3.34375 -0.26949,-0.54185 -0.56206,-1.07797 -0.875,-1.59375 -0.31292,-0.51722 -0.6465,-1.01321 -1,-1.5 -0.35348,-0.48825 -0.73382,-0.94988 -1.125,-1.40625 -0.39119,-0.45637 -0.7928,-0.91925 -1.21875,-1.34375 -0.57953,-0.57953 -1.17792,-1.11937 -1.8125,-1.625 -0.63168,-0.50563 -1.2907,-0.9774 -1.96875,-1.40625 -0.84031,-0.53317 -1.72675,-0.99187 -2.625,-1.40625 -0.90115,-0.41436 -1.83663,-0.76983 -2.78125,-1.0625 -0.65196,-0.20283 -1.29941,-0.38783 -1.96875,-0.53125 -0.66645,-0.14198 -1.3561,-0.25975 -2.03125,-0.34375 -1.35318,-0.16516 -2.69628,-0.16185 -4.0625,-0.125 z M 255.5,284.90625 c -0.0493,0.63892 -0.11276,1.32134 -0.15625,2.03125 0.0217,-0.35498 0.0394,-0.72348 0.0625,-1.0625 0.0232,-0.33902 0.0692,-0.65002 0.0937,-0.96875 z m 11.21875,8.625 c 0.44334,-0.003 0.86398,-0.003 1.28125,0 0.41726,0.003 0.82757,0.0222 1.21875,0.0312 -0.77945,-0.0184 -1.61623,-0.0372 -2.5,-0.0312 z M 240,302.9375 c 0.74179,0.0464 1.56159,0.0371 2.40625,0.0312 -0.84538,0.006 -1.66446,0.0156 -2.40625,-0.0312 z"
     id="path1170"
     style="fill:#0e88d3;fill-opacity:1;fill-rule:nonzero;stroke:none" />
  <path
     d="m 270.38665,298.8219 c 0,5.64454 -4.57822,10.22276 -10.22274,10.22276 -5.64455,0 -10.22277,-4.57822 -10.22277,-10.22276 0,-5.64451 4.57822,-10.22273 10.22277,-10.22273 5.64452,0 10.22274,4.57822 10.22274,10.22273 z"
     id="path1726"
     style="fill:#ffffff;fill-opacity:1;fill-rule:nonzero;stroke:none" />
</svg>
