<?xml version="1.0" encoding="UTF-8" standalone="no"?>
<!-- Created with Inkscape (http://www.inkscape.org/) -->

<svg
   xmlns:dc="http://purl.org/dc/elements/1.1/"
   xmlns:cc="http://creativecommons.org/ns#"
   xmlns:rdf="http://www.w3.org/1999/02/22-rdf-syntax-ns#"
   xmlns:svg="http://www.w3.org/2000/svg"
   xmlns="http://www.w3.org/2000/svg"
   xmlns:xlink="http://www.w3.org/1999/xlink"
   version="1.1"
   width="381.40988"
   height="331.08856"
   id="svg2">
  <defs
     id="defs4">
    <linearGradient
       id="linearGradient3897">
      <stop
         id="stop3899"
         style="stop-color:#c3c3c3;stop-opacity:1"
         offset="0" />
      <stop
         id="stop3901"
         style="stop-color:#c9cfce;stop-opacity:0.58823532"
         offset="1" />
    </linearGradient>
    <linearGradient
       x1="19.244999"
       y1="21.030804"
       x2="19.360001"
       y2="44.984001"
       id="linearGradient2460"
       gradientUnits="userSpaceOnUse">
      <stop
         id="stop3602"
         style="stop-color:#fafafa;stop-opacity:1"
         offset="0" />
      <stop
         id="stop3604"
         style="stop-color:#f0f0f0;stop-opacity:1"
         offset="1" />
    </linearGradient>
    <linearGradient
       x1="45.447727"
       y1="92.539597"
       x2="45.447727"
       y2="7.0165396"
       id="ButtonShadow-0-1-1-5-9"
       gradientUnits="userSpaceOnUse"
       gradientTransform="matrix(1.0058652,0,0,0.994169,100,0)">
      <stop
         id="stop3750-8-9-3-6-4"
         style="stop-color:#000000;stop-opacity:1"
         offset="0" />
      <stop
         id="stop3752-5-6-4-2-9"
         style="stop-color:#000000;stop-opacity:0.58823532"
         offset="1" />
    </linearGradient>
    <linearGradient
       id="linearGradient3737-9">
      <stop
         id="stop3739-7"
         style="stop-color:#ffffff;stop-opacity:1"
         offset="0" />
      <stop
         id="stop3741-4"
         style="stop-color:#ffffff;stop-opacity:0"
         offset="1" />
    </linearGradient>
    <linearGradient
       id="linearGradient4046-3">
      <stop
         id="stop4048-7"
         style="stop-color:#000000;stop-opacity:1"
         offset="0" />
      <stop
         id="stop4050-73"
         style="stop-color:#ffffff;stop-opacity:0.2"
         offset="1" />
    </linearGradient>
    <linearGradient
       x1="174.0737"
       y1="215.5488"
       x2="132.27631"
       y2="141.7533"
       id="XMLID_17_-9"
       gradientUnits="userSpaceOnUse">
      <stop
         id="stop3272-4"
         style="stop-color:#fb7655;stop-opacity:1"
         offset="0" />
      <stop
         id="stop3274-5"
         style="stop-color:#fb7655;stop-opacity:1"
         offset="0" />
      <stop
         id="stop3276-1"
         style="stop-color:#e42b1e;stop-opacity:1"
         offset="0.41" />
      <stop
         id="stop3278-0"
         style="stop-color:#990000;stop-opacity:1"
         offset="0.99000001" />
      <stop
         id="stop3280-3"
         style="stop-color:#990000;stop-opacity:1"
         offset="1" />
    </linearGradient>
    <linearGradient
       x1="194.895"
       y1="153.5576"
       x2="141.0276"
       y2="117.4093"
       id="XMLID_18_-7"
       gradientUnits="userSpaceOnUse">
      <stop
         id="stop3285-8"
         style="stop-color:#871101;stop-opacity:1"
         offset="0" />
      <stop
         id="stop3287-8"
         style="stop-color:#871101;stop-opacity:1"
         offset="0" />
      <stop
         id="stop3289-6"
         style="stop-color:#911209;stop-opacity:1"
         offset="0.99000001" />
      <stop
         id="stop3291-0"
         style="stop-color:#911209;stop-opacity:1"
         offset="1" />
    </linearGradient>
    <linearGradient
       x1="151.79539"
       y1="217.7852"
       x2="97.929703"
       y2="181.638"
       id="XMLID_19_-4"
       gradientUnits="userSpaceOnUse">
      <stop
         id="stop3296-6"
         style="stop-color:#871101;stop-opacity:1"
         offset="0" />
      <stop
         id="stop3298-7"
         style="stop-color:#871101;stop-opacity:1"
         offset="0" />
      <stop
         id="stop3300-6"
         style="stop-color:#911209;stop-opacity:1"
         offset="0.99000001" />
      <stop
         id="stop3302-0"
         style="stop-color:#911209;stop-opacity:1"
         offset="1" />
    </linearGradient>
    <linearGradient
       x1="38.696301"
       y1="127.3906"
       x2="47.046902"
       y2="181.66141"
       id="XMLID_20_-9"
       gradientUnits="userSpaceOnUse">
      <stop
         id="stop3307-7"
         style="stop-color:#ffffff;stop-opacity:1"
         offset="0" />
      <stop
         id="stop3309-5"
         style="stop-color:#ffffff;stop-opacity:1"
         offset="0" />
      <stop
         id="stop3311-9"
         style="stop-color:#e57252;stop-opacity:1"
         offset="0.23" />
      <stop
         id="stop3313-7"
         style="stop-color:#de3b20;stop-opacity:1"
         offset="0.46000001" />
      <stop
         id="stop3315-8"
         style="stop-color:#a60003;stop-opacity:1"
         offset="0.99000001" />
      <stop
         id="stop3317-5"
         style="stop-color:#a60003;stop-opacity:1"
         offset="1" />
    </linearGradient>
    <linearGradient
       x1="96.132797"
       y1="76.715302"
       x2="99.209602"
       y2="132.1021"
       id="XMLID_21_-3"
       gradientUnits="userSpaceOnUse">
      <stop
         id="stop3322-3"
         style="stop-color:#ffffff;stop-opacity:1"
         offset="0" />
      <stop
         id="stop3324-8"
         style="stop-color:#ffffff;stop-opacity:1"
         offset="0" />
      <stop
         id="stop3326-3"
         style="stop-color:#e4714e;stop-opacity:1"
         offset="0.23" />
      <stop
         id="stop3328-7"
         style="stop-color:#be1a0d;stop-opacity:1"
         offset="0.56" />
      <stop
         id="stop3330-9"
         style="stop-color:#a80d00;stop-opacity:1"
         offset="0.99000001" />
      <stop
         id="stop3332-3"
         style="stop-color:#a80d00;stop-opacity:1"
         offset="1" />
    </linearGradient>
    <linearGradient
       x1="147.103"
       y1="25.521"
       x2="156.3141"
       y2="65.216202"
       id="XMLID_22_-7"
       gradientUnits="userSpaceOnUse">
      <stop
         id="stop3337-8"
         style="stop-color:#ffffff;stop-opacity:1"
         offset="0" />
      <stop
         id="stop3339-7"
         style="stop-color:#ffffff;stop-opacity:1"
         offset="0" />
      <stop
         id="stop3341-4"
         style="stop-color:#e46342;stop-opacity:1"
         offset="0.18000001" />
      <stop
         id="stop3343-1"
         style="stop-color:#c82410;stop-opacity:1"
         offset="0.40000001" />
      <stop
         id="stop3345-9"
         style="stop-color:#a80d00;stop-opacity:1"
         offset="0.99000001" />
      <stop
         id="stop3347-0"
         style="stop-color:#a80d00;stop-opacity:1"
         offset="1" />
    </linearGradient>
    <linearGradient
       x1="118.9761"
       y1="11.5415"
       x2="158.66859"
       y2="-8.3048"
       id="XMLID_23_-9"
       gradientUnits="userSpaceOnUse">
      <stop
         id="stop3352-8"
         style="stop-color:#ffffff;stop-opacity:1"
         offset="0" />
      <stop
         id="stop3354-8"
         style="stop-color:#ffffff;stop-opacity:1"
         offset="0" />
      <stop
         id="stop3356-5"
         style="stop-color:#c81f11;stop-opacity:1"
         offset="0.54000002" />
      <stop
         id="stop3358-8"
         style="stop-color:#bf0905;stop-opacity:1"
         offset="0.99000001" />
      <stop
         id="stop3360-4"
         style="stop-color:#bf0905;stop-opacity:1"
         offset="1" />
    </linearGradient>
    <linearGradient
       x1="3.9033"
       y1="113.5547"
       x2="7.1701999"
       y2="146.2628"
       id="XMLID_24_-3"
       gradientUnits="userSpaceOnUse">
      <stop
         id="stop3365-7"
         style="stop-color:#ffffff;stop-opacity:1"
         offset="0" />
      <stop
         id="stop3367-1"
         style="stop-color:#ffffff;stop-opacity:1"
         offset="0" />
      <stop
         id="stop3369-3"
         style="stop-color:#de4024;stop-opacity:1"
         offset="0.31" />
      <stop
         id="stop3371-8"
         style="stop-color:#bf190b;stop-opacity:1"
         offset="0.99000001" />
      <stop
         id="stop3373-0"
         style="stop-color:#bf190b;stop-opacity:1"
         offset="1" />
    </linearGradient>
    <linearGradient
       x1="-18.5557"
       y1="155.10451"
       x2="135.0152"
       y2="-2.8092999"
       id="XMLID_25_-9"
       gradientUnits="userSpaceOnUse">
      <stop
         id="stop3380-7"
         style="stop-color:#bd0012;stop-opacity:1"
         offset="0" />
      <stop
         id="stop3382-9"
         style="stop-color:#bd0012;stop-opacity:1"
         offset="0" />
      <stop
         id="stop3384-9"
         style="stop-color:#ffffff;stop-opacity:1"
         offset="0.07" />
      <stop
         id="stop3386-3"
         style="stop-color:#ffffff;stop-opacity:1"
         offset="0.17" />
      <stop
         id="stop3388-2"
         style="stop-color:#c82f1c;stop-opacity:1"
         offset="0.27000001" />
      <stop
         id="stop3390-4"
         style="stop-color:#820c01;stop-opacity:1"
         offset="0.33000001" />
      <stop
         id="stop3392-3"
         style="stop-color:#a31601;stop-opacity:1"
         offset="0.46000001" />
      <stop
         id="stop3394-7"
         style="stop-color:#b31301;stop-opacity:1"
         offset="0.72000003" />
      <stop
         id="stop3396-1"
         style="stop-color:#e82609;stop-opacity:1"
         offset="0.99000001" />
      <stop
         id="stop3398-2"
         style="stop-color:#e82609;stop-opacity:1"
         offset="1" />
    </linearGradient>
    <linearGradient
       x1="99.074699"
       y1="171.0332"
       x2="52.817699"
       y2="159.61659"
       id="XMLID_26_-2"
       gradientUnits="userSpaceOnUse">
      <stop
         id="stop3403-0"
         style="stop-color:#8c0c01;stop-opacity:1"
         offset="0" />
      <stop
         id="stop3405-2"
         style="stop-color:#8c0c01;stop-opacity:1"
         offset="0" />
      <stop
         id="stop3407-1"
         style="stop-color:#990c00;stop-opacity:1"
         offset="0.54000002" />
      <stop
         id="stop3409-7"
         style="stop-color:#a80d0e;stop-opacity:1"
         offset="0.99000001" />
      <stop
         id="stop3411-5"
         style="stop-color:#a80d0e;stop-opacity:1"
         offset="1" />
    </linearGradient>
    <linearGradient
       x1="178.52589"
       y1="115.5146"
       x2="137.43269"
       y2="78.683998"
       id="XMLID_27_-1"
       gradientUnits="userSpaceOnUse">
      <stop
         id="stop3416-7"
         style="stop-color:#7e110b;stop-opacity:1"
         offset="0" />
      <stop
         id="stop3418-4"
         style="stop-color:#7e110b;stop-opacity:1"
         offset="0" />
      <stop
         id="stop3420-1"
         style="stop-color:#9e0c00;stop-opacity:1"
         offset="0.99000001" />
      <stop
         id="stop3422-7"
         style="stop-color:#9e0c00;stop-opacity:1"
         offset="1" />
    </linearGradient>
    <linearGradient
       x1="193.6235"
       y1="47.937"
       x2="173.15421"
       y2="26.053801"
       id="XMLID_28_-1"
       gradientUnits="userSpaceOnUse">
      <stop
         id="stop3427-1"
         style="stop-color:#79130d;stop-opacity:1"
         offset="0" />
      <stop
         id="stop3429-1"
         style="stop-color:#79130d;stop-opacity:1"
         offset="0" />
      <stop
         id="stop3431-7"
         style="stop-color:#9e120b;stop-opacity:1"
         offset="0.99000001" />
      <stop
         id="stop3433-0"
         style="stop-color:#9e120b;stop-opacity:1"
         offset="1" />
    </linearGradient>
    <radialGradient
       cx="143.8315"
       cy="79.388199"
       r="50.357601"
       id="XMLID_29_-4"
       gradientUnits="userSpaceOnUse">
      <stop
         id="stop3440-0"
         style="stop-color:#a80d00;stop-opacity:1"
         offset="0" />
      <stop
         id="stop3442-8"
         style="stop-color:#a80d00;stop-opacity:1"
         offset="0" />
      <stop
         id="stop3444-5"
         style="stop-color:#7e0e08;stop-opacity:1"
         offset="0.99000001" />
      <stop
         id="stop3446-1"
         style="stop-color:#7e0e08;stop-opacity:1"
         offset="1" />
    </radialGradient>
    <radialGradient
       cx="74.0923"
       cy="145.75101"
       r="66.943703"
       id="XMLID_30_-6"
       gradientUnits="userSpaceOnUse">
      <stop
         id="stop3451-6"
         style="stop-color:#a30c00;stop-opacity:1"
         offset="0" />
      <stop
         id="stop3453-2"
         style="stop-color:#a30c00;stop-opacity:1"
         offset="0" />
      <stop
         id="stop3455-1"
         style="stop-color:#800e08;stop-opacity:1"
         offset="0.99000001" />
      <stop
         id="stop3457-9"
         style="stop-color:#800e08;stop-opacity:1"
         offset="1" />
    </radialGradient>
    <linearGradient
       x1="26.669901"
       y1="197.33591"
       x2="9.9886999"
       y2="140.742"
       id="XMLID_31_-6"
       gradientUnits="userSpaceOnUse">
      <stop
         id="stop3462-4"
         style="stop-color:#8b2114;stop-opacity:1"
         offset="0" />
      <stop
         id="stop3464-8"
         style="stop-color:#8b2114;stop-opacity:1"
         offset="0" />
      <stop
         id="stop3466-0"
         style="stop-color:#9e100a;stop-opacity:1"
         offset="0.43000001" />
      <stop
         id="stop3468-8"
         style="stop-color:#b3100c;stop-opacity:1"
         offset="0.99000001" />
      <stop
         id="stop3470-1"
         style="stop-color:#b3100c;stop-opacity:1"
         offset="1" />
    </linearGradient>
    <linearGradient
       x1="154.6411"
       y1="9.7979002"
       x2="192.039"
       y2="26.305901"
       id="XMLID_32_-0"
       gradientUnits="userSpaceOnUse">
      <stop
         id="stop3475-2"
         style="stop-color:#b31000;stop-opacity:1"
         offset="0" />
      <stop
         id="stop3477-2"
         style="stop-color:#b31000;stop-opacity:1"
         offset="0" />
      <stop
         id="stop3479-9"
         style="stop-color:#910f08;stop-opacity:1"
         offset="0.44" />
      <stop
         id="stop3481-7"
         style="stop-color:#791c12;stop-opacity:1"
         offset="0.99000001" />
      <stop
         id="stop3483-5"
         style="stop-color:#791c12;stop-opacity:1"
         offset="1" />
    </linearGradient>
    <linearGradient
       x1="65.125"
       y1="192.90625"
       x2="379.40625"
       y2="192.90625"
       id="linearGradient3903"
       xlink:href="#linearGradient3897"
       gradientUnits="userSpaceOnUse" />
  </defs>
  <metadata
     id="metadata7">
    <rdf:RDF>
      <cc:Work
         rdf:about="">
        <dc:format>image/svg+xml</dc:format>
        <dc:type
           rdf:resource="http://purl.org/dc/dcmitype/StillImage" />
        <dc:title></dc:title>
        <dc:contributor>
          <cc:Agent>
            <dc:title>Brahim Djoudi</dc:title>
          </cc:Agent>
        </dc:contributor>
      </cc:Work>
    </rdf:RDF>
  </metadata>
  <g
     transform="translate(-70.295743,-644.02027)"
     id="layer1" />
  <g
     transform="matrix(1.1,0,0,0.44444,24.78532,152.73445)"
     id="g2036">
    <g
       transform="matrix(1.0526,0,0,1.2857,-1.2632,-13.429)"
       id="g3712"
       style="opacity:0.4" />
  </g>
  <g
     transform="translate(27.18532,127.62345)"
     id="g3541" />
  <g
     transform="translate(27.18532,127.62345)"
     id="g3536" />
  <g
     transform="translate(-675.81506,-457.62642)"
     id="g4076">
    <g
       transform="translate(-926.66758,684.38448)"
       id="g4038" />
  </g>
  <path
     d="m 91.3125,56.71875 c -7.202221,0 -13.371144,2.558648 -18.5,7.6875 -5.128847,5.128853 -7.6875,11.29778 -7.6875,18.5 l 0,220 c 0,7.20222 2.558653,13.37115 7.6875,18.5 5.128856,5.12885 11.297779,7.6875 18.5,7.6875 l 261.90625,0 c 7.20221,0 13.37115,-2.55865 18.5,-7.6875 5.12886,-5.12885 7.6875,-11.29778 7.6875,-18.5 l 0,-220 c 0,-7.20222 -2.55864,-13.371147 -7.6875,-18.5 -5.12885,-5.128852 -11.29779,-7.6875 -18.5,-7.6875 l -261.90625,0 z"
     id="path3126"
     style="fill:url(#linearGradient3903);fill-opacity:1" />
  <path
     d="m 127.987,297.66069 v -20.9519 q 0,-4.25585 -3.11004,-7.3659 -3.11005,-3.11004 -7.36591,-3.11004 h -20.9519 q -4.255857,0 -7.365909,3.11004 -3.110044,3.11005 -3.110044,7.3659 v 20.9519 q 0,4.25586 3.110044,7.36591 3.110052,3.11004 7.365909,3.11004 h 20.9519 q 4.25586,0 7.36591,-3.11004 3.11004,-3.11005 3.11004,-7.36591 z m 0,-62.85571 v -20.9519 q 0,-4.25586 -3.11004,-7.3659 -3.11005,-3.11005 -7.36591,-3.11005 h -20.9519 q -4.255857,0 -7.365909,3.11005 -3.110044,3.11004 -3.110044,7.3659 v 20.9519 q 0,4.25587 3.110044,7.36592 3.110052,3.11004 7.365909,3.11004 h 20.9519 q 4.25586,0 7.36591,-3.11004 3.11004,-3.11005 3.11004,-7.36592 z m 0,-62.8557 v -20.95191 q 0,-4.25586 -3.11004,-7.36591 -3.11005,-3.11004 -7.36591,-3.11004 h -20.9519 q -4.255857,0 -7.365909,3.11004 -3.110044,3.11005 -3.110044,7.36591 v 20.95191 q 0,4.25584 3.110044,7.36589 3.110052,3.11007 7.365909,3.11007 h 20.9519 q 4.25586,0 7.36591,-3.11007 3.11004,-3.11005 3.11004,-7.36589 z m 167.61525,125.71141 v -83.80761 q 0,-4.25586 -3.11004,-7.3659 -3.11006,-3.11005 -7.36591,-3.11005 H 159.41486 q -4.25584,0 -7.3659,3.11005 -3.11003,3.11004 -3.11003,7.3659 v 83.80761 q 0,4.25586 3.11003,7.36591 3.11006,3.11004 7.3659,3.11004 H 285.1263 q 4.25585,0 7.36591,-3.11004 3.11004,-3.11005 3.11004,-7.36591 z M 127.987,109.09354 V 88.141648 q 0,-4.255857 -3.11004,-7.365909 -3.11005,-3.110044 -7.36591,-3.110044 h -20.9519 q -4.255857,0 -7.365909,3.110044 -3.110044,3.110052 -3.110044,7.365909 v 20.951892 q 0,4.25587 3.110044,7.36592 3.110052,3.11004 7.365909,3.11004 h 20.9519 q 4.25586,0 7.36591,-3.11004 3.11004,-3.11005 3.11004,-7.36592 z m 230.47097,188.56715 v -20.9519 q 0,-4.25585 -3.11006,-7.3659 -3.11004,-3.11004 -7.3659,-3.11004 h -20.9519 q -4.25586,0 -7.36591,3.11004 -3.11006,3.11005 -3.11006,7.3659 v 20.9519 q 0,4.25586 3.11006,7.36591 3.11005,3.11004 7.36591,3.11004 h 20.9519 q 4.25586,0 7.3659,-3.11004 3.11006,-3.11005 3.11006,-7.36591 z M 295.60225,171.94928 V 88.141648 q 0,-4.255857 -3.11004,-7.365909 -3.11006,-3.110044 -7.36591,-3.110044 H 159.41486 q -4.25584,0 -7.3659,3.110044 -3.11003,3.110052 -3.11003,7.365909 v 83.807632 q 0,4.25584 3.11003,7.36589 3.11006,3.11007 7.3659,3.11007 H 285.1263 q 4.25585,0 7.36591,-3.11007 3.11004,-3.11005 3.11004,-7.36589 z m 62.85572,62.8557 v -20.9519 q 0,-4.25586 -3.11006,-7.3659 -3.11004,-3.11005 -7.3659,-3.11005 h -20.9519 q -4.25586,0 -7.36591,3.11005 -3.11006,3.11004 -3.11006,7.3659 v 20.9519 q 0,4.25587 3.11006,7.36592 3.11005,3.11004 7.36591,3.11004 h 20.9519 q 4.25586,0 7.3659,-3.11004 3.11006,-3.11005 3.11006,-7.36592 z m 0,-62.8557 v -20.95191 q 0,-4.25586 -3.11006,-7.36591 -3.11004,-3.11004 -7.3659,-3.11004 h -20.9519 q -4.25586,0 -7.36591,3.11004 -3.11006,3.11005 -3.11006,7.36591 v 20.95191 q 0,4.25584 3.11006,7.36589 3.11005,3.11007 7.36591,3.11007 h 20.9519 q 4.25586,0 7.3659,-3.11007 3.11006,-3.11005 3.11006,-7.36589 z m 0,-62.85574 V 88.141648 q 0,-4.255857 -3.11006,-7.365909 -3.11004,-3.110044 -7.3659,-3.110044 h -20.9519 q -4.25586,0 -7.36591,3.110044 -3.11006,3.110052 -3.11006,7.365909 v 20.951892 q 0,4.25587 3.11006,7.36592 3.11005,3.11004 7.36591,3.11004 h 20.9519 q 4.25586,0 7.3659,-3.11004 3.11006,-3.11005 3.11006,-7.36592 z m 20.9519,-26.189865 V 302.89868 q 0,10.80333 -7.69329,18.4966 -7.69328,7.69328 -18.4966,7.69328 H 91.321178 q -10.803332,0 -18.496616,-7.69328 -7.69327,-7.69327 -7.69327,-18.4966 V 82.903675 q 0,-10.80333 7.69327,-18.496609 7.693284,-7.693278 18.496616,-7.693278 H 353.21998 q 10.80332,0 18.4966,7.693278 7.69329,7.693279 7.69329,18.496609 z"
     id="path8331"
     style="fill:#000000" />
</svg>
