<?xml version="1.0" encoding="UTF-8" standalone="no"?>
<!-- Created with Inkscape (http://www.inkscape.org/) -->

<svg
   xmlns:dc="http://purl.org/dc/elements/1.1/"
   xmlns:cc="http://creativecommons.org/ns#"
   xmlns:rdf="http://www.w3.org/1999/02/22-rdf-syntax-ns#"
   xmlns:svg="http://www.w3.org/2000/svg"
   xmlns="http://www.w3.org/2000/svg"
   xmlns:xlink="http://www.w3.org/1999/xlink"
   xmlns:sodipodi="http://sodipodi.sourceforge.net/DTD/sodipodi-0.dtd"
   xmlns:inkscape="http://www.inkscape.org/namespaces/inkscape"
   inkscape:export-ydpi="100"
   inkscape:export-xdpi="100"
   inkscape:export-filename="/home/alecive/Scrivania/firefoxTest1.png"
   sodipodi:docname="emblem-pictures.svg"
   inkscape:version="0.48.4 r9939"
   version="1.1"
   id="svg2"
   height="496.04401"
   width="791.20258">
  <sodipodi:namedview
     id="base"
     pagecolor="#ffffff"
     bordercolor="#666666"
     borderopacity="1.0"
     inkscape:pageopacity="0.0"
     inkscape:pageshadow="2"
     inkscape:zoom="0.78279304"
     inkscape:cx="246.56589"
     inkscape:cy="146.97775"
     inkscape:document-units="px"
     inkscape:current-layer="svg2"
     showgrid="false"
     inkscape:window-width="1920"
     inkscape:window-height="1032"
     inkscape:window-x="0"
     inkscape:window-y="0"
     inkscape:window-maximized="1"
     inkscape:object-paths="false"
     inkscape:snap-intersection-paths="false"
     inkscape:object-nodes="true"
     inkscape:snap-smooth-nodes="true"
     inkscape:snap-nodes="true"
     fit-margin-top="2"
     fit-margin-right="2"
     fit-margin-left="2"
     fit-margin-bottom="2" />
  <defs
     id="defs4">
    <linearGradient
       x1="19.244999"
       y1="21.030804"
       x2="19.360001"
       gradientUnits="userSpaceOnUse"
       y2="44.984001"
       id="linearGradient2460">
      <stop
         offset="0"
         style="stop-color:#fafafa;stop-opacity:1;"
         id="stop3602" />
      <stop
         offset="1"
         style="stop-color:#f0f0f0;stop-opacity:1;"
         id="stop3604" />
    </linearGradient>
    <linearGradient
       x1="45.447727"
       y1="92.539597"
       x2="45.447727"
       y2="7.0165396"
       id="ButtonShadow-0-1-1-5-9"
       gradientUnits="userSpaceOnUse"
       gradientTransform="matrix(1.0058652,0,0,0.994169,100,0)">
      <stop
         id="stop3750-8-9-3-6-4"
         style="stop-color:#000000;stop-opacity:1"
         offset="0" />
      <stop
         id="stop3752-5-6-4-2-9"
         style="stop-color:#000000;stop-opacity:0.58823532"
         offset="1" />
    </linearGradient>
    <linearGradient
       id="linearGradient3737-9">
      <stop
         id="stop3739-7"
         style="stop-color:#ffffff;stop-opacity:1"
         offset="0" />
      <stop
         id="stop3741-4"
         style="stop-color:#ffffff;stop-opacity:0"
         offset="1" />
    </linearGradient>
    <linearGradient
       id="linearGradient4046-3">
      <stop
         id="stop4048-7"
         style="stop-color:#000000;stop-opacity:1;"
         offset="0" />
      <stop
         id="stop4050-73"
         style="stop-color:#ffffff;stop-opacity:0.2"
         offset="1" />
    </linearGradient>
    <linearGradient
       id="XMLID_17_-9"
       gradientUnits="userSpaceOnUse"
       x1="174.0737"
       y1="215.5488"
       x2="132.27631"
       y2="141.7533">
      <stop
         offset="0"
         style="stop-color:#FB7655"
         id="stop3272-4" />
      <stop
         offset="0"
         style="stop-color:#FB7655"
         id="stop3274-5" />
      <stop
         offset="0.41"
         style="stop-color:#E42B1E"
         id="stop3276-1" />
      <stop
         offset="0.99"
         style="stop-color:#990000"
         id="stop3278-0" />
      <stop
         offset="1"
         style="stop-color:#990000"
         id="stop3280-3" />
    </linearGradient>
    <linearGradient
       id="XMLID_18_-7"
       gradientUnits="userSpaceOnUse"
       x1="194.895"
       y1="153.5576"
       x2="141.0276"
       y2="117.4093">
      <stop
         offset="0"
         style="stop-color:#871101"
         id="stop3285-8" />
      <stop
         offset="0"
         style="stop-color:#871101"
         id="stop3287-8" />
      <stop
         offset="0.99"
         style="stop-color:#911209"
         id="stop3289-6" />
      <stop
         offset="1"
         style="stop-color:#911209"
         id="stop3291-0" />
    </linearGradient>
    <linearGradient
       id="XMLID_19_-4"
       gradientUnits="userSpaceOnUse"
       x1="151.79539"
       y1="217.7852"
       x2="97.929703"
       y2="181.638">
      <stop
         offset="0"
         style="stop-color:#871101"
         id="stop3296-6" />
      <stop
         offset="0"
         style="stop-color:#871101"
         id="stop3298-7" />
      <stop
         offset="0.99"
         style="stop-color:#911209"
         id="stop3300-6" />
      <stop
         offset="1"
         style="stop-color:#911209"
         id="stop3302-0" />
    </linearGradient>
    <linearGradient
       id="XMLID_20_-9"
       gradientUnits="userSpaceOnUse"
       x1="38.696301"
       y1="127.3906"
       x2="47.046902"
       y2="181.66141">
      <stop
         offset="0"
         style="stop-color:#FFFFFF"
         id="stop3307-7" />
      <stop
         offset="0"
         style="stop-color:#FFFFFF"
         id="stop3309-5" />
      <stop
         offset="0.23"
         style="stop-color:#E57252"
         id="stop3311-9" />
      <stop
         offset="0.46"
         style="stop-color:#DE3B20"
         id="stop3313-7" />
      <stop
         offset="0.99"
         style="stop-color:#A60003"
         id="stop3315-8" />
      <stop
         offset="1"
         style="stop-color:#A60003"
         id="stop3317-5" />
    </linearGradient>
    <linearGradient
       id="XMLID_21_-3"
       gradientUnits="userSpaceOnUse"
       x1="96.132797"
       y1="76.715302"
       x2="99.209602"
       y2="132.1021">
      <stop
         offset="0"
         style="stop-color:#FFFFFF"
         id="stop3322-3" />
      <stop
         offset="0"
         style="stop-color:#FFFFFF"
         id="stop3324-8" />
      <stop
         offset="0.23"
         style="stop-color:#E4714E"
         id="stop3326-3" />
      <stop
         offset="0.56"
         style="stop-color:#BE1A0D"
         id="stop3328-7" />
      <stop
         offset="0.99"
         style="stop-color:#A80D00"
         id="stop3330-9" />
      <stop
         offset="1"
         style="stop-color:#A80D00"
         id="stop3332-3" />
    </linearGradient>
    <linearGradient
       id="XMLID_22_-7"
       gradientUnits="userSpaceOnUse"
       x1="147.103"
       y1="25.521"
       x2="156.3141"
       y2="65.216202">
      <stop
         offset="0"
         style="stop-color:#FFFFFF"
         id="stop3337-8" />
      <stop
         offset="0"
         style="stop-color:#FFFFFF"
         id="stop3339-7" />
      <stop
         offset="0.18"
         style="stop-color:#E46342"
         id="stop3341-4" />
      <stop
         offset="0.4"
         style="stop-color:#C82410"
         id="stop3343-1" />
      <stop
         offset="0.99"
         style="stop-color:#A80D00"
         id="stop3345-9" />
      <stop
         offset="1"
         style="stop-color:#A80D00"
         id="stop3347-0" />
    </linearGradient>
    <linearGradient
       id="XMLID_23_-9"
       gradientUnits="userSpaceOnUse"
       x1="118.9761"
       y1="11.5415"
       x2="158.66859"
       y2="-8.3048">
      <stop
         offset="0"
         style="stop-color:#FFFFFF"
         id="stop3352-8" />
      <stop
         offset="0"
         style="stop-color:#FFFFFF"
         id="stop3354-8" />
      <stop
         offset="0.54"
         style="stop-color:#C81F11"
         id="stop3356-5" />
      <stop
         offset="0.99"
         style="stop-color:#BF0905"
         id="stop3358-8" />
      <stop
         offset="1"
         style="stop-color:#BF0905"
         id="stop3360-4" />
    </linearGradient>
    <linearGradient
       id="XMLID_24_-3"
       gradientUnits="userSpaceOnUse"
       x1="3.9033"
       y1="113.5547"
       x2="7.1701999"
       y2="146.2628">
      <stop
         offset="0"
         style="stop-color:#FFFFFF"
         id="stop3365-7" />
      <stop
         offset="0"
         style="stop-color:#FFFFFF"
         id="stop3367-1" />
      <stop
         offset="0.31"
         style="stop-color:#DE4024"
         id="stop3369-3" />
      <stop
         offset="0.99"
         style="stop-color:#BF190B"
         id="stop3371-8" />
      <stop
         offset="1"
         style="stop-color:#BF190B"
         id="stop3373-0" />
    </linearGradient>
    <linearGradient
       id="XMLID_25_-9"
       gradientUnits="userSpaceOnUse"
       x1="-18.5557"
       y1="155.10451"
       x2="135.0152"
       y2="-2.8092999">
      <stop
         offset="0"
         style="stop-color:#BD0012"
         id="stop3380-7" />
      <stop
         offset="0"
         style="stop-color:#BD0012"
         id="stop3382-9" />
      <stop
         offset="0.07"
         style="stop-color:#FFFFFF"
         id="stop3384-9" />
      <stop
         offset="0.17"
         style="stop-color:#FFFFFF"
         id="stop3386-3" />
      <stop
         offset="0.27"
         style="stop-color:#C82F1C"
         id="stop3388-2" />
      <stop
         offset="0.33"
         style="stop-color:#820C01"
         id="stop3390-4" />
      <stop
         offset="0.46"
         style="stop-color:#A31601"
         id="stop3392-3" />
      <stop
         offset="0.72"
         style="stop-color:#B31301"
         id="stop3394-7" />
      <stop
         offset="0.99"
         style="stop-color:#E82609"
         id="stop3396-1" />
      <stop
         offset="1"
         style="stop-color:#E82609"
         id="stop3398-2" />
    </linearGradient>
    <linearGradient
       id="XMLID_26_-2"
       gradientUnits="userSpaceOnUse"
       x1="99.074699"
       y1="171.0332"
       x2="52.817699"
       y2="159.61659">
      <stop
         offset="0"
         style="stop-color:#8C0C01"
         id="stop3403-0" />
      <stop
         offset="0"
         style="stop-color:#8C0C01"
         id="stop3405-2" />
      <stop
         offset="0.54"
         style="stop-color:#990C00"
         id="stop3407-1" />
      <stop
         offset="0.99"
         style="stop-color:#A80D0E"
         id="stop3409-7" />
      <stop
         offset="1"
         style="stop-color:#A80D0E"
         id="stop3411-5" />
    </linearGradient>
    <linearGradient
       id="XMLID_27_-1"
       gradientUnits="userSpaceOnUse"
       x1="178.52589"
       y1="115.5146"
       x2="137.43269"
       y2="78.683998">
      <stop
         offset="0"
         style="stop-color:#7E110B"
         id="stop3416-7" />
      <stop
         offset="0"
         style="stop-color:#7E110B"
         id="stop3418-4" />
      <stop
         offset="0.99"
         style="stop-color:#9E0C00"
         id="stop3420-1" />
      <stop
         offset="1"
         style="stop-color:#9E0C00"
         id="stop3422-7" />
    </linearGradient>
    <linearGradient
       id="XMLID_28_-1"
       gradientUnits="userSpaceOnUse"
       x1="193.6235"
       y1="47.937"
       x2="173.15421"
       y2="26.053801">
      <stop
         offset="0"
         style="stop-color:#79130D"
         id="stop3427-1" />
      <stop
         offset="0"
         style="stop-color:#79130D"
         id="stop3429-1" />
      <stop
         offset="0.99"
         style="stop-color:#9E120B"
         id="stop3431-7" />
      <stop
         offset="1"
         style="stop-color:#9E120B"
         id="stop3433-0" />
    </linearGradient>
    <radialGradient
       id="XMLID_29_-4"
       cx="143.8315"
       cy="79.388199"
       r="50.357601"
       gradientUnits="userSpaceOnUse">
      <stop
         offset="0"
         style="stop-color:#A80D00"
         id="stop3440-0" />
      <stop
         offset="0"
         style="stop-color:#A80D00"
         id="stop3442-8" />
      <stop
         offset="0.99"
         style="stop-color:#7E0E08"
         id="stop3444-5" />
      <stop
         offset="1"
         style="stop-color:#7E0E08"
         id="stop3446-1" />
    </radialGradient>
    <radialGradient
       id="XMLID_30_-6"
       cx="74.0923"
       cy="145.75101"
       r="66.943703"
       gradientUnits="userSpaceOnUse">
      <stop
         offset="0"
         style="stop-color:#A30C00"
         id="stop3451-6" />
      <stop
         offset="0"
         style="stop-color:#A30C00"
         id="stop3453-2" />
      <stop
         offset="0.99"
         style="stop-color:#800E08"
         id="stop3455-1" />
      <stop
         offset="1"
         style="stop-color:#800E08"
         id="stop3457-9" />
    </radialGradient>
    <linearGradient
       id="XMLID_31_-6"
       gradientUnits="userSpaceOnUse"
       x1="26.669901"
       y1="197.33591"
       x2="9.9886999"
       y2="140.742">
      <stop
         offset="0"
         style="stop-color:#8B2114"
         id="stop3462-4" />
      <stop
         offset="0"
         style="stop-color:#8B2114"
         id="stop3464-8" />
      <stop
         offset="0.43"
         style="stop-color:#9E100A"
         id="stop3466-0" />
      <stop
         offset="0.99"
         style="stop-color:#B3100C"
         id="stop3468-8" />
      <stop
         offset="1"
         style="stop-color:#B3100C"
         id="stop3470-1" />
    </linearGradient>
    <linearGradient
       id="XMLID_32_-0"
       gradientUnits="userSpaceOnUse"
       x1="154.6411"
       y1="9.7979002"
       x2="192.039"
       y2="26.305901">
      <stop
         offset="0"
         style="stop-color:#B31000"
         id="stop3475-2" />
      <stop
         offset="0"
         style="stop-color:#B31000"
         id="stop3477-2" />
      <stop
         offset="0.44"
         style="stop-color:#910F08"
         id="stop3479-9" />
      <stop
         offset="0.99"
         style="stop-color:#791C12"
         id="stop3481-7" />
      <stop
         offset="1"
         style="stop-color:#791C12"
         id="stop3483-5" />
    </linearGradient>
    <radialGradient
       inkscape:collect="always"
       xlink:href="#linearGradient3939"
       id="radialGradient3945"
       cx="256.48508"
       cy="343.73199"
       fx="256.48508"
       fy="343.73199"
       r="180.67609"
       gradientTransform="matrix(2.2538466,-0.01723853,0.01583281,2.0700536,-187.21139,-458.89271)"
       gradientUnits="userSpaceOnUse" />
    <linearGradient
       id="linearGradient3939">
      <stop
         style="stop-color:#fd7e76;stop-opacity:1;"
         offset="0"
         id="stop3941" />
      <stop
         id="stop3942"
         offset="0.32222539"
         style="stop-color:#c2c159;stop-opacity:1;" />
      <stop
         style="stop-color:#7ba0aa;stop-opacity:1;"
         offset="0.55332983"
         id="stop3944" />
      <stop
         style="stop-color:#8735fc;stop-opacity:1;"
         offset="1"
         id="stop3943" />
    </linearGradient>
  </defs>
  <metadata
     id="metadata7">
    <rdf:RDF>
      <cc:Work
         rdf:about="">
        <dc:format>image/svg+xml</dc:format>
        <dc:type
           rdf:resource="http://purl.org/dc/dcmitype/StillImage" />
        <dc:title></dc:title>
      </cc:Work>
    </rdf:RDF>
  </metadata>
  <g
     id="layer1"
     inkscape:groupmode="layer"
     inkscape:label="Livello 1"
     transform="translate(269.18546,-497.76794)" />
  <g
     id="g2036"
     transform="matrix(1.6246674,0,0,0.65642471,161.58462,205.95026)">
    <g
       id="g3712"
       style="opacity:0.4"
       transform="matrix(1.0526,0,0,1.2857,-1.2632,-13.429)" />
  </g>
  <g
     transform="matrix(1.4769704,0,0,1.4769704,165.12935,168.86206)"
     id="g3541" />
  <g
     transform="matrix(1.4769704,0,0,1.4769704,165.12935,168.86206)"
     id="g3536" />
  <g
     id="g4076"
     transform="matrix(1.4769704,0,0,1.4769704,-873.1814,-695.53466)">
    <g
       transform="translate(-926.66758,684.38448)"
       id="g4038" />
  </g>
  <path
     id="path4-0"
     d="m 389.89413,212.43124 c -15.80872,-12.84459 4.64379,-13.85241 4.44635,-14.32667 -28.15943,-70.1512 -73.57,-101.116552 -77.0676,-102.756698 -10.78958,-5.058815 -16.00638,-4.584545 -14.0895,-7.133708 1.89689,-2.549177 14.36611,5.434247 16.06556,6.639676 49.89627,35.56963 77.06758,102.75672 77.06758,102.75672 0,0 3.45822,1.97609 3.95206,0.49401 19.76102,-58.29466 59.28281,-88.92407 72.62145,-101.274662 13.33862,-12.350544 20.35379,-13.555958 1.97604,0.494032 -56.81251,43.474 -73.0955,100.089 -72.12739,100.28662 22.72518,4.94023 0.98814,15.80874 1.97626,14.82068 5.96768,-5.96779 5.9281,11.85657 5.9281,11.85657 0,0 33.59371,-69.1632 165.00369,-157.099249 8.10202,-5.4145 291.47345,-160.063371 192.66882,28.653313 -5.11807,9.801426 -39.52179,49.402286 -39.52179,49.402286 0,0 2.96416,16.79678 -8.89228,30.62939 -2.0354,2.37133 -6.91645,25.68919 -18.77288,38.53378 -3.33972,3.63601 -0.0391,-3.12222 0,0 0.98791,59.28274 -47.56448,57.97852 -44.46222,58.29471 18.77289,1.97607 21.46044,26.34126 21.73705,26.67722 10.86852,12.84457 6.91644,15.80872 10.86852,21.737 21.34193,31.9929 -1.16579,30.07611 1.97604,35.56964 7.90436,13.83262 -1.65985,19.54351 0.98812,23.7131 6.91624,10.86848 -5.09828,17.80455 -4.9402,20.74893 0.98814,16.79679 -10.19657,10.67091 -9.8804,17.78483 0.98792,21.73701 -6.91644,12.84457 -11.85664,20.74893 -14.82059,23.71312 -20.4921,14.91952 -21.73705,17.78484 -5.9281,13.83264 -13.87205,10.51281 -16.79664,13.83264 -6.91646,7.90436 -13.8327,7.90436 -16.79686,10.86851 -13.83268,13.83264 -21.67767,4.07073 -23.71307,4.94021 -31.61744,13.83266 -46.43804,2.64796 -51.37845,2.96415 -14.8206,0.98803 -12.54816,-1.30423 -16.79664,-4.94023 C 456.09317,431.77733 419.53552,354.7098 412.6193,344.82936 c -2.82586,-4.03125 -8.85292,-27.0922 -6.91646,-21.73702 3.9523,10.86851 1.97626,107.69696 -8.89226,107.69696 -10.86852,0 -11.85665,-90.90019 -4.9402,-107.69696 2.1737,-5.27617 -1.83796,15.59136 -6.99539,21.73702 -10.78958,12.84457 -44.0471,86.94797 -107.10411,140.30245 -4.28825,3.636 -1.99583,5.92826 -17.01431,4.94023 -4.97956,-0.31619 -20.0176,10.86851 -52.0304,-2.96415 -2.05518,-0.86948 -10.01869,8.89243 -24.02926,-4.94021 -3.00373,-2.96415 -9.9989,-2.96415 -17.0141,-10.86851 -2.94437,-3.31983 -11.00681,0 -17.01407,-13.83264 -1.24495,-2.86532 -6.99539,5.92828 -22.01365,-17.78484 -4.99957,-7.90436 -13.02246,0.98808 -12.01476,-20.74893 0.33599,-7.11392 -11.00682,-0.98804 -9.99891,-17.78483 0.17832,-2.94438 -12.014744,-9.88045 -5.01935,-20.74893 2.68756,-4.16959 -6.995394,-9.88048 1.00792,-23.7131 3.18139,-5.49353 -19.602934,-3.57674 1.99583,-35.56964 4.01142,-5.92828 0,-8.89243 11.00681,-21.737 0.2964,-0.33596 3.00374,-24.70115 22.03344,-26.67722 3.14206,-0.31619 -46.042914,0.98803 -45.035224,-58.29471 0.0391,-3.12222 3.37907,3.63601 0,0 -12.01452,-12.84459 -16.95472,-36.16245 -19.0297,-38.53378 -12.01452,-13.83261 -9.011,-30.62939 -9.011,-30.62939 0,0 -34.83843,-39.60086 -40.01587,-49.402286 C -75.514654,-92.87481 211.53225,61.774061 219.73301,67.188561 c 133.10941,87.936049 165.5569,157.099249 165.5569,157.099249 0,0 0.7113,-5.03904 1.97603,-7.90439 1.26474,-2.84556 3.08267,-3.57672 2.62819,-3.95218 z"
     style="fill:url(#radialGradient3945);fill-opacity:1;stroke:none"
     inkscape:connector-curvature="0" />
  <path
     id="path6-8"
     d="m 388.4911,212.01627 c -15.80872,-12.84459 4.62423,-13.87215 4.44634,-14.32667 -28.15943,-70.15123 -73.56999,-101.116551 -77.06758,-102.756712 -10.78959,-5.058801 -16.0064,-4.584546 -14.1093,-7.133708 1.89712,-2.549148 14.38591,5.434247 16.08533,6.639661 49.89629,35.569639 77.06759,102.756739 77.06759,102.756739 0,0 3.45823,1.9761 3.95208,0.49402 19.76101,-58.29468 59.28281,-88.92409 72.62142,-101.274661 13.33863,-12.350544 20.35382,-13.555989 1.97604,0.494032 -56.81249,43.473989 -73.09548,100.069239 -72.12715,100.286609 22.72496,4.94021 0.98791,15.80872 1.97604,14.82069 5.96768,-5.96781 5.92832,11.85654 5.92832,11.85654 0,0 33.59348,-69.16317 165.00347,-157.099219 8.08223,-5.414514 291.47345,-160.063381 192.66883,28.653314 -5.11809,9.781655 -39.52181,49.402265 -39.52181,49.402265 0,0 2.96417,16.7968 -8.89227,30.62941 -2.0354,2.3713 -6.91645,25.68918 -18.77287,38.53378 -3.33973,3.63601 -0.0586,-3.12224 0,0 0.9879,59.28273 -47.56449,57.97851 -44.46202,58.29468 18.77267,1.9761 21.44044,26.34128 21.73683,26.67723 10.86853,12.84459 6.91646,15.80874 10.86853,21.73699 21.32213,31.99293 -1.16581,30.07612 1.97604,35.56965 7.90436,13.83264 -1.65987,19.54353 0.98812,23.71309 6.91624,10.86851 -5.11809,17.78483 -4.9402,20.74895 0.98814,16.79677 -10.19658,10.67092 -9.8804,17.78484 0.98791,21.737 -6.91646,12.84457 -11.85666,20.74893 -14.82059,23.71312 -20.51189,14.9195 -21.73705,17.78482 -5.9281,13.83266 -13.89183,10.51281 -16.79662,13.83266 -6.91646,7.90436 -13.83269,7.90436 -16.79685,10.86851 -13.83268,13.83261 -21.67768,4.05096 -23.71308,4.94021 -31.61745,13.83264 -46.43803,2.6282 -51.37845,2.96415 -14.82062,0.98803 -12.54818,-1.30423 -16.79666,-4.94025 -62.24697,-53.35446 -98.8046,-130.422 -105.72084,-140.30245 -2.82588,-4.051 -8.8727,-27.09221 -6.91645,-21.737 3.95229,10.86851 1.97625,107.69696 -8.89228,107.69696 -10.86852,0 -11.85664,-90.9002 -4.9402,-107.69696 2.17371,-5.27618 -1.83795,15.57158 -6.99539,21.737 -10.78957,12.84458 -44.0471,86.94799 -107.1041,140.30245 -4.28827,3.63602 -1.99583,5.92828 -17.0143,4.94025 -4.97956,-0.33595 -20.01763,10.86849 -52.0304,-2.96415 -2.05521,-0.88925 -10.01872,8.8924 -24.02928,-4.94021 -3.00374,-2.96415 -9.99891,-2.96415 -17.01408,-10.86851 -2.94438,-3.31985 -11.00684,0 -17.01408,-13.83266 -1.24494,-2.86532 -7.01518,5.9283 -22.01367,-17.78482 -5.01935,-7.90436 -13.02243,0.98807 -12.01474,-20.74893 0.33598,-7.11392 -11.00683,-0.98807 -10.0187,-17.78484 0.17831,-2.96412 -11.994954,-9.88044 -4.99956,-20.74895 2.68755,-4.16956 -6.995394,-9.88045 1.00791,-23.71309 3.1814,-5.49353 -19.602924,-3.57672 1.99582,-35.56965 4.01145,-5.92825 0,-8.8924 11.00684,-21.73699 0.2964,-0.33595 3.00374,-24.70113 22.03344,-26.67723 3.14204,-0.31617 -46.042924,0.98805 -45.055024,-58.29468 0.0588,-3.12224 3.39908,3.63601 0,0 -11.99473,-12.8446 -16.95472,-36.16248 -19.00991,-38.53378 -12.01453,-13.83261 -9.011,-30.62941 -9.011,-30.62941 0,0 -34.83843,-39.62061 -40.03566,-49.402265 C -76.917694,-93.28979 210.12921,61.359077 218.32996,66.773591 351.43937,154.70964 383.88687,223.87281 383.88687,223.87281 c 0,0 0.71129,-5.03904 1.97602,-7.90436 1.26474,-2.84556 3.08269,-3.57674 2.62821,-3.95218 z m 76.07966,26.67723 c 6.00727,-0.19768 18.23924,6.02707 25.68911,3.95218 50.25204,-13.95121 144.88692,-1.10661 151.171,0.98805 23.71307,7.90436 39.52179,-48.41423 -10.86852,-48.41423 -62.30613,0 -49.40221,-3.95219 -90.90026,-9.88046 -3.51738,-0.49402 -54.38199,18.37763 -101.76858,45.4501 -6.91644,3.95218 -2.96416,8.89241 26.67725,7.90436 z m -37.54577,-9.88046 c 5.01914,0.55332 29.64141,-16.79677 106.70878,-47.42618 4.68338,-1.85753 4.94042,-11.85653 46.43825,-30.6294 2.70712,-1.22518 -0.98812,-7.90437 27.66515,-31.61747 14.16866,-11.71821 -34.58139,-9.88046 -45.44991,-7.90436 -10.86853,1.97608 -37.54577,23.71307 -37.54577,23.71307 0,0 29.99694,-23.85139 19.7608,-20.74893 -22.72498,6.91632 -82.00779,72.12732 -101.76858,99.79259 -19.761,27.66528 32.60535,-47.42618 45.45013,-59.28272 12.84455,-11.85655 -97.8165,70.15122 -61.25885,74.1034 z m 222.31024,-38.53379 c 28.69285,5.75044 25.68911,-36.55769 10.86853,-38.53376 -22.86348,-3.04319 -66.41651,-1.62041 -79.04362,2.96415 -32.60557,11.85654 -41.16208,23.77235 -38.53389,24.70112 56.31865,19.76092 96.82858,8.89242 106.70898,10.86849 z m -0.98814,-43.47397 c 11.69857,1.46229 31.61747,5.92825 32.60557,-9.88047 0.49408,-7.94389 27.66518,5.92828 33.5935,6.91633 4.90084,0.81017 -20.74892,-9.46549 -29.6414,-15.80874 -6.91626,-4.94023 -8.12161,-10.59184 -8.89228,-10.86849 -63.23489,-22.725069 -89.91214,30.6294 -89.91214,30.6294 0,0 54.34239,-1.9761 62.24675,-0.98803 z M 777.78105,59.857264 C 767.90065,44.04854 750.19484,48.90971 744.18757,42.07243 c -28.65329,-32.6054799 -95.01043,9.20858 -40.50993,4.94026 63.23489,-4.94026 75.26941,14.721862 74.10341,12.844574 z m -47.42616,7.904361 c 26.69703,0 38.53389,11.856542 36.55764,9.880459 -13.83248,-13.83264 -25.68912,-10.868493 -28.65328,-14.820674 -17.62667,-23.49572 -70.15113,0.988034 -66.19907,6.916298 3.9523,5.928279 51.37847,-1.976083 58.29471,-1.976083 z m -91.88818,18.77287 c -41.49785,9.880444 -23.71308,24.701135 -18.77288,23.713095 38.39538,-7.66724 27.42812,-25.768226 18.77288,-23.713095 z M 659.21562,39.10831 C 640.44273,41.08439 639.178,75.290526 648.34709,68.749674 662.17978,58.86923 677.9885,37.13221 659.21562,39.10831 z m -49.40219,46.438136 c 27.66514,-10.868494 6.91623,-15.808738 -1.97626,-14.820674 -8.89227,0.988034 -15.47275,14.484737 -12.84455,19.760888 5.92832,11.85657 9.46549,-2.825784 14.82081,-4.940214 z m 86.94797,89.912134 c 8.89228,-4.94022 -1.97602,-16.79676 -9.88038,-11.85655 -7.90438,4.94022 0.9879,16.79679 9.88038,11.85655 z M 677.9885,91.474724 c 23.25861,23.258576 32.6056,10.868506 37.54578,8.892396 16.04575,-6.422296 33.59349,10.86851 30.62933,7.90436 -14.3859,-14.385941 -23.71309,-11.856541 -25.68912,-14.820673 -15.03804,-22.566955 -37.46662,-8.260045 -42.48599,-7.904361 -13.83268,0.988049 -31.00486,10.690636 -24.70121,8.892395 6.91647,-1.976083 21.73705,-5.928264 24.70121,-2.964117 z M 744.18757,23.29957 c 13.83268,-9.88044 -4.38699,-12.39008 -7.90436,-11.85654 -12.84456,1.9761 -5.92832,21.737 7.90436,11.85654 z M 429.98915,294.02403 c 10.86852,12.84462 132.39811,205.51347 113.62522,141.29051 -2.54925,-8.73431 6.91624,26.67722 17.78476,6.91633 3.04309,-5.53306 20.05741,-6.10612 -32.60556,-93.86432 -2.96417,-4.94024 -43.47389,-20.74896 -83.98382,-65.21102 -6.12578,-6.73845 -23.8514,0.19768 -14.8206,10.8685 z m 109.67294,68.17516 c 8.89248,13.83263 31.00486,60.17197 32.60557,67.1871 4.9402,21.73698 18.77288,-2.96414 21.73704,-1.97611 26.00532,8.67503 6.91624,-14.82069 4.9402,-20.74895 -18.12074,-54.3425 -60.27071,-49.40228 -60.27071,-49.40228 0,0 -7.90436,-8.8924 0.9879,4.94024 z m -52.36638,80.03168 c 24.97782,35.51034 34.5816,21.737 39.52182,17.78482 15.21592,-12.17273 -81.57309,-136.31075 -87.93612,-144.25465 -7.90434,-9.88047 -7.90434,46.43815 48.4143,126.46983 z m 91.88819,-73.11538 c 12.84454,9.88047 27.15151,51.5167 34.5816,50.39033 19.76101,-2.96415 7.90435,-19.7609 12.84455,-16.79677 4.94042,2.96414 14.82082,-2.31202 11.85666,-7.90436 -24.70121,-46.43814 -63.23489,-31.61745 -63.23489,-31.61745 0,0 -8.89249,-3.95219 3.95208,5.92825 z M 451.72598,269.32292 c -38.53367,0 91.88839,106.7089 129.43416,85.95995 7.78563,-4.30788 -9.88061,-6.91632 -6.91644,-29.64135 0.55343,-4.14982 -26.67725,-11.85659 -26.67725,-37.54574 0,-8.37863 -15.65064,-11.85656 -65.21093,-11.85656 -8.8925,0 9.70251,-6.9163 -30.62954,-6.9163 z m 142.27872,88.92406 c 36.10315,4.01148 44.67924,31.97316 49.40219,28.65335 56.31869,-39.52183 -44.91647,-55.64672 -63.23487,-53.35445 -7.90436,0.98803 4.9402,23.71307 13.83268,24.7011 z m -136.3504,-97.8165 c 6.91646,4.94023 30.62954,24.70115 106.709,7.90438 2.90478,-0.63235 -57.30657,-0.98805 -65.21093,-2.96415 -7.90437,-1.97608 -46.18144,-8.2798 -41.49807,-4.94023 z m 131.4102,68.17514 c 74.10342,17.78483 54.54007,5.41451 57.30657,3.95221 16.79685,-8.89243 -1.56113,-10.65113 0.98812,-13.83264 8.31928,-10.39425 -13.83268,-16.7968 -60.27093,-21.73702 -10.98705,-1.16589 -32.76346,-6.6199 -33.59349,-4.94021 -6.91622,13.83261 26.10424,34.28518 35.56973,36.55766 z m 11.85644,-32.60548 c 64.223,10.86851 23.93054,-9.26786 24.70121,-9.88046 22.72494,-17.78482 -52.36637,-17.78482 -52.36637,-17.78482 0,0 -32.2696,7.66725 -31.61765,8.89241 8.89248,16.79676 51.43782,17.44887 59.28281,18.77287 z m -121.5296,141.29052 c 0,0 -57.30655,-91.88825 -45.45011,-129.43398 2.39115,-7.52888 -25.68912,-44.46205 -12.84456,17.78484 0.19788,0.96825 -2.43052,-13.22007 -6.91624,-19.76095 -4.48571,-6.54085 -10.75001,-4.3869 -6.91645,14.82069 9.66316,48.2759 72.12736,116.5894 72.12736,116.5894 z m 78.05573,-335.93549 c 14.82059,-3.952182 7.90435,-8.892412 -0.98814,-10.86851 -8.89248,-1.976083 -13.83268,14.82069 0.98814,10.86851 z M 356.43894,230.78914 c -47.97938,-27.07247 -99.51594,-45.94412 -103.09267,-45.4501 -42.03148,5.92827 -28.94967,9.88046 -92.06605,9.88046 -51.04227,0 -35.03608,56.31859 -11.00682,48.41423 6.36302,-2.09466 102.22326,-14.93926 153.12725,-0.98805 7.52901,2.07489 19.93887,-4.1498 26.02507,-3.95218 30.01696,0.98805 34.02841,-3.95218 27.01322,-7.90436 z m -51.04248,-76.0795 c 13.00286,11.85654 66.06075,86.948 46.04291,59.28272 -20.01783,-27.66527 -80.0711,-92.87627 -103.09266,-99.79259 -10.35467,-3.10246 20.01782,20.74893 20.01782,20.74893 0,0 -27.013,-21.73699 -38.03961,-23.71307 -11.00684,-1.9761 -60.36967,-3.81385 -46.02313,7.90436 29.00883,23.7131 25.27421,30.39229 28.02092,31.61747 42.03149,18.77287 42.2883,28.77187 47.03084,30.6294 78.07547,30.62941 103.01372,47.9795 108.09223,47.42618 37.03191,-3.95218 -75.05198,-85.95995 -62.04932,-74.1034 z m -55.05371,24.70112 c 2.68734,-0.92877 -5.9877,-12.84458 -39.02796,-24.70112 -12.7852,-4.58456 -56.91123,-6.00734 -80.0711,-2.96415 -14.99847,1.97607 -18.04158,44.2842 11.00684,38.53376 10.01891,-1.97607 51.04248,8.89243 108.09222,-10.86849 z m -44.02731,-31.61745 c 0,0 -27.033,-53.354469 -91.07814,-30.6294 -0.77067,0.27665 -1.99583,5.92826 -9.01079,10.86849 -8.991224,6.34325 -34.976944,16.61891 -30.016954,15.80874 6.00726,-0.98805 33.514544,-14.86022 34.028394,-6.91633 0.98791,15.80872 21.18364,11.34276 33.02049,9.88047 8.0031,-0.98807 63.057,0.98803 63.057,0.98803 z M 87.216376,47.01269 c 55.192234,4.26832 -12.01452,-37.5457399 -41.04336,-4.94026 -6.08641,6.83728 -24.00947,1.97611 -34.02839,17.784834 -1.18558,1.877288 11.00683,-17.784834 75.07175,-12.844574 z M 119.24896,69.737708 C 123.24062,63.809444 70.044196,39.32569 52.180286,62.82141 c -3.00352,3.952181 -15.01827,0.988034 -29.02883,14.820674 -1.99583,1.976083 9.99912,-9.880459 37.03213,-9.880459 7.01496,0 55.053714,7.904362 59.065374,1.976083 z m 34.02817,16.796787 c 42.03148,9.880444 24.00948,24.701135 19.00993,23.713095 -38.88945,-7.66724 -27.78368,-25.768226 -19.00993,-23.713095 z M 143.25844,68.749674 c 9.2876,6.540852 8.0031,-27.665284 -11.00684,-29.641364 -19.01013,-1.9761 -3.00374,19.76092 11.00684,29.641364 z m 54.04599,21.736986 c 2.66757,-5.276151 -4.01142,-18.772854 -13.00264,-19.760888 -9.01101,-0.988064 -30.03654,3.95218 -2.01561,14.820674 5.43426,2.11443 9.01079,16.796784 15.01825,4.940214 z m -93.07396,73.11537 c -8.003094,-4.94021 -19.029704,6.91633 -10.018704,11.85655 9.011004,4.94024 18.022014,-6.91633 10.018704,-11.85655 z m 34.0284,-69.163189 c 6.38281,1.798241 -11.00683,-7.904346 -25.0174,-8.892395 -5.09829,-0.355684 -27.803454,-14.662594 -43.039184,7.904361 -2.01561,2.964132 -11.46131,0.434732 -26.02509,14.820673 -3.00374,2.96415 14.76145,-14.326656 31.02466,-7.90436 4.99935,1.97611 14.48462,14.36618 38.039614,-8.892396 3.00375,-2.964147 18.00222,0.988034 25.0174,2.964117 z M 54.176106,11.44303 c -3.55695,-0.53354 -22.01365,1.9761 -8.00309,11.85654 14.01057,9.88046 21.02553,-9.88044 8.00309,-11.85654 z m 295.267454,271.7125 c -41.04337,44.46206 -82.08672,60.27078 -85.09047,65.21102 -53.3347,87.7582 -36.10315,88.33126 -33.02048,93.86432 11.00683,19.76089 20.61064,-15.65064 18.02201,-6.91633 -19.0297,64.22296 104.08057,-128.44589 115.08741,-141.29051 9.14932,-10.67089 -8.79355,-17.60695 -14.99847,-10.8685 z m -95.08936,74.10342 c 0,0 -42.70344,-4.94022 -61.06119,49.40228 -1.99604,5.92826 -21.32214,29.42398 5.01913,20.74895 3.00374,-0.98803 17.01409,23.71309 22.01365,1.97611 1.6205,-7.01513 24.02926,-53.35447 33.02048,-67.1871 9.01099,-13.83264 1.00793,-4.94024 1.00793,-4.94024 z m 101.07704,-41.49791 c -6.42238,7.9439 -104.47591,132.08192 -89.06252,144.25465 4.99955,3.95218 14.72187,17.72552 40.03564,-17.78482 57.04977,-80.03168 57.04977,-136.3503 49.02688,-126.46983 z m -138.10897,47.4262 c 0,0 -39.02797,-14.82069 -64.04514,31.61745 -3.0233,5.59234 6.99538,10.8685 11.99474,7.90436 5.01936,-2.96413 -6.99517,13.83262 13.02243,16.79677 7.52905,1.12637 22.01365,-40.50986 35.01632,-50.39033 13.02244,-9.88044 4.01165,-5.92825 4.01165,-5.92825 z m 94.08166,-86.94802 c -50.21245,0 -66.06074,3.47793 -66.06074,11.85656 0,25.68915 -27.56643,33.39592 -27.01323,37.54574 3.00374,22.72503 -14.89974,25.33347 -7.01517,29.64135 38.03983,20.74895 170.14154,-85.95995 131.11359,-85.95995 -40.84569,0 -22.01343,6.9163 -31.02445,6.9163 z m -99.08122,57.30666 c -18.55543,-2.29227 -121.114684,13.83262 -64.06492,53.35445 4.78231,3.31981 13.47691,-24.64187 50.05435,-28.65335 9.01101,-0.98803 22.01365,-23.71307 14.01057,-24.7011 z m 82.06692,-68.17517 c -8.00309,1.9761 -68.98534,2.3318 -66.06054,2.96415 77.06737,16.79677 101.09663,-2.96415 108.09202,-7.90438 4.74276,-3.33957 -34.02817,2.96415 -42.03148,4.94023 z m -55.05371,26.67725 c -0.84982,-1.67969 -22.90306,3.77432 -34.02839,4.94021 -47.03083,4.94022 -69.47918,11.34277 -61.0414,21.73702 2.56904,3.18151 -16.02597,4.94021 0.98814,13.83264 2.80605,1.4623 -17.01411,13.83262 58.05743,-3.95221 9.584,-2.27248 43.03918,-22.72505 36.02422,-36.55766 z m 12.01453,-14.82069 c 0.67194,-1.22516 -32.03237,-8.89241 -32.03237,-8.89241 0,0 -76.05964,0 -53.03829,17.78482 0.79046,0.6126 -40.03565,20.74897 25.01718,9.88046 7.96372,-1.324 51.04247,-1.97611 60.05348,-18.77287 z m 136.11315,43.47399 c 3.89292,-19.20759 -2.47008,-21.36154 -6.99539,-14.82069 -4.54508,6.54088 -7.21262,20.7292 -7.01518,19.76095 13.02245,-62.24689 -15.41337,-25.31372 -13.00264,-17.78484 11.99496,37.54573 -46.04293,129.43398 -46.04293,129.43398 0,0 63.27446,-68.3135 73.05614,-116.5894 z M 236.33219,90.48666 c -9.01101,1.976098 -16.0064,6.916328 -0.98812,10.86851 14.99868,3.95218 9.99912,-12.844593 0.98812,-10.86851 z"
     style="fill:#000000;stroke:none"
     inkscape:connector-curvature="0" />
  <path
     id="path8-6"
     d="m 704.88301,105.52472 c -8.81335,1.10662 -16.79664,1.97611 -18.77266,-8.892401 -1.97626,-10.868508 2.96394,-14.820688 17.78474,-10.868508 14.8206,3.952181 24.70121,16.796789 0.98792,19.760909 z m -72.12717,6.91632 c 0,0 -36.99255,8.73433 -2.96418,-16.796755 15.80873,-11.856571 16.79664,-1.976112 17.78477,3.952181 1.4822,8.833114 -14.82059,12.844574 -14.82059,12.844574 z m 112.6371,-80.03168 c -16.50024,-3.30006 -15.80872,-12.8446 1.97602,-16.79678 2.90503,-0.63235 7.90436,18.77285 -1.97602,16.79678 z m 9.88038,0 c 4.94043,-0.98804 12.84479,0.98804 13.83269,7.90437 0.98814,6.91632 -6.91622,10.8685 -11.85642,6.91632 -4.94021,-3.95218 -6.91647,-13.83265 -1.97627,-14.82069 z M 743.4169,54.14638 c 4.9402,-1.97611 19.76079,0.98803 18.77289,6.916284 -0.98814,5.928293 -12.84457,6.916327 -17.78477,3.95218 C 739.4646,62.050742 738.4767,56.12245 743.4169,54.14638 z m 1.97604,34.581578 c 5.92832,-4.940244 12.84455,0 14.82081,2.964147 1.97604,2.964102 -7.90437,6.916283 -10.86853,7.904361 -2.96416,0.988034 -9.88062,-5.928293 -3.95228,-10.868508 z M 768.11811,15.61258 c 0,0 7.90436,0 5.9281,2.96413 -1.97602,2.96415 -7.90436,2.96415 -7.90436,2.96415 z m 11.85642,17.78482 c 0,0 7.90436,0 5.92834,2.96415 -1.97604,2.96414 -7.90436,2.96414 -7.90436,2.96414 z m -64.223,94.85237 c 0,0 9.88061,3.95219 7.90436,6.91632 -1.97603,2.96413 -4.9402,7.90436 -11.85643,0.98805 -6.91645,-6.91633 3.95207,-7.90437 3.95207,-7.90437 z m -26.67724,38.53378 c 5.92832,-4.94022 12.84477,0 14.8208,2.96413 1.97604,2.96413 -7.90436,6.91631 -10.86852,7.90436 -2.96416,0.98805 -9.8804,-5.92828 -3.95228,-10.86849 z m 3.95228,-19.76091 c 5.92832,-4.94023 10.86852,1.97607 12.84456,4.94022 1.97604,2.96414 -5.92832,4.94023 -8.89248,5.92826 -2.96396,0.98807 -9.8804,-5.92826 -3.95208,-10.86848 z m -33.5935,-66.199043 c -7.05473,0.395207 -18.77288,-2.964147 -0.98812,-14.820689 16.4411,-10.947558 15.80874,-7.904348 16.79687,-1.976098 1.48197,8.83311 -8.75419,16.421326 -15.80875,16.796787 z m -60.27093,17.784791 c 0,0 -6.91623,-5.928249 6.91646,-17.784791 15.01824,-12.844606 12.84454,-7.904362 13.83268,-1.976098 1.48196,8.83311 -20.74914,19.760889 -20.74914,19.760889 z M 660.421,46.24197 c 0,0 11.85665,-1.97606 9.88062,0.98808 -1.97626,2.96411 -6.91646,13.832614 -13.83271,6.91633 -6.91644,-6.91633 3.95209,-7.90441 3.95209,-7.90441 z m 66.19906,60.27081 c 2.72713,0 4.9402,2.23299 4.9402,4.94023 0,2.72699 -2.21307,4.94021 -4.9402,4.94021 -2.70713,0 -4.9402,-2.21322 -4.9402,-4.94021 0,-2.70724 2.23307,-4.94023 4.9402,-4.94023 z m -9.8804,48.41422 c 2.72691,0 4.9402,2.23298 4.9402,4.94022 0,2.727 -2.21329,4.94023 -4.9402,4.94023 -2.70735,0 -4.9402,-2.21323 -4.9402,-4.94023 0,-2.70724 2.23285,-4.94022 4.9402,-4.94022 z m -7.90437,19.76091 c 2.72692,0 4.9402,2.23297 4.9402,4.94021 0,2.72701 -2.21328,4.94025 -4.9402,4.94025 -2.70734,0 -4.9402,-2.21324 -4.9402,-4.94025 0,-2.70724 2.23286,-4.94021 4.9402,-4.94021 z m -31.61744,12.84459 c 2.72691,0 4.9402,2.23297 4.9402,4.94023 0,2.727 -2.21329,4.94021 -4.9402,4.94021 -2.70735,0 -4.9402,-2.21321 -4.9402,-4.94021 0,-2.70726 2.23285,-4.94023 4.9402,-4.94023 z m 16.79684,2.96412 c 2.72693,0 7.90437,4.2091 7.90437,6.91632 0,2.72701 -5.17744,2.96415 -7.90437,2.96415 -2.70733,0 -4.9404,-2.21321 -4.9404,-4.94021 0,-2.70726 2.23307,-4.94026 4.9404,-4.94026 z m 47.42617,-77.06754 c 2.72692,0 4.9402,2.23298 4.9402,4.94023 0,2.72702 -2.21328,4.94024 -4.9402,4.94024 -2.70734,0 -4.9402,-2.21322 -4.9402,-4.94024 0,-2.70725 2.23286,-4.94023 4.9402,-4.94023 z m 26.67725,-46.438123 c 2.72691,0 4.9402,2.232972 4.9402,4.940215 0,2.727004 -2.21329,4.940244 -4.9402,4.940244 -2.70735,0 -4.94042,-2.21324 -4.94042,-4.940244 0,-2.707243 2.23307,-4.940215 4.94042,-4.940215 z M 580.38947,82.799665 c 4.58443,1.837779 26.67703,-12.844576 19.7608,-14.820674 -6.91624,-1.976083 -24.70122,12.844606 -19.7608,14.820674 z M 617.93502,57.11048 c 4.9402,0.98808 19.76101,-4.94021 12.84456,-6.91632 -6.91624,-1.97607 -18.06137,5.88878 -12.84456,6.91632 z M 523.0827,117.38127 C 533.95122,111.45301 564.58053,96.632319 549.75994,98.608388 534.93934,100.5845 513.7555,122.4796 523.0827,117.38127 z M 705.87113,19.56476 c 4.9402,0.98805 19.76101,-4.94023 12.84456,-6.91631 -6.91623,-1.9761 -18.06136,5.88874 -12.84456,6.91631 z m -142.2785,72.127345 c 4.9402,0.988034 14.82058,-3.952196 7.90436,-5.928294 -6.91646,-1.976097 -13.12117,4.900721 -7.90436,5.928294 z M 688.08637,215.19778 c 2.72692,0 4.9402,3.22101 4.9402,5.92825 0,2.72702 -1.22515,2.96414 -3.95228,2.96414 -2.70713,0 -4.9402,-2.21321 -4.9402,-4.94021 0,-2.70724 1.24494,-3.95218 3.95228,-3.95218 z m -14.82081,-0.98803 c 2.72714,0 6.91645,1.2449 6.91645,3.95218 0,2.72699 -5.17743,1.97606 -7.90436,1.97606 -2.70735,0 -4.94019,-2.21321 -4.94019,-4.94021 0,-2.70724 3.22098,-0.98803 5.9281,-0.98803 z m 3.95229,28.65329 c 2.72691,0 7.90436,4.20909 7.90436,6.91632 0,2.72702 -5.17745,2.96414 -7.90436,2.96414 -2.70735,0 -4.9402,-2.21322 -4.9402,-4.94023 0,-2.70725 2.23285,-4.94023 4.9402,-4.94023 z m -23.7131,40.50987 c 7.90438,-1.97609 7.90438,1.97609 9.88041,8.89241 1.97604,6.91632 15.94702,29.40424 -6.91625,1.9761 -4.94018,-5.92828 -10.86852,-8.89242 -2.96416,-10.86851 z m 23.7131,23.7131 c 2.72691,0 4.9402,2.23298 4.9402,4.94022 0,2.727 -2.21329,4.94023 -4.9402,4.94023 -2.70735,0 -4.9402,-2.21323 -4.9402,-4.94023 0,-2.70724 2.23285,-4.94022 4.9402,-4.94022 z m 4.9402,17.78481 c 2.72691,0 4.9402,2.23299 4.9402,4.94024 0,2.72701 -2.21329,4.94022 -4.9402,4.94022 -2.70713,0 -4.9402,-2.21321 -4.9402,-4.94022 0,-2.70725 2.23307,-4.94024 4.9402,-4.94024 z m 0.33596,17.78482 c 2.70713,0 6.58028,6.18517 6.58028,8.89242 0,2.72701 -2.21307,4.94022 -4.9402,4.94022 -2.70713,0 -8.22055,-3.20127 -8.22055,-5.92829 0,-2.70723 3.85334,-7.90435 6.58047,-7.90435 z m 2.6282,31.61748 c 2.72692,0 1.97604,0.25687 1.97604,2.9641 0,2.72703 -0.23703,0.98808 -2.96416,0.98808 -2.70713,0 -1.97604,1.73895 -1.97604,-0.98808 0,-2.70723 0.25681,-2.9641 2.96416,-2.9641 z m -26.67726,-65.21104 c 2.72693,0 1.97605,0.25691 1.97605,2.96415 0,2.727 -0.23704,0.98805 -2.96416,0.98805 -2.70714,0 -1.97605,1.73895 -1.97605,-0.98805 0,-2.70724 0.25681,-2.96415 2.96416,-2.96415 z m 5.92835,24.70116 c 2.72692,0 1.97603,0.25689 1.97603,2.96414 0,2.72702 0.41491,9.88044 -2.29222,9.88044 -2.72714,0 -2.64798,-7.15342 -2.64798,-9.88044 0,-2.70725 0.2568,-2.96414 2.96417,-2.96414 z m 6.91623,27.66525 c 2.72713,0 1.97603,0.25692 1.97603,2.96415 0,2.72701 -0.23702,0.98804 -2.96394,0.98804 -2.70734,0 -1.97626,1.73897 -1.97626,-0.98804 0,-2.70723 0.25703,-2.96415 2.96417,-2.96415 z m -12.17262,26.67724 c 2.70713,0 2.29222,0.2569 2.29222,2.96414 0,2.72701 -0.57301,0.98804 -3.28036,0.98804 -2.72691,0 -1.65986,1.73897 -1.65986,-0.98804 0,-2.70724 -0.0783,-2.96414 2.648,-2.96414 z m 17.44878,6.60016 c 2.70735,0 5.27617,3.85336 5.27617,6.58038 0,2.70724 -5.84916,7.56842 -8.5763,7.56842 -2.70712,0 -1.97603,1.73896 -1.97603,-0.98803 0,-2.70727 2.54925,-13.16077 5.27616,-13.16077 z m -11.20449,28.31738 c 2.72713,0 7.25241,-0.75094 7.25241,1.9761 0,2.70722 -6.50132,7.56841 -9.22845,7.56841 -2.70713,0 -1.97603,1.73895 -1.97603,-0.98804 0,-2.70724 1.24493,-8.55647 3.95207,-8.55647 z m -16.79665,-14.16858 c 2.72691,0 1.97604,0.25688 1.97604,2.96415 0,2.72699 -0.23703,0.98803 -2.96416,0.98803 -2.70713,0 -1.97604,1.73896 -1.97604,-0.98803 0,-2.70727 0.25681,-2.96415 2.96416,-2.96415 z m -4.94019,37.88166 c 2.72692,0 5.27617,3.20128 5.27617,5.92827 0,2.70725 -4.52529,1.64017 -7.25243,1.64017 -2.70712,0 -1.97603,1.73896 -1.97603,-0.98806 0,-2.70723 1.24495,-6.58038 3.95229,-6.58038 z m -16.46088,10.53256 c 2.70713,0 1.3239,3.22104 1.3239,5.92829 0,2.72701 -9.80148,8.8924 -12.5284,8.8924 -2.70712,0 -1.97602,1.73897 -1.97602,-0.98804 0,-2.70725 10.45339,-13.83265 13.18052,-13.83265 z m 1.64006,-31.61743 c 2.72714,0 1.97604,0.25689 1.97604,2.96412 0,2.727 -0.23702,0.98806 -2.96394,0.98806 -2.70734,0 -1.97626,1.73894 -1.97626,-0.98806 0,-2.70723 0.25704,-2.96412 2.96416,-2.96412 z m -23.71308,16.79677 c 2.72714,0 11.54047,3.5372 11.54047,6.26419 0,2.70724 -11.12534,7.25228 -13.83269,7.25228 -2.72691,0 -4.62401,-4.54504 -4.62401,-7.25228 0,-2.72699 4.2091,-6.26419 6.91623,-6.26419 z m -25.68911,8.8924 c 2.72692,0 1.97604,0.2569 1.97604,2.96414 0,2.72699 -0.23704,0.98805 -2.96418,0.98805 -2.70712,0 -1.97602,1.73894 -1.97602,-0.98805 0,-2.70724 0.25681,-2.96414 2.96416,-2.96414 z m 15.80872,23.7131 c 2.72692,0 1.97603,0.25688 1.97603,2.96414 0,2.72701 -0.23703,0.98804 -2.96416,0.98804 -2.70713,0 -1.97603,1.73897 -1.97603,-0.98804 0,-2.70726 0.25682,-2.96414 2.96416,-2.96414 z m -5.92832,1.97608 c 2.72712,0 1.97602,0.25689 1.97602,2.96413 0,2.727 -0.23702,0.98805 -2.96394,0.98805 -2.70734,0 -1.97626,1.73895 -1.97626,-0.98805 0,-2.70724 0.25704,-2.96413 2.96418,-2.96413 z m -22.72496,0.67187 c 1.81794,0 3.95208,2.78629 3.95208,4.60429 0,1.81801 -0.15881,0.65212 -1.97604,0.65212 -1.79817,0 -6.58048,2.47011 -6.58048,0.67189 0,-1.81802 2.80606,-5.9283 4.60444,-5.9283 z m 5.92832,5.25641 c 1.81796,0 1.32388,0.17779 1.32388,1.97608 0,1.818 -0.15879,0.67187 -1.97602,0.67187 -1.81818,0 -1.3241,1.14613 -1.3241,-0.67187 0,-1.79824 0.17834,-1.97608 1.97624,-1.97608 z m -10.53276,-25.6892 c 1.81815,0 4.60444,6.75825 4.60444,8.57625 0,1.79826 -6.0864,1.30422 -7.90436,1.30422 -1.79838,0 -4.60444,-5.43426 -4.60444,-7.2325 0,-1.81802 6.08641,-2.64797 7.90436,-2.64797 z m -22.389,21.73702 c 2.70713,0 2.29223,0.25689 2.29223,2.96414 0,2.72701 -0.573,0.98804 -3.28035,0.98804 -2.72692,0 -1.65985,1.73897 -1.65985,-0.98804 0,-2.70725 -0.0783,-2.96414 2.64797,-2.96414 z m -5.92832,-13.83266 c 2.70735,0 -1.32388,6.50136 -1.32388,9.22836 0,2.70723 -8.81356,3.61626 -11.52068,3.61626 -2.72692,0 2.29223,-3.53721 2.29223,-6.24447 0,-2.727 7.82541,-6.60015 10.55233,-6.60015 z M 89.330946,103.88457 c 8.83311,1.10662 16.796624,1.9761 18.772664,-8.892397 1.97624,-10.868508 -2.96394,-14.820688 -17.784764,-10.868508 -14.8206,3.952181 -24.701,16.796755 -0.9879,19.760905 z m 72.127144,6.91633 c 0,0 36.99235,8.71455 2.96416,-16.796805 -15.80871,-11.856542 -16.79662,-1.976068 -17.78474,3.95221 -1.4624,8.833125 14.82058,12.844595 14.82058,12.844595 z M 48.820996,30.7692 c 16.50024,-3.30007 15.80873,-12.8446 -1.97603,-16.79678 -2.88523,-0.65211 -7.90436,18.77287 1.97603,16.79678 z m -9.88039,0 c -4.94042,-0.98806 -12.84478,0.98805 -13.83269,7.90438 -0.98813,6.91628 6.91624,10.86851 11.85643,6.91628 4.9402,-3.95218 6.91646,-13.83261 1.97626,-14.82066 z m 11.85643,21.73699 c -4.9402,-1.97607 -19.76079,0.98808 -18.77288,6.916327 0.98812,5.928279 12.84456,6.916328 17.78475,3.952181 4.94042,-2.964146 5.92833,-8.892398 0.98813,-10.868508 z m -1.97604,34.581622 c -5.92832,-4.940259 -12.84456,0 -14.82081,2.964102 -1.97603,2.964147 7.90436,6.916328 10.86853,7.904391 2.96416,0.988049 9.88061,-5.928278 3.95228,-10.868493 z M 26.095826,13.97242 c 0,0 -7.90436,0 -5.92811,2.96414 1.97604,2.96415 7.90436,2.96415 7.90436,2.96415 z m -11.85643,17.78483 c 0,0 -7.9043601,0 -5.9283301,2.96415 1.9760401,2.9641 7.9043601,2.9641 7.9043601,2.9641 z m 64.22301,94.85237 c 0,0 -9.88061,3.95218 -7.90436,6.91633 1.97604,2.96411 4.9402,7.90434 11.85644,0.98803 6.91646,-6.91631 -3.95208,-7.90436 -3.95208,-7.90436 z m 26.677264,38.53377 c -5.928344,-4.94023 -12.844784,0 -14.820824,2.96413 -1.97604,2.96413 7.90436,6.91631 10.868524,7.90437 2.96416,0.98804 9.8804,-5.92827 3.9523,-10.8685 z m -3.9523,-19.76092 c -5.928324,-4.94023 -10.868524,1.9761 -12.844564,4.94024 -1.97603,2.96412 5.92832,4.94022 8.89248,5.92827 2.963964,0.98806 9.880404,-5.92827 3.952084,-10.86851 z m 33.59348,-66.199049 c 7.05477,0.395237 18.77289,-2.964117 0.98814,-14.820659 -16.4411,-10.967322 -15.80872,-7.904392 -16.79686,-1.976098 -1.46217,8.83311 8.7542,16.401549 15.80872,16.796757 z m 60.27074,17.784821 c 0,0 6.91645,-5.928249 -6.91625,-17.784821 -14.99847,-12.864353 -12.84456,-7.904361 -13.83269,-1.976083 -1.46218,8.833125 20.74894,19.760904 20.74894,19.760904 z M 133.79295,44.60183 c 0,0 -11.85666,-1.97607 -9.8804,0.98803 1.97604,2.96415 6.91624,13.832657 13.83247,6.91633 6.91646,-6.91633 -3.95207,-7.90436 -3.95207,-7.90436 z M 67.593886,104.8726 c -2.70735,0 -4.9402,2.23299 -4.9402,4.94023 0,2.72702 2.23285,4.94025 4.9402,4.94025 2.72692,0 4.9402,-2.21323 4.9402,-4.94025 0,-2.70724 -2.21328,-4.94023 -4.9402,-4.94023 z m 9.8804,48.41423 c -2.70735,0 -4.9402,2.23299 -4.9402,4.94024 0,2.72701 2.23285,4.94022 4.9402,4.94022 2.72692,0 4.9402,-2.21321 4.9402,-4.94022 0,-2.70725 -2.21328,-4.94024 -4.9402,-4.94024 z m 7.90436,19.76092 c -2.70713,0 -4.9402,2.23299 -4.9402,4.94021 0,2.72702 2.23307,4.94025 4.9402,4.94025 2.72691,0 4.9402,-2.21323 4.9402,-4.94025 0,-2.70722 -2.21329,-4.94021 -4.9402,-4.94021 z m 31.617464,12.84457 c -2.70713,0 -4.9402,2.23301 -4.9402,4.94026 0,2.72701 2.23307,4.94022 4.9402,4.94022 2.72713,0 4.94018,-2.21321 4.94018,-4.94022 0,-2.70725 -2.21305,-4.94026 -4.94018,-4.94026 z m -16.79686,2.96415 c -2.707134,0 -7.904364,4.2091 -7.904364,6.91633 0,2.727 5.19723,2.96414 7.904364,2.96414 2.72713,0 4.94042,-2.21324 4.94042,-4.94025 0,-2.70723 -2.21329,-4.94022 -4.94042,-4.94022 z M 52.773076,111.78893 c -2.70713,0 -4.9402,2.23299 -4.9402,4.94023 0,2.72702 2.23307,4.94024 4.9402,4.94024 2.72713,0 4.94041,-2.21322 4.94041,-4.94024 0,-2.70724 -2.21328,-4.94023 -4.94041,-4.94023 z M 26.095826,65.350796 c -2.70713,0 -4.9402,2.232987 -4.9402,4.940229 0,2.727005 2.23307,4.940215 4.9402,4.940215 2.72713,0 4.94042,-2.21321 4.94042,-4.940215 0,-2.707242 -2.21329,-4.940229 -4.94042,-4.940229 z M 213.82448,81.159519 c -4.58446,1.837764 -26.67725,-12.844576 -19.76082,-14.820674 6.91625,-1.976083 24.70102,12.844576 19.76082,14.820674 z M 176.27869,55.47034 c -4.9402,0.98803 -19.7608,-4.94022 -12.84456,-6.91633 6.91645,-1.97607 18.06158,5.86901 12.84456,6.91633 z m 94.85234,60.27077 c -10.8683,-5.92828 -41.49783,-20.748937 -26.67702,-18.772868 14.8206,1.976112 36.024,23.871198 26.67702,18.772868 z M 88.342806,17.9246 c -4.9402,0.98805 -19.76101,-4.94022 -12.84456,-6.91631 6.91624,-1.9760899 18.06137,5.869 12.84456,6.91631 z M 230.62132,90.051914 c -4.9402,0.988079 -14.82081,-3.95218 -7.90436,-5.928249 6.91624,-1.976112 13.12117,4.880944 7.90436,5.928249 z M 106.12757,213.55763 c -2.70712,0 -4.9402,3.22101 -4.9402,5.92825 0,2.72701 1.24495,2.96415 3.9523,2.96415 2.72691,0 4.94018,-2.21321 4.94018,-4.94022 0,-2.70727 -1.22516,-3.95218 -3.95228,-3.95218 z m 14.82082,-0.98808 c -2.70734,0 -6.91644,1.24494 -6.91644,3.95219 0,2.72703 5.19722,1.97611 7.90434,1.97611 2.72714,0 4.9402,-2.21321 4.9402,-4.94022 0,-2.70727 -3.20118,-0.98808 -5.9281,-0.98808 z m -3.95228,28.65333 c -2.70713,0 -7.90439,4.2091 -7.90439,6.91633 0,2.72701 5.19726,2.96415 7.90439,2.96415 2.72713,0 4.94018,-2.21323 4.94018,-4.94025 0,-2.70724 -2.21305,-4.94023 -4.94018,-4.94023 z m 23.71307,40.50989 c -7.90436,-1.97611 -7.90436,1.97608 -9.88039,8.89239 -1.97604,6.91633 -15.92725,29.40425 6.91623,1.97609 4.9402,-5.92827 10.86852,-8.8924 2.96416,-10.86848 z m -23.71307,23.71307 c -2.70713,0 -4.9402,2.21324 -4.9402,4.94024 0,2.70723 2.23307,4.94022 4.9402,4.94022 2.72713,0 4.94018,-2.23299 4.94018,-4.94022 0,-2.727 -2.21305,-4.94024 -4.94018,-4.94024 z m -4.9402,17.78482 c -2.70736,0 -4.94022,2.21322 -4.94022,4.94024 0,2.70725 2.23286,4.94022 4.94022,4.94022 2.72691,0 4.9402,-2.23297 4.9402,-4.94022 0,-2.72702 -2.21329,-4.94024 -4.9402,-4.94024 z m -0.31619,17.78482 c -2.72692,0 -6.60005,6.16541 -6.60005,8.89239 0,2.70728 2.23284,4.94026 4.94018,4.94026 2.72693,0 8.24035,-3.22105 8.24035,-5.92829 0,-2.727 -3.87314,-7.90436 -6.58048,-7.90436 z m -2.648,31.61744 c -2.70711,0 -1.97603,0.23715 -1.97603,2.96415 0,2.70726 0.25682,0.98808 2.96416,0.98808 2.72693,0 1.97606,1.71918 1.97606,-0.98808 0,-2.727 -0.23703,-2.96415 -2.96419,-2.96415 z m 26.67727,-65.21098 c -2.70714,0 -1.97604,0.23714 -1.97604,2.96414 0,2.70723 0.25682,0.98804 2.96416,0.98804 2.72692,0 1.97604,1.71919 1.97604,-0.98804 0,-2.727 -0.23724,-2.96414 -2.96416,-2.96414 z m -5.92834,24.70114 c -2.70712,0 -1.97602,0.23713 -1.97602,2.96414 0,2.70725 -0.39512,9.88044 2.31201,9.88044 2.72713,0 2.62818,-7.17319 2.62818,-9.88044 0,-2.72701 -0.23703,-2.96414 -2.96417,-2.96414 z m -6.91622,27.66527 c -2.70735,0 -1.97604,0.23714 -1.97604,2.96415 0,2.70724 0.25682,0.98803 2.96416,0.98803 2.72692,0 1.97604,1.71921 1.97604,-0.98803 0,-2.72701 -0.23724,-2.96415 -2.96416,-2.96415 z m 12.19241,26.67723 c -2.70713,0 -2.31202,0.23713 -2.31202,2.96415 0,2.70722 0.59279,0.98803 3.30014,0.98803 2.72691,0 1.64006,1.71919 1.64006,-0.98803 0,-2.72702 0.0979,-2.96415 -2.62818,-2.96415 z m -17.4488,6.58039 c -2.72714,0 -5.27618,3.87313 -5.27618,6.60014 0,2.70724 5.84919,7.56844 8.55653,7.56844 2.72692,0 1.97604,1.71918 1.97604,-0.98805 0,-2.72704 -2.54927,-13.18053 -5.25639,-13.18053 z m 11.18471,28.33714 c -2.70734,0 -7.23263,-0.75092 -7.23263,1.97608 0,2.70726 6.50133,7.56844 9.20867,7.56844 2.72692,0 1.97603,1.71919 1.97603,-0.98805 0,-2.72699 -1.22515,-8.55647 -3.95207,-8.55647 z m 16.79663,-14.16856 c -2.70713,0 -1.97603,0.23714 -1.97603,2.96413 0,2.70723 0.25682,0.98805 2.96416,0.98805 2.72692,0 1.97603,1.71918 1.97603,-0.98805 0,-2.72699 -0.23703,-2.96413 -2.96416,-2.96413 z m 4.94019,37.88166 c -2.70712,0 -5.25638,3.20126 -5.25638,5.92826 0,2.70724 4.5253,1.64015 7.23264,1.64015 2.72692,0 1.97604,1.71921 1.97604,-0.98804 0,-2.727 -1.22516,-6.58037 -3.9523,-6.58037 z m 16.48068,10.53255 c -2.72713,0 -1.3241,3.20126 -1.3241,5.92828 0,2.70724 9.80144,8.89241 12.50879,8.89241 2.72691,0 1.97604,1.7192 1.97604,-0.98803 0,-2.72704 -10.4536,-13.83266 -13.16073,-13.83266 z m -1.66008,-31.61746 c -2.70712,0 -1.97604,0.23715 -1.97604,2.96415 0,2.70724 0.25704,0.98803 2.96416,0.98803 2.72692,0 1.97604,1.71921 1.97604,-0.98803 0,-2.727 -0.23702,-2.96415 -2.96416,-2.96415 z m 23.7131,16.79678 c -2.70716,0 -11.52047,3.53721 -11.52047,6.26421 0,2.70724 11.12533,7.2325 13.83268,7.2325 2.72692,0 4.60423,-4.52526 4.60423,-7.2325 0,-2.727 -4.18933,-6.26421 -6.91644,-6.26421 z m 25.68933,8.89242 c -2.70735,0 -1.97604,0.23713 -1.97604,2.96412 0,2.70725 0.25681,0.98806 2.96395,0.98806 2.72713,0 1.97625,1.71919 1.97625,-0.98806 0,-2.72699 -0.23725,-2.96412 -2.96416,-2.96412 z m -15.80872,23.7131 c -2.70735,0 -1.97625,0.23711 -1.97625,2.96412 0,2.70725 0.25701,0.98806 2.96416,0.98806 2.72714,0 1.97625,1.71919 1.97625,-0.98806 0,-2.72701 -0.23725,-2.96412 -2.96416,-2.96412 z m 5.92811,1.97607 c -2.70714,0 -1.97604,0.23714 -1.97604,2.96414 0,2.70723 0.25704,0.98804 2.96416,0.98804 2.72714,0 1.97604,1.71919 1.97604,-0.98804 0,-2.727 -0.23704,-2.96414 -2.96416,-2.96414 z m 22.72517,0.65211 c -1.79817,0 -3.95228,2.80607 -3.95228,4.62407 0,1.79824 0.17834,0.65211 1.97624,0.65211 1.81793,0 6.60005,2.4701 6.60005,0.65211 0,-1.79825 -2.80608,-5.92829 -4.62401,-5.92829 z m -5.92832,5.27618 c -1.79817,0 -1.30411,0.15807 -1.30411,1.97607 0,1.81802 0.1588,0.65211 1.97604,0.65211 1.79817,0 1.30411,1.16591 1.30411,-0.65211 0,-1.81799 -0.15881,-1.97607 -1.97604,-1.97607 z m 10.55233,-25.6892 c -1.81796,0 -4.62401,6.75825 -4.62401,8.55648 0,1.81801 6.10619,1.32398 7.90436,1.32398 1.81793,0 4.62401,-5.43424 4.62401,-7.25225 0,-1.79825 -6.10621,-2.62821 -7.90436,-2.62821 z m 22.38922,21.73702 c -2.70735,0 -2.31202,0.23711 -2.31202,2.96412 0,2.70725 0.59278,0.98806 3.29992,0.98806 2.72714,0 1.64028,1.71919 1.64028,-0.98806 0,-2.72701 0.0979,-2.96412 -2.62818,-2.96412 z m 5.9281,-13.83265 c -2.70713,0 1.32409,6.50134 1.32409,9.22836 0,2.70722 8.81334,3.61623 11.52069,3.61623 2.72692,0 -2.31224,-3.53719 -2.31224,-6.2642 0,-2.70725 -7.8054,-6.58039 -10.53254,-6.58039 z M 403.07466,202.49149 c -2.70712,0 -2.312,0.25691 -2.312,2.96415 0,2.727 0.59278,0.98805 3.30012,0.98805 2.72692,0 1.64006,1.73895 1.64006,-0.98805 0,-2.70724 0.0979,-2.96415 -2.62818,-2.96415 z m -10.86852,0 c -2.70713,0 -2.31201,0.25691 -2.31201,2.96415 0,2.727 0.59278,0.98805 3.30013,0.98805 2.72692,0 1.64006,1.73895 1.64006,-0.98805 0,-2.70724 0.0979,-2.96415 -2.62818,-2.96415 z m 10.86852,17.78484 c -2.70712,0 -2.312,0.2569 -2.312,2.96414 0,2.72699 0.59278,0.98804 3.30012,0.98804 2.72692,0 1.64006,1.73895 1.64006,-0.98804 0,-2.70724 0.0979,-2.96414 -2.62818,-2.96414 z m -12.05412,-0.19767 c -2.70712,0 -2.31199,0.25686 -2.31199,2.96412 0,2.72701 0.59279,0.98807 3.30013,0.98807 2.72692,0 1.64007,1.73894 1.64007,-0.98807 0,-2.70726 0.0979,-2.96412 -2.62821,-2.96412 z m 16.00642,20.94656 c -2.70735,0 -1.97604,2.23299 -1.97604,4.94022 0,2.72701 0.82981,8.89242 3.55694,8.89242 2.70713,0 1.04728,-8.1415 1.04728,-10.86849 0,-2.70727 0.0978,-2.96415 -2.62818,-2.96415 z m -17.78476,0 c -2.70735,0 -2.76672,2.43059 -2.76672,5.13783 0,2.72702 -1.91667,9.09003 0.79046,9.09003 2.72713,0 3.55694,-7.54867 3.55694,-10.27568 0,-2.70723 1.14623,-3.95218 -1.58068,-3.95218 z"
     style="fill:#fff6e3;stroke:none"
     inkscape:connector-curvature="0" />
</svg>
